<svg width="69" height="373" viewBox="0 0 69 373" version="1.1" xmlns="http://www.w3.org/2000/svg" xmlns:xlink="http://www.w3.org/1999/xlink">
<title>Group 26</title>
<desc>Created using Figma</desc>
<g id="Canvas" transform="translate(-3876 -372)">
<g id="Group 26">
<g id="Rectangle" opacity="0.5">
<use xlink:href="#path0_fill" transform="translate(3876 372)" fill="url(#paint0_linear)"/>
<use xlink:href="#path0_fill" transform="translate(3876 372)" fill="url(#paint1_linear)"/>
</g>
<g id="Rectangle" opacity="0.5">
<use xlink:href="#path0_fill" transform="matrix(-1 0 0 -1 3944.54 744.05)" fill="url(#paint2_linear)"/>
<use xlink:href="#path0_fill" transform="matrix(-1 0 0 -1 3944.54 744.05)" fill="url(#paint3_linear)"/>
</g>
<g id="Line" filter="url(#filter0_f)">
<use xlink:href="#path1_stroke" transform="matrix(6.12323e-17 1 -1 6.12323e-17 3909.58 395.304)" fill="#495CF2" fill-opacity="0.2"/>
</g>
<g id="Line">
<use xlink:href="#path2_stroke" transform="matrix(6.12323e-17 1 -1 6.12323e-17 3909.58 372)" fill="#F28436"/>
</g>
<g id="Group">
<g id="Rectangle 4">
<use xlink:href="#path3_fill" transform="translate(3901.03 535.796)" fill="#FF842B"/>
<use xlink:href="#path3_fill" transform="translate(3901.03 535.796)" fill="url(#paint7_linear)" fill-opacity="0.2"/>
<use xlink:href="#path3_fill" transform="translate(3901.03 535.796)" fill="url(#paint8_linear)"/>
</g>
<g id="Line 2" filter="url(#filter1_d)">
<use xlink:href="#path4_stroke" transform="matrix(6.12323e-17 1 -1 6.12323e-17 3905.66 551.398)" fill="#FFFFFF"/>
</g>
<g id="Line 2.1" filter="url(#filter2_d)">
<use xlink:href="#path4_stroke" transform="matrix(6.12323e-17 1 -1 6.12323e-17 3910.96 551.398)" fill="#FFFFFF"/>
</g>
<g id="Line 2.2" filter="url(#filter3_d)">
<use xlink:href="#path4_stroke" transform="matrix(6.12323e-17 1 -1 6.12323e-17 3915.81 551.398)" fill="#FFFFFF"/>
</g>
</g>
</g>
</g>
<defs>
<filter id="filter0_f" filterUnits="userSpaceOnUse" x="3903" y="389" width="16" height="338" color-interpolation-filters="sRGB">
<feFlood flood-opacity="0" result="BackgroundImageFix"/>
<feBlend mode="normal" in="SourceGraphic" in2="BackgroundImageFix" result="shape"/>
<feGaussianBlur stdDeviation="3" result="effect1_foregroundBlur"/>
</filter>
<filter id="filter1_d" filterUnits="userSpaceOnUse" x="3903" y="551" width="10" height="22" color-interpolation-filters="sRGB">
<feFlood flood-opacity="0" result="BackgroundImageFix"/>
<feColorMatrix in="SourceAlpha" type="matrix" values="0 0 0 0 0 0 0 0 0 0 0 0 0 0 0 0 0 0 255 0"/>
<feOffset dx="2" dy="4"/>
<feGaussianBlur stdDeviation="2"/>
<feColorMatrix type="matrix" values="0 0 0 0 0 0 0 0 0 0 0 0 0 0 0 0 0 0 0.25 0"/>
<feBlend mode="normal" in2="BackgroundImageFix" result="effect1_dropShadow"/>
<feBlend mode="normal" in="SourceGraphic" in2="effect1_dropShadow" result="shape"/>
</filter>
<filter id="filter2_d" filterUnits="userSpaceOnUse" x="3908" y="551" width="10" height="22" color-interpolation-filters="sRGB">
<feFlood flood-opacity="0" result="BackgroundImageFix"/>
<feColorMatrix in="SourceAlpha" type="matrix" values="0 0 0 0 0 0 0 0 0 0 0 0 0 0 0 0 0 0 255 0"/>
<feOffset dx="2" dy="4"/>
<feGaussianBlur stdDeviation="2"/>
<feColorMatrix type="matrix" values="0 0 0 0 0 0 0 0 0 0 0 0 0 0 0 0 0 0 0.25 0"/>
<feBlend mode="normal" in2="BackgroundImageFix" result="effect1_dropShadow"/>
<feBlend mode="normal" in="SourceGraphic" in2="effect1_dropShadow" result="shape"/>
</filter>
<filter id="filter3_d" filterUnits="userSpaceOnUse" x="3913" y="551" width="10" height="22" color-interpolation-filters="sRGB">
<feFlood flood-opacity="0" result="BackgroundImageFix"/>
<feColorMatrix in="SourceAlpha" type="matrix" values="0 0 0 0 0 0 0 0 0 0 0 0 0 0 0 0 0 0 255 0"/>
<feOffset dx="2" dy="4"/>
<feGaussianBlur stdDeviation="2"/>
<feColorMatrix type="matrix" values="0 0 0 0 0 0 0 0 0 0 0 0 0 0 0 0 0 0 0.25 0"/>
<feBlend mode="normal" in2="BackgroundImageFix" result="effect1_dropShadow"/>
<feBlend mode="normal" in="SourceGraphic" in2="effect1_dropShadow" result="shape"/>
</filter>
<linearGradient id="paint0_linear" x1="0" y1="0" x2="1" y2="0" gradientUnits="userSpaceOnUse" gradientTransform="matrix(-43.1449 7.2962e-06 -6.33207e-07 -3.89392 43.1449 187.972)">
<stop offset="0" stop-color="#FF8F40" stop-opacity="0.51"/>
<stop offset="1" stop-color="#FFFFFF" stop-opacity="0"/>
</linearGradient>
<linearGradient id="paint1_linear" x1="0" y1="0" x2="1" y2="0" gradientUnits="userSpaceOnUse" gradientTransform="matrix(2.05608e-15 372.05 -33.5784 2.27815e-14 33.5784 -2.27815e-14)">
<stop offset="0" stop-color="#FFFFFF"/>
<stop offset="0.509575" stop-color="#FFFFFF" stop-opacity="0"/>
<stop offset="1" stop-color="#FFFFFF"/>
</linearGradient>
<linearGradient id="paint2_linear" x1="0" y1="0" x2="1" y2="0" gradientUnits="userSpaceOnUse" gradientTransform="matrix(-43.1449 7.2962e-06 -6.33207e-07 -3.89392 43.1449 187.972)">
<stop offset="0" stop-color="#FF8F40" stop-opacity="0.51"/>
<stop offset="1" stop-color="#FFFFFF" stop-opacity="0"/>
</linearGradient>
<linearGradient id="paint3_linear" x1="0" y1="0" x2="1" y2="0" gradientUnits="userSpaceOnUse" gradientTransform="matrix(2.05608e-15 372.05 -33.5784 2.27815e-14 33.5784 -2.27815e-14)">
<stop offset="0" stop-color="#FFFFFF"/>
<stop offset="0.509575" stop-color="#FFFFFF" stop-opacity="0"/>
<stop offset="1" stop-color="#FFFFFF"/>
</linearGradient>
<linearGradient id="paint7_linear" x1="0" y1="0" x2="1" y2="0" gradientUnits="userSpaceOnUse" gradientTransform="matrix(1.22465e-15 44 -20 2.69422e-15 20 -2.69422e-15)">
<stop offset="0" stop-color="#FFFFFF" stop-opacity="0.57"/>
<stop offset="1" stop-color="#FFFFFF" stop-opacity="0"/>
</linearGradient>
<linearGradient id="paint8_linear" x1="0" y1="0" x2="1" y2="0" gradientUnits="userSpaceOnUse" gradientTransform="matrix(1.22465e-15 44 -20 2.69422e-15 20 -2.69422e-15)">
<stop offset="0" stop-color="#FFFFFF"/>
<stop offset="0.0001" stop-color="#FFFFFF" stop-opacity="0"/>
<stop offset="1" stop-color="#000000" stop-opacity="0.04"/>
</linearGradient>
<path id="path0_fill" d="M 0 0L 33.5784 0L 33.5784 372.05L 0 372.05L 0 0Z"/>
<path id="path1_stroke" d="M 1.5 -3C 0.671573 -3 0 -2.32843 0 -1.5C 0 -0.671573 0.671573 0 1.5 0L 1.5 -3ZM 323.483 0C 324.312 0 324.983 -0.671573 324.983 -1.5C 324.983 -2.32843 324.312 -3 323.483 -3L 323.483 0ZM 1.5 0L 323.483 0L 323.483 -3L 1.5 -3L 1.5 0Z"/>
<path id="path2_stroke" d="M 1.5 -3C 0.671573 -3 0 -2.32843 0 -1.5C 0 -0.671573 0.671573 0 1.5 0L 1.5 -3ZM 370.092 0C 370.921 0 371.592 -0.671573 371.592 -1.5C 371.592 -2.32843 370.921 -3 370.092 -3L 370.092 0ZM 1.5 -2.22045e-16L 370.092 -2.22045e-16L 370.092 -3L 1.5 -3L 1.5 -2.22045e-16Z"/>
<path id="path3_fill" d="M 0 2C 0 0.895431 0.895431 0 2 0L 18 0C 19.1046 0 20 0.895431 20 2L 20 42C 20 43.1046 19.1046 44 18 44L 2 44C 0.895431 44 0 43.1046 0 42L 0 2Z"/>
<path id="path4_stroke" d="M 0.5 -1C 0.223858 -1 0 -0.776142 0 -0.5C 0 -0.223858 0.223858 0 0.5 0L 0.5 -1ZM 12.2974 0C 12.5735 0 12.7974 -0.223858 12.7974 -0.5C 12.7974 -0.776142 12.5735 -1 12.2974 -1L 12.2974 0ZM 0.5 0L 12.2974 0L 12.2974 -1L 0.5 -1L 0.5 0Z"/>
</defs>
</svg>
