<svg width="153" height="133" viewBox="0 0 153 133" version="1.1" xmlns="http://www.w3.org/2000/svg" xmlns:xlink="http://www.w3.org/1999/xlink">
<title>Group 2</title>
<desc>Created using Figma</desc>
<g id="Canvas" transform="translate(-4014 -437)">
<g id="Group 2">
<g id="Group" opacity="0.2">
<g id="Group">
<g id="Vector">
<use xlink:href="#path0_fill" transform="translate(4015.52 438.544)" fill="#FFFFFF"/>
<use xlink:href="#path1_stroke" transform="translate(4015.52 438.544)" fill="#CCCCCC"/>
</g>
<g id="Group">
<mask id="mask0_alpha" mask-type="alpha">
<g id="Vector">
<use xlink:href="#path2_fill" transform="translate(4035.52 459.333)" fill="#FFFFFF"/>
</g>
</mask>
<g id="Vector" mask="url(#mask0_alpha)">
<use xlink:href="#path2_fill" transform="translate(4035.52 459.333)" fill="#FFFFFF"/>
<mask id="mask1_outline_ins">
<use xlink:href="#path2_fill" fill="white" transform="translate(4035.52 459.333)"/>
</mask>
<g mask="url(#mask1_outline_ins)">
<use xlink:href="#path3_stroke_2x" transform="translate(4035.52 459.333)" fill="#CCCCCC"/>
</g>
</g>
<g id="Vector" mask="url(#mask0_alpha)">
<use xlink:href="#path4_stroke" transform="translate(4038.92 465.759)" fill="#CCCCCC"/>
</g>
</g>
<g id="Vector">
<use xlink:href="#path5_stroke" transform="translate(4023.52 495.347)" fill="#CCCCCC"/>
</g>
<g id="Vector">
<use xlink:href="#path6_stroke" transform="translate(4024.44 515.307)" fill="#CCCCCC"/>
</g>
<g id="Vector">
<use xlink:href="#path7_stroke" transform="translate(4024.23 531.019)" fill="#CCCCCC"/>
</g>
<g id="Vector">
<use xlink:href="#path8_stroke" transform="translate(4023.52 539.843)" fill="#CCCCCC"/>
</g>
</g>
</g>
<g id="Group" opacity="0.5">
<g id="Group">
<g id="Vector">
<use xlink:href="#path0_fill" transform="translate(4063.28 438.544)" fill="#FFFFFF"/>
<use xlink:href="#path1_stroke" transform="translate(4063.28 438.544)" fill="#CCCCCC"/>
</g>
<g id="Group">
<mask id="mask2_alpha" mask-type="alpha">
<g id="Vector">
<use xlink:href="#path2_fill" transform="translate(4083.28 459.333)" fill="#FFFFFF"/>
</g>
</mask>
<g id="Vector" mask="url(#mask2_alpha)">
<use xlink:href="#path2_fill" transform="translate(4083.28 459.333)" fill="#FFFFFF"/>
<mask id="mask3_outline_ins">
<use xlink:href="#path2_fill" fill="white" transform="translate(4083.28 459.333)"/>
</mask>
<g mask="url(#mask3_outline_ins)">
<use xlink:href="#path3_stroke_2x" transform="translate(4083.28 459.333)" fill="#CCCCCC"/>
</g>
</g>
<g id="Vector" mask="url(#mask2_alpha)">
<use xlink:href="#path4_stroke" transform="translate(4086.68 465.759)" fill="#CCCCCC"/>
</g>
</g>
<g id="Vector">
<use xlink:href="#path5_stroke" transform="translate(4071.28 495.347)" fill="#CCCCCC"/>
</g>
<g id="Vector">
<use xlink:href="#path6_stroke" transform="translate(4072.2 515.307)" fill="#CCCCCC"/>
</g>
<g id="Vector">
<use xlink:href="#path7_stroke" transform="translate(4072 531.019)" fill="#CCCCCC"/>
</g>
<g id="Vector">
<use xlink:href="#path8_stroke" transform="translate(4071.28 539.843)" fill="#CCCCCC"/>
</g>
</g>
</g>
<g id="Group">
<g id="Group">
<g id="Vector">
<use xlink:href="#path0_fill" transform="translate(4102.88 438.544)" fill="#FFFFFF"/>
<use xlink:href="#path1_stroke" transform="translate(4102.88 438.544)" fill="#CCCCCC"/>
</g>
<g id="Group">
<mask id="mask4_alpha" mask-type="alpha">
<g id="Vector">
<use xlink:href="#path2_fill" transform="translate(4122.88 459.333)" fill="#FFFFFF"/>
</g>
</mask>
<g id="Vector" mask="url(#mask4_alpha)">
<use xlink:href="#path2_fill" transform="translate(4122.88 459.333)" fill="#FFFFFF"/>
<mask id="mask5_outline_ins">
<use xlink:href="#path2_fill" fill="white" transform="translate(4122.88 459.333)"/>
</mask>
<g mask="url(#mask5_outline_ins)">
<use xlink:href="#path3_stroke_2x" transform="translate(4122.88 459.333)" fill="#CCCCCC"/>
</g>
</g>
<g id="Vector" mask="url(#mask4_alpha)">
<use xlink:href="#path4_stroke" transform="translate(4126.28 465.759)" fill="#CCCCCC"/>
</g>
</g>
<g id="Vector">
<use xlink:href="#path5_stroke" transform="translate(4110.88 495.347)" fill="#CCCCCC"/>
</g>
<g id="Vector">
<use xlink:href="#path6_stroke" transform="translate(4111.8 515.307)" fill="#CCCCCC"/>
</g>
<g id="Vector">
<use xlink:href="#path7_stroke" transform="translate(4111.6 531.019)" fill="#CCCCCC"/>
</g>
<g id="Vector">
<use xlink:href="#path8_stroke" transform="translate(4110.88 539.843)" fill="#CCCCCC"/>
</g>
</g>
</g>
</g>
</g>
<defs>
<path id="path0_fill" d="M 61.6 111.689L 2.6 129.489C 1.3 129.889 0 128.889 0 127.589L 0 19.7892C 0 18.8892 0.6 18.0892 1.4 17.8892L 60.4 0.0892262C 61.7 -0.310774 63 0.689226 63 1.98923L 63 109.789C 63 110.689 62.4 111.489 61.6 111.689Z"/>
<path id="path1_stroke" d="M 61.6 111.689L 61.3575 110.719L 61.3342 110.725L 61.3112 110.732L 61.6 111.689ZM 2.6 129.489L 2.31116 128.532L 2.30591 128.533L 2.6 129.489ZM 1.4 17.8892L 1.64254 18.8594L 1.66584 18.8535L 1.68884 18.8466L 1.4 17.8892ZM 60.4 0.0892262L 60.6888 1.04662L 60.6941 1.04501L 60.4 0.0892262ZM 61.3112 110.732L 2.31116 128.532L 2.88884 130.447L 61.8888 112.647L 61.3112 110.732ZM 2.30591 128.533C 1.6559 128.733 1 128.224 1 127.589L -1 127.589C -1 129.555 0.944102 131.045 2.89409 130.445L 2.30591 128.533ZM 1 127.589L 1 19.7892L -1 19.7892L -1 127.589L 1 127.589ZM 1 19.7892C 1 19.3045 1.32864 18.9378 1.64254 18.8594L 1.15746 16.9191C -0.12864 17.2406 -1 18.4739 -1 19.7892L 1 19.7892ZM 1.68884 18.8466L 60.6888 1.0466L 60.1112 -0.868152L 1.11116 16.9318L 1.68884 18.8466ZM 60.6941 1.04501C 61.3441 0.845002 62 1.35476 62 1.98923L 64 1.98923C 64 0.023696 62.0559 -1.46655 60.1059 -0.866553L 60.6941 1.04501ZM 62 1.98923L 62 109.789L 64 109.789L 64 1.98923L 62 1.98923ZM 62 109.789C 62 110.274 61.6714 110.641 61.3575 110.719L 61.8425 112.659C 63.1286 112.338 64 111.105 64 109.789L 62 109.789Z"/>
<path id="path2_fill" d="M 8 24.1C 3.2 24.1 0 20.7 0 15.7C 0 9.3 5.2 2.5 11.6 0.499999C 12.7 0.199999 13.9 -7.62939e-07 14.9 -7.62939e-07C 19.7 -7.62939e-07 22.9 3.4 22.9 8.4C 22.9 14.8 17.7 21.6 11.3 23.6C 10.2 23.9 9.1 24.1 8 24.1Z"/>
<path id="path3_stroke_2x" d="M 11.6 0.499999L 11.0738 -1.42953L 11.0384 -1.41989L 11.0034 -1.40896L 11.6 0.499999ZM 11.3 23.6L 11.8262 25.5295L 11.8616 25.5199L 11.8965 25.509L 11.3 23.6ZM 8 22.1C 6.09166 22.1 4.63555 21.4358 3.65061 20.3981C 2.65664 19.3509 2 17.7706 2 15.7L -2 15.7C -2 18.6294 -1.05664 21.2491 0.749387 23.1519C 2.56445 25.0642 5.10834 26.1 8 26.1L 8 22.1ZM 2 15.7C 2 13.0251 3.09806 10.1408 4.98953 7.66383C 6.87812 5.19068 9.44964 3.26737 12.1965 2.40896L 11.0034 -1.40896C 7.35036 -0.267369 4.12188 2.20932 1.81046 5.23617C -0.498062 8.25924 -2 11.9749 -2 15.7L 2 15.7ZM 12.1262 2.42953C 13.1141 2.16011 14.1303 2 14.9 2L 14.9 -2C 13.6697 -2 12.2859 -1.76011 11.0738 -1.42953L 12.1262 2.42953ZM 14.9 2C 16.8083 2 18.2645 2.66416 19.2494 3.70185C 20.2434 4.74907 20.9 6.32935 20.9 8.4L 24.9 8.4C 24.9 5.47065 23.9566 2.85093 22.1506 0.948147C 20.3355 -0.964156 17.7917 -2 14.9 -2L 14.9 2ZM 20.9 8.4C 20.9 11.0749 19.8019 13.9592 17.9105 16.4362C 16.0219 18.9093 13.4504 20.8326 10.7034 21.691L 11.8965 25.509C 15.5496 24.3674 18.7781 21.8907 21.0895 18.8638C 23.3981 15.8408 24.9 12.1251 24.9 8.4L 20.9 8.4ZM 10.7738 21.6705C 9.77542 21.9427 8.86204 22.1 8 22.1L 8 26.1C 9.33796 26.1 10.6246 25.8573 11.8262 25.5295L 10.7738 21.6705Z"/>
<path id="path4_stroke" d="M 10.3 11.9744L 9.31005 12.1159L 9.3283 12.2436L 9.37837 12.3625L 10.3 11.9744ZM 10.3 10.1744L 9.59289 9.46733L 9.3 9.76022L 9.3 10.1744L 10.3 10.1744ZM 11.3 7.67443L 10.9838 6.72575L 10.3694 6.93054L 10.305 7.57493L 11.3 7.67443ZM 12.1 6.17443L 11.1194 5.97832L 11.1098 6.02627L 11.105 6.07493L 12.1 6.17443ZM 11.8 5.37443L 10.8385 5.09971L 10.4743 6.37443L 11.8 6.37443L 11.8 5.37443ZM 10.2 0.374434L 9.4 0.974434L 9.76705 1.46383L 10.3699 1.35989L 10.2 0.374434ZM 8.2 0.174433L 7.91265 -0.783393L 7.89814 -0.779041L 7.88377 -0.77425L 8.2 0.174433ZM 4.7 7.47443L 5.14721 8.36886L 5.89951 7.99271L 5.65783 7.18709L 4.7 7.47443ZM 4.4 8.47443L 5.39388 8.364L 5.38909 8.32087L 5.38058 8.27832L 4.4 8.47443ZM 5.2 9.47443L 6.19388 9.364L 6.05728 8.13458L 4.88377 8.52575L 5.2 9.47443ZM 6.2 11.3744L 7.2 11.3744L 7.2 10.6537L 6.51623 10.4257L 6.2 11.3744ZM 6.2 13.2744L 7.1445 13.603L 7.2 13.4434L 7.2 13.2744L 6.2 13.2744ZM -3.8147e-07 20.6744L -0.998813 20.6257L -1.06798 22.0437L 0.290481 21.6313L -3.8147e-07 20.6744ZM 16.8 15.5744L 17.0905 16.5313L 17.8994 16.2858L 17.7919 15.4473L 16.8 15.5744ZM 11.29 11.833C 11.2519 11.5668 11.2505 11.334 11.2616 11.0804C 11.2713 10.8563 11.3 10.4994 11.3 10.1744L 9.3 10.1744C 9.3 10.4495 9.2787 10.6426 9.26344 10.9935C 9.24947 11.3149 9.24809 11.6821 9.31005 12.1159L 11.29 11.833ZM 11.0071 10.8815C 11.2986 10.5901 11.5844 10.066 11.7929 9.58385C 12.0167 9.06631 12.2312 8.41196 12.295 7.77394L 10.305 7.57493C 10.2688 7.93691 10.1333 8.38256 9.95714 8.79002C 9.87143 8.98825 9.78332 9.16056 9.70641 9.29154C 9.61954 9.43949 9.57695 9.48327 9.59289 9.46733L 11.0071 10.8815ZM 11.6162 8.62312C 12.4427 8.34763 12.9748 7.47583 13.095 6.27394L 11.105 6.07493C 11.0252 6.87304 10.7573 6.80124 10.9838 6.72575L 11.6162 8.62312ZM 13.0806 6.37055C 13.1784 5.8816 13.0858 5.44347 12.9029 5.10808C 12.8147 4.94634 12.7005 4.79935 12.5657 4.68013C 12.4989 4.621 12.4131 4.55648 12.3086 4.50189C 12.2198 4.45552 12.0387 4.37443 11.8 4.37443L 11.8 6.37443C 11.5863 6.37443 11.4364 6.30272 11.3828 6.27471C 11.3134 6.23847 11.2668 6.2013 11.2405 6.17811C 11.187 6.13076 11.1603 6.09003 11.1471 6.06578C 11.1142 6.0054 11.1216 5.96727 11.1194 5.97832L 13.0806 6.37055ZM 12.7615 5.64915C 12.9661 4.93311 13.3366 3.41198 13.2346 2.08524C 13.1841 1.42883 13.0063 0.643316 12.4568 0.0613462C 11.8489 -0.58245 10.9876 -0.77611 10.0301 -0.611026L 10.3699 1.35989C 10.8624 1.27498 10.9761 1.40632 11.0026 1.4344C 11.0875 1.5243 11.2034 1.75754 11.2404 2.23863C 11.3134 3.18689 11.0339 4.41575 10.8385 5.09971L 12.7615 5.64915ZM 11 -0.225566C 10.6354 -0.711674 10.0916 -0.924326 9.57293 -0.98195C 9.05865 -1.03909 8.49215 -0.957243 7.91265 -0.783393L 8.48735 1.13226C 8.90785 1.00611 9.19135 0.987959 9.35207 1.00582C 9.50845 1.02319 9.46458 1.06054 9.4 0.974434L 11 -0.225566ZM 7.88377 -0.77425C 5.70957 -0.0495157 4.34598 1.20742 3.71782 2.82492C 3.10704 4.39769 3.25719 6.14516 3.74217 7.76178L 5.65783 7.18709C 5.24281 5.80371 5.19296 4.55118 5.58217 3.54894C 5.95402 2.59145 6.79043 1.69838 8.51623 1.12312L 7.88377 -0.77425ZM 4.25279 6.58001C 3.83671 6.78805 3.60641 7.17828 3.49576 7.4881C 3.3716 7.83574 3.33428 8.24487 3.41942 8.67055L 5.38058 8.27832C 5.37323 8.24156 5.37258 8.21274 5.37402 8.19256C 5.37475 8.18238 5.376 8.17448 5.37716 8.16893C 5.37833 8.16333 5.3793 8.16062 5.37924 8.16077C 5.37922 8.16083 5.37781 8.16482 5.37382 8.17233C 5.36992 8.17966 5.36243 8.19247 5.34964 8.20923C 5.32935 8.23582 5.26827 8.30833 5.14721 8.36886L 4.25279 6.58001ZM 3.40612 8.58487C 3.46824 9.144 3.64044 9.67909 4.01789 10.0565C 4.44127 10.4799 5.0144 10.5904 5.51623 10.4231L 4.88377 8.52575C 4.96822 8.4976 5.0744 8.48647 5.18736 8.51254C 5.30322 8.53928 5.38551 8.59573 5.43211 8.64233C 5.47464 8.68486 5.47366 8.70454 5.45624 8.66003C 5.43885 8.61558 5.41157 8.52319 5.39388 8.364L 3.40612 8.58487ZM 4.20612 9.58487C 4.27466 10.2017 4.50641 10.7825 4.75676 11.2206C 4.88359 11.4425 5.02878 11.6518 5.18384 11.8263C 5.30686 11.9647 5.54689 12.2108 5.88377 12.3231L 6.51623 10.4257C 6.6308 10.4639 6.69246 10.5144 6.69639 10.5175C 6.70775 10.5265 6.70112 10.5228 6.67866 10.4976C 6.63372 10.447 6.56641 10.3563 6.49324 10.2283C 6.34359 9.9664 6.22534 9.64714 6.19388 9.364L 4.20612 9.58487ZM 5.2 11.3744C 5.2 11.3758 5.2 11.3772 5.2 11.3785C 5.2 11.3799 5.2 11.3813 5.2 11.3826C 5.2 11.384 5.2 11.3853 5.2 11.3867C 5.2 11.3881 5.2 11.3894 5.2 11.3908C 5.2 11.3921 5.2 11.3935 5.2 11.3949C 5.2 11.3962 5.2 11.3976 5.2 11.3989C 5.2 11.4003 5.2 11.4016 5.2 11.403C 5.2 11.4043 5.2 11.4057 5.2 11.407C 5.2 11.4084 5.2 11.4097 5.2 11.4111C 5.2 11.4124 5.2 11.4138 5.2 11.4151C 5.2 11.4165 5.2 11.4178 5.2 11.4191C 5.2 11.4205 5.2 11.4218 5.2 11.4232C 5.2 11.4245 5.2 11.4258 5.2 11.4272C 5.2 11.4285 5.2 11.4299 5.2 11.4312C 5.2 11.4325 5.2 11.4339 5.2 11.4352C 5.2 11.4365 5.2 11.4379 5.2 11.4392C 5.2 11.4405 5.2 11.4419 5.2 11.4432C 5.2 11.4445 5.2 11.4459 5.2 11.4472C 5.2 11.4485 5.2 11.4498 5.2 11.4512C 5.2 11.4525 5.2 11.4538 5.2 11.4551C 5.2 11.4565 5.2 11.4578 5.2 11.4591C 5.2 11.4604 5.2 11.4617 5.2 11.4631C 5.2 11.4644 5.2 11.4657 5.2 11.467C 5.2 11.4683 5.2 11.4696 5.2 11.471C 5.2 11.4723 5.2 11.4736 5.2 11.4749C 5.2 11.4762 5.2 11.4775 5.2 11.4788C 5.2 11.4802 5.2 11.4815 5.2 11.4828C 5.2 11.4841 5.2 11.4854 5.2 11.4867C 5.2 11.488 5.2 11.4893 5.2 11.4906C 5.2 11.4919 5.2 11.4932 5.2 11.4945C 5.2 11.4958 5.2 11.4971 5.2 11.4984C 5.2 11.4997 5.2 11.501 5.2 11.5023C 5.2 11.5036 5.2 11.5049 5.2 11.5062C 5.2 11.5075 5.2 11.5088 5.2 11.5101C 5.2 11.5114 5.2 11.5127 5.2 11.514C 5.2 11.5153 5.2 11.5166 5.2 11.5179C 5.2 11.5192 5.2 11.5205 5.2 11.5218C 5.2 11.523 5.2 11.5243 5.2 11.5256C 5.2 11.5269 5.2 11.5282 5.2 11.5295C 5.2 11.5308 5.2 11.5321 5.2 11.5333C 5.2 11.5346 5.2 11.5359 5.2 11.5372C 5.2 11.5385 5.2 11.5397 5.2 11.541C 5.2 11.5423 5.2 11.5436 5.2 11.5449C 5.2 11.5461 5.2 11.5474 5.2 11.5487C 5.2 11.55 5.2 11.5513 5.2 11.5525C 5.2 11.5538 5.2 11.5551 5.2 11.5563C 5.2 11.5576 5.2 11.5589 5.2 11.5602C 5.2 11.5614 5.2 11.5627 5.2 11.564C 5.2 11.5652 5.2 11.5665 5.2 11.5678C 5.2 11.569 5.2 11.5703 5.2 11.5716C 5.2 11.5728 5.2 11.5741 5.2 11.5754C 5.2 11.5766 5.2 11.5779 5.2 11.5792C 5.2 11.5804 5.2 11.5817 5.2 11.5829C 5.2 11.5842 5.2 11.5855 5.2 11.5867C 5.2 11.588 5.2 11.5892 5.2 11.5905C 5.2 11.5918 5.2 11.593 5.2 11.5943C 5.2 11.5955 5.2 11.5968 5.2 11.598C 5.2 11.5993 5.2 11.6005 5.2 11.6018C 5.2 11.603 5.2 11.6043 5.2 11.6055C 5.2 11.6068 5.2 11.608 5.2 11.6093C 5.2 11.6105 5.2 11.6118 5.2 11.613C 5.2 11.6143 5.2 11.6155 5.2 11.6168C 5.2 11.618 5.2 11.6193 5.2 11.6205C 5.2 11.6218 5.2 11.623 5.2 11.6242C 5.2 11.6255 5.2 11.6267 5.2 11.628C 5.2 11.6292 5.2 11.6304 5.2 11.6317C 5.2 11.6329 5.2 11.6342 5.2 11.6354C 5.2 11.6366 5.2 11.6379 5.2 11.6391C 5.2 11.6403 5.2 11.6416 5.2 11.6428C 5.2 11.644 5.2 11.6453 5.2 11.6465C 5.2 11.6477 5.2 11.649 5.2 11.6502C 5.2 11.6514 5.2 11.6527 5.2 11.6539C 5.2 11.6551 5.2 11.6564 5.2 11.6576C 5.2 11.6588 5.2 11.66 5.2 11.6613C 5.2 11.6625 5.2 11.6637 5.2 11.6649C 5.2 11.6662 5.2 11.6674 5.2 11.6686C 5.2 11.6698 5.2 11.6711 5.2 11.6723C 5.2 11.6735 5.2 11.6747 5.2 11.6759C 5.2 11.6772 5.2 11.6784 5.2 11.6796C 5.2 11.6808 5.2 11.682 5.2 11.6833C 5.2 11.6845 5.2 11.6857 5.2 11.6869C 5.2 11.6881 5.2 11.6893 5.2 11.6906C 5.2 11.6918 5.2 11.693 5.2 11.6942C 5.2 11.6954 5.2 11.6966 5.2 11.6978C 5.2 11.699 5.2 11.7003 5.2 11.7015C 5.2 11.7027 5.2 11.7039 5.2 11.7051C 5.2 11.7063 5.2 11.7075 5.2 11.7087C 5.2 11.7099 5.2 11.7111 5.2 11.7123C 5.2 11.7135 5.2 11.7147 5.2 11.716C 5.2 11.7172 5.2 11.7184 5.2 11.7196C 5.2 11.7208 5.2 11.722 5.2 11.7232C 5.2 11.7244 5.2 11.7256 5.2 11.7268C 5.2 11.728 5.2 11.7292 5.2 11.7304C 5.2 11.7316 5.2 11.7328 5.2 11.734C 5.2 11.7352 5.2 11.7364 5.2 11.7376C 5.2 11.7388 5.2 11.74 5.2 11.7412C 5.2 11.7424 5.2 11.7435 5.2 11.7447C 5.2 11.7459 5.2 11.7471 5.2 11.7483C 5.2 11.7495 5.2 11.7507 5.2 11.7519C 5.2 11.7531 5.2 11.7543 5.2 11.7555C 5.2 11.7567 5.2 11.7579 5.2 11.759C 5.2 11.7602 5.2 11.7614 5.2 11.7626C 5.2 11.7638 5.2 11.765 5.2 11.7662C 5.2 11.7674 5.2 11.7685 5.2 11.7697C 5.2 11.7709 5.2 11.7721 5.2 11.7733C 5.2 11.7745 5.2 11.7757 5.2 11.7768C 5.2 11.778 5.2 11.7792 5.2 11.7804C 5.2 11.7816 5.2 11.7827 5.2 11.7839C 5.2 11.7851 5.2 11.7863 5.2 11.7875C 5.2 11.7886 5.2 11.7898 5.2 11.791C 5.2 11.7922 5.2 11.7934 5.2 11.7945C 5.2 11.7957 5.2 11.7969 5.2 11.7981C 5.2 11.7992 5.2 11.8004 5.2 11.8016C 5.2 11.8028 5.2 11.8039 5.2 11.8051C 5.2 11.8063 5.2 11.8075 5.2 11.8086C 5.2 11.8098 5.2 11.811 5.2 11.8122C 5.2 11.8133 5.2 11.8145 5.2 11.8157C 5.2 11.8168 5.2 11.818 5.2 11.8192C 5.2 11.8204 5.2 11.8215 5.2 11.8227C 5.2 11.8239 5.2 11.825 5.2 11.8262C 5.2 11.8274 5.2 11.8285 5.2 11.8297C 5.2 11.8309 5.2 11.832 5.2 11.8332C 5.2 11.8344 5.2 11.8355 5.2 11.8367C 5.2 11.8379 5.2 11.839 5.2 11.8402C 5.2 11.8413 5.2 11.8425 5.2 11.8437C 5.2 11.8448 5.2 11.846 5.2 11.8472C 5.2 11.8483 5.2 11.8495 5.2 11.8506C 5.2 11.8518 5.2 11.853 5.2 11.8541C 5.2 11.8553 5.2 11.8564 5.2 11.8576C 5.2 11.8588 5.2 11.8599 5.2 11.8611C 5.2 11.8622 5.2 11.8634 5.2 11.8645C 5.2 11.8657 5.2 11.8669 5.2 11.868C 5.2 11.8692 5.2 11.8703 5.2 11.8715C 5.2 11.8726 5.2 11.8738 5.2 11.8749C 5.2 11.8761 5.2 11.8773 5.2 11.8784C 5.2 11.8796 5.2 11.8807 5.2 11.8819C 5.2 11.883 5.2 11.8842 5.2 11.8853C 5.2 11.8865 5.2 11.8876 5.2 11.8888C 5.2 11.8899 5.2 11.8911 5.2 11.8922C 5.2 11.8934 5.2 11.8945 5.2 11.8957C 5.2 11.8968 5.2 11.898 5.2 11.8991C 5.2 11.9003 5.2 11.9014 5.2 11.9026C 5.2 11.9037 5.2 11.9049 5.2 11.906C 5.2 11.9071 5.2 11.9083 5.2 11.9094C 5.2 11.9106 5.2 11.9117 5.2 11.9129C 5.2 11.914 5.2 11.9152 5.2 11.9163C 5.2 11.9175 5.2 11.9186 5.2 11.9197C 5.2 11.9209 5.2 11.922 5.2 11.9232C 5.2 11.9243 5.2 11.9255 5.2 11.9266C 5.2 11.9277 5.2 11.9289 5.2 11.93C 5.2 11.9312 5.2 11.9323 5.2 11.9334C 5.2 11.9346 5.2 11.9357 5.2 11.9369C 5.2 11.938 5.2 11.9391 5.2 11.9403C 5.2 11.9414 5.2 11.9426 5.2 11.9437C 5.2 11.9448 5.2 11.946 5.2 11.9471C 5.2 11.9482 5.2 11.9494 5.2 11.9505C 5.2 11.9517 5.2 11.9528 5.2 11.9539C 5.2 11.9551 5.2 11.9562 5.2 11.9573C 5.2 11.9585 5.2 11.9596 5.2 11.9607C 5.2 11.9619 5.2 11.963 5.2 11.9642C 5.2 11.9653 5.2 11.9664 5.2 11.9676C 5.2 11.9687 5.2 11.9698 5.2 11.971C 5.2 11.9721 5.2 11.9732 5.2 11.9744C 5.2 11.9755 5.2 11.9766 5.2 11.9778C 5.2 11.9789 5.2 11.98 5.2 11.9811C 5.2 11.9823 5.2 11.9834 5.2 11.9845C 5.2 11.9857 5.2 11.9868 5.2 11.9879C 5.2 11.9891 5.2 11.9902 5.2 11.9913C 5.2 11.9925 5.2 11.9936 5.2 11.9947C 5.2 11.9958 5.2 11.997 5.2 11.9981C 5.2 11.9992 5.2 12.0004 5.2 12.0015C 5.2 12.0026 5.2 12.0037 5.2 12.0049C 5.2 12.006 5.2 12.0071 5.2 12.0083C 5.2 12.0094 5.2 12.0105 5.2 12.0116C 5.2 12.0128 5.2 12.0139 5.2 12.015C 5.2 12.0161 5.2 12.0173 5.2 12.0184C 5.2 12.0195 5.2 12.0206 5.2 12.0218C 5.2 12.0229 5.2 12.024 5.2 12.0251C 5.2 12.0263 5.2 12.0274 5.2 12.0285C 5.2 12.0296 5.2 12.0308 5.2 12.0319C 5.2 12.033 5.2 12.0341 5.2 12.0353C 5.2 12.0364 5.2 12.0375 5.2 12.0386C 5.2 12.0398 5.2 12.0409 5.2 12.042C 5.2 12.0431 5.2 12.0443 5.2 12.0454C 5.2 12.0465 5.2 12.0476 5.2 12.0487C 5.2 12.0499 5.2 12.051 5.2 12.0521C 5.2 12.0532 5.2 12.0544 5.2 12.0555C 5.2 12.0566 5.2 12.0577 5.2 12.0588C 5.2 12.06 5.2 12.0611 5.2 12.0622C 5.2 12.0633 5.2 12.0644 5.2 12.0656C 5.2 12.0667 5.2 12.0678 5.2 12.0689C 5.2 12.07 5.2 12.0712 5.2 12.0723C 5.2 12.0734 5.2 12.0745 5.2 12.0756C 5.2 12.0768 5.2 12.0779 5.2 12.079C 5.2 12.0801 5.2 12.0812 5.2 12.0824C 5.2 12.0835 5.2 12.0846 5.2 12.0857C 5.2 12.0868 5.2 12.088 5.2 12.0891C 5.2 12.0902 5.2 12.0913 5.2 12.0924C 5.2 12.0935 5.2 12.0947 5.2 12.0958C 5.2 12.0969 5.2 12.098 5.2 12.0991C 5.2 12.1003 5.2 12.1014 5.2 12.1025C 5.2 12.1036 5.2 12.1047 5.2 12.1058C 5.2 12.107 5.2 12.1081 5.2 12.1092C 5.2 12.1103 5.2 12.1114 5.2 12.1126C 5.2 12.1137 5.2 12.1148 5.2 12.1159C 5.2 12.117 5.2 12.1181 5.2 12.1193C 5.2 12.1204 5.2 12.1215 5.2 12.1226C 5.2 12.1237 5.2 12.1248 5.2 12.126C 5.2 12.1271 5.2 12.1282 5.2 12.1293C 5.2 12.1304 5.2 12.1315 5.2 12.1327C 5.2 12.1338 5.2 12.1349 5.2 12.136C 5.2 12.1371 5.2 12.1382 5.2 12.1394C 5.2 12.1405 5.2 12.1416 5.2 12.1427C 5.2 12.1438 5.2 12.1449 5.2 12.1461C 5.2 12.1472 5.2 12.1483 5.2 12.1494C 5.2 12.1505 5.2 12.1516 5.2 12.1527C 5.2 12.1539 5.2 12.155 5.2 12.1561C 5.2 12.1572 5.2 12.1583 5.2 12.1594C 5.2 12.1606 5.2 12.1617 5.2 12.1628C 5.2 12.1639 5.2 12.165 5.2 12.1661C 5.2 12.1673 5.2 12.1684 5.2 12.1695C 5.2 12.1706 5.2 12.1717 5.2 12.1728C 5.2 12.174 5.2 12.1751 5.2 12.1762C 5.2 12.1773 5.2 12.1784 5.2 12.1795C 5.2 12.1807 5.2 12.1818 5.2 12.1829C 5.2 12.184 5.2 12.1851 5.2 12.1862C 5.2 12.1873 5.2 12.1885 5.2 12.1896C 5.2 12.1907 5.2 12.1918 5.2 12.1929C 5.2 12.194 5.2 12.1952 5.2 12.1963C 5.2 12.1974 5.2 12.1985 5.2 12.1996C 5.2 12.2007 5.2 12.2019 5.2 12.203C 5.2 12.2041 5.2 12.2052 5.2 12.2063C 5.2 12.2074 5.2 12.2086 5.2 12.2097C 5.2 12.2108 5.2 12.2119 5.2 12.213C 5.2 12.2141 5.2 12.2153 5.2 12.2164C 5.2 12.2175 5.2 12.2186 5.2 12.2197C 5.2 12.2209 5.2 12.222 5.2 12.2231C 5.2 12.2242 5.2 12.2253 5.2 12.2264C 5.2 12.2276 5.2 12.2287 5.2 12.2298C 5.2 12.2309 5.2 12.232 5.2 12.2332C 5.2 12.2343 5.2 12.2354 5.2 12.2365C 5.2 12.2376 5.2 12.2387 5.2 12.2399C 5.2 12.241 5.2 12.2421 5.2 12.2432C 5.2 12.2443 5.2 12.2455 5.2 12.2466C 5.2 12.2477 5.2 12.2488 5.2 12.2499C 5.2 12.2511 5.2 12.2522 5.2 12.2533C 5.2 12.2544 5.2 12.2555 5.2 12.2567C 5.2 12.2578 5.2 12.2589 5.2 12.26C 5.2 12.2611 5.2 12.2623 5.2 12.2634C 5.2 12.2645 5.2 12.2656 5.2 12.2667C 5.2 12.2679 5.2 12.269 5.2 12.2701C 5.2 12.2712 5.2 12.2723 5.2 12.2735C 5.2 12.2746 5.2 12.2757 5.2 12.2768C 5.2 12.278 5.2 12.2791 5.2 12.2802C 5.2 12.2813 5.2 12.2824 5.2 12.2836C 5.2 12.2847 5.2 12.2858 5.2 12.2869C 5.2 12.2881 5.2 12.2892 5.2 12.2903C 5.2 12.2914 5.2 12.2925 5.2 12.2937C 5.2 12.2948 5.2 12.2959 5.2 12.297C 5.2 12.2982 5.2 12.2993 5.2 12.3004C 5.2 12.3015 5.2 12.3027 5.2 12.3038C 5.2 12.3049 5.2 12.306 5.2 12.3072C 5.2 12.3083 5.2 12.3094 5.2 12.3105C 5.2 12.3117 5.2 12.3128 5.2 12.3139C 5.2 12.3151 5.2 12.3162 5.2 12.3173C 5.2 12.3184 5.2 12.3196 5.2 12.3207C 5.2 12.3218 5.2 12.3229 5.2 12.3241C 5.2 12.3252 5.2 12.3263 5.2 12.3275C 5.2 12.3286 5.2 12.3297 5.2 12.3308C 5.2 12.332 5.2 12.3331 5.2 12.3342C 5.2 12.3354 5.2 12.3365 5.2 12.3376C 5.2 12.3387 5.2 12.3399 5.2 12.341C 5.2 12.3421 5.2 12.3433 5.2 12.3444C 5.2 12.3455 5.2 12.3467 5.2 12.3478C 5.2 12.3489 5.2 12.3501 5.2 12.3512C 5.2 12.3523 5.2 12.3535 5.2 12.3546C 5.2 12.3557 5.2 12.3569 5.2 12.358C 5.2 12.3591 5.2 12.3603 5.2 12.3614C 5.2 12.3625 5.2 12.3637 5.2 12.3648C 5.2 12.3659 5.2 12.3671 5.2 12.3682C 5.2 12.3693 5.2 12.3705 5.2 12.3716C 5.2 12.3727 5.2 12.3739 5.2 12.375C 5.2 12.3761 5.2 12.3773 5.2 12.3784C 5.2 12.3796 5.2 12.3807 5.2 12.3818C 5.2 12.383 5.2 12.3841 5.2 12.3852C 5.2 12.3864 5.2 12.3875 5.2 12.3887C 5.2 12.3898 5.2 12.3909 5.2 12.3921C 5.2 12.3932 5.2 12.3944 5.2 12.3955C 5.2 12.3966 5.2 12.3978 5.2 12.3989C 5.2 12.4001 5.2 12.4012 5.2 12.4023C 5.2 12.4035 5.2 12.4046 5.2 12.4058C 5.2 12.4069 5.2 12.4081 5.2 12.4092C 5.2 12.4103 5.2 12.4115 5.2 12.4126C 5.2 12.4138 5.2 12.4149 5.2 12.4161C 5.2 12.4172 5.2 12.4184 5.2 12.4195C 5.2 12.4207 5.2 12.4218 5.2 12.4229C 5.2 12.4241 5.2 12.4252 5.2 12.4264C 5.2 12.4275 5.2 12.4287 5.2 12.4298C 5.2 12.431 5.2 12.4321 5.2 12.4333C 5.2 12.4344 5.2 12.4356 5.2 12.4367C 5.2 12.4379 5.2 12.439 5.2 12.4402C 5.2 12.4413 5.2 12.4425 5.2 12.4436C 5.2 12.4448 5.2 12.4459 5.2 12.4471C 5.2 12.4482 5.2 12.4494 5.2 12.4505C 5.2 12.4517 5.2 12.4529 5.2 12.454C 5.2 12.4552 5.2 12.4563 5.2 12.4575C 5.2 12.4586 5.2 12.4598 5.2 12.4609C 5.2 12.4621 5.2 12.4633 5.2 12.4644C 5.2 12.4656 5.2 12.4667 5.2 12.4679C 5.2 12.469 5.2 12.4702 5.2 12.4714C 5.2 12.4725 5.2 12.4737 5.2 12.4748C 5.2 12.476 5.2 12.4772 5.2 12.4783C 5.2 12.4795 5.2 12.4806 5.2 12.4818C 5.2 12.483 5.2 12.4841 5.2 12.4853C 5.2 12.4864 5.2 12.4876 5.2 12.4888C 5.2 12.4899 5.2 12.4911 5.2 12.4923C 5.2 12.4934 5.2 12.4946 5.2 12.4958C 5.2 12.4969 5.2 12.4981 5.2 12.4993C 5.2 12.5004 5.2 12.5016 5.2 12.5028C 5.2 12.5039 5.2 12.5051 5.2 12.5063C 5.2 12.5074 5.2 12.5086 5.2 12.5098C 5.2 12.5109 5.2 12.5121 5.2 12.5133C 5.2 12.5145 5.2 12.5156 5.2 12.5168C 5.2 12.518 5.2 12.5191 5.2 12.5203C 5.2 12.5215 5.2 12.5227 5.2 12.5238C 5.2 12.525 5.2 12.5262 5.2 12.5274C 5.2 12.5285 5.2 12.5297 5.2 12.5309C 5.2 12.5321 5.2 12.5332 5.2 12.5344C 5.2 12.5356 5.2 12.5368 5.2 12.538C 5.2 12.5391 5.2 12.5403 5.2 12.5415C 5.2 12.5427 5.2 12.5439 5.2 12.545C 5.2 12.5462 5.2 12.5474 5.2 12.5486C 5.2 12.5498 5.2 12.5509 5.2 12.5521C 5.2 12.5533 5.2 12.5545 5.2 12.5557C 5.2 12.5569 5.2 12.5581 5.2 12.5592C 5.2 12.5604 5.2 12.5616 5.2 12.5628C 5.2 12.564 5.2 12.5652 5.2 12.5664C 5.2 12.5675 5.2 12.5687 5.2 12.5699C 5.2 12.5711 5.2 12.5723 5.2 12.5735C 5.2 12.5747 5.2 12.5759 5.2 12.5771C 5.2 12.5783 5.2 12.5795 5.2 12.5806C 5.2 12.5818 5.2 12.583 5.2 12.5842C 5.2 12.5854 5.2 12.5866 5.2 12.5878C 5.2 12.589 5.2 12.5902 5.2 12.5914C 5.2 12.5926 5.2 12.5938 5.2 12.595C 5.2 12.5962 5.2 12.5974 5.2 12.5986C 5.2 12.5998 5.2 12.601 5.2 12.6022C 5.2 12.6034 5.2 12.6046 5.2 12.6058C 5.2 12.607 5.2 12.6082 5.2 12.6094C 5.2 12.6106 5.2 12.6118 5.2 12.613C 5.2 12.6142 5.2 12.6154 5.2 12.6166C 5.2 12.6178 5.2 12.6191 5.2 12.6203C 5.2 12.6215 5.2 12.6227 5.2 12.6239C 5.2 12.6251 5.2 12.6263 5.2 12.6275C 5.2 12.6287 5.2 12.6299 5.2 12.6311C 5.2 12.6324 5.2 12.6336 5.2 12.6348C 5.2 12.636 5.2 12.6372 5.2 12.6384C 5.2 12.6396 5.2 12.6409 5.2 12.6421C 5.2 12.6433 5.2 12.6445 5.2 12.6457C 5.2 12.6469 5.2 12.6482 5.2 12.6494C 5.2 12.6506 5.2 12.6518 5.2 12.653C 5.2 12.6543 5.2 12.6555 5.2 12.6567C 5.2 12.6579 5.2 12.6591 5.2 12.6604C 5.2 12.6616 5.2 12.6628 5.2 12.664C 5.2 12.6653 5.2 12.6665 5.2 12.6677C 5.2 12.6689 5.2 12.6702 5.2 12.6714C 5.2 12.6726 5.2 12.6739 5.2 12.6751C 5.2 12.6763 5.2 12.6776 5.2 12.6788C 5.2 12.68 5.2 12.6812 5.2 12.6825C 5.2 12.6837 5.2 12.6849 5.2 12.6862C 5.2 12.6874 5.2 12.6886 5.2 12.6899C 5.2 12.6911 5.2 12.6924 5.2 12.6936C 5.2 12.6948 5.2 12.6961 5.2 12.6973C 5.2 12.6985 5.2 12.6998 5.2 12.701C 5.2 12.7023 5.2 12.7035 5.2 12.7048C 5.2 12.706 5.2 12.7072 5.2 12.7085C 5.2 12.7097 5.2 12.711 5.2 12.7122C 5.2 12.7135 5.2 12.7147 5.2 12.716C 5.2 12.7172 5.2 12.7185 5.2 12.7197C 5.2 12.7209 5.2 12.7222 5.2 12.7234C 5.2 12.7247 5.2 12.726 5.2 12.7272C 5.2 12.7285 5.2 12.7297 5.2 12.731C 5.2 12.7322 5.2 12.7335 5.2 12.7347C 5.2 12.736 5.2 12.7372 5.2 12.7385C 5.2 12.7398 5.2 12.741 5.2 12.7423C 5.2 12.7435 5.2 12.7448 5.2 12.746C 5.2 12.7473 5.2 12.7486 5.2 12.7498C 5.2 12.7511 5.2 12.7524 5.2 12.7536C 5.2 12.7549 5.2 12.7562 5.2 12.7574C 5.2 12.7587 5.2 12.76 5.2 12.7612C 5.2 12.7625 5.2 12.7638 5.2 12.765C 5.2 12.7663 5.2 12.7676 5.2 12.7688C 5.2 12.7701 5.2 12.7714 5.2 12.7727C 5.2 12.7739 5.2 12.7752 5.2 12.7765C 5.2 12.7778 5.2 12.779 5.2 12.7803C 5.2 12.7816 5.2 12.7829 5.2 12.7841C 5.2 12.7854 5.2 12.7867 5.2 12.788C 5.2 12.7893 5.2 12.7905 5.2 12.7918C 5.2 12.7931 5.2 12.7944 5.2 12.7957C 5.2 12.797 5.2 12.7982 5.2 12.7995C 5.2 12.8008 5.2 12.8021 5.2 12.8034C 5.2 12.8047 5.2 12.806 5.2 12.8073C 5.2 12.8085 5.2 12.8098 5.2 12.8111C 5.2 12.8124 5.2 12.8137 5.2 12.815C 5.2 12.8163 5.2 12.8176 5.2 12.8189C 5.2 12.8202 5.2 12.8215 5.2 12.8228C 5.2 12.8241 5.2 12.8254 5.2 12.8267C 5.2 12.828 5.2 12.8293 5.2 12.8306C 5.2 12.8319 5.2 12.8332 5.2 12.8345C 5.2 12.8358 5.2 12.8371 5.2 12.8384C 5.2 12.8397 5.2 12.841 5.2 12.8423C 5.2 12.8436 5.2 12.8449 5.2 12.8462C 5.2 12.8476 5.2 12.8489 5.2 12.8502C 5.2 12.8515 5.2 12.8528 5.2 12.8541C 5.2 12.8554 5.2 12.8567 5.2 12.8581C 5.2 12.8594 5.2 12.8607 5.2 12.862C 5.2 12.8633 5.2 12.8646 5.2 12.866C 5.2 12.8673 5.2 12.8686 5.2 12.8699C 5.2 12.8712 5.2 12.8726 5.2 12.8739C 5.2 12.8752 5.2 12.8765 5.2 12.8779C 5.2 12.8792 5.2 12.8805 5.2 12.8818C 5.2 12.8832 5.2 12.8845 5.2 12.8858C 5.2 12.8872 5.2 12.8885 5.2 12.8898C 5.2 12.8912 5.2 12.8925 5.2 12.8938C 5.2 12.8952 5.2 12.8965 5.2 12.8978C 5.2 12.8992 5.2 12.9005 5.2 12.9018C 5.2 12.9032 5.2 12.9045 5.2 12.9059C 5.2 12.9072 5.2 12.9085 5.2 12.9099C 5.2 12.9112 5.2 12.9126 5.2 12.9139C 5.2 12.9153 5.2 12.9166 5.2 12.918C 5.2 12.9193 5.2 12.9207 5.2 12.922C 5.2 12.9234 5.2 12.9247 5.2 12.9261C 5.2 12.9274 5.2 12.9288 5.2 12.9301C 5.2 12.9315 5.2 12.9328 5.2 12.9342C 5.2 12.9355 5.2 12.9369 5.2 12.9383C 5.2 12.9396 5.2 12.941 5.2 12.9423C 5.2 12.9437 5.2 12.9451 5.2 12.9464C 5.2 12.9478 5.2 12.9491 5.2 12.9505C 5.2 12.9519 5.2 12.9532 5.2 12.9546C 5.2 12.956 5.2 12.9573 5.2 12.9587C 5.2 12.9601 5.2 12.9615 5.2 12.9628C 5.2 12.9642 5.2 12.9656 5.2 12.9669C 5.2 12.9683 5.2 12.9697 5.2 12.9711C 5.2 12.9725 5.2 12.9738 5.2 12.9752C 5.2 12.9766 5.2 12.978 5.2 12.9794C 5.2 12.9807 5.2 12.9821 5.2 12.9835C 5.2 12.9849 5.2 12.9863 5.2 12.9877C 5.2 12.989 5.2 12.9904 5.2 12.9918C 5.2 12.9932 5.2 12.9946 5.2 12.996C 5.2 12.9974 5.2 12.9988 5.2 13.0002C 5.2 13.0016 5.2 13.0029 5.2 13.0043C 5.2 13.0057 5.2 13.0071 5.2 13.0085C 5.2 13.0099 5.2 13.0113 5.2 13.0127C 5.2 13.0141 5.2 13.0155 5.2 13.0169C 5.2 13.0183 5.2 13.0197 5.2 13.0212C 5.2 13.0226 5.2 13.024 5.2 13.0254C 5.2 13.0268 5.2 13.0282 5.2 13.0296C 5.2 13.031 5.2 13.0324 5.2 13.0338C 5.2 13.0352 5.2 13.0367 5.2 13.0381C 5.2 13.0395 5.2 13.0409 5.2 13.0423C 5.2 13.0437 5.2 13.0452 5.2 13.0466C 5.2 13.048 5.2 13.0494 5.2 13.0508C 5.2 13.0523 5.2 13.0537 5.2 13.0551C 5.2 13.0565 5.2 13.058 5.2 13.0594C 5.2 13.0608 5.2 13.0623 5.2 13.0637C 5.2 13.0651 5.2 13.0666 5.2 13.068C 5.2 13.0694 5.2 13.0709 5.2 13.0723C 5.2 13.0737 5.2 13.0752 5.2 13.0766C 5.2 13.078 5.2 13.0795 5.2 13.0809C 5.2 13.0824 5.2 13.0838 5.2 13.0852C 5.2 13.0867 5.2 13.0881 5.2 13.0896C 5.2 13.091 5.2 13.0925 5.2 13.0939C 5.2 13.0954 5.2 13.0968 5.2 13.0983C 5.2 13.0997 5.2 13.1012 5.2 13.1026C 5.2 13.1041 5.2 13.1055 5.2 13.107C 5.2 13.1085 5.2 13.1099 5.2 13.1114C 5.2 13.1128 5.2 13.1143 5.2 13.1158C 5.2 13.1172 5.2 13.1187 5.2 13.1201C 5.2 13.1216 5.2 13.1231 5.2 13.1245C 5.2 13.126 5.2 13.1275 5.2 13.129C 5.2 13.1304 5.2 13.1319 5.2 13.1334C 5.2 13.1348 5.2 13.1363 5.2 13.1378C 5.2 13.1393 5.2 13.1407 5.2 13.1422C 5.2 13.1437 5.2 13.1452 5.2 13.1467C 5.2 13.1481 5.2 13.1496 5.2 13.1511C 5.2 13.1526 5.2 13.1541 5.2 13.1556C 5.2 13.157 5.2 13.1585 5.2 13.16C 5.2 13.1615 5.2 13.163 5.2 13.1645C 5.2 13.166 5.2 13.1675 5.2 13.169C 5.2 13.1705 5.2 13.172 5.2 13.1735C 5.2 13.175 5.2 13.1765 5.2 13.178C 5.2 13.1795 5.2 13.181 5.2 13.1825C 5.2 13.184 5.2 13.1855 5.2 13.187C 5.2 13.1885 5.2 13.19 5.2 13.1915C 5.2 13.193 5.2 13.1945 5.2 13.196C 5.2 13.1976 5.2 13.1991 5.2 13.2006C 5.2 13.2021 5.2 13.2036 5.2 13.2051C 5.2 13.2067 5.2 13.2082 5.2 13.2097C 5.2 13.2112 5.2 13.2127 5.2 13.2143C 5.2 13.2158 5.2 13.2173 5.2 13.2188C 5.2 13.2204 5.2 13.2219 5.2 13.2234C 5.2 13.2249 5.2 13.2265 5.2 13.228C 5.2 13.2295 5.2 13.2311 5.2 13.2326C 5.2 13.2341 5.2 13.2357 5.2 13.2372C 5.2 13.2388 5.2 13.2403 5.2 13.2418C 5.2 13.2434 5.2 13.2449 5.2 13.2465C 5.2 13.248 5.2 13.2496 5.2 13.2511C 5.2 13.2527 5.2 13.2542 5.2 13.2558C 5.2 13.2573 5.2 13.2589 5.2 13.2604C 5.2 13.262 5.2 13.2635 5.2 13.2651C 5.2 13.2666 5.2 13.2682 5.2 13.2698C 5.2 13.2713 5.2 13.2729 5.2 13.2744L 7.2 13.2744C 7.2 13.2729 7.2 13.2713 7.2 13.2698C 7.2 13.2682 7.2 13.2666 7.2 13.2651C 7.2 13.2635 7.2 13.262 7.2 13.2604C 7.2 13.2589 7.2 13.2573 7.2 13.2558C 7.2 13.2542 7.2 13.2527 7.2 13.2511C 7.2 13.2496 7.2 13.248 7.2 13.2465C 7.2 13.2449 7.2 13.2434 7.2 13.2418C 7.2 13.2403 7.2 13.2388 7.2 13.2372C 7.2 13.2357 7.2 13.2341 7.2 13.2326C 7.2 13.2311 7.2 13.2295 7.2 13.228C 7.2 13.2265 7.2 13.2249 7.2 13.2234C 7.2 13.2219 7.2 13.2204 7.2 13.2188C 7.2 13.2173 7.2 13.2158 7.2 13.2143C 7.2 13.2127 7.2 13.2112 7.2 13.2097C 7.2 13.2082 7.2 13.2067 7.2 13.2051C 7.2 13.2036 7.2 13.2021 7.2 13.2006C 7.2 13.1991 7.2 13.1976 7.2 13.196C 7.2 13.1945 7.2 13.193 7.2 13.1915C 7.2 13.19 7.2 13.1885 7.2 13.187C 7.2 13.1855 7.2 13.184 7.2 13.1825C 7.2 13.181 7.2 13.1795 7.2 13.178C 7.2 13.1765 7.2 13.175 7.2 13.1735C 7.2 13.172 7.2 13.1705 7.2 13.169C 7.2 13.1675 7.2 13.166 7.2 13.1645C 7.2 13.163 7.2 13.1615 7.2 13.16C 7.2 13.1585 7.2 13.157 7.2 13.1556C 7.2 13.1541 7.2 13.1526 7.2 13.1511C 7.2 13.1496 7.2 13.1481 7.2 13.1467C 7.2 13.1452 7.2 13.1437 7.2 13.1422C 7.2 13.1407 7.2 13.1393 7.2 13.1378C 7.2 13.1363 7.2 13.1348 7.2 13.1334C 7.2 13.1319 7.2 13.1304 7.2 13.129C 7.2 13.1275 7.2 13.126 7.2 13.1245C 7.2 13.1231 7.2 13.1216 7.2 13.1201C 7.2 13.1187 7.2 13.1172 7.2 13.1158C 7.2 13.1143 7.2 13.1128 7.2 13.1114C 7.2 13.1099 7.2 13.1085 7.2 13.107C 7.2 13.1055 7.2 13.1041 7.2 13.1026C 7.2 13.1012 7.2 13.0997 7.2 13.0983C 7.2 13.0968 7.2 13.0954 7.2 13.0939C 7.2 13.0925 7.2 13.091 7.2 13.0896C 7.2 13.0881 7.2 13.0867 7.2 13.0852C 7.2 13.0838 7.2 13.0824 7.2 13.0809C 7.2 13.0795 7.2 13.078 7.2 13.0766C 7.2 13.0752 7.2 13.0737 7.2 13.0723C 7.2 13.0709 7.2 13.0694 7.2 13.068C 7.2 13.0666 7.2 13.0651 7.2 13.0637C 7.2 13.0623 7.2 13.0608 7.2 13.0594C 7.2 13.058 7.2 13.0565 7.2 13.0551C 7.2 13.0537 7.2 13.0523 7.2 13.0508C 7.2 13.0494 7.2 13.048 7.2 13.0466C 7.2 13.0452 7.2 13.0437 7.2 13.0423C 7.2 13.0409 7.2 13.0395 7.2 13.0381C 7.2 13.0367 7.2 13.0352 7.2 13.0338C 7.2 13.0324 7.2 13.031 7.2 13.0296C 7.2 13.0282 7.2 13.0268 7.2 13.0254C 7.2 13.024 7.2 13.0226 7.2 13.0212C 7.2 13.0197 7.2 13.0183 7.2 13.0169C 7.2 13.0155 7.2 13.0141 7.2 13.0127C 7.2 13.0113 7.2 13.0099 7.2 13.0085C 7.2 13.0071 7.2 13.0057 7.2 13.0043C 7.2 13.0029 7.2 13.0016 7.2 13.0002C 7.2 12.9988 7.2 12.9974 7.2 12.996C 7.2 12.9946 7.2 12.9932 7.2 12.9918C 7.2 12.9904 7.2 12.989 7.2 12.9877C 7.2 12.9863 7.2 12.9849 7.2 12.9835C 7.2 12.9821 7.2 12.9807 7.2 12.9794C 7.2 12.978 7.2 12.9766 7.2 12.9752C 7.2 12.9738 7.2 12.9725 7.2 12.9711C 7.2 12.9697 7.2 12.9683 7.2 12.9669C 7.2 12.9656 7.2 12.9642 7.2 12.9628C 7.2 12.9615 7.2 12.9601 7.2 12.9587C 7.2 12.9573 7.2 12.956 7.2 12.9546C 7.2 12.9532 7.2 12.9519 7.2 12.9505C 7.2 12.9491 7.2 12.9478 7.2 12.9464C 7.2 12.9451 7.2 12.9437 7.2 12.9423C 7.2 12.941 7.2 12.9396 7.2 12.9383C 7.2 12.9369 7.2 12.9355 7.2 12.9342C 7.2 12.9328 7.2 12.9315 7.2 12.9301C 7.2 12.9288 7.2 12.9274 7.2 12.9261C 7.2 12.9247 7.2 12.9234 7.2 12.922C 7.2 12.9207 7.2 12.9193 7.2 12.918C 7.2 12.9166 7.2 12.9153 7.2 12.9139C 7.2 12.9126 7.2 12.9112 7.2 12.9099C 7.2 12.9085 7.2 12.9072 7.2 12.9059C 7.2 12.9045 7.2 12.9032 7.2 12.9018C 7.2 12.9005 7.2 12.8992 7.2 12.8978C 7.2 12.8965 7.2 12.8952 7.2 12.8938C 7.2 12.8925 7.2 12.8912 7.2 12.8898C 7.2 12.8885 7.2 12.8872 7.2 12.8858C 7.2 12.8845 7.2 12.8832 7.2 12.8818C 7.2 12.8805 7.2 12.8792 7.2 12.8779C 7.2 12.8765 7.2 12.8752 7.2 12.8739C 7.2 12.8726 7.2 12.8712 7.2 12.8699C 7.2 12.8686 7.2 12.8673 7.2 12.866C 7.2 12.8646 7.2 12.8633 7.2 12.862C 7.2 12.8607 7.2 12.8594 7.2 12.8581C 7.2 12.8567 7.2 12.8554 7.2 12.8541C 7.2 12.8528 7.2 12.8515 7.2 12.8502C 7.2 12.8489 7.2 12.8476 7.2 12.8462C 7.2 12.8449 7.2 12.8436 7.2 12.8423C 7.2 12.841 7.2 12.8397 7.2 12.8384C 7.2 12.8371 7.2 12.8358 7.2 12.8345C 7.2 12.8332 7.2 12.8319 7.2 12.8306C 7.2 12.8293 7.2 12.828 7.2 12.8267C 7.2 12.8254 7.2 12.8241 7.2 12.8228C 7.2 12.8215 7.2 12.8202 7.2 12.8189C 7.2 12.8176 7.2 12.8163 7.2 12.815C 7.2 12.8137 7.2 12.8124 7.2 12.8111C 7.2 12.8098 7.2 12.8085 7.2 12.8073C 7.2 12.806 7.2 12.8047 7.2 12.8034C 7.2 12.8021 7.2 12.8008 7.2 12.7995C 7.2 12.7982 7.2 12.797 7.2 12.7957C 7.2 12.7944 7.2 12.7931 7.2 12.7918C 7.2 12.7905 7.2 12.7893 7.2 12.788C 7.2 12.7867 7.2 12.7854 7.2 12.7841C 7.2 12.7829 7.2 12.7816 7.2 12.7803C 7.2 12.779 7.2 12.7778 7.2 12.7765C 7.2 12.7752 7.2 12.7739 7.2 12.7727C 7.2 12.7714 7.2 12.7701 7.2 12.7688C 7.2 12.7676 7.2 12.7663 7.2 12.765C 7.2 12.7638 7.2 12.7625 7.2 12.7612C 7.2 12.76 7.2 12.7587 7.2 12.7574C 7.2 12.7562 7.2 12.7549 7.2 12.7536C 7.2 12.7524 7.2 12.7511 7.2 12.7498C 7.2 12.7486 7.2 12.7473 7.2 12.746C 7.2 12.7448 7.2 12.7435 7.2 12.7423C 7.2 12.741 7.2 12.7398 7.2 12.7385C 7.2 12.7372 7.2 12.736 7.2 12.7347C 7.2 12.7335 7.2 12.7322 7.2 12.731C 7.2 12.7297 7.2 12.7285 7.2 12.7272C 7.2 12.726 7.2 12.7247 7.2 12.7234C 7.2 12.7222 7.2 12.7209 7.2 12.7197C 7.2 12.7185 7.2 12.7172 7.2 12.716C 7.2 12.7147 7.2 12.7135 7.2 12.7122C 7.2 12.711 7.2 12.7097 7.2 12.7085C 7.2 12.7072 7.2 12.706 7.2 12.7048C 7.2 12.7035 7.2 12.7023 7.2 12.701C 7.2 12.6998 7.2 12.6985 7.2 12.6973C 7.2 12.6961 7.2 12.6948 7.2 12.6936C 7.2 12.6924 7.2 12.6911 7.2 12.6899C 7.2 12.6886 7.2 12.6874 7.2 12.6862C 7.2 12.6849 7.2 12.6837 7.2 12.6825C 7.2 12.6812 7.2 12.68 7.2 12.6788C 7.2 12.6776 7.2 12.6763 7.2 12.6751C 7.2 12.6739 7.2 12.6726 7.2 12.6714C 7.2 12.6702 7.2 12.6689 7.2 12.6677C 7.2 12.6665 7.2 12.6653 7.2 12.664C 7.2 12.6628 7.2 12.6616 7.2 12.6604C 7.2 12.6591 7.2 12.6579 7.2 12.6567C 7.2 12.6555 7.2 12.6543 7.2 12.653C 7.2 12.6518 7.2 12.6506 7.2 12.6494C 7.2 12.6482 7.2 12.6469 7.2 12.6457C 7.2 12.6445 7.2 12.6433 7.2 12.6421C 7.2 12.6409 7.2 12.6396 7.2 12.6384C 7.2 12.6372 7.2 12.636 7.2 12.6348C 7.2 12.6336 7.2 12.6324 7.2 12.6311C 7.2 12.6299 7.2 12.6287 7.2 12.6275C 7.2 12.6263 7.2 12.6251 7.2 12.6239C 7.2 12.6227 7.2 12.6215 7.2 12.6203C 7.2 12.6191 7.2 12.6178 7.2 12.6166C 7.2 12.6154 7.2 12.6142 7.2 12.613C 7.2 12.6118 7.2 12.6106 7.2 12.6094C 7.2 12.6082 7.2 12.607 7.2 12.6058C 7.2 12.6046 7.2 12.6034 7.2 12.6022C 7.2 12.601 7.2 12.5998 7.2 12.5986C 7.2 12.5974 7.2 12.5962 7.2 12.595C 7.2 12.5938 7.2 12.5926 7.2 12.5914C 7.2 12.5902 7.2 12.589 7.2 12.5878C 7.2 12.5866 7.2 12.5854 7.2 12.5842C 7.2 12.583 7.2 12.5818 7.2 12.5806C 7.2 12.5795 7.2 12.5783 7.2 12.5771C 7.2 12.5759 7.2 12.5747 7.2 12.5735C 7.2 12.5723 7.2 12.5711 7.2 12.5699C 7.2 12.5687 7.2 12.5675 7.2 12.5664C 7.2 12.5652 7.2 12.564 7.2 12.5628C 7.2 12.5616 7.2 12.5604 7.2 12.5592C 7.2 12.5581 7.2 12.5569 7.2 12.5557C 7.2 12.5545 7.2 12.5533 7.2 12.5521C 7.2 12.5509 7.2 12.5498 7.2 12.5486C 7.2 12.5474 7.2 12.5462 7.2 12.545C 7.2 12.5439 7.2 12.5427 7.2 12.5415C 7.2 12.5403 7.2 12.5391 7.2 12.538C 7.2 12.5368 7.2 12.5356 7.2 12.5344C 7.2 12.5332 7.2 12.5321 7.2 12.5309C 7.2 12.5297 7.2 12.5285 7.2 12.5274C 7.2 12.5262 7.2 12.525 7.2 12.5238C 7.2 12.5227 7.2 12.5215 7.2 12.5203C 7.2 12.5191 7.2 12.518 7.2 12.5168C 7.2 12.5156 7.2 12.5145 7.2 12.5133C 7.2 12.5121 7.2 12.5109 7.2 12.5098C 7.2 12.5086 7.2 12.5074 7.2 12.5063C 7.2 12.5051 7.2 12.5039 7.2 12.5028C 7.2 12.5016 7.2 12.5004 7.2 12.4993C 7.2 12.4981 7.2 12.4969 7.2 12.4958C 7.2 12.4946 7.2 12.4934 7.2 12.4923C 7.2 12.4911 7.2 12.4899 7.2 12.4888C 7.2 12.4876 7.2 12.4864 7.2 12.4853C 7.2 12.4841 7.2 12.483 7.2 12.4818C 7.2 12.4806 7.2 12.4795 7.2 12.4783C 7.2 12.4772 7.2 12.476 7.2 12.4748C 7.2 12.4737 7.2 12.4725 7.2 12.4714C 7.2 12.4702 7.2 12.469 7.2 12.4679C 7.2 12.4667 7.2 12.4656 7.2 12.4644C 7.2 12.4633 7.2 12.4621 7.2 12.4609C 7.2 12.4598 7.2 12.4586 7.2 12.4575C 7.2 12.4563 7.2 12.4552 7.2 12.454C 7.2 12.4529 7.2 12.4517 7.2 12.4505C 7.2 12.4494 7.2 12.4482 7.2 12.4471C 7.2 12.4459 7.2 12.4448 7.2 12.4436C 7.2 12.4425 7.2 12.4413 7.2 12.4402C 7.2 12.439 7.2 12.4379 7.2 12.4367C 7.2 12.4356 7.2 12.4344 7.2 12.4333C 7.2 12.4321 7.2 12.431 7.2 12.4298C 7.2 12.4287 7.2 12.4275 7.2 12.4264C 7.2 12.4252 7.2 12.4241 7.2 12.4229C 7.2 12.4218 7.2 12.4207 7.2 12.4195C 7.2 12.4184 7.2 12.4172 7.2 12.4161C 7.2 12.4149 7.2 12.4138 7.2 12.4126C 7.2 12.4115 7.2 12.4103 7.2 12.4092C 7.2 12.4081 7.2 12.4069 7.2 12.4058C 7.2 12.4046 7.2 12.4035 7.2 12.4023C 7.2 12.4012 7.2 12.4001 7.2 12.3989C 7.2 12.3978 7.2 12.3966 7.2 12.3955C 7.2 12.3944 7.2 12.3932 7.2 12.3921C 7.2 12.3909 7.2 12.3898 7.2 12.3887C 7.2 12.3875 7.2 12.3864 7.2 12.3852C 7.2 12.3841 7.2 12.383 7.2 12.3818C 7.2 12.3807 7.2 12.3796 7.2 12.3784C 7.2 12.3773 7.2 12.3761 7.2 12.375C 7.2 12.3739 7.2 12.3727 7.2 12.3716C 7.2 12.3705 7.2 12.3693 7.2 12.3682C 7.2 12.3671 7.2 12.3659 7.2 12.3648C 7.2 12.3637 7.2 12.3625 7.2 12.3614C 7.2 12.3603 7.2 12.3591 7.2 12.358C 7.2 12.3569 7.2 12.3557 7.2 12.3546C 7.2 12.3535 7.2 12.3523 7.2 12.3512C 7.2 12.3501 7.2 12.3489 7.2 12.3478C 7.2 12.3467 7.2 12.3455 7.2 12.3444C 7.2 12.3433 7.2 12.3421 7.2 12.341C 7.2 12.3399 7.2 12.3387 7.2 12.3376C 7.2 12.3365 7.2 12.3354 7.2 12.3342C 7.2 12.3331 7.2 12.332 7.2 12.3308C 7.2 12.3297 7.2 12.3286 7.2 12.3275C 7.2 12.3263 7.2 12.3252 7.2 12.3241C 7.2 12.3229 7.2 12.3218 7.2 12.3207C 7.2 12.3196 7.2 12.3184 7.2 12.3173C 7.2 12.3162 7.2 12.3151 7.2 12.3139C 7.2 12.3128 7.2 12.3117 7.2 12.3105C 7.2 12.3094 7.2 12.3083 7.2 12.3072C 7.2 12.306 7.2 12.3049 7.2 12.3038C 7.2 12.3027 7.2 12.3015 7.2 12.3004C 7.2 12.2993 7.2 12.2982 7.2 12.297C 7.2 12.2959 7.2 12.2948 7.2 12.2937C 7.2 12.2925 7.2 12.2914 7.2 12.2903C 7.2 12.2892 7.2 12.2881 7.2 12.2869C 7.2 12.2858 7.2 12.2847 7.2 12.2836C 7.2 12.2824 7.2 12.2813 7.2 12.2802C 7.2 12.2791 7.2 12.278 7.2 12.2768C 7.2 12.2757 7.2 12.2746 7.2 12.2735C 7.2 12.2723 7.2 12.2712 7.2 12.2701C 7.2 12.269 7.2 12.2679 7.2 12.2667C 7.2 12.2656 7.2 12.2645 7.2 12.2634C 7.2 12.2623 7.2 12.2611 7.2 12.26C 7.2 12.2589 7.2 12.2578 7.2 12.2567C 7.2 12.2555 7.2 12.2544 7.2 12.2533C 7.2 12.2522 7.2 12.2511 7.2 12.2499C 7.2 12.2488 7.2 12.2477 7.2 12.2466C 7.2 12.2455 7.2 12.2443 7.2 12.2432C 7.2 12.2421 7.2 12.241 7.2 12.2399C 7.2 12.2387 7.2 12.2376 7.2 12.2365C 7.2 12.2354 7.2 12.2343 7.2 12.2332C 7.2 12.232 7.2 12.2309 7.2 12.2298C 7.2 12.2287 7.2 12.2276 7.2 12.2264C 7.2 12.2253 7.2 12.2242 7.2 12.2231C 7.2 12.222 7.2 12.2209 7.2 12.2197C 7.2 12.2186 7.2 12.2175 7.2 12.2164C 7.2 12.2153 7.2 12.2141 7.2 12.213C 7.2 12.2119 7.2 12.2108 7.2 12.2097C 7.2 12.2086 7.2 12.2074 7.2 12.2063C 7.2 12.2052 7.2 12.2041 7.2 12.203C 7.2 12.2019 7.2 12.2007 7.2 12.1996C 7.2 12.1985 7.2 12.1974 7.2 12.1963C 7.2 12.1952 7.2 12.194 7.2 12.1929C 7.2 12.1918 7.2 12.1907 7.2 12.1896C 7.2 12.1885 7.2 12.1873 7.2 12.1862C 7.2 12.1851 7.2 12.184 7.2 12.1829C 7.2 12.1818 7.2 12.1807 7.2 12.1795C 7.2 12.1784 7.2 12.1773 7.2 12.1762C 7.2 12.1751 7.2 12.174 7.2 12.1728C 7.2 12.1717 7.2 12.1706 7.2 12.1695C 7.2 12.1684 7.2 12.1673 7.2 12.1661C 7.2 12.165 7.2 12.1639 7.2 12.1628C 7.2 12.1617 7.2 12.1606 7.2 12.1594C 7.2 12.1583 7.2 12.1572 7.2 12.1561C 7.2 12.155 7.2 12.1539 7.2 12.1527C 7.2 12.1516 7.2 12.1505 7.2 12.1494C 7.2 12.1483 7.2 12.1472 7.2 12.1461C 7.2 12.1449 7.2 12.1438 7.2 12.1427C 7.2 12.1416 7.2 12.1405 7.2 12.1394C 7.2 12.1382 7.2 12.1371 7.2 12.136C 7.2 12.1349 7.2 12.1338 7.2 12.1327C 7.2 12.1315 7.2 12.1304 7.2 12.1293C 7.2 12.1282 7.2 12.1271 7.2 12.126C 7.2 12.1248 7.2 12.1237 7.2 12.1226C 7.2 12.1215 7.2 12.1204 7.2 12.1193C 7.2 12.1181 7.2 12.117 7.2 12.1159C 7.2 12.1148 7.2 12.1137 7.2 12.1126C 7.2 12.1114 7.2 12.1103 7.2 12.1092C 7.2 12.1081 7.2 12.107 7.2 12.1058C 7.2 12.1047 7.2 12.1036 7.2 12.1025C 7.2 12.1014 7.2 12.1003 7.2 12.0991C 7.2 12.098 7.2 12.0969 7.2 12.0958C 7.2 12.0947 7.2 12.0935 7.2 12.0924C 7.2 12.0913 7.2 12.0902 7.2 12.0891C 7.2 12.088 7.2 12.0868 7.2 12.0857C 7.2 12.0846 7.2 12.0835 7.2 12.0824C 7.2 12.0812 7.2 12.0801 7.2 12.079C 7.2 12.0779 7.2 12.0768 7.2 12.0756C 7.2 12.0745 7.2 12.0734 7.2 12.0723C 7.2 12.0712 7.2 12.07 7.2 12.0689C 7.2 12.0678 7.2 12.0667 7.2 12.0656C 7.2 12.0644 7.2 12.0633 7.2 12.0622C 7.2 12.0611 7.2 12.06 7.2 12.0588C 7.2 12.0577 7.2 12.0566 7.2 12.0555C 7.2 12.0544 7.2 12.0532 7.2 12.0521C 7.2 12.051 7.2 12.0499 7.2 12.0487C 7.2 12.0476 7.2 12.0465 7.2 12.0454C 7.2 12.0443 7.2 12.0431 7.2 12.042C 7.2 12.0409 7.2 12.0398 7.2 12.0386C 7.2 12.0375 7.2 12.0364 7.2 12.0353C 7.2 12.0341 7.2 12.033 7.2 12.0319C 7.2 12.0308 7.2 12.0296 7.2 12.0285C 7.2 12.0274 7.2 12.0263 7.2 12.0251C 7.2 12.024 7.2 12.0229 7.2 12.0218C 7.2 12.0206 7.2 12.0195 7.2 12.0184C 7.2 12.0173 7.2 12.0161 7.2 12.015C 7.2 12.0139 7.2 12.0128 7.2 12.0116C 7.2 12.0105 7.2 12.0094 7.2 12.0083C 7.2 12.0071 7.2 12.006 7.2 12.0049C 7.2 12.0037 7.2 12.0026 7.2 12.0015C 7.2 12.0004 7.2 11.9992 7.2 11.9981C 7.2 11.997 7.2 11.9958 7.2 11.9947C 7.2 11.9936 7.2 11.9925 7.2 11.9913C 7.2 11.9902 7.2 11.9891 7.2 11.9879C 7.2 11.9868 7.2 11.9857 7.2 11.9845C 7.2 11.9834 7.2 11.9823 7.2 11.9811C 7.2 11.98 7.2 11.9789 7.2 11.9778C 7.2 11.9766 7.2 11.9755 7.2 11.9744C 7.2 11.9732 7.2 11.9721 7.2 11.971C 7.2 11.9698 7.2 11.9687 7.2 11.9676C 7.2 11.9664 7.2 11.9653 7.2 11.9642C 7.2 11.963 7.2 11.9619 7.2 11.9607C 7.2 11.9596 7.2 11.9585 7.2 11.9573C 7.2 11.9562 7.2 11.9551 7.2 11.9539C 7.2 11.9528 7.2 11.9517 7.2 11.9505C 7.2 11.9494 7.2 11.9482 7.2 11.9471C 7.2 11.946 7.2 11.9448 7.2 11.9437C 7.2 11.9426 7.2 11.9414 7.2 11.9403C 7.2 11.9391 7.2 11.938 7.2 11.9369C 7.2 11.9357 7.2 11.9346 7.2 11.9334C 7.2 11.9323 7.2 11.9312 7.2 11.93C 7.2 11.9289 7.2 11.9277 7.2 11.9266C 7.2 11.9255 7.2 11.9243 7.2 11.9232C 7.2 11.922 7.2 11.9209 7.2 11.9197C 7.2 11.9186 7.2 11.9175 7.2 11.9163C 7.2 11.9152 7.2 11.914 7.2 11.9129C 7.2 11.9117 7.2 11.9106 7.2 11.9094C 7.2 11.9083 7.2 11.9071 7.2 11.906C 7.2 11.9049 7.2 11.9037 7.2 11.9026C 7.2 11.9014 7.2 11.9003 7.2 11.8991C 7.2 11.898 7.2 11.8968 7.2 11.8957C 7.2 11.8945 7.2 11.8934 7.2 11.8922C 7.2 11.8911 7.2 11.8899 7.2 11.8888C 7.2 11.8876 7.2 11.8865 7.2 11.8853C 7.2 11.8842 7.2 11.883 7.2 11.8819C 7.2 11.8807 7.2 11.8796 7.2 11.8784C 7.2 11.8773 7.2 11.8761 7.2 11.8749C 7.2 11.8738 7.2 11.8726 7.2 11.8715C 7.2 11.8703 7.2 11.8692 7.2 11.868C 7.2 11.8669 7.2 11.8657 7.2 11.8645C 7.2 11.8634 7.2 11.8622 7.2 11.8611C 7.2 11.8599 7.2 11.8588 7.2 11.8576C 7.2 11.8564 7.2 11.8553 7.2 11.8541C 7.2 11.853 7.2 11.8518 7.2 11.8506C 7.2 11.8495 7.2 11.8483 7.2 11.8472C 7.2 11.846 7.2 11.8448 7.2 11.8437C 7.2 11.8425 7.2 11.8413 7.2 11.8402C 7.2 11.839 7.2 11.8379 7.2 11.8367C 7.2 11.8355 7.2 11.8344 7.2 11.8332C 7.2 11.832 7.2 11.8309 7.2 11.8297C 7.2 11.8285 7.2 11.8274 7.2 11.8262C 7.2 11.825 7.2 11.8239 7.2 11.8227C 7.2 11.8215 7.2 11.8204 7.2 11.8192C 7.2 11.818 7.2 11.8168 7.2 11.8157C 7.2 11.8145 7.2 11.8133 7.2 11.8122C 7.2 11.811 7.2 11.8098 7.2 11.8086C 7.2 11.8075 7.2 11.8063 7.2 11.8051C 7.2 11.8039 7.2 11.8028 7.2 11.8016C 7.2 11.8004 7.2 11.7992 7.2 11.7981C 7.2 11.7969 7.2 11.7957 7.2 11.7945C 7.2 11.7934 7.2 11.7922 7.2 11.791C 7.2 11.7898 7.2 11.7886 7.2 11.7875C 7.2 11.7863 7.2 11.7851 7.2 11.7839C 7.2 11.7827 7.2 11.7816 7.2 11.7804C 7.2 11.7792 7.2 11.778 7.2 11.7768C 7.2 11.7757 7.2 11.7745 7.2 11.7733C 7.2 11.7721 7.2 11.7709 7.2 11.7697C 7.2 11.7685 7.2 11.7674 7.2 11.7662C 7.2 11.765 7.2 11.7638 7.2 11.7626C 7.2 11.7614 7.2 11.7602 7.2 11.759C 7.2 11.7579 7.2 11.7567 7.2 11.7555C 7.2 11.7543 7.2 11.7531 7.2 11.7519C 7.2 11.7507 7.2 11.7495 7.2 11.7483C 7.2 11.7471 7.2 11.7459 7.2 11.7447C 7.2 11.7435 7.2 11.7424 7.2 11.7412C 7.2 11.74 7.2 11.7388 7.2 11.7376C 7.2 11.7364 7.2 11.7352 7.2 11.734C 7.2 11.7328 7.2 11.7316 7.2 11.7304C 7.2 11.7292 7.2 11.728 7.2 11.7268C 7.2 11.7256 7.2 11.7244 7.2 11.7232C 7.2 11.722 7.2 11.7208 7.2 11.7196C 7.2 11.7184 7.2 11.7172 7.2 11.716C 7.2 11.7147 7.2 11.7135 7.2 11.7123C 7.2 11.7111 7.2 11.7099 7.2 11.7087C 7.2 11.7075 7.2 11.7063 7.2 11.7051C 7.2 11.7039 7.2 11.7027 7.2 11.7015C 7.2 11.7003 7.2 11.699 7.2 11.6978C 7.2 11.6966 7.2 11.6954 7.2 11.6942C 7.2 11.693 7.2 11.6918 7.2 11.6906C 7.2 11.6893 7.2 11.6881 7.2 11.6869C 7.2 11.6857 7.2 11.6845 7.2 11.6833C 7.2 11.682 7.2 11.6808 7.2 11.6796C 7.2 11.6784 7.2 11.6772 7.2 11.6759C 7.2 11.6747 7.2 11.6735 7.2 11.6723C 7.2 11.6711 7.2 11.6698 7.2 11.6686C 7.2 11.6674 7.2 11.6662 7.2 11.6649C 7.2 11.6637 7.2 11.6625 7.2 11.6613C 7.2 11.66 7.2 11.6588 7.2 11.6576C 7.2 11.6564 7.2 11.6551 7.2 11.6539C 7.2 11.6527 7.2 11.6514 7.2 11.6502C 7.2 11.649 7.2 11.6477 7.2 11.6465C 7.2 11.6453 7.2 11.644 7.2 11.6428C 7.2 11.6416 7.2 11.6403 7.2 11.6391C 7.2 11.6379 7.2 11.6366 7.2 11.6354C 7.2 11.6342 7.2 11.6329 7.2 11.6317C 7.2 11.6304 7.2 11.6292 7.2 11.628C 7.2 11.6267 7.2 11.6255 7.2 11.6242C 7.2 11.623 7.2 11.6218 7.2 11.6205C 7.2 11.6193 7.2 11.618 7.2 11.6168C 7.2 11.6155 7.2 11.6143 7.2 11.613C 7.2 11.6118 7.2 11.6105 7.2 11.6093C 7.2 11.608 7.2 11.6068 7.2 11.6055C 7.2 11.6043 7.2 11.603 7.2 11.6018C 7.2 11.6005 7.2 11.5993 7.2 11.598C 7.2 11.5968 7.2 11.5955 7.2 11.5943C 7.2 11.593 7.2 11.5918 7.2 11.5905C 7.2 11.5892 7.2 11.588 7.2 11.5867C 7.2 11.5855 7.2 11.5842 7.2 11.5829C 7.2 11.5817 7.2 11.5804 7.2 11.5792C 7.2 11.5779 7.2 11.5766 7.2 11.5754C 7.2 11.5741 7.2 11.5728 7.2 11.5716C 7.2 11.5703 7.2 11.569 7.2 11.5678C 7.2 11.5665 7.2 11.5652 7.2 11.564C 7.2 11.5627 7.2 11.5614 7.2 11.5602C 7.2 11.5589 7.2 11.5576 7.2 11.5563C 7.2 11.5551 7.2 11.5538 7.2 11.5525C 7.2 11.5513 7.2 11.55 7.2 11.5487C 7.2 11.5474 7.2 11.5461 7.2 11.5449C 7.2 11.5436 7.2 11.5423 7.2 11.541C 7.2 11.5397 7.2 11.5385 7.2 11.5372C 7.2 11.5359 7.2 11.5346 7.2 11.5333C 7.2 11.5321 7.2 11.5308 7.2 11.5295C 7.2 11.5282 7.2 11.5269 7.2 11.5256C 7.2 11.5243 7.2 11.523 7.2 11.5218C 7.2 11.5205 7.2 11.5192 7.2 11.5179C 7.2 11.5166 7.2 11.5153 7.2 11.514C 7.2 11.5127 7.2 11.5114 7.2 11.5101C 7.2 11.5088 7.2 11.5075 7.2 11.5062C 7.2 11.5049 7.2 11.5036 7.2 11.5023C 7.2 11.501 7.2 11.4997 7.2 11.4984C 7.2 11.4971 7.2 11.4958 7.2 11.4945C 7.2 11.4932 7.2 11.4919 7.2 11.4906C 7.2 11.4893 7.2 11.488 7.2 11.4867C 7.2 11.4854 7.2 11.4841 7.2 11.4828C 7.2 11.4815 7.2 11.4802 7.2 11.4788C 7.2 11.4775 7.2 11.4762 7.2 11.4749C 7.2 11.4736 7.2 11.4723 7.2 11.471C 7.2 11.4696 7.2 11.4683 7.2 11.467C 7.2 11.4657 7.2 11.4644 7.2 11.4631C 7.2 11.4617 7.2 11.4604 7.2 11.4591C 7.2 11.4578 7.2 11.4565 7.2 11.4551C 7.2 11.4538 7.2 11.4525 7.2 11.4512C 7.2 11.4498 7.2 11.4485 7.2 11.4472C 7.2 11.4459 7.2 11.4445 7.2 11.4432C 7.2 11.4419 7.2 11.4405 7.2 11.4392C 7.2 11.4379 7.2 11.4365 7.2 11.4352C 7.2 11.4339 7.2 11.4325 7.2 11.4312C 7.2 11.4299 7.2 11.4285 7.2 11.4272C 7.2 11.4258 7.2 11.4245 7.2 11.4232C 7.2 11.4218 7.2 11.4205 7.2 11.4191C 7.2 11.4178 7.2 11.4165 7.2 11.4151C 7.2 11.4138 7.2 11.4124 7.2 11.4111C 7.2 11.4097 7.2 11.4084 7.2 11.407C 7.2 11.4057 7.2 11.4043 7.2 11.403C 7.2 11.4016 7.2 11.4003 7.2 11.3989C 7.2 11.3976 7.2 11.3962 7.2 11.3949C 7.2 11.3935 7.2 11.3921 7.2 11.3908C 7.2 11.3894 7.2 11.3881 7.2 11.3867C 7.2 11.3853 7.2 11.384 7.2 11.3826C 7.2 11.3813 7.2 11.3799 7.2 11.3785C 7.2 11.3772 7.2 11.3758 7.2 11.3744L 5.2 11.3744ZM 5.2555 12.9459C 5.15304 13.2405 4.87067 13.586 4.29817 14.0428C 3.69877 14.5211 3.08438 14.903 2.2818 15.4944C 0.820197 16.5714 -0.875126 18.0901 -0.998813 20.6257L 0.998812 20.7232C 1.07513 19.1587 2.0798 18.1275 3.4682 17.1045C 4.09062 16.6459 4.93873 16.0903 5.54558 15.6061C 6.17933 15.1004 6.84697 14.4584 7.1445 13.603L 5.2555 12.9459ZM 0.290481 21.6313L 17.0905 16.5313L 16.5095 14.6176L -0.290482 19.7176L 0.290481 21.6313ZM 17.7919 15.4473C 17.6327 14.2057 17.0676 13.3409 16.2321 12.7962C 15.4583 12.2916 14.5403 12.1223 13.7813 12.0315C 13.3976 11.9856 12.9999 11.9549 12.6679 11.9243C 12.3189 11.8922 12.0273 11.8593 11.7794 11.8096C 11.5281 11.7592 11.3795 11.7022 11.2956 11.6528C 11.2294 11.6138 11.2247 11.5937 11.2216 11.5864L 9.37837 12.3625C 9.78337 13.3244 10.712 13.6353 11.3862 13.7705C 11.7462 13.8427 12.1288 13.8832 12.4848 13.9159C 12.8579 13.9502 13.1962 13.9758 13.5437 14.0174C 14.2472 14.1015 14.773 14.2323 15.1397 14.4715C 15.4449 14.6704 15.7173 14.9931 15.8081 15.7016L 17.7919 15.4473Z"/>
<path id="path5_stroke" d="M -0.278987 12.2884C -0.809343 12.4424 -1.11438 12.9973 -0.960295 13.5276C -0.806215 14.058 -0.251369 14.363 0.278987 14.209L -0.278987 12.2884ZM 45.8818 0.960322C 46.4122 0.806241 46.7172 0.251396 46.5631 -0.27896C 46.409 -0.809317 45.8542 -1.11435 45.3238 -0.960268L 45.8818 0.960322ZM 0.278987 14.209L 45.8818 0.960322L 45.3238 -0.960268L -0.278987 12.2884L 0.278987 14.209Z"/>
<path id="path6_stroke" d="M -0.260546 6.81628C -0.793755 6.96018 -1.10936 7.50908 -0.965461 8.04229C -0.821566 8.5755 -0.272664 8.8911 0.260546 8.7472L -0.260546 6.81628ZM 29.0962 0.96543C 29.6294 0.821534 29.945 0.272632 29.8011 -0.260578C 29.6572 -0.793787 29.1083 -1.10939 28.5751 -0.965493L 29.0962 0.96543ZM 0.260546 8.7472L 29.0962 0.96543L 28.5751 -0.965493L -0.260546 6.81628L 0.260546 8.7472Z"/>
<path id="path7_stroke" d="M -0.263879 4.97731C -0.796589 5.12304 -1.11029 5.67303 -0.964556 6.20574C -0.818819 6.73845 -0.26883 7.05216 0.263879 6.90642L -0.263879 4.97731ZM 21.9831 0.964556C 22.5158 0.818819 22.8295 0.26883 22.6838 -0.263879C 22.538 -0.796589 21.9881 -1.11029 21.4553 -0.964556L 21.9831 0.964556ZM 0.263879 6.90642L 21.9831 0.964556L 21.4553 -0.964556L -0.263879 4.97731L 0.263879 6.90642Z"/>
<path id="path8_stroke" d="M -0.283792 11.1585C -0.81337 11.3153 -1.11562 11.8716 -0.958886 12.4012C -0.802152 12.9308 -0.245786 13.233 0.283792 13.0763L -0.283792 11.1585ZM 41.2265 0.95887C 41.7561 0.802136 42.0584 0.24577 41.9016 -0.283808C 41.7449 -0.813386 41.1885 -1.11564 40.659 -0.958901L 41.2265 0.95887ZM 0.283792 13.0763L 41.2265 0.95887L 40.659 -0.958901L -0.283792 11.1585L 0.283792 13.0763Z"/>
</defs>
</svg>
