<svg width="96" height="96" viewBox="0 0 96 96" version="1.1" xmlns="http://www.w3.org/2000/svg" xmlns:xlink="http://www.w3.org/1999/xlink">
<title>finger</title>
<desc>Created using Figma</desc>
<g id="Canvas" transform="matrix(2 0 0 2 -4838 -1080)">
<g id="finger">
<g id="Vector">
<use xlink:href="#path0_stroke" transform="translate(2456.3 546.426)" fill="#495CF2"/>
</g>
<g id="Vector">
<use xlink:href="#path1_stroke" transform="translate(2434.47 541.365)" fill="#495CF2"/>
</g>
<g id="Vector">
<use xlink:href="#path2_stroke" transform="translate(2421.91 544.699)" fill="#495CF2"/>
</g>
<g id="Vector">
<use xlink:href="#path3_stroke" transform="translate(2430.7 576.157)" fill="#495CF2"/>
</g>
<g id="Vector">
<use xlink:href="#path4_stroke" transform="translate(2440.88 565.365)" fill="#495CF2"/>
</g>
<g id="Vector">
<use xlink:href="#path5_stroke" transform="translate(2424.91 560.746)" fill="#495CF2"/>
</g>
<g id="Vector">
<use xlink:href="#path6_stroke" transform="translate(2437.43 560.932)" fill="#495CF2"/>
</g>
<g id="Vector">
<use xlink:href="#path7_stroke" transform="translate(2421.88 566.384)" fill="#495CF2"/>
</g>
<g id="Vector">
<use xlink:href="#path8_stroke" transform="translate(2434.13 556.365)" fill="#495CF2"/>
</g>
<g id="Vector">
<use xlink:href="#path9_stroke" transform="translate(2445.67 567.365)" fill="#495CF2"/>
</g>
<g id="Vector">
<use xlink:href="#path10_stroke" transform="translate(2420.31 556.953)" fill="#495CF2"/>
</g>
<g id="Vector">
<use xlink:href="#path11_stroke" transform="translate(2435.34 551.365)" fill="#495CF2"/>
</g>
<g id="Vector">
<use xlink:href="#path12_stroke" transform="translate(2449.3 552.826)" fill="#495CF2"/>
</g>
<g id="Vector">
<use xlink:href="#path13_stroke" transform="translate(2453.74 577.734)" fill="#495CF2"/>
</g>
<g id="Vector">
<use xlink:href="#path14_stroke" transform="translate(2420.2 559.771)" fill="#495CF2"/>
</g>
<g id="Vector">
<use xlink:href="#path15_stroke" transform="translate(2426.65 546.742)" fill="#495CF2"/>
</g>
<g id="Vector">
<use xlink:href="#path16_stroke" transform="translate(2442.91 546.365)" fill="#495CF2"/>
</g>
</g>
</g>
<defs>
<path id="path0_stroke" d="M 0.568235 -0.822866C 0.113778 -1.13669 -0.509039 -1.02269 -0.822867 -0.568235C -1.13669 -0.113779 -1.02269 0.509038 -0.568236 0.822866L 0.568235 -0.822866ZM 8.50319 18.4275C 8.55371 18.9774 9.0405 19.3823 9.59047 19.3318C 10.1404 19.2813 10.5453 18.7945 10.4948 18.2445L 8.50319 18.4275ZM -0.568236 0.822866C 3.35002 3.52864 5.63165 7.87882 6.93308 11.6546C 7.5796 13.5303 7.97351 15.2333 8.20539 16.4661C 8.32119 17.0818 8.39623 17.5783 8.44204 17.9181C 8.46494 18.0879 8.48052 18.2184 8.49023 18.3049C 8.49509 18.3482 8.49848 18.3804 8.50057 18.401C 8.50162 18.4113 8.50235 18.4188 8.50278 18.4232C 8.50299 18.4254 8.50313 18.4269 8.5032 18.4276C 8.50324 18.4279 8.50325 18.4281 8.50325 18.4281C 8.50325 18.4281 8.50323 18.4279 8.50323 18.4279C 8.50321 18.4277 8.50319 18.4275 9.499 18.336C 10.4948 18.2445 10.4948 18.2442 10.4947 18.2438C 10.4947 18.2436 10.4947 18.2431 10.4946 18.2428C 10.4946 18.242 10.4945 18.241 10.4944 18.2398C 10.4941 18.2375 10.4939 18.2344 10.4935 18.2305C 10.4927 18.2228 10.4917 18.2121 10.4903 18.1985C 10.4875 18.1712 10.4834 18.1321 10.4777 18.0818C 10.4665 17.9813 10.4491 17.8361 10.4241 17.6508C 10.3742 17.2804 10.2938 16.7496 10.1709 16.0964C 9.92549 14.7916 9.50915 12.9909 8.82392 11.0029C 7.46185 7.05118 4.99398 2.23336 0.568235 -0.822866L -0.568236 0.822866Z"/>
<path id="path1_stroke" d="M -0.397255 0.578292C -0.904091 0.79769 -1.13711 1.38642 -0.917707 1.89326C -0.698309 2.40009 -0.10958 2.63311 0.397256 2.41371L -0.397255 0.578292ZM 17.4733 3.34505C 17.9632 3.60003 18.5671 3.40958 18.822 2.91968C 19.077 2.42978 18.8866 1.82593 18.3967 1.57095L 17.4733 3.34505ZM 0.397256 2.41371C 2.3977 1.54776 4.72173 1 7.435 1L 7.435 -1C 4.44227 -1 1.8483 -0.393758 -0.397255 0.578292L 0.397256 2.41371ZM 7.435 1C 11.4263 1 14.734 1.91929 17.4733 3.34505L 18.3967 1.57095C 15.372 -0.00329262 11.7477 -1 7.435 -1L 7.435 1Z"/>
<path id="path2_stroke" d="M -0.61489 9.68239C -1.05043 10.022 -1.12821 10.6504 -0.788613 11.0859C -0.449019 11.5214 0.179351 11.5992 0.61489 11.2596L -0.61489 9.68239ZM 9.8506 0.819837C 10.3034 0.503601 10.4141 -0.119813 10.0978 -0.572597C 9.7816 -1.02538 9.15819 -1.13607 8.7054 -0.819837L 9.8506 0.819837ZM 0.61489 11.2596C 1.1028 10.8792 1.60867 10.1826 2.10055 9.47816C 2.63459 8.71337 3.22839 7.81953 3.95962 6.82254C 5.4102 4.84475 7.3088 2.5951 9.8506 0.819837L 8.7054 -0.819837C 5.9052 1.1359 3.8548 3.58375 2.34688 5.63971C 1.59886 6.65959 0.961037 7.61669 0.460764 8.33312C -0.0816741 9.10994 -0.412796 9.52481 -0.61489 9.68239L 0.61489 11.2596Z"/>
<path id="path3_stroke" d="M 9.2147 0.550698C 9.51885 0.0897037 9.39169 -0.530562 8.9307 -0.834705C 8.4697 -1.13885 7.84944 -1.01169 7.54529 -0.550699L 9.2147 0.550698ZM -0.400425 6.19167C -0.9065 6.41282 -1.13748 7.00235 -0.91633 7.50843C -0.695181 8.0145 -0.10565 8.24548 0.400425 8.02433L -0.400425 6.19167ZM 7.54529 -0.550699C 5.81948 2.06516 3.29706 4.57592 -0.400425 6.19167L 0.400425 8.02433C 4.51094 6.22809 7.31452 3.43084 9.2147 0.550698L 7.54529 -0.550699Z"/>
<path id="path4_stroke" d="M 3.02873 0.0672823C 3.06589 -0.483751 2.64932 -0.960575 2.09828 -0.997734C 1.54725 -1.03489 1.07042 -0.618316 1.03327 -0.0672823L 3.02873 0.0672823ZM -0.913503 7.09817C -1.13819 7.60268 -0.911346 8.19382 -0.406832 8.4185C 0.0976822 8.64319 0.688816 8.41635 0.913503 7.91183L -0.913503 7.09817ZM 2.031 0C 1.03327 -0.0672823 1.03328 -0.0674824 1.03329 -0.0676692C 1.0333 -0.0677139 1.03331 -0.0678879 1.03331 -0.0679775C 1.03333 -0.0681568 1.03333 -0.0682838 1.03334 -0.0683586C 1.03335 -0.0685082 1.03335 -0.0684493 1.03333 -0.0681831C 1.03329 -0.0676506 1.03319 -0.0662893 1.03303 -0.0641102C 1.03271 -0.0597518 1.03212 -0.0521232 1.03124 -0.0413124C 1.02948 -0.0196891 1.02652 0.0146529 1.02205 0.0610102C 1.01311 0.153741 0.998126 0.294444 0.974551 0.477503C 0.927379 0.843782 0.845941 1.37862 0.710014 2.03726C 0.437744 3.35653 -0.0508212 5.1611 -0.913503 7.09817L 0.913503 7.91183C 1.84782 5.81391 2.37476 3.86597 2.66874 2.44149C 2.81593 1.72825 2.90531 1.14341 2.95817 0.732967C 2.98461 0.527665 3.00194 0.365752 3.01282 0.252955C 3.01826 0.196548 3.02208 0.152399 3.02463 0.121222C 3.0259 0.105633 3.02685 0.0932839 3.02752 0.0842649C 3.02785 0.0797554 3.02812 0.076078 3.02832 0.0732439C 3.02842 0.0718269 3.0285 0.0706206 3.02857 0.0696266C 3.02861 0.0691295 3.02864 0.0686856 3.02867 0.0682948C 3.02868 0.0680995 3.0287 0.0678462 3.0287 0.0677486C 3.02872 0.0675088 3.02873 0.0672823 2.031 0Z"/>
<path id="path5_stroke" d="M 16.9247 0.879084C 17.4102 0.615828 17.5903 0.00883749 17.3271 -0.476667C 17.0638 -0.962171 16.4568 -1.14234 15.9713 -0.879083L 16.9247 0.879084ZM 11.744 9.563L 10.8565 9.10217L 10.8565 9.10228L 11.744 9.563ZM 0 16.619C -0.552285 16.619 -1 17.0667 -1 17.619C -1 18.1713 -0.552285 18.619 0 18.619L 0 16.619ZM 15.9713 -0.879083C 15.0983 -0.405718 14.4543 0.344883 13.9557 1.16532C 13.4574 1.98539 13.0694 2.93391 12.7353 3.87674C 12.4063 4.80515 12.0976 5.82565 11.8053 6.70768C 11.5021 7.62247 11.202 8.43677 10.8565 9.10217L 12.6315 10.0238C 13.0545 9.20924 13.3952 8.2679 13.7037 7.33682C 14.0231 6.37297 14.2971 5.45735 14.6204 4.54476C 14.9387 3.64659 15.2728 2.84924 15.6649 2.20393C 16.0568 1.55899 16.4717 1.12472 16.9247 0.879084L 15.9713 -0.879083ZM 10.8565 9.10228C 8.86504 12.9386 5.08941 16.619 0 16.619L 0 18.619C 6.14259 18.619 10.465 14.1974 12.6315 10.0237L 10.8565 9.10228Z"/>
<path id="path6_stroke" d="M -0.580992 24.1671C -1.0305 24.488 -1.13478 25.1125 -0.813911 25.562C -0.493038 26.0115 0.131481 26.1158 0.580991 25.7949L -0.580992 24.1671ZM 8.01981 -0.827267C 7.56292 -1.13755 6.94101 -1.0187 6.63073 -0.56181C 6.32045 -0.104923 6.4393 0.516988 6.89619 0.827266L 8.01981 -0.827267ZM 0.580991 25.7949C 4.3919 23.0746 6.85431 18.8845 8.36186 15.0086C 9.86816 11.1359 10.474 7.43931 10.474 5.563L 8.474 5.563C 8.474 7.14369 7.93334 10.5931 6.49789 14.2836C 5.06369 17.971 2.78909 21.7614 -0.580992 24.1671L 0.580991 25.7949ZM 10.474 5.563C 10.474 4.27629 10.3245 3.01605 9.95633 1.91859C 9.58824 0.821308 8.97906 -0.175827 8.01981 -0.827267L 6.89619 0.827266C 7.38294 1.15783 7.78176 1.72469 8.06017 2.55466C 8.33853 3.38445 8.474 4.41471 8.474 5.563L 10.474 5.563Z"/>
<path id="path7_stroke" d="M 11.234 0.473201C 11.4953 -0.0133361 11.3127 -0.619612 10.8262 -0.880955C 10.3397 -1.1423 9.73339 -0.95974 9.47205 -0.473203L 11.234 0.473201ZM 2.86102e-08 5.981C -0.552285 5.981 -1 6.42872 -1 6.981C -1 7.53328 -0.552285 7.981 2.86102e-08 7.981L 2.86102e-08 5.981ZM 9.47205 -0.473203C 8.49907 1.33818 7.45113 2.93701 6.00399 4.09189C 4.58553 5.22388 2.71691 5.981 2.86102e-08 5.981L 2.86102e-08 7.981C 3.13409 7.981 5.45148 7.09162 7.25151 5.65511C 9.02287 4.24149 10.2259 2.34982 11.234 0.473201L 9.47205 -0.473203Z"/>
<path id="path8_stroke" d="M 16.121 6.79225C 16.2918 7.31746 16.856 7.60478 17.3813 7.43398C 17.9065 7.26318 18.1938 6.69896 18.023 6.17375L 16.121 6.79225ZM -0.882734 5.83813C -1.14224 6.32565 -0.957396 6.93123 -0.469876 7.19073C 0.0176441 7.45024 0.623227 7.2654 0.882732 6.77788L -0.882734 5.83813ZM 18.023 6.17375C 17.4165 4.30892 16.4054 2.51602 14.8761 1.18244C 13.331 -0.164923 11.3047 -1 8.773 -1L 8.773 1C 10.8303 1 12.3875 1.66592 13.5616 2.68981C 14.7516 3.72748 15.5955 5.17608 16.121 6.79225L 18.023 6.17375ZM 8.773 -1C 6.14248 -1 4.17229 -0.19611 2.62006 1.1121C 1.10154 2.39189 0.036562 4.11109 -0.882734 5.83813L 0.882732 6.77788C 1.77644 5.09891 2.69546 3.66411 3.90894 2.6414C 5.08871 1.64711 6.59852 1 8.773 1L 8.773 -1Z"/>
<path id="path9_stroke" d="M -0.784607 18.032C -1.12702 18.4653 -1.05332 19.0942 -0.619992 19.4366C -0.186665 19.779 0.442196 19.7053 0.784608 19.272L -0.784607 18.032ZM 7.237 0C 7.237 -0.552285 6.78928 -1 6.237 -1C 5.68472 -1 5.237 -0.552285 5.237 0L 7.237 0ZM 4.88281e-07 18.652C 0.784608 19.272 0.784833 19.2717 0.785081 19.2714C 0.785196 19.2712 0.785468 19.2709 0.785697 19.2706C 0.786155 19.27 0.786708 19.2693 0.787355 19.2685C 0.788649 19.2669 0.790319 19.2647 0.792359 19.2621C 0.79644 19.2569 0.802002 19.2498 0.808998 19.2407C 0.82299 19.2226 0.842718 19.1969 0.867799 19.1637C 0.917958 19.0974 0.989549 19.0011 1.0795 18.8762C 1.25937 18.6264 1.51285 18.2617 1.81531 17.792C 2.4199 16.8531 3.22213 15.4914 4.02355 13.7859C 5.62389 10.3804 7.237 5.56976 7.237 0L 5.237 0C 5.237 5.18924 3.73161 9.70463 2.21345 12.9353C 1.45562 14.548 0.698602 15.832 0.133755 16.7092C -0.148504 17.1476 -0.382288 17.4836 -0.543506 17.7075C -0.624099 17.8194 -0.686506 17.9032 -0.727709 17.9577C -0.748309 17.985 -0.763603 18.0049 -0.773214 18.0174C -0.778019 18.0236 -0.781402 18.0279 -0.783317 18.0304C -0.784275 18.0316 -0.784865 18.0323 -0.785082 18.0326C -0.78519 18.0327 -0.785206 18.0328 -0.785127 18.0327C -0.785087 18.0326 -0.784957 18.0325 -0.784938 18.0324C -0.784785 18.0322 -0.784607 18.032 4.88281e-07 18.652Z"/>
<path id="path10_stroke" d="M 13.0192 0.594399C 13.3474 0.150268 13.2535 -0.475892 12.8094 -0.80417C 12.3653 -1.13245 11.7391 -1.03853 11.4108 -0.5944L 13.0192 0.594399ZM 0.0915505 10.4162C -0.458415 10.3656 -0.945238 10.7705 -0.9958 11.3204C -1.04636 11.8704 -0.641516 12.3572 -0.0915503 12.4078L 0.0915505 10.4162ZM 11.4108 -0.5944C 10.4189 0.747651 9.56077 2.1899 8.75276 3.54114C 7.93376 4.91074 7.17019 6.17968 6.33413 7.26517C 5.50149 8.34622 4.6369 9.19059 3.64881 9.73635C 2.67818 10.2725 1.53709 10.5491 0.0915505 10.4162L -0.0915503 12.4078C 1.73691 12.5759 3.28082 12.2244 4.61579 11.4871C 5.93329 10.7593 6.99489 9.6849 7.91862 8.48557C 8.83894 7.29069 9.66193 5.9177 10.4693 4.56758C 11.2876 3.1991 12.0956 1.84385 13.0192 0.594399L 11.4108 -0.5944Z"/>
<path id="path11_stroke" d="M 10.1015 1.21848C 10.6452 1.3154 11.1646 0.953191 11.2615 0.409475C 11.3584 -0.13424 10.9962 -0.653571 10.4525 -0.750484L 10.1015 1.21848ZM -0.630008 1.78741C -1.05891 2.13536 -1.12453 2.76511 -0.776588 3.19401C -0.428644 3.62291 0.201111 3.68853 0.630009 3.34059L -0.630008 1.78741ZM 10.4525 -0.750484C 9.52868 -0.915141 8.5669 -1 7.57 -1L 7.57 1C 8.4531 1 9.29732 1.07514 10.1015 1.21848L 10.4525 -0.750484ZM 7.57 -1C 4.0664 -1 1.44529 0.103826 -0.630008 1.78741L 0.630009 3.34059C 2.35871 1.93817 4.5376 1 7.57 1L 7.57 -1Z"/>
<path id="path12_stroke" d="M 6.00215 20.515C 5.9033 21.0584 6.26366 21.579 6.80703 21.6779C 7.3504 21.7767 7.87101 21.4163 7.96985 20.873L 6.00215 20.515ZM 0.454313 -0.890842C -0.037686 -1.14175 -0.639932 -0.946311 -0.890842 -0.454313C -1.14175 0.0376859 -0.946311 0.639932 -0.454313 0.890842L 0.454313 -0.890842ZM 7.96985 20.873C 8.3407 18.8343 8.604 16.6484 8.604 14.54L 6.604 14.54C 6.604 16.4916 6.35929 18.5517 6.00215 20.515L 7.96985 20.873ZM 8.604 14.54C 8.604 7.4381 5.63318 1.75028 0.454313 -0.890842L -0.454313 0.890842C 3.88482 3.10372 6.604 7.9779 6.604 14.54L 8.604 14.54Z"/>
<path id="path13_stroke" d="M -0.93474 4.77567C -1.13098 5.29191 -0.871575 5.86949 -0.355333 6.06574C 0.16091 6.26198 0.738495 6.00258 0.93474 5.48633L -0.93474 4.77567ZM 2.56781 0.255487C 2.70891 -0.278469 2.39044 -0.825711 1.85649 -0.966813C 1.32253 -1.10791 0.775287 -0.789443 0.634186 -0.255488L 2.56781 0.255487ZM 1.83105e-07 5.131C 0.93474 5.48633 0.934768 5.48626 0.934799 5.48618C 0.934814 5.48614 0.934848 5.48605 0.934877 5.48597C 0.934935 5.48582 0.935005 5.48563 0.935088 5.48542C 0.935252 5.48498 0.935466 5.48442 0.935728 5.48373C 0.936252 5.48235 0.93697 5.48045 0.937878 5.47804C 0.939694 5.47323 0.942273 5.46638 0.945589 5.45754C 0.952222 5.43985 0.961805 5.41416 0.97414 5.38077C 0.998809 5.31399 1.03449 5.2164 1.0796 5.09036C 1.1698 4.83833 1.29775 4.47236 1.45071 4.01151C 1.75648 3.09026 2.16301 1.78733 2.56781 0.255487L 0.634186 -0.255488C 0.241988 1.22867 -0.151983 2.49124 -0.447465 3.38149C -0.595128 3.82639 -0.717986 4.17767 -0.803442 4.41645C -0.846164 4.53582 -0.87952 4.62702 -0.901933 4.68769C -0.913139 4.71803 -0.921607 4.74072 -0.927141 4.75548C -0.929908 4.76287 -0.931941 4.76826 -0.933216 4.77164C -0.933853 4.77333 -0.934301 4.77451 -0.934556 4.77518C -0.934684 4.77552 -0.934763 4.77573 -0.934794 4.77581C -0.934809 4.77585 -0.934812 4.77586 -0.934803 4.77583C -0.934799 4.77582 -0.934783 4.77578 -0.934781 4.77577C -0.934762 4.77573 -0.93474 4.77567 1.83105e-07 5.131Z"/>
<path id="path14_stroke" d="M 5.07439 0.591385C 5.401 0.146029 5.30474 -0.479776 4.85938 -0.806389C 4.41403 -1.133 3.78822 -1.03674 3.46161 -0.591384L 5.07439 0.591385ZM -0.324897 2.64925C -0.84722 2.82869 -1.12518 3.39757 -0.945749 3.9199C -0.766314 4.44222 -0.197426 4.72018 0.324897 4.54075L -0.324897 2.64925ZM 3.46161 -0.591384C 2.27458 1.0272 1.11369 2.15505 -0.324897 2.64925L 0.324897 4.54075C 2.35031 3.84495 3.81342 2.3108 5.07439 0.591385L 3.46161 -0.591384Z"/>
<path id="path15_stroke" d="M 12.3787 0.980856C 12.9204 0.873309 13.2724 0.34698 13.1649 -0.194732C 13.0573 -0.736444 12.531 -1.0884 11.9893 -0.980857L 12.3787 0.980856ZM -0.841301 9.19543C -1.13985 9.66007 -1.0052 10.2788 -0.540566 10.5773C -0.0759285 10.8758 0.542755 10.7412 0.841301 10.2766L -0.841301 9.19543ZM 11.9893 -0.980857C 5.00443 0.405862 1.74101 5.17651 -0.841301 9.19543L 0.841301 10.2766C 3.40699 6.2835 6.27757 2.19214 12.3787 0.980856L 11.9893 -0.980857Z"/>
<path id="path16_stroke" d="M 16.2158 29.9414C 16.0454 30.4667 16.3331 31.0308 16.8584 31.2012C 17.3837 31.3716 17.9478 31.0839 18.1182 30.5586L 16.2158 29.9414ZM 0.0583469 -0.998296C -0.492997 -1.03052 -0.966072 -0.609691 -0.998296 -0.0583469C -1.03052 0.492997 -0.609691 0.966072 -0.0583469 0.998296L 0.0583469 -0.998296ZM 18.1182 30.5586C 19.1216 27.4658 20.1179 20.0065 18.158 13.1112C 17.1723 9.64303 15.4235 6.26538 12.4993 3.67198C 9.56469 1.06941 5.51799 -0.6792 0.0583469 -0.998296L -0.0583469 0.998296C 5.01301 1.2947 8.61581 2.90109 11.1722 5.1683C 13.739 7.44469 15.3229 10.4516 16.2342 13.658C 18.0686 20.112 17.1174 27.1622 16.2158 29.9414L 18.1182 30.5586Z"/>
</defs>
</svg>
