<svg width="322" height="268" viewBox="0 0 322 268" version="1.1" xmlns="http://www.w3.org/2000/svg" xmlns:xlink="http://www.w3.org/1999/xlink">
<title>Group 25</title>
<desc>Created using Figma</desc>
<g id="Canvas" transform="matrix(2 0 0 2 -5360 -898)">
<g id="Group 25">
<g id="Group 24.2" opacity="0.5">
<g id="Vector">
<use xlink:href="#path0_fill" transform="translate(2680.5 449.122)" fill="#F7FAFF"/>
</g>
<g id="Group">
<mask id="mask0_alpha" mask-type="alpha">
<g id="Vector">
<use xlink:href="#path1_fill" transform="translate(2705.75 470.06)" fill="#25328E"/>
</g>
</mask>
<g id="Vector" mask="url(#mask0_alpha)">
<use xlink:href="#path1_fill" transform="translate(2705.75 470.06)" fill="#495CF2"/>
</g>
<g id="Vector" mask="url(#mask0_alpha)">
<use xlink:href="#path2_fill" transform="translate(2709.29 477.788)" fill="#FFFFFF"/>
</g>
</g>
<g id="Line">
<use xlink:href="#path3_stroke" transform="matrix(0.956183 -0.292771 0.295405 0.955372 2690.12 517.917)" fill="#DAE9FF"/>
</g>
<g id="Line">
<use xlink:href="#path4_stroke" transform="matrix(0.95707 -0.289858 0.29247 0.956275 2690.12 532.274)" fill="#DAE9FF"/>
</g>
<g id="Line">
<use xlink:href="#path5_stroke" transform="matrix(0.951665 -0.307139 0.309876 0.950777 2690.12 546.631)" fill="#DAE9FF"/>
</g>
<g id="Line">
<use xlink:href="#path6_stroke" transform="matrix(0.951885 -0.306457 0.309189 0.951001 2690.12 559.792)" fill="#DAE9FF"/>
</g>
</g>
<g id="Group 24.1" opacity="0.8">
<g id="Vector">
<use xlink:href="#path0_fill" transform="translate(2708.99 449.122)" fill="#F7FAFF"/>
</g>
<g id="Group">
<mask id="mask1_alpha" mask-type="alpha">
<g id="Vector">
<use xlink:href="#path1_fill" transform="translate(2734.24 470.06)" fill="#25328E"/>
</g>
</mask>
<g id="Vector" mask="url(#mask1_alpha)">
<use xlink:href="#path1_fill" transform="translate(2734.24 470.06)" fill="#495CF2"/>
</g>
<g id="Vector" mask="url(#mask1_alpha)">
<use xlink:href="#path2_fill" transform="translate(2737.78 477.788)" fill="#FFFFFF"/>
</g>
</g>
<g id="Line">
<use xlink:href="#path3_stroke" transform="matrix(0.956183 -0.292771 0.295405 0.955372 2718.61 517.917)" fill="#DAE9FF"/>
</g>
<g id="Line">
<use xlink:href="#path4_stroke" transform="matrix(0.95707 -0.289858 0.29247 0.956275 2718.61 532.274)" fill="#DAE9FF"/>
</g>
<g id="Line">
<use xlink:href="#path5_stroke" transform="matrix(0.951665 -0.307139 0.309876 0.950777 2718.61 546.631)" fill="#DAE9FF"/>
</g>
<g id="Line">
<use xlink:href="#path6_stroke" transform="matrix(0.951885 -0.306457 0.309189 0.951001 2718.61 559.792)" fill="#DAE9FF"/>
</g>
</g>
<g id="Group 24">
<g id="Vector">
<use xlink:href="#path0_fill" transform="translate(2738.57 449.122)" fill="#F7FAFF"/>
</g>
<g id="Group 2">
<g id="Line 2">
<use xlink:href="#path7_stroke" transform="matrix(0.957235 -0.289313 0.289313 0.957235 2781.5 515.745)" fill="#495CF2"/>
</g>
<g id="Ellipse">
<use xlink:href="#path8_fill" transform="matrix(0.99978 -0.0209717 0.0209717 0.99978 2835.7 495.334)" fill="#FFFFFF"/>
<mask id="mask2_outline_ins">
<use xlink:href="#path8_fill" fill="white" transform="matrix(0.99978 -0.0209717 0.0209717 0.99978 2835.7 495.334)"/>
</mask>
<g mask="url(#mask2_outline_ins)">
<use xlink:href="#path9_stroke_2x" transform="matrix(0.99978 -0.0209717 0.0209717 0.99978 2835.7 495.334)" fill="#495CF2"/>
</g>
</g>
</g>
<g id="Group">
<mask id="mask3_alpha" mask-type="alpha">
<g id="Vector">
<use xlink:href="#path1_fill" transform="translate(2763.82 470.06)" fill="#25328E"/>
</g>
</mask>
<g id="Vector" mask="url(#mask3_alpha)">
<use xlink:href="#path1_fill" transform="translate(2763.82 470.06)" fill="#495CF2"/>
</g>
<g id="Vector" mask="url(#mask3_alpha)">
<use xlink:href="#path2_fill" transform="translate(2767.36 477.788)" fill="#FFFFFF"/>
</g>
</g>
<g id="Line">
<use xlink:href="#path3_stroke" transform="matrix(0.956183 -0.292771 0.295405 0.955372 2748.19 517.917)" fill="#DAE9FF"/>
</g>
<g id="Line">
<use xlink:href="#path4_stroke" transform="matrix(0.95707 -0.289858 0.29247 0.956275 2748.19 532.274)" fill="#DAE9FF"/>
</g>
<g id="Line">
<use xlink:href="#path5_stroke" transform="matrix(0.951665 -0.307139 0.309876 0.950777 2748.19 546.631)" fill="#DAE9FF"/>
</g>
<g id="Line">
<use xlink:href="#path6_stroke" transform="matrix(0.951885 -0.306457 0.309189 0.951001 2748.19 559.792)" fill="#DAE9FF"/>
</g>
</g>
</g>
</g>
<defs>
<path id="path0_fill" d="M 1.39559 21.0933L 65.326 0.825664C 66.6155 0.416865 67.9304 1.37942 67.9304 2.73215L 67.9304 109.828C 67.9304 110.688 67.3807 111.452 66.5651 111.725L 2.63468 133.118C 1.33919 133.552 0 132.588 0 131.222L 0 22.9998C 0 22.128 0.564622 21.3567 1.39559 21.0933Z"/>
<path id="path1_fill" d="M 24.0462 9.03957C 24.0462 15.7479 18.6358 22.883 12.0231 24.9565C 5.41039 27.03 0 23.188 0 16.4797C 0 9.77138 5.41039 2.6362 12.0231 0.562727C 18.6358 -1.51074 24.0462 2.33128 24.0462 9.03957Z"/>
<path id="path2_fill" d="M 10.6404 12.1435C 10.5803 11.4117 10.5803 10.9238 10.5803 10.253C 10.8809 10.0091 11.482 8.7284 11.6023 7.75265C 11.8427 7.63068 12.2635 7.26477 12.3838 6.22804C 12.4439 5.67918 12.2034 5.43524 12.0231 5.43524C 12.4439 4.0326 13.2855 -0.114346 10.4601 0.37353C 10.1595 -0.0533613 9.43812 -0.114346 8.41616 0.190576C 4.50866 1.47125 4.02773 4.52047 4.86935 7.63068C 4.689 7.75265 4.44854 8.17954 4.50866 8.66742C 4.62889 9.64317 5.0497 9.76514 5.29016 9.70415C 5.41039 10.6189 6.01154 11.5337 6.31212 11.5947C 6.31212 12.2655 6.31212 12.7534 6.252 13.4852C 5.4705 15.8636 0.240462 16.8393 5.73305e-08 20.9863L 16.8323 15.8026C 16.652 11.8386 11.4219 14.034 10.6404 12.1435Z"/>
<path id="path3_stroke" d="M 0.75 -1.5C 0.335786 -1.5 0 -1.16421 0 -0.75C 0 -0.335786 0.335786 0 0.75 0L 0.75 -1.5ZM 48.2888 0C 48.703 0 49.0388 -0.335786 49.0388 -0.75C 49.0388 -1.16421 48.703 -1.5 48.2888 -1.5L 48.2888 0ZM 0.75 0L 48.2888 0L 48.2888 -1.5L 0.75 -1.5L 0.75 0Z"/>
<path id="path4_stroke" d="M 0.75 -1.5C 0.335786 -1.5 0 -1.16421 0 -0.75C 0 -0.335786 0.335786 0 0.75 0L 0.75 -1.5ZM 28.1435 0C 28.5577 0 28.8935 -0.335786 28.8935 -0.75C 28.8935 -1.16421 28.5577 -1.5 28.1435 -1.5L 28.1435 0ZM 0.75 0L 28.1435 0L 28.1435 -1.5L 0.75 -1.5L 0.75 0Z"/>
<path id="path5_stroke" d="M 0.75 -1.5C 0.335786 -1.5 0 -1.16421 0 -0.75C 0 -0.335786 0.335786 0 0.75 0L 0.75 -1.5ZM 45.9948 0C 46.409 0 46.7448 -0.335786 46.7448 -0.75C 46.7448 -1.16421 46.409 -1.5 45.9948 -1.5L 45.9948 0ZM 0.75 0L 45.9948 0L 45.9948 -1.5L 0.75 -1.5L 0.75 0Z"/>
<path id="path6_stroke" d="M 0.75 -1.5C 0.335786 -1.5 0 -1.16421 0 -0.75C 0 -0.335786 0.335786 0 0.75 0L 0.75 -1.5ZM 42.1948 0C 42.609 0 42.9448 -0.335786 42.9448 -0.75C 42.9448 -1.16421 42.609 -1.5 42.1948 -1.5L 42.1948 0ZM 0.75 0L 42.1948 0L 42.1948 -1.5L 0.75 -1.5L 0.75 0Z"/>
<path id="path7_stroke" d="M 0 0L 57.4572 0L 57.4572 -1L 0 -1L 0 0Z"/>
<path id="path8_fill" d="M 4.66196 2.62235C 4.66196 4.07064 3.61835 5.24471 2.33098 5.24471C 1.04362 5.24471 0 4.07064 0 2.62235C 0 1.17407 1.04362 0 2.33098 0C 3.61835 0 4.66196 1.17407 4.66196 2.62235Z"/>
<path id="path9_stroke_2x" d="M 3.66196 2.62235C 3.66196 3.63234 2.95859 4.24471 2.33098 4.24471L 2.33098 6.24471C 4.27811 6.24471 5.66196 4.50894 5.66196 2.62235L 3.66196 2.62235ZM 2.33098 4.24471C 1.70337 4.24471 1 3.63234 1 2.62235L -1 2.62235C -1 4.50894 0.383858 6.24471 2.33098 6.24471L 2.33098 4.24471ZM 1 2.62235C 1 1.61237 1.70337 1 2.33098 1L 2.33098 -1C 0.383858 -1 -1 0.735765 -1 2.62235L 1 2.62235ZM 2.33098 1C 2.95859 1 3.66196 1.61237 3.66196 2.62235L 5.66196 2.62235C 5.66196 0.735765 4.27811 -1 2.33098 -1L 2.33098 1Z"/>
</defs>
</svg>
