<svg width="128" height="128" viewBox="0 0 128 128" version="1.1" xmlns="http://www.w3.org/2000/svg" xmlns:xlink="http://www.w3.org/1999/xlink">
<title>icons8-customer_insight</title>
<desc>Created using Figma</desc>
<g id="Canvas" transform="matrix(2 0 0 2 -6624 -1070)">
<g id="icons8-customer_insight">
<g id="Vector">
<use xlink:href="#path0_stroke" transform="translate(3329.82 550.02)" fill="#495CF2"/>
</g>
<g id="Vector">
<use xlink:href="#path1_stroke" transform="translate(3360.58 538.834)" fill="#495CF2"/>
</g>
<g id="Vector">
<use xlink:href="#path1_stroke" transform="translate(3363.38 579.383)" fill="#495CF2"/>
</g>
<g id="Vector">
<use xlink:href="#path1_stroke" transform="translate(3335.41 586.374)" fill="#495CF2"/>
</g>
<g id="Vector">
<use xlink:href="#path1_stroke" transform="translate(3313.04 569.595)" fill="#495CF2"/>
</g>
<g id="Vector">
<use xlink:href="#path1_stroke" transform="translate(3328.42 536.037)" fill="#495CF2"/>
</g>
<g id="Vector">
<use xlink:href="#path2_stroke" transform="translate(3356.18 548.403)" fill="#495CF2"/>
</g>
<g id="Vector">
<use xlink:href="#path3_stroke" transform="translate(3336.34 546.577)" fill="#495CF2"/>
</g>
<g id="Vector">
<use xlink:href="#path4_stroke" transform="translate(3341.95 580.451)" fill="#495CF2"/>
</g>
<g id="Vector">
<use xlink:href="#path5_stroke" transform="translate(3357.11 575.272)" fill="#495CF2"/>
</g>
<g id="Vector">
<use xlink:href="#path6_stroke" transform="translate(3323.83 570.954)" fill="#495CF2"/>
</g>
<g id="Vector">
<use xlink:href="#path7_stroke" transform="translate(3334.89 555.613)" fill="#495CF2"/>
</g>
</g>
</g>
<defs>
<path id="path0_stroke" d="M 29.7617 15.3808C 29.7617 23.3232 23.3232 29.7617 15.3808 29.7617L 15.3808 31.7617C 24.4277 31.7617 31.7617 24.4277 31.7617 15.3808L 29.7617 15.3808ZM 15.3808 29.7617C 7.43852 29.7617 1 23.3232 1 15.3808L -1 15.3808C -1 24.4277 6.33395 31.7617 15.3808 31.7617L 15.3808 29.7617ZM 1 15.3808C 1 7.43852 7.43852 1 15.3808 1L 15.3808 -1C 6.33395 -1 -1 6.33395 -1 15.3808L 1 15.3808ZM 15.3808 1C 23.3232 1 29.7617 7.43852 29.7617 15.3808L 31.7617 15.3808C 31.7617 6.33395 24.4277 -1 15.3808 -1L 15.3808 1Z"/>
<path id="path1_stroke" d="M 10.1861 5.59303C 10.1861 8.1297 8.1297 10.1861 5.59303 10.1861L 5.59303 12.1861C 9.23427 12.1861 12.1861 9.23427 12.1861 5.59303L 10.1861 5.59303ZM 5.59303 10.1861C 3.05637 10.1861 1 8.1297 1 5.59303L -1 5.59303C -1 9.23427 1.9518 12.1861 5.59303 12.1861L 5.59303 10.1861ZM 1 5.59303C 1 3.05637 3.05637 1 5.59303 1L 5.59303 -1C 1.9518 -1 -1 1.9518 -1 5.59303L 1 5.59303ZM 5.59303 1C 8.1297 1 10.1861 3.05637 10.1861 5.59303L 12.1861 5.59303C 12.1861 1.9518 9.23427 -1 5.59303 -1L 5.59303 1Z"/>
<path id="path2_stroke" d="M 5.3082 -0.707107L -0.707107 5.3082L 0.707107 6.72242L 6.72241 0.707106L 5.3082 -0.707107Z"/>
<path id="path3_stroke" d="M -0.904835 0.425759L 1.3953 5.31407L 3.20497 4.46255L 0.904838 -0.425759L -0.904835 0.425759Z"/>
<path id="path4_stroke" d="M 0.992173 6.00176L 1.73185 0.124877L -0.252494 -0.124877L -0.992172 5.752L 0.992173 6.00176Z"/>
<path id="path5_stroke" d="M 8.28162 5.50529L 0.634536 -0.772893L -0.634539 0.772891L 7.01254 7.05107L 8.28162 5.50529Z"/>
<path id="path6_stroke" d="M 0.295261 3.10174L 7.24041 0.955417L 6.64989 -0.955416L -0.295262 1.19091L 0.295261 3.10174Z"/>
<path id="path7_stroke" d="M 19.838 21.5917C 20.1792 22.026 20.8079 22.1014 21.2421 21.7602C 21.6764 21.419 21.7518 20.7903 21.4106 20.3561L 19.838 21.5917ZM 13.1087 16.7791L 12.1087 16.7791L 12.1087 16.9791L 12.1856 17.1637L 13.1087 16.7791ZM 13.1087 14.3322L 12.6604 13.4383L 12.1087 13.7149L 12.1087 14.3322L 13.1087 14.3322ZM 14.5069 11.1861L 14.5069 10.1861L 13.6015 10.1861L 13.5118 11.087L 14.5069 11.1861ZM 15.9052 9.43825L 16.8892 9.61639L 16.8905 9.60921L 16.8917 9.60201L 15.9052 9.43825ZM 15.5556 8.03999L 14.6138 7.70389L 14.3161 8.53823L 15.1084 8.93441L 15.5556 8.03999ZM 15.9052 4.89391L 14.9052 4.9021L 14.9052 4.90253L 15.9052 4.89391ZM 13.0206 1.06268L 12.1258 1.50918L 12.3651 1.98865L 12.8968 2.05498L 13.0206 1.06268ZM 4.71912 5.06869L 3.71915 5.07582L 3.71915 5.07625L 4.71912 5.06869ZM 5.06869 8.03999L 5.5159 8.93441L 6.24687 8.56893L 6.03425 7.77983L 5.06869 8.03999ZM 4.71912 9.43825L 5.71505 9.3481L 5.7117 9.31111L 5.70562 9.27448L 4.71912 9.43825ZM 6.11738 11.1861L 7.11247 11.087L 7.0228 10.1861L 6.11738 10.1861L 6.11738 11.1861ZM 7.51564 14.3322L 8.51564 14.3322L 8.51564 13.7149L 7.96391 13.4383L 7.51564 14.3322ZM 7.51564 16.7791L 8.43872 17.1637L 8.51564 16.9791L 8.51564 16.7791L 7.51564 16.7791ZM -0.786318 20.3561C -1.12753 20.7903 -1.05209 21.419 -0.617822 21.7602C -0.18355 22.1014 0.445105 22.026 0.786318 21.5917L -0.786318 20.3561ZM 21.4106 20.3561C 20.222 18.8433 18.2231 18.2471 16.7731 17.7914C 15.9855 17.5439 15.3394 17.3386 14.8318 17.0825C 14.3281 16.8283 14.117 16.599 14.0318 16.3945L 12.1856 17.1637C 12.5374 18.0079 13.2439 18.5214 13.9308 18.8681C 14.6139 19.2127 15.4316 19.4663 16.1734 19.6994C 17.7821 20.205 19.104 20.6575 19.838 21.5917L 21.4106 20.3561ZM 14.1087 16.7791L 14.1087 14.3322L 12.1087 14.3322L 12.1087 16.7791L 14.1087 16.7791ZM 13.5569 15.226C 13.9265 15.0407 14.1881 14.6893 14.3389 14.4654C 14.5223 14.1931 14.6973 13.8658 14.8514 13.5255C 15.1541 12.857 15.4289 12.0201 15.502 11.2851L 13.5118 11.087C 13.4675 11.5322 13.2788 12.1501 13.0295 12.7005C 12.9076 12.9698 12.7846 13.1929 12.68 13.3483C 12.5427 13.552 12.5264 13.5054 12.6604 13.4383L 13.5569 15.226ZM 14.5069 12.1861C 15.0266 12.1861 15.5568 11.905 15.9562 11.5074C 16.3889 11.0767 16.7384 10.4492 16.8892 9.61639L 14.9212 9.26011C 14.8371 9.72484 14.6644 9.97133 14.5451 10.0901C 14.4823 10.1526 14.4311 10.1832 14.4066 10.195C 14.3706 10.2124 14.4039 10.1861 14.5069 10.1861L 14.5069 12.1861ZM 16.8917 9.60201C 16.9743 9.10432 16.9386 8.63116 16.8217 8.23487C 16.7634 8.0374 16.6794 7.84026 16.5638 7.66279C 16.4564 7.49788 16.2781 7.28318 16.0028 7.14556L 15.1084 8.93441C 15.0239 8.89218 14.969 8.8448 14.9395 8.8156C 14.9091 8.78549 14.8932 8.76245 14.8879 8.75425C 14.8782 8.73942 14.889 8.75184 14.9034 8.80082C 14.9319 8.89741 14.9535 9.06465 14.9187 9.27448L 16.8917 9.60201ZM 16.4975 8.37609C 16.8144 7.48798 16.9165 6.20354 16.9052 4.88529L 14.9052 4.90253C 14.9162 6.17944 14.8058 7.16577 14.6138 7.70389L 16.4975 8.37609ZM 16.9052 4.88571C 16.8972 3.91091 16.6867 2.81893 16.1045 1.90251C 15.4993 0.949901 14.5229 0.242352 13.1444 0.0703692L 12.8968 2.05498C 13.659 2.15007 14.1179 2.5052 14.4163 2.97497C 14.7378 3.48093 14.8992 4.17102 14.9052 4.9021L 16.9052 4.88571ZM 13.9154 0.616169C 13.5858 -0.0442177 12.9786 -0.442201 12.3711 -0.670563C 11.7561 -0.901738 11.0407 -1 10.3122 -1L 10.3122 1C 10.8784 1 11.3404 1.07862 11.6674 1.20155C 12.0019 1.3273 12.1016 1.46065 12.1258 1.50918L 13.9154 0.616169ZM 10.3122 -1C 8.20345 -1 6.5183 -0.416008 5.36151 0.716573C 4.20298 1.85086 3.70724 3.4054 3.71915 5.07582L 5.7191 5.06156C 5.71003 3.79004 6.08191 2.81023 6.76069 2.14566C 7.44121 1.47938 8.56307 1 10.3122 1L 10.3122 -1ZM 3.71915 5.07625C 3.72642 6.0369 3.78999 7.13798 4.10312 8.30015L 6.03425 7.77983C 5.78528 6.85579 5.72581 5.94897 5.71909 5.06112L 3.71915 5.07625ZM 4.62147 7.14556C 4.34624 7.28318 4.16789 7.49788 4.06049 7.66279C 3.94491 7.84026 3.8609 8.0374 3.80264 8.23487C 3.68572 8.63116 3.65 9.10432 3.73262 9.60201L 5.70562 9.27448C 5.67079 9.06465 5.6924 8.89741 5.7209 8.80082C 5.73535 8.75184 5.74607 8.73942 5.73641 8.75425C 5.73107 8.76245 5.7152 8.78549 5.68477 8.8156C 5.65527 8.8448 5.60038 8.89218 5.5159 8.93441L 4.62147 7.14556ZM 3.72319 9.52839C 3.80385 10.4194 4.17451 11.0829 4.64269 11.5255C 5.06923 11.9287 5.62387 12.1861 6.11738 12.1861L 6.11738 10.1861C 6.21213 10.1861 6.23063 10.2079 6.17743 10.1839C 6.13833 10.1663 6.07925 10.1313 6.01658 10.072C 5.90344 9.96509 5.75185 9.75467 5.71505 9.3481L 3.72319 9.52839ZM 5.1223 11.2851C 5.19545 12.0201 5.47018 12.857 5.7729 13.5255C 5.92697 13.8658 6.10205 14.1931 6.28544 14.4654C 6.43619 14.6893 6.6978 15.0407 7.06737 15.226L 7.96391 13.4383C 8.09788 13.5054 8.08158 13.552 7.94433 13.3483C 7.83972 13.1929 7.71671 12.9698 7.59481 12.7005C 7.34556 12.1501 7.15677 11.5322 7.11247 11.087L 5.1223 11.2851ZM 6.51564 14.3322L 6.51564 16.7791L 8.51564 16.7791L 8.51564 14.3322L 6.51564 14.3322ZM 6.59256 16.3945C 6.50736 16.599 6.29626 16.8283 5.79252 17.0825C 5.28492 17.3386 4.63878 17.5439 3.85125 17.7914C 2.40125 18.2471 0.402275 18.8433 -0.786318 20.3561L 0.786318 21.5917C 1.52033 20.6575 2.84222 20.205 4.45091 19.6994C 5.19273 19.4663 6.01039 19.2127 6.69349 18.8681C 7.38046 18.5214 8.08696 18.0079 8.43872 17.1637L 6.59256 16.3945Z"/>
</defs>
</svg>
