<svg width="110" height="110" viewBox="0 0 110 110" version="1.1" xmlns="http://www.w3.org/2000/svg" xmlns:xlink="http://www.w3.org/1999/xlink">
<title>icons8-maintenance</title>
<desc>Created using Figma</desc>
<g id="Canvas" transform="translate(-4393 -444)">
<g id="icons8-maintenance">
<g id="Group">
<g id="Vector">
<use xlink:href="#path0_stroke" transform="translate(4449.58 445)" fill="#CCCCCC"/>
</g>
<g id="Vector">
<use xlink:href="#path1_stroke" transform="translate(4394.23 500.815)" fill="#CCCCCC"/>
</g>
</g>
<g id="Vector">
<use xlink:href="#path2_stroke" transform="translate(4394 445.211)" fill="#CCCCCC"/>
</g>
<g id="Vector">
<use xlink:href="#path3_stroke" transform="translate(4438.49 489.548)" fill="#CCCCCC"/>
</g>
<g id="Vector">
<use xlink:href="#path4_stroke" transform="translate(4461.5 512.474)" fill="#CCCCCC"/>
</g>
</g>
</g>
<defs>
<path id="path0_stroke" d="M 16.6192 48.8288C 16.228 49.2186 16.2269 49.8518 16.6167 50.243C 17.0065 50.6342 17.6397 50.6353 18.0309 50.2455L 16.6192 48.8288ZM 20.925 45.9498L 21.4382 45.0915C 21.0454 44.8566 20.5433 44.9184 20.2192 45.2414L 20.925 45.9498ZM 51.7501 18.5961L 52.6985 18.2788C 52.5887 17.9506 52.317 17.7025 51.9802 17.6229C 51.6434 17.5433 51.2894 17.6434 51.0442 17.8877L 51.7501 18.5961ZM 39.8251 30.4792L 40.5309 31.1876L 39.8251 30.4792ZM 33.7501 30.4792L 33.0442 31.1876C 33.0599 31.2032 33.0762 31.2184 33.0929 31.233L 33.7501 30.4792ZM 21.825 18.5961L 22.5309 17.8877L 21.825 18.5961ZM 21.825 12.5424L 21.1192 11.834C 21.1035 11.8497 21.0883 11.8659 21.0736 11.8826L 21.825 12.5424ZM 33.7501 0.659238L 34.4559 1.36759C 34.7007 1.12367 34.8022 0.770659 34.7244 0.433978C 34.6465 0.0972981 34.4004 -0.175335 34.0734 -0.287056L 33.7501 0.659238ZM 6.30001 31.3761L 7.00588 32.0844C 7.34078 31.7507 7.3962 31.228 7.13871 30.8315L 6.30001 31.3761ZM -0.705861 36.9456C -1.09707 37.3355 -1.09818 37.9686 -0.708347 38.3598C -0.31851 38.751 0.314654 38.7522 0.705864 38.3623L -0.705861 36.9456ZM 18.0309 50.2455L 21.6309 46.6581L 20.2192 45.2414L 16.6192 48.8288L 18.0309 50.2455ZM 20.4119 46.808C 24.4396 49.2162 28.5503 50.7016 32.4975 50.7612C 36.4797 50.8214 40.2272 49.4271 43.4559 46.2097L 42.0442 44.793C 39.1979 47.6293 35.9704 48.8134 32.5277 48.7615C 29.0498 48.7089 25.2855 47.3917 21.4382 45.0915L 20.4119 46.808ZM 43.4559 46.2097C 46.3919 43.2841 49.3856 38.4434 51.3081 33.3252C 53.2203 28.2344 54.1579 22.6417 52.6985 18.2788L 50.8018 18.9133C 52.0424 22.6221 51.2924 27.6793 49.4358 32.6219C 47.5896 37.5371 44.7333 42.1133 42.0442 44.793L 43.4559 46.2097ZM 51.0442 17.8877L 39.1192 29.7709L 40.5309 31.1876L 52.456 19.3044L 51.0442 17.8877ZM 39.1192 29.7709C 37.9584 30.9277 35.858 30.9905 34.4073 29.7255L 33.0929 31.233C 35.2421 33.107 38.5418 33.1698 40.5309 31.1876L 39.1192 29.7709ZM 34.4559 29.7709L 22.5309 17.8877L 21.1192 19.3044L 33.0442 31.1876L 34.4559 29.7709ZM 22.5309 17.8877C 21.3721 16.733 21.3089 14.6458 22.5765 13.2022L 21.0736 11.8826C 19.1912 14.0263 19.128 17.3202 21.1192 19.3044L 22.5309 17.8877ZM 22.5309 13.2507L 34.4559 1.36759L 33.0442 -0.0491107L 21.1192 11.834L 22.5309 13.2507ZM 34.0734 -0.287056C 29.8039 -1.74575 24.1876 -0.807516 19.0585 1.09495C 13.8983 3.00896 8.98269 5.99109 6.04415 8.91931L 7.45588 10.336C 10.1424 7.65896 14.7893 4.81162 19.7541 2.97011C 24.75 1.11705 29.8213 0.373697 33.4268 1.60553L 34.0734 -0.287056ZM 6.04415 8.91931C 2.81859 12.1335 1.36049 15.922 1.39066 19.9209C 1.42062 23.8919 2.91554 28.0001 5.46132 31.9207L 7.13871 30.8315C 4.73448 27.1289 3.41689 23.3897 3.3906 19.9058C 3.36453 16.4496 4.60643 13.1755 7.45588 10.336L 6.04415 8.91931ZM 5.59415 30.6677L -0.705861 36.9456L 0.705864 38.3623L 7.00588 32.0844L 5.59415 30.6677Z"/>
<path id="path1_stroke" d="M 37.5751 -1.71059e-06L 38.4079 -0.553551C 38.2421 -0.803002 37.9732 -0.964996 37.6752 -0.994979C 37.3771 -1.02496 37.0814 -0.919776 36.8692 -0.708351L 37.5751 -1.71059e-06ZM 26.1 11.4347L 25.8583 12.4051C 26.1983 12.4898 26.5577 12.3904 26.8059 12.1431L 26.1 11.4347ZM 40.5001 25.7842L 39.7942 25.0759C 39.5157 25.3534 39.4257 25.7684 39.5642 26.1364L 40.5001 25.7842ZM 49.0501 17.2642L 49.756 17.9726C 50.0937 17.636 50.1469 17.1078 49.8829 16.7107L 49.0501 17.2642ZM 28.5751 39.0126L 28.8356 39.9781C 29.1837 39.8841 29.4543 39.6101 29.5438 39.2608L 28.5751 39.0126ZM 17.775 41.9274L 17.0692 42.6357C 17.3223 42.8879 17.6907 42.9859 18.0356 42.8928L 17.775 41.9274ZM 9.90002 34.08L 8.93645 33.8125C 8.83987 34.1605 8.93838 34.5335 9.19416 34.7883L 9.90002 34.08ZM 12.825 23.5421L 12.5593 22.5781C 12.2204 22.6715 11.9555 22.9359 11.8615 23.2746L 12.825 23.5421ZM 23.4 20.6274L 24.1059 19.919C 23.8515 19.6655 23.4806 19.5679 23.1343 19.6633L 23.4 20.6274ZM 31.2751 28.4747L 32.2438 28.7229C 32.3316 28.38 32.2317 28.0162 31.9809 27.7664L 31.2751 28.4747ZM 36.8692 -0.708351L 25.3942 10.7264L 26.8059 12.1431L 38.2809 0.708347L 36.8692 -0.708351ZM 26.3418 10.4644C 24.4651 9.99688 22.584 9.7621 20.7 9.7621L 20.7 11.7621C 22.4161 11.7621 24.135 11.9757 25.8583 12.4051L 26.3418 10.4644ZM 20.7 9.7621C 8.67605 9.7621 -1 19.3991 -1 31.3895L 1 31.3895C 1 20.5103 9.77398 11.7621 20.7 11.7621L 20.7 9.7621ZM -1 31.3895C -1 43.3798 8.67605 53.0168 20.7 53.0168L 20.7 51.0168C 9.77398 51.0168 1 42.2686 1 31.3895L -1 31.3895ZM 20.7 53.0168C 32.724 53.0168 42.4001 43.3798 42.4001 31.3895L 40.4001 31.3895C 40.4001 42.2686 31.6261 51.0168 20.7 51.0168L 20.7 53.0168ZM 42.4001 31.3895C 42.4001 29.2938 42.1661 27.3722 41.436 25.432L 39.5642 26.1364C 40.184 27.7836 40.4001 29.4493 40.4001 31.3895L 42.4001 31.3895ZM 41.2059 26.4926L 49.756 17.9726L 48.3442 16.5559L 39.7942 25.0759L 41.2059 26.4926ZM 49.8829 16.7107L 38.4079 -0.553551L 36.7423 0.553547L 48.2173 17.8178L 49.8829 16.7107ZM 28.3145 38.0472L 17.5145 40.9619L 18.0356 42.8928L 28.8356 39.9781L 28.3145 38.0472ZM 18.4809 41.219L 10.6059 33.3717L 9.19416 34.7883L 17.0692 42.6357L 18.4809 41.219ZM 10.8636 34.3475L 13.7886 23.8096L 11.8615 23.2746L 8.93645 33.8125L 10.8636 34.3475ZM 13.0907 24.5062L 23.6658 21.5914L 23.1343 19.6633L 12.5593 22.5781L 13.0907 24.5062ZM 22.6942 21.3357L 30.5692 29.1831L 31.9809 27.7664L 24.1059 19.919L 22.6942 21.3357ZM 30.3064 28.2265L 27.6063 38.7644L 29.5438 39.2608L 32.2438 28.7229L 30.3064 28.2265Z"/>
<path id="path2_stroke" d="M 21.15 15.4705L 20.1609 15.3235C 20.1142 15.6374 20.2194 15.9548 20.4442 16.1789L 21.15 15.4705ZM 22.05 9.41684L 23.0392 9.5639C 23.0997 9.15672 22.9045 8.75405 22.5474 8.54931L 22.05 9.41684ZM 5.62501 0L 6.12239 -0.867534C 5.73128 -1.09177 5.23849 -1.02657 4.91915 -0.708349L 5.62501 0ZM 0 5.60526L -0.705862 4.89691C -1.02693 5.21686 -1.09266 5.71274 -0.866018 6.10528L 0 5.60526ZM 9.45002 21.9726L 8.584 22.4726C 8.78909 22.8279 9.19029 23.0218 9.59606 22.9619L 9.45002 21.9726ZM 15.525 21.0758L 16.2309 20.3674C 16.0072 20.1445 15.6914 20.0404 15.379 20.0865L 15.525 21.0758ZM 54.706 47.4969L 21.8559 14.7622L 20.4442 16.1789L 53.2942 48.9136L 54.706 47.4969ZM 22.1392 15.6176L 23.0392 9.5639L 21.0609 9.26979L 20.1609 15.3235L 22.1392 15.6176ZM 22.5474 8.54931L 6.12239 -0.867534L 5.12763 0.867534L 21.5527 10.2844L 22.5474 8.54931ZM 4.91915 -0.708349L -0.705862 4.89691L 0.705862 6.31361L 6.33087 0.708349L 4.91915 -0.708349ZM -0.866018 6.10528L 8.584 22.4726L 10.316 21.4726L 0.866018 5.10525L -0.866018 6.10528ZM 9.59606 22.9619L 15.6711 22.0651L 15.379 20.0865L 9.30397 20.9834L 9.59606 22.9619ZM 14.8192 21.7841L 47.6692 54.5189L 49.081 53.1022L 16.2309 20.3674L 14.8192 21.7841Z"/>
<path id="path3_stroke" d="M 60.1314 43.1045L 59.4255 43.8128L 60.1314 43.1045ZM 32.6813 15.7508L 33.3872 15.0424L 32.6813 15.7508ZM 25.0313 13.5087L 24.3254 14.217C 24.5536 14.4444 24.8774 14.5479 25.1951 14.4952L 25.0313 13.5087ZM 19.8563 8.35184L 19.0982 7.69973C 18.7565 8.0969 18.7793 8.6904 19.1504 9.06019L 19.8563 8.35184ZM 18.0563 1.1771L 17.3504 1.88545L 18.0563 1.1771ZM 8.38127 19.7866L 9.08713 19.0782C 8.71794 18.7103 8.1281 18.6877 7.7318 19.0262L 8.38127 19.7866ZM 13.5563 24.9434L 14.5262 25.1868C 14.6119 24.8452 14.5116 24.4837 14.2621 24.2351L 13.5563 24.9434ZM 15.8063 32.5666L 15.1004 33.2749L 15.8063 32.5666ZM 43.2563 59.9203L 43.9622 59.2119L 43.2563 59.9203ZM 60.1314 59.9203L 60.8372 60.6286C 60.843 60.6229 60.8487 60.6171 60.8543 60.6112L 60.1314 59.9203ZM 60.8372 42.3961L 33.3872 15.0424L 31.9755 16.4591L 59.4255 43.8128L 60.8372 42.3961ZM 33.3872 15.0424C 31.0926 12.7559 27.8229 12.0314 24.8675 12.5222L 25.1951 14.4952C 27.6397 14.0892 30.22 14.7098 31.9755 16.4591L 33.3872 15.0424ZM 25.7372 12.8003L 20.5622 7.64349L 19.1504 9.06019L 24.3254 14.217L 25.7372 12.8003ZM 20.6144 9.00395C 22.2935 7.05192 22.2967 3.99094 20.3372 2.03823L 18.9254 3.45493C 20.1158 4.64116 20.1191 6.51282 19.0982 7.69973L 20.6144 9.00395ZM 20.3372 2.03823L 18.7621 0.468754L 17.3504 1.88545L 18.9254 3.45493L 20.3372 2.03823ZM 18.7621 0.468754C 16.7969 -1.48959 13.4657 -1.48959 11.5004 0.468754L 12.9121 1.88545C 14.0969 0.704847 16.1657 0.704847 17.3504 1.88545L 18.7621 0.468754ZM 11.5004 0.468754L 0.475388 11.4551L 1.88711 12.8718L 12.9121 1.88545L 11.5004 0.468754ZM 0.475388 11.4551C -1.4918 13.4154 -1.4918 16.741 0.475388 18.7012L 1.88711 17.2845C 0.704293 16.1059 0.704293 14.0504 1.88711 12.8718L 0.475388 11.4551ZM 0.475388 18.7012L 2.05039 20.2707L 3.46212 18.854L 1.88711 17.2845L 0.475388 18.7012ZM 2.05039 20.2707C 4.00826 22.2217 7.07428 22.218 9.03074 20.547L 7.7318 19.0262C 6.53825 20.0456 4.65426 20.042 3.46212 18.854L 2.05039 20.2707ZM 7.6754 20.4949L 12.8504 25.6518L 14.2621 24.2351L 9.08713 19.0782L 7.6754 20.4949ZM 12.5863 24.7001C 11.8184 27.7611 12.8478 31.0302 15.1004 33.2749L 16.5121 31.8582C 14.7147 30.0671 13.9442 27.5068 14.5262 25.1868L 12.5863 24.7001ZM 15.1004 33.2749L 42.5505 60.6286L 43.9622 59.2119L 16.5121 31.8582L 15.1004 33.2749ZM 42.5505 60.6286C 47.6657 65.7259 55.722 65.7259 60.8372 60.6286L 59.4255 59.2119C 55.0907 63.5315 48.297 63.5315 43.9622 59.2119L 42.5505 60.6286ZM 60.8543 60.6112C 65.7145 55.5259 65.7387 47.2804 60.8372 42.3961L 59.4255 43.8128C 63.5241 47.897 63.5483 54.8977 59.4084 59.2293L 60.8543 60.6112Z"/>
<path id="path4_stroke" d="M -0.705862 0.708349L 26.2942 27.6136L 27.7059 26.1969L 0.705862 -0.708349L -0.705862 0.708349Z"/>
</defs>
</svg>
