<?xml version="1.0" encoding="UTF-8"?>
<svg version="1.1" viewBox="0 0 750 1330" xmlns="http://www.w3.org/2000/svg" xmlns:xlink="http://www.w3.org/1999/xlink">
<g transform="matrix(2 0 0 2 -13140 1024)">
<use transform="translate(6570 -512)" fill="url(#k)" xlink:href="#g"/>
<use transform="matrix(6.1348e-17 -1 1 6.1116e-17 6881.5 40.652)" fill="#FFFFFF" fill-opacity=".2" xlink:href="#b"/>
<use transform="matrix(6.1348e-17 -1 1 6.1116e-17 6905.6 -4.4828)" fill="#FFFFFF" fill-opacity=".2" xlink:href="#b"/>
<use transform="matrix(6.1348e-17 -1 1 6.1116e-17 6929.8 34.634)" fill="#FFFFFF" fill-opacity=".2" xlink:href="#f"/>
<use transform="translate(6858 42.942)" fill="url(#j)" xlink:href="#e"/>
<mask id="l" mask-type="alpha">
<use transform="translate(6858 35)" fill="url(#i)" xlink:href="#a"/>
</mask>
<g mask="url(#l)">
<use transform="translate(6858 35)" fill="url(#h)" xlink:href="#a"/>
</g>
<use transform="translate(6632.3 -217.06)" fill="#3849D6" fill-opacity=".5" xlink:href="#d"/>
<use transform="translate(6756.1 -304.38)" fill="#FFFFFF" fill-opacity=".05" xlink:href="#c"/>
</g>
<defs>
<linearGradient id="k" x2="1" gradientTransform="matrix(-383.79 -649.32 366.16 -2275.7 197.63 1802.8)" gradientUnits="userSpaceOnUse">
<stop stop-color="#495CF2" offset="0"/>
<stop stop-color="#2438D6" stop-opacity=".9" offset="1"/>
</linearGradient>
<linearGradient id="j" x2="1" gradientTransform="matrix(-147.45 -54.462 59.876 -190.16 91.061 170.53)" gradientUnits="userSpaceOnUse">
<stop stop-color="#C5D1DE" offset="0"/>
<stop stop-color="#fff" offset=".52486"/>
<stop stop-color="#E5E5E5" offset=".85692"/>
</linearGradient>
<linearGradient id="i" x2="1" gradientTransform="matrix(-107.64 -22.039 162.09 -278.03 15.858 158.26)" gradientUnits="userSpaceOnUse">
<stop stop-color="#4D341E" offset="0"/>
<stop stop-color="#704E2E" offset="1"/>
</linearGradient>
<linearGradient id="h" x2="1" gradientTransform="matrix(-107.64 -22.039 162.09 -278.03 15.858 158.26)" gradientUnits="userSpaceOnUse">
<stop stop-color="#F37110" offset="0"/>
<stop stop-color="#F0C19E" offset="1"/>
</linearGradient>
<path id="g" d="m0 0h375v665h-375v-665z"/>
<path id="b" d="m0 0.5c1.7858 0 2.6602 0.86325 3.6581 1.863 1.0081 1.01 2.1397 2.1566 4.3659 2.1566v-1c-1.7858 0-2.6602-0.86325-3.6581-1.863-1.0081-1.01-2.1397-2.1566-4.3659-2.1566v1zm8.024 4.0196c2.2262 0 3.3578-1.1466 4.3659-2.1566 0.9979-0.99977 1.8723-1.863 3.6581-1.863v-1c-2.2262 0-3.3578 1.1466-4.3659 2.1566-0.9979 0.99977-1.8723 1.863-3.6581 1.863v1zm8.024-4.0196c1.7858 0 2.6602 0.86325 3.6581 1.863 1.0081 1.01 2.1397 2.1566 4.3659 2.1566v-1c-1.7858 0-2.6603-0.86325-3.6581-1.863-1.0082-1.01-2.1397-2.1566-4.3659-2.1566v1zm8.024 4.0196c2.2262 0 3.3577-1.1466 4.3658-2.1566 0.9979-0.99977 1.8724-1.863 3.6582-1.863v-1c-2.2263 0-3.3578 1.1466-4.3659 2.1566-0.9979 0.99977-1.8724 1.863-3.6581 1.863v1zm8.024-4.0196c1.7857 0 2.6602 0.86325 3.6581 1.863 1.0081 1.01 2.1396 2.1566 4.3658 2.1566v-1c-1.7857 0-2.6602-0.86325-3.6581-1.863-1.0081-1.01-2.1396-2.1566-4.3658-2.1566v1zm8.0239 4.0196c2.2263 0 3.3578-1.1466 4.3659-2.1566 0.9979-0.99977 1.8723-1.863 3.6581-1.863v-1c-2.2262 0-3.3577 1.1466-4.3659 2.1566-0.9978 0.99977-1.8723 1.863-3.6581 1.863v1zm8.024-4.0196c1.7858 0 2.6603 0.86325 3.6581 1.863 1.0081 1.01 2.1397 2.1566 4.3659 2.1566v-1c-1.7858 0-2.6602-0.86325-3.6581-1.863-1.0081-1.01-2.1397-2.1566-4.3659-2.1566v1z"/>
<path id="f" d="m0 0.5c2.9335 0 4.3732 0.94025 5.8881 1.9286 1.5657 1.0215 3.2067 2.091 6.4345 2.091v-1c-2.9335 0-4.3732-0.94025-5.8881-1.9286-1.5657-1.0215-3.2067-2.091-6.4345-2.091v1zm12.323 4.0196c3.2278 0 4.8687-1.0696 6.4344-2.091 1.5149-0.98832 2.9546-1.9286 5.8881-1.9286v-1c-3.2278 0-4.8687 1.0696-6.4345 2.091-1.5149 0.98832-2.9546 1.9286-5.888 1.9286v1zm12.322-4.0196c2.9335 0 4.3732 0.94025 5.8881 1.9286 1.5657 1.0215 3.2067 2.091 6.4345 2.091v-1c-2.9335 0-4.3732-0.94025-5.8881-1.9286-1.5658-1.0215-3.2067-2.091-6.4345-2.091v1zm12.323 4.0196c3.2278 0 4.8687-1.0696 6.4344-2.091 1.5149-0.98832 2.9546-1.9286 5.8881-1.9286v-1c-3.2278 0-4.8687 1.0696-6.4345 2.091-1.5149 0.98832-2.9546 1.9286-5.888 1.9286v1zm12.322-4.0196c2.9335 0 4.3732 0.94025 5.8881 1.9286 1.5657 1.0215 3.2067 2.091 6.4345 2.091v-1c-2.9335 0-4.3732-0.94025-5.8881-1.9286-1.5657-1.0215-3.2067-2.091-6.4345-2.091v1zm12.323 4.0196c3.2278 0 4.8687-1.0696 6.4344-2.091 1.5149-0.98832 2.9547-1.9286 5.8881-1.9286v-1c-3.2278 0-4.8687 1.0696-6.4345 2.091-1.5149 0.98832-2.9546 1.9286-5.888 1.9286v1zm12.322-4.0196c2.9335 0 4.3732 0.94025 5.8881 1.9286 1.5657 1.0215 3.2067 2.091 6.4345 2.091v-1c-2.9335 0-4.3732-0.94025-5.8881-1.9286-1.5657-1.0215-3.2067-2.091-6.4345-2.091v1z"/>
<path id="e" d="m0 0h121v100.06c0 5.523-4.477 10-10 10h-101c-5.5228 0-10-4.477-10-10v-100.06z"/>
<path id="a" d="m121 8.226c0 4.543-27.086 8.2259-60.499 8.2259s-60.5-3.6829-60.5-8.2259c0-4.5431 27.087-8.226 60.5-8.226s60.499 3.6829 60.499 8.226z"/>
<path id="d" d="m233.24 116.32c0 64.24-52.214 116.32-116.62 116.32-64.409 0-116.62-52.077-116.62-116.32 0-64.24 52.213-116.32 116.62-116.32 64.408 0 116.62 52.077 116.62 116.32z"/>
<path id="c" d="m205.83 102.67c0 56.704-46.078 102.67-102.92 102.67-56.84 0-102.92-45.968-102.92-102.67 0-56.705 46.078-102.67 102.92-102.67 56.839 0 102.92 45.968 102.92 102.67z"/>
</defs>
</svg>
