<svg width="352" height="364" viewBox="0 0 352 364" fill="none" xmlns="http://www.w3.org/2000/svg">
<g id="Group 18.1">
<g id="Group 16">
<g id="Group">
<path id="Rectangle 5" d="M0 0H91.0938V67.0225C91.0938 72.5454 86.6167 77.0225 81.0938 77.0225H10C4.47715 77.0225 0 72.5454 0 67.0225V0Z" transform="translate(0 286.528)" fill="url(#paint0_linear)"/>
<mask id="mask0" mask-type="alpha" maskUnits="userSpaceOnUse" x="0" y="280" width="92" height="13">
<ellipse id="Ellipse" cx="45.5469" cy="5.75684" rx="45.5469" ry="5.75684" transform="translate(0 280.969)" fill="url(#paint1_linear)"/>
</mask>
<g mask="url(#mask0)">
<ellipse id="Ellipse_2" cx="45.5469" cy="5.75684" rx="45.5469" ry="5.75684" transform="translate(0 280.969)" fill="url(#paint2_linear)"/>
</g>
</g>
<path id="Vector" d="M0 0C3.61058 0 3.61058 3.93176 7.22116 3.93176C10.8317 3.93176 10.8317 0 14.4423 0C18.0529 0 18.0529 3.93176 21.6635 3.93176C25.274 3.93176 25.274 0 28.8846 0C32.4952 0 32.4952 3.93176 36.1058 3.93176C39.7164 3.93176 39.7164 0 43.3269 0C46.9375 0 46.9375 3.93176 50.5481 3.93176" transform="translate(22.6074 258.528) rotate(-90)" stroke="black" stroke-opacity="0.2" stroke-miterlimit="10"/>
<path id="Vector_2" d="M0 0C3.61058 0 3.61058 3.93176 7.22116 3.93176C10.8317 3.93176 10.8317 0 14.4423 0C18.0529 0 18.0529 3.93176 21.6635 3.93176C25.274 3.93176 25.274 0 28.8846 0C32.4952 0 32.4952 3.93176 36.1058 3.93176C39.7164 3.93176 39.7164 0 43.3269 0C46.9375 0 46.9375 3.93176 50.5481 3.93176" transform="translate(46.1982 217.909) rotate(-90)" stroke="white" stroke-opacity="0.2" stroke-miterlimit="10"/>
<path id="Vector_3" d="M0 0C5.54482 0 5.54482 3.93176 11.0896 3.93176C16.6344 3.93176 16.6344 0 22.1793 0C27.7241 0 27.7241 3.93176 33.2689 3.93176C38.8137 3.93176 38.8137 0 44.3585 0C49.9033 0 49.9033 3.93176 55.4482 3.93176C60.993 3.93176 60.993 0 66.5378 0C72.0826 0 72.0826 3.93176 77.6274 3.93176" transform="translate(69.7891 253.112) rotate(-90)" stroke="white" stroke-opacity="0.2" stroke-miterlimit="10"/>
</g>
<g id="Group 17">
<g id="Group 7.5">
<g id="Rectangle 10" filter="url(#filter0_d)">
<rect width="223.419" height="61.6181" rx="3" transform="translate(87.0977 7.43671)" fill="white"/>
</g>
<rect id="Rectangle 10_2" width="223.419" height="61.6181" rx="3" transform="translate(87.0977 7.43671)" fill="url(#paint3_linear)" fill-opacity="0.06"/>
<g id="Rectangle 10_3" filter="url(#filter1_d)">
<rect width="223.419" height="61.6181" rx="3" transform="translate(87.0977 7.43671)" fill="white"/>
</g>
<path id="Jane Smith" d="M5.256 9.156C5.256 9.548 5.22 9.928 5.148 10.296C5.084 10.664 4.956 10.992 4.764 11.28C4.572 11.56 4.296 11.788 3.936 11.964C3.584 12.132 3.12 12.216 2.544 12.216C1.872 12.216 1.304 12.056 0.84 11.736C0.376 11.416 0.076 10.916 -0.06 10.236L1.656 9.816C1.68 10.024 1.772 10.2 1.932 10.344C2.1 10.488 2.288 10.56 2.496 10.56C2.712 10.56 2.88 10.508 3 10.404C3.12 10.292 3.208 10.156 3.264 9.996C3.32 9.836 3.352 9.664 3.36 9.48C3.376 9.288 3.384 9.112 3.384 8.952V3.504H5.256V9.156ZM10.296 11.268H10.272C10.072 11.58 9.804 11.804 9.468 11.94C9.14 12.076 8.792 12.144 8.424 12.144C8.152 12.144 7.888 12.104 7.632 12.024C7.384 11.952 7.164 11.84 6.972 11.688C6.78 11.536 6.628 11.348 6.516 11.124C6.404 10.9 6.348 10.64 6.348 10.344C6.348 10.008 6.408 9.724 6.528 9.492C6.656 9.26 6.824 9.068 7.032 8.916C7.248 8.764 7.492 8.648 7.764 8.568C8.036 8.48 8.316 8.416 8.604 8.376C8.9 8.336 9.192 8.312 9.48 8.304C9.776 8.296 10.048 8.292 10.296 8.292C10.296 7.972 10.18 7.72 9.948 7.536C9.724 7.344 9.456 7.248 9.144 7.248C8.848 7.248 8.576 7.312 8.328 7.44C8.088 7.56 7.872 7.728 7.68 7.944L6.72 6.96C7.056 6.648 7.448 6.416 7.896 6.264C8.344 6.104 8.808 6.024 9.288 6.024C9.816 6.024 10.248 6.092 10.584 6.228C10.928 6.356 11.2 6.548 11.4 6.804C11.608 7.06 11.752 7.376 11.832 7.752C11.912 8.12 11.952 8.548 11.952 9.036V12H10.296V11.268ZM9.852 9.444C9.716 9.444 9.544 9.452 9.336 9.468C9.136 9.476 8.94 9.508 8.748 9.564C8.564 9.62 8.404 9.704 8.268 9.816C8.14 9.928 8.076 10.084 8.076 10.284C8.076 10.5 8.168 10.66 8.352 10.764C8.536 10.868 8.728 10.92 8.928 10.92C9.104 10.92 9.272 10.896 9.432 10.848C9.6 10.8 9.748 10.732 9.876 10.644C10.004 10.556 10.104 10.444 10.176 10.308C10.256 10.172 10.296 10.012 10.296 9.828V9.444H9.852ZM13.0813 6.168H14.8093V6.96H14.8333C14.8893 6.848 14.9693 6.736 15.0733 6.624C15.1773 6.512 15.3013 6.412 15.4453 6.324C15.5893 6.236 15.7533 6.164 15.9373 6.108C16.1213 6.052 16.3213 6.024 16.5373 6.024C16.9933 6.024 17.3613 6.096 17.6413 6.24C17.9213 6.376 18.1373 6.568 18.2893 6.816C18.4493 7.064 18.5573 7.356 18.6133 7.692C18.6693 8.028 18.6973 8.392 18.6973 8.784V12H16.8973V9.144C16.8973 8.976 16.8893 8.804 16.8733 8.628C16.8653 8.444 16.8293 8.276 16.7653 8.124C16.7093 7.972 16.6173 7.848 16.4893 7.752C16.3693 7.656 16.1933 7.608 15.9613 7.608C15.7293 7.608 15.5413 7.652 15.3973 7.74C15.2533 7.82 15.1413 7.932 15.0613 8.076C14.9893 8.212 14.9413 8.368 14.9173 8.544C14.8933 8.72 14.8813 8.904 14.8813 9.096V12H13.0813V6.168ZM25.4919 10.992C25.2039 11.36 24.8399 11.644 24.3999 11.844C23.9599 12.044 23.5039 12.144 23.0319 12.144C22.5839 12.144 22.1599 12.072 21.7599 11.928C21.3679 11.784 21.0239 11.58 20.7279 11.316C20.4399 11.044 20.2119 10.72 20.0439 10.344C19.8759 9.968 19.7919 9.548 19.7919 9.084C19.7919 8.62 19.8759 8.2 20.0439 7.824C20.2119 7.448 20.4399 7.128 20.7279 6.864C21.0239 6.592 21.3679 6.384 21.7599 6.24C22.1599 6.096 22.5839 6.024 23.0319 6.024C23.4479 6.024 23.8239 6.096 24.1599 6.24C24.5039 6.384 24.7919 6.592 25.0239 6.864C25.2639 7.128 25.4479 7.448 25.5759 7.824C25.7039 8.2 25.7679 8.62 25.7679 9.084V9.648H21.5919C21.6639 9.992 21.8199 10.268 22.0599 10.476C22.2999 10.676 22.5959 10.776 22.9479 10.776C23.2439 10.776 23.4919 10.712 23.6919 10.584C23.8999 10.448 24.0799 10.276 24.2319 10.068L25.4919 10.992ZM23.9679 8.424C23.9759 8.12 23.8759 7.86 23.6679 7.644C23.4599 7.428 23.1919 7.32 22.8639 7.32C22.6639 7.32 22.4879 7.352 22.3359 7.416C22.1839 7.48 22.0519 7.564 21.9399 7.668C21.8359 7.764 21.7519 7.88 21.6879 8.016C21.6319 8.144 21.5999 8.28 21.5919 8.424H23.9679ZM34.8413 5.58C34.6893 5.388 34.4813 5.248 34.2173 5.16C33.9613 5.064 33.7173 5.016 33.4853 5.016C33.3493 5.016 33.2093 5.032 33.0653 5.064C32.9213 5.096 32.7853 5.148 32.6573 5.22C32.5293 5.284 32.4253 5.372 32.3453 5.484C32.2653 5.596 32.2253 5.732 32.2253 5.892C32.2253 6.148 32.3213 6.344 32.5133 6.48C32.7053 6.616 32.9453 6.732 33.2333 6.828C33.5293 6.924 33.8453 7.02 34.1813 7.116C34.5173 7.212 34.8293 7.348 35.1173 7.524C35.4133 7.7 35.6573 7.936 35.8493 8.232C36.0413 8.528 36.1373 8.924 36.1373 9.42C36.1373 9.892 36.0493 10.304 35.8733 10.656C35.6973 11.008 35.4573 11.3 35.1533 11.532C34.8573 11.764 34.5093 11.936 34.1093 12.048C33.7173 12.16 33.3013 12.216 32.8613 12.216C32.3093 12.216 31.7973 12.132 31.3253 11.964C30.8533 11.796 30.4133 11.524 30.0053 11.148L31.3373 9.684C31.5293 9.94 31.7693 10.14 32.0573 10.284C32.3533 10.42 32.6573 10.488 32.9693 10.488C33.1213 10.488 33.2733 10.472 33.4253 10.44C33.5853 10.4 33.7253 10.344 33.8453 10.272C33.9733 10.2 34.0733 10.108 34.1453 9.996C34.2253 9.884 34.2653 9.752 34.2653 9.6C34.2653 9.344 34.1653 9.144 33.9653 9C33.7733 8.848 33.5293 8.72 33.2333 8.616C32.9373 8.512 32.6173 8.408 32.2733 8.304C31.9293 8.2 31.6093 8.06 31.3133 7.884C31.0173 7.708 30.7693 7.476 30.5693 7.188C30.3773 6.9 30.2813 6.52 30.2813 6.048C30.2813 5.592 30.3693 5.192 30.5453 4.848C30.7293 4.504 30.9693 4.216 31.2653 3.984C31.5693 3.752 31.9173 3.58 32.3093 3.468C32.7013 3.348 33.1053 3.288 33.5213 3.288C34.0013 3.288 34.4653 3.356 34.9133 3.492C35.3613 3.628 35.7653 3.856 36.1253 4.176L34.8413 5.58ZM37.304 6.168H39.032V6.96H39.056C39.112 6.848 39.192 6.736 39.296 6.624C39.4 6.512 39.524 6.412 39.668 6.324C39.812 6.236 39.976 6.164 40.16 6.108C40.344 6.052 40.544 6.024 40.76 6.024C41.168 6.024 41.528 6.108 41.84 6.276C42.16 6.444 42.4 6.708 42.56 7.068C42.768 6.692 43.02 6.424 43.316 6.264C43.612 6.104 43.976 6.024 44.408 6.024C44.8 6.024 45.128 6.092 45.392 6.228C45.664 6.356 45.876 6.536 46.028 6.768C46.188 6.992 46.3 7.26 46.364 7.572C46.436 7.876 46.472 8.204 46.472 8.556V12H44.672V8.604C44.672 8.332 44.612 8.1 44.492 7.908C44.38 7.708 44.176 7.608 43.88 7.608C43.672 7.608 43.496 7.644 43.352 7.716C43.216 7.78 43.104 7.872 43.016 7.992C42.936 8.112 42.876 8.252 42.836 8.412C42.804 8.572 42.788 8.74 42.788 8.916V12H40.988V8.916C40.988 8.812 40.984 8.684 40.976 8.532C40.968 8.38 40.94 8.236 40.892 8.1C40.844 7.964 40.764 7.848 40.652 7.752C40.548 7.656 40.392 7.608 40.184 7.608C39.952 7.608 39.764 7.652 39.62 7.74C39.476 7.82 39.364 7.932 39.284 8.076C39.212 8.212 39.164 8.368 39.14 8.544C39.116 8.72 39.104 8.904 39.104 9.096V12H37.304V6.168ZM47.7694 6.168H49.5694V12H47.7694V6.168ZM47.6254 4.332C47.6254 4.044 47.7254 3.8 47.9254 3.6C48.1334 3.392 48.3814 3.288 48.6694 3.288C48.9574 3.288 49.2014 3.392 49.4014 3.6C49.6094 3.8 49.7134 4.044 49.7134 4.332C49.7134 4.62 49.6094 4.868 49.4014 5.076C49.2014 5.276 48.9574 5.376 48.6694 5.376C48.3814 5.376 48.1334 5.276 47.9254 5.076C47.7254 4.868 47.6254 4.62 47.6254 4.332ZM54.8346 7.608H53.2506V9.552C53.2506 9.712 53.2586 9.86 53.2746 9.996C53.2906 10.124 53.3266 10.236 53.3826 10.332C53.4386 10.428 53.5226 10.504 53.6346 10.56C53.7546 10.608 53.9106 10.632 54.1026 10.632C54.1986 10.632 54.3226 10.624 54.4746 10.608C54.6346 10.584 54.7546 10.536 54.8346 10.464V11.964C54.6346 12.036 54.4266 12.084 54.2106 12.108C53.9946 12.132 53.7826 12.144 53.5746 12.144C53.2706 12.144 52.9906 12.112 52.7346 12.048C52.4786 11.984 52.2546 11.884 52.0626 11.748C51.8706 11.604 51.7186 11.42 51.6066 11.196C51.5026 10.972 51.4506 10.7 51.4506 10.38V7.608H50.2986V6.168H51.4506V4.44H53.2506V6.168H54.8346V7.608ZM57.5493 2.928V6.96H57.5733C57.6133 6.848 57.6813 6.736 57.7773 6.624C57.8733 6.512 57.9893 6.412 58.1253 6.324C58.2613 6.236 58.4213 6.164 58.6053 6.108C58.7893 6.052 58.9893 6.024 59.2053 6.024C59.6613 6.024 60.0293 6.096 60.3093 6.24C60.5893 6.376 60.8053 6.568 60.9573 6.816C61.1173 7.064 61.2253 7.356 61.2813 7.692C61.3373 8.028 61.3653 8.392 61.3653 8.784V12H59.5653V9.144C59.5653 8.976 59.5573 8.804 59.5413 8.628C59.5333 8.444 59.4973 8.276 59.4333 8.124C59.3773 7.972 59.2853 7.848 59.1573 7.752C59.0373 7.656 58.8613 7.608 58.6293 7.608C58.3973 7.608 58.2093 7.652 58.0653 7.74C57.9213 7.82 57.8093 7.932 57.7293 8.076C57.6573 8.212 57.6093 8.368 57.5853 8.544C57.5613 8.72 57.5493 8.904 57.5493 9.096V12H55.7493V2.928H57.5493Z" transform="translate(160.098 20.6297)" fill="#424B59"/>
<path id="Lead" d="M0.8 2H1.71V8.14H4.69V9H0.8V2ZM9.69328 6.44C9.69328 6.63333 9.68661 6.80333 9.67328 6.95H6.10328C6.10995 7.39 6.24328 7.73667 6.50328 7.99C6.76328 8.23667 7.11328 8.36 7.55328 8.36C7.85995 8.36 8.11661 8.30333 8.32328 8.19C8.52995 8.07 8.67995 7.9 8.77328 7.68H9.64328C9.56328 8.10667 9.32995 8.45333 8.94328 8.72C8.55661 8.98667 8.09328 9.12 7.55328 9.12C6.84661 9.12 6.28328 8.90333 5.86328 8.47C5.44995 8.03 5.24328 7.43667 5.24328 6.69C5.24328 6.21 5.33661 5.78667 5.52328 5.42C5.70995 5.05333 5.97328 4.77 6.31328 4.57C6.65995 4.37 7.05995 4.27 7.51328 4.27C7.93995 4.27 8.31661 4.36333 8.64328 4.55C8.97661 4.73 9.23328 4.98667 9.41328 5.32C9.59995 5.64667 9.69328 6.02 9.69328 6.44ZM8.84328 6.28C8.84328 5.87333 8.72328 5.55333 8.48328 5.32C8.24995 5.08667 7.92328 4.97 7.50328 4.97C7.08995 4.97 6.75661 5.09 6.50328 5.33C6.25661 5.57 6.12328 5.88667 6.10328 6.28H8.84328ZM12.8065 9.12C12.3332 9.12 11.9232 9.01667 11.5765 8.81C11.2298 8.59667 10.9665 8.30667 10.7865 7.94C10.6132 7.57333 10.5265 7.16 10.5265 6.7C10.5265 6.24667 10.6198 5.83667 10.8065 5.47C10.9932 5.09667 11.2598 4.80333 11.6065 4.59C11.9532 4.37667 12.3598 4.27 12.8265 4.27C13.1865 4.27 13.5098 4.35667 13.7965 4.53C14.0832 4.69667 14.2998 4.92333 14.4465 5.21V4.39H15.3065V9H14.4465V8.19C14.2998 8.47 14.0765 8.69667 13.7765 8.87C13.4765 9.03667 13.1532 9.12 12.8065 9.12ZM12.9265 8.34C13.4132 8.34 13.7932 8.18333 14.0665 7.87C14.3465 7.55667 14.4865 7.16667 14.4865 6.7C14.4865 6.23333 14.3465 5.84333 14.0665 5.53C13.7932 5.21 13.4132 5.05 12.9265 5.05C12.4598 5.05 12.0865 5.20667 11.8065 5.52C11.5265 5.82667 11.3865 6.22 11.3865 6.7C11.3865 7.18 11.5265 7.57333 11.8065 7.88C12.0865 8.18667 12.4598 8.34 12.9265 8.34ZM21.2147 2V9H20.3547V8.19C20.208 8.47 19.9847 8.69667 19.6847 8.87C19.3847 9.03667 19.0614 9.12 18.7147 9.12C18.2414 9.12 17.8314 9.01667 17.4847 8.81C17.138 8.59667 16.8747 8.30667 16.6947 7.94C16.5214 7.57333 16.4347 7.16 16.4347 6.7C16.4347 6.24667 16.528 5.83667 16.7147 5.47C16.9014 5.09667 17.168 4.80333 17.5147 4.59C17.8614 4.37667 18.268 4.27 18.7347 4.27C19.0947 4.27 19.418 4.35667 19.7047 4.53C19.9914 4.69667 20.208 4.92333 20.3547 5.21V2H21.2147ZM18.8347 8.34C19.3214 8.34 19.7014 8.18333 19.9747 7.87C20.2547 7.55667 20.3947 7.16667 20.3947 6.7C20.3947 6.23333 20.2547 5.84333 19.9747 5.53C19.7014 5.21 19.3214 5.05 18.8347 5.05C18.368 5.05 17.9947 5.20667 17.7147 5.52C17.4347 5.82667 17.2947 6.22 17.2947 6.7C17.2947 7.18 17.4347 7.57333 17.7147 7.88C17.9947 8.18667 18.368 8.34 18.8347 8.34Z" transform="translate(160.098 40.6297)" fill="#424B59"/>
<g id="Group_2">
<ellipse id="Ellipse_3" cx="18.9101" cy="18.9055" rx="18.9101" ry="18.9055" transform="translate(110.21 19.3402)" fill="#FF883B"/>
<mask id="mask1" mask-type="alpha" maskUnits="userSpaceOnUse" x="110" y="19" width="39" height="39">
<ellipse id="Ellipse_4" cx="18.9101" cy="18.9055" rx="18.9101" ry="18.9055" transform="translate(110.21 19.3402)" fill="white"/>
</mask>
<g mask="url(#mask1)">
<g id="002-businesswoman">
<g id="Group_3">
<g id="Group_4">
<path id="Vector_4" d="M3.86265 7.86063C5.99594 7.86063 7.72531 6.10097 7.72531 3.93032C7.72531 1.75966 5.99594 0 3.86265 0C1.72937 0 0 1.75966 0 3.93032C0 6.10097 1.72937 7.86063 3.86265 7.86063Z" transform="translate(130.288 40.5612)" fill="#242A2C"/>
<path id="Vector_5" d="M3.86265 7.86063C5.99594 7.86063 7.72531 6.10097 7.72531 3.93032C7.72531 1.75966 5.99594 0 3.86265 0C1.72937 0 0 1.75966 0 3.93032C0 6.10097 1.72937 7.86063 3.86265 7.86063Z" transform="translate(120.227 40.5612)" fill="#242A2C"/>
<path id="Vector_6" d="M5.64195 22.3862C5.64195 22.3862 3.85317 20.2006 2.49403 16.9104C1.32606 14.0835 -0.0497985 11.1991 0.00138649 7.39001C0.0500633 3.76831 2.10926 0 8.29753 0C13.7151 0 14.9985 2.51929 14.7411 4.23846C14.7411 4.23846 15.5598 4.31228 15.9921 4.88452C16.7251 5.85516 16.8129 9.98208 15.9242 12.9296C13.9057 19.6246 11.2062 22.3862 11.2062 22.3862H5.64195V22.3862Z" transform="translate(120.699 27.0424)" fill="#242A2C"/>
<path id="Vector_7" d="M25.9517 9.25899C24.9743 5.69041 20.0658 6.08627 17.9475 5.06146C15.8293 4.03665 16.1598 0.598229 15.8914 -5.19225e-07H10.7229C10.4546 0.598229 10.7855 4.03713 8.6668 5.06146C6.54852 6.08627 1.64006 5.6905 0.662618 9.25899C0.123271 11.2273 0.149375 11.8288 4.25238e-08 14.0097C4.25238e-08 14.0097 6.73486 15.4452 13.1549 15.4452C19.575 15.4452 26.6142 14.0097 26.6142 14.0097C26.4654 11.8288 26.4911 11.2273 25.9517 9.25899Z" transform="translate(115.812 41.7061)" fill="#4E565D"/>
<path id="Vector_8" d="M2.05577 5.84722C4.17405 6.87203 9.08251 6.47627 10.06 10.0448C10.5738 11.9191 10.5748 12.5545 10.7021 14.4942C12.3886 14.228 13.4594 14.0097 13.4594 14.0097C13.3106 11.8293 13.3363 11.2274 12.7968 9.25899C11.8194 5.69041 6.91091 6.08627 4.79264 5.06146C2.67436 4.03665 3.00488 0.59823 2.73651 2.53843e-07H0.000199724C0.000199724 9.47758e-05 -0.0629682 4.82298 2.05577 5.84722Z" transform="translate(128.967 41.706)" fill="#444B51"/>
<path id="Vector_9" d="M3.08782 6.46146e-07C3.08782 6.46146e-07 1.50787 1.89876 6.80381e-08 2.35189C6.80381e-08 2.35189 3.14263 7.60561 7.728 9.95439L3.08782 6.46146e-07Z" transform="translate(121.392 46.7675)" fill="#393E43"/>
<path id="Vector_10" d="M4.64018 6.46146e-07C4.64018 6.46146e-07 6.22013 1.89876 7.728 2.35189C7.728 2.35189 4.58537 7.60561 2.94832e-07 9.95439L4.64018 6.46146e-07Z" transform="translate(129.12 46.7675)" fill="#393E43"/>
<path id="Vector_11" d="M11.9959 1.31546C11.4017 1.02802 11.0007 0.550968 10.7245 -5.76916e-08H8.09038H8.0888H6.62265H6.62107H3.98695C3.71077 0.550968 3.30974 1.02802 2.71559 1.31546C2.67908 1.33295 1.88911 2.96988 -2.89162e-07 3.76197C-2.89162e-07 3.76197 0.878226 5.17035 2.76826 7.30768C4.6583 9.44501 7.35512 11.2699 7.35512 11.2699C7.35512 11.2699 10.0519 9.44501 11.942 7.30768C13.8321 5.17035 14.7103 3.76197 14.7103 3.76197C12.8223 2.96988 12.0324 1.33304 11.9959 1.31546Z" transform="translate(121.765 45.452)" fill="#464B50"/>
<path id="Vector_12" d="M4.25588 1.31546C3.66172 1.02802 3.2607 0.550968 2.98452 -5.76916e-08H0.350399H0.34882H-3.17511e-07C0.303394 0.919131 0.777436 1.74308 1.51883 2.1017C2.60904 2.62875 4.43749 2.78017 6.08953 3.28908C4.83173 2.45294 4.28616 1.32983 4.25588 1.31546Z" transform="translate(129.504 45.452)" fill="#444B51"/>
<path id="Vector_13" d="M7.43548 4.30538C6.33904 2.89218 6.52176 0.490852 6.30198 -2.0769e-07H1.1335C0.913155 0.490852 1.09588 2.89228 5.10286e-08 4.30538C0.438556 9.3312 3.71802 15.0158 3.71802 15.0158C3.71802 15.0158 6.98856 9.38121 7.43548 4.30538Z" transform="translate(125.402 41.7055)" fill="#FFDDB8"/>
<path id="Vector_14" d="M-1.13397e-07 -1.3846e-07C1.05733 2.82583 2.2984 4.97696 2.2984 4.97696C2.2984 4.97696 3.54263 2.83329 4.60098 -1.3846e-07H-1.13397e-07Z" transform="translate(126.821 51.7444)" fill="#EAE5DC"/>
<path id="Vector_15" d="M2.05539 5.84817C2.46784 6.04789 2.98638 6.19346 3.56065 6.32475C3.70315 5.65166 3.81128 4.97374 3.87027 4.30538C2.77383 2.89218 2.95656 0.490852 2.73677 -6.69223e-07H0.000276206C-0.000188267 0.00103907 -0.0633566 4.82393 2.05539 5.84817Z" transform="translate(128.968 41.7051)" fill="#F1CBA5"/>
<path id="Vector_16" d="M1.64425e-07 3.55421C0.857325 4.30651 1.86291 5.05239 3.2737 5.26809C4.68914 5.05182 5.6911 4.29054 6.55 3.53512C5.83574 2.11984 6.05664 0.431965 5.86342 -2.0769e-07H0.694945C0.501259 0.432438 0.717426 2.13837 1.64425e-07 3.55421Z" transform="translate(125.841 41.7055)" fill="#CCA281"/>
<g id="Group_5">
<path id="Vector_17" d="M2.02036 2.16174C3.13618 2.16174 4.04073 1.67782 4.04073 1.08087C4.04073 0.483922 3.13618 0 2.02036 0C0.904548 0 0 0.483922 0 1.08087C0 1.67782 0.904548 2.16174 2.02036 2.16174Z" transform="matrix(-0.174046 0.984727 -0.983656 -0.180001 136.562 36.4133)" fill="#EABF95"/>
<path id="Vector_18" d="M1.08087 4.04073C1.67782 4.04073 2.16174 3.13618 2.16174 2.02037C2.16174 0.904548 1.67782 0 1.08087 0C0.483922 0 0 0.904548 0 2.02037C0 3.13618 0.483922 4.04073 1.08087 4.04073Z" transform="matrix(-0.983656 0.180001 -0.174046 -0.984727 124.492 40.0041)" fill="#EABF95"/>
<path id="Vector_19" d="M11.7771 -2.59612e-08L6.21175 0.871303C6.21175 0.871303 4.23969 0.958453 2.63048 1.79091C1.15336 2.5554 0.0292421 4.05093 0.0146576 4.47325C-0.129422 8.64696 0.708023 14.3645 6.16159 15.1996C14.9244 13.8581 11.7771 -2.59612e-08 11.7771 -2.59612e-08Z" transform="translate(122.951 31.4791)" fill="#FFDDB8"/>
<path id="Vector_20" d="M2.26794e-08 15.1997C8.76285 13.8582 5.61548 -2.59612e-08 5.61548 -2.59612e-08H4.30186C4.66164 5.78871 5.15918 8.8637 3.09367 12.216C1.45724 14.8724 2.26794e-08 15.1997 2.26794e-08 15.1997Z" transform="translate(129.113 31.4791)" fill="#F1CBA5"/>
<path id="Vector_21" d="M11.445 1.41344e-07C11.445 1.41344e-07 8.40725 1.48598 3.87315 1.40677C-0.124199 1.3372 0.0350212 7.98124 -1.30406e-07 8.2166C-1.30406e-07 8.2166 1.01348 4.1083 3.7927 3.21412C6.17462 2.44746 7.66632 3.11421 9.3544 3.27575C11.233 3.45534 11.8596 2.0049 11.8596 2.0049L11.445 1.41344e-07Z" transform="translate(123.075 30.8618)" fill="#F1CBA5"/>
<path id="Vector_22" d="M13.724 4.12002L12.6479 1.42378C12.6479 1.42378 12.3164 0.640197 11.6073 -6.34608e-08C11.6073 -6.34608e-08 8.72988 1.71756 4.19681 1.58164C-0.648023 1.43607 -0.230834 5.91518 0.323654 8.78459C0.323654 8.78459 0.513159 5.65912 2.90919 3.98987C4.55445 2.84341 6.56822 2.85617 8.23438 3.19238C9.82167 3.51272 10.796 3.29173 11.3917 2.93046C11.8151 3.49098 12.3508 4.45898 12.5263 5.91462L13.724 4.12002Z" transform="translate(122.751 30.2944)" fill="#2F3233"/>
<path id="Vector_23" d="M0.405671 0.825554C0.629717 0.825554 0.811343 0.640749 0.811343 0.412778C0.811343 0.184807 0.629717 0 0.405671 0C0.181625 0 0 0.184807 0 0.412778C0 0.640749 0.181625 0.825554 0.405671 0.825554Z" transform="translate(135.119 39.3823)" fill="#CC7D2E"/>
<path id="Vector_24" d="M0.405671 0.825554C0.629717 0.825554 0.811342 0.640749 0.811342 0.412778C0.811342 0.184807 0.629717 0 0.405671 0C0.181625 0 0 0.184807 0 0.412778C0 0.640749 0.181625 0.825554 0.405671 0.825554Z" transform="translate(122.314 39.3823)" fill="#CC7D2E"/>
</g>
</g>
</g>
</g>
</g>
</g>
</g>
<g id="Group 7.4">
<g id="Rectangle 10_4" filter="url(#filter2_d)">
<rect width="223.419" height="61.6181" rx="3" transform="translate(120.098 169.437)" fill="white"/>
</g>
<path id="Nelly Hathaway" d="M0.864 3.504H3.408L7.02 9.408H7.044V3.504H8.916V12H6.468L2.76 5.952H2.736V12H0.864V3.504ZM15.9412 10.992C15.6532 11.36 15.2892 11.644 14.8492 11.844C14.4092 12.044 13.9532 12.144 13.4812 12.144C13.0332 12.144 12.6092 12.072 12.2092 11.928C11.8172 11.784 11.4732 11.58 11.1772 11.316C10.8892 11.044 10.6612 10.72 10.4932 10.344C10.3252 9.968 10.2412 9.548 10.2412 9.084C10.2412 8.62 10.3252 8.2 10.4932 7.824C10.6612 7.448 10.8892 7.128 11.1772 6.864C11.4732 6.592 11.8172 6.384 12.2092 6.24C12.6092 6.096 13.0332 6.024 13.4812 6.024C13.8972 6.024 14.2732 6.096 14.6092 6.24C14.9532 6.384 15.2412 6.592 15.4732 6.864C15.7132 7.128 15.8972 7.448 16.0252 7.824C16.1532 8.2 16.2172 8.62 16.2172 9.084V9.648H12.0412C12.1132 9.992 12.2692 10.268 12.5092 10.476C12.7492 10.676 13.0452 10.776 13.3972 10.776C13.6932 10.776 13.9412 10.712 14.1412 10.584C14.3492 10.448 14.5292 10.276 14.6812 10.068L15.9412 10.992ZM14.4172 8.424C14.4252 8.12 14.3252 7.86 14.1172 7.644C13.9092 7.428 13.6412 7.32 13.3132 7.32C13.1132 7.32 12.9372 7.352 12.7852 7.416C12.6332 7.48 12.5012 7.564 12.3892 7.668C12.2852 7.764 12.2012 7.88 12.1372 8.016C12.0812 8.144 12.0492 8.28 12.0412 8.424H14.4172ZM17.3358 2.928H19.1358V12H17.3358V2.928ZM20.453 2.928H22.253V12H20.453V2.928ZM26.9062 12.948C26.7862 13.26 26.6702 13.536 26.5582 13.776C26.4462 14.016 26.3022 14.216 26.1262 14.376C25.9582 14.544 25.7422 14.668 25.4782 14.748C25.2142 14.836 24.8662 14.88 24.4342 14.88C23.9702 14.88 23.5222 14.808 23.0902 14.664L23.3302 13.188C23.6022 13.308 23.8822 13.368 24.1702 13.368C24.3702 13.368 24.5342 13.344 24.6622 13.296C24.7902 13.256 24.8942 13.192 24.9742 13.104C25.0622 13.024 25.1342 12.924 25.1902 12.804C25.2462 12.684 25.3062 12.544 25.3702 12.384L25.5022 12.048L22.9462 6.168H24.8902L26.3902 10.02H26.4142L27.6982 6.168H29.5462L26.9062 12.948ZM33.9929 3.504H35.8649V6.672H39.5009V3.504H41.3729V12H39.5009V8.328H35.8649V12H33.9929V3.504ZM46.5304 11.268H46.5064C46.3064 11.58 46.0384 11.804 45.7024 11.94C45.3744 12.076 45.0264 12.144 44.6584 12.144C44.3864 12.144 44.1224 12.104 43.8664 12.024C43.6184 11.952 43.3984 11.84 43.2064 11.688C43.0144 11.536 42.8624 11.348 42.7504 11.124C42.6384 10.9 42.5824 10.64 42.5824 10.344C42.5824 10.008 42.6424 9.724 42.7624 9.492C42.8904 9.26 43.0584 9.068 43.2664 8.916C43.4824 8.764 43.7264 8.648 43.9984 8.568C44.2704 8.48 44.5504 8.416 44.8384 8.376C45.1344 8.336 45.4264 8.312 45.7144 8.304C46.0104 8.296 46.2824 8.292 46.5304 8.292C46.5304 7.972 46.4144 7.72 46.1824 7.536C45.9584 7.344 45.6904 7.248 45.3784 7.248C45.0824 7.248 44.8104 7.312 44.5624 7.44C44.3224 7.56 44.1064 7.728 43.9144 7.944L42.9544 6.96C43.2904 6.648 43.6824 6.416 44.1304 6.264C44.5784 6.104 45.0424 6.024 45.5224 6.024C46.0504 6.024 46.4824 6.092 46.8184 6.228C47.1624 6.356 47.4344 6.548 47.6344 6.804C47.8424 7.06 47.9864 7.376 48.0664 7.752C48.1464 8.12 48.1864 8.548 48.1864 9.036V12H46.5304V11.268ZM46.0864 9.444C45.9504 9.444 45.7784 9.452 45.5704 9.468C45.3704 9.476 45.1744 9.508 44.9824 9.564C44.7984 9.62 44.6384 9.704 44.5024 9.816C44.3744 9.928 44.3104 10.084 44.3104 10.284C44.3104 10.5 44.4024 10.66 44.5864 10.764C44.7704 10.868 44.9624 10.92 45.1624 10.92C45.3384 10.92 45.5064 10.896 45.6664 10.848C45.8344 10.8 45.9824 10.732 46.1104 10.644C46.2384 10.556 46.3384 10.444 46.4104 10.308C46.4904 10.172 46.5304 10.012 46.5304 9.828V9.444H46.0864ZM53.2877 7.608H51.7037V9.552C51.7037 9.712 51.7117 9.86 51.7277 9.996C51.7437 10.124 51.7797 10.236 51.8357 10.332C51.8917 10.428 51.9757 10.504 52.0877 10.56C52.2077 10.608 52.3637 10.632 52.5557 10.632C52.6517 10.632 52.7757 10.624 52.9277 10.608C53.0877 10.584 53.2077 10.536 53.2877 10.464V11.964C53.0877 12.036 52.8797 12.084 52.6637 12.108C52.4477 12.132 52.2357 12.144 52.0277 12.144C51.7237 12.144 51.4437 12.112 51.1877 12.048C50.9317 11.984 50.7077 11.884 50.5157 11.748C50.3237 11.604 50.1717 11.42 50.0597 11.196C49.9557 10.972 49.9037 10.7 49.9037 10.38V7.608H48.7517V6.168H49.9037V4.44H51.7037V6.168H53.2877V7.608ZM56.0024 2.928V6.96H56.0264C56.0664 6.848 56.1344 6.736 56.2304 6.624C56.3264 6.512 56.4424 6.412 56.5784 6.324C56.7144 6.236 56.8744 6.164 57.0584 6.108C57.2424 6.052 57.4424 6.024 57.6584 6.024C58.1144 6.024 58.4824 6.096 58.7624 6.24C59.0424 6.376 59.2584 6.568 59.4104 6.816C59.5704 7.064 59.6784 7.356 59.7344 7.692C59.7904 8.028 59.8184 8.392 59.8184 8.784V12H58.0184V9.144C58.0184 8.976 58.0104 8.804 57.9944 8.628C57.9864 8.444 57.9504 8.276 57.8864 8.124C57.8304 7.972 57.7384 7.848 57.6104 7.752C57.4904 7.656 57.3144 7.608 57.0824 7.608C56.8504 7.608 56.6624 7.652 56.5184 7.74C56.3744 7.82 56.2624 7.932 56.1824 8.076C56.1104 8.212 56.0624 8.368 56.0384 8.544C56.0144 8.72 56.0024 8.904 56.0024 9.096V12H54.2024V2.928H56.0024ZM64.753 11.268H64.729C64.529 11.58 64.261 11.804 63.925 11.94C63.597 12.076 63.249 12.144 62.881 12.144C62.609 12.144 62.345 12.104 62.089 12.024C61.841 11.952 61.621 11.84 61.429 11.688C61.237 11.536 61.085 11.348 60.973 11.124C60.861 10.9 60.805 10.64 60.805 10.344C60.805 10.008 60.865 9.724 60.985 9.492C61.113 9.26 61.281 9.068 61.489 8.916C61.705 8.764 61.949 8.648 62.221 8.568C62.493 8.48 62.773 8.416 63.061 8.376C63.357 8.336 63.649 8.312 63.937 8.304C64.233 8.296 64.505 8.292 64.753 8.292C64.753 7.972 64.637 7.72 64.405 7.536C64.181 7.344 63.913 7.248 63.601 7.248C63.305 7.248 63.033 7.312 62.785 7.44C62.545 7.56 62.329 7.728 62.137 7.944L61.177 6.96C61.513 6.648 61.905 6.416 62.353 6.264C62.801 6.104 63.265 6.024 63.745 6.024C64.273 6.024 64.705 6.092 65.041 6.228C65.385 6.356 65.657 6.548 65.857 6.804C66.065 7.06 66.209 7.376 66.289 7.752C66.369 8.12 66.409 8.548 66.409 9.036V12H64.753V11.268ZM64.309 9.444C64.173 9.444 64.001 9.452 63.793 9.468C63.593 9.476 63.397 9.508 63.205 9.564C63.021 9.62 62.861 9.704 62.725 9.816C62.597 9.928 62.533 10.084 62.533 10.284C62.533 10.5 62.625 10.66 62.809 10.764C62.993 10.868 63.185 10.92 63.385 10.92C63.561 10.92 63.729 10.896 63.889 10.848C64.057 10.8 64.205 10.732 64.333 10.644C64.461 10.556 64.561 10.444 64.633 10.308C64.713 10.172 64.753 10.012 64.753 9.828V9.444H64.309ZM66.8423 6.168H68.7623L69.9503 9.828H69.9743L70.9703 6.168H72.9383L74.0183 9.828H74.0423L75.1343 6.168H76.9583L74.8823 12H73.1063L71.8943 8.124H71.8703L70.7903 12H68.9783L66.8423 6.168ZM81.1944 11.268H81.1704C80.9704 11.58 80.7024 11.804 80.3664 11.94C80.0384 12.076 79.6904 12.144 79.3224 12.144C79.0504 12.144 78.7864 12.104 78.5304 12.024C78.2824 11.952 78.0624 11.84 77.8704 11.688C77.6784 11.536 77.5264 11.348 77.4144 11.124C77.3024 10.9 77.2464 10.64 77.2464 10.344C77.2464 10.008 77.3064 9.724 77.4264 9.492C77.5544 9.26 77.7224 9.068 77.9304 8.916C78.1464 8.764 78.3904 8.648 78.6624 8.568C78.9344 8.48 79.2144 8.416 79.5024 8.376C79.7984 8.336 80.0904 8.312 80.3784 8.304C80.6744 8.296 80.9464 8.292 81.1944 8.292C81.1944 7.972 81.0784 7.72 80.8464 7.536C80.6224 7.344 80.3544 7.248 80.0424 7.248C79.7464 7.248 79.4744 7.312 79.2264 7.44C78.9864 7.56 78.7704 7.728 78.5784 7.944L77.6184 6.96C77.9544 6.648 78.3464 6.416 78.7944 6.264C79.2424 6.104 79.7064 6.024 80.1864 6.024C80.7144 6.024 81.1464 6.092 81.4824 6.228C81.8264 6.356 82.0984 6.548 82.2984 6.804C82.5064 7.06 82.6504 7.376 82.7304 7.752C82.8104 8.12 82.8504 8.548 82.8504 9.036V12H81.1944V11.268ZM80.7504 9.444C80.6144 9.444 80.4424 9.452 80.2344 9.468C80.0344 9.476 79.8384 9.508 79.6464 9.564C79.4624 9.62 79.3024 9.704 79.1664 9.816C79.0384 9.928 78.9744 10.084 78.9744 10.284C78.9744 10.5 79.0664 10.66 79.2504 10.764C79.4344 10.868 79.6264 10.92 79.8264 10.92C80.0024 10.92 80.1704 10.896 80.3304 10.848C80.4984 10.8 80.6464 10.732 80.7744 10.644C80.9024 10.556 81.0024 10.444 81.0744 10.308C81.1544 10.172 81.1944 10.012 81.1944 9.828V9.444H80.7504ZM87.3398 12.948C87.2197 13.26 87.1037 13.536 86.9917 13.776C86.8797 14.016 86.7357 14.216 86.5598 14.376C86.3917 14.544 86.1757 14.668 85.9118 14.748C85.6477 14.836 85.2997 14.88 84.8678 14.88C84.4038 14.88 83.9557 14.808 83.5237 14.664L83.7638 13.188C84.0357 13.308 84.3157 13.368 84.6037 13.368C84.8037 13.368 84.9677 13.344 85.0957 13.296C85.2237 13.256 85.3278 13.192 85.4078 13.104C85.4958 13.024 85.5677 12.924 85.6237 12.804C85.6797 12.684 85.7397 12.544 85.8037 12.384L85.9358 12.048L83.3798 6.168H85.3238L86.8237 10.02H86.8477L88.1317 6.168H89.9797L87.3398 12.948Z" transform="translate(194.098 184.437)" fill="#424B59"/>
<path id="Opportunity" d="M3.99 9.16C3.26333 9.16 2.62667 8.99667 2.08 8.67C1.53333 8.33667 1.11333 7.89333 0.82 7.34C0.526667 6.78 0.38 6.16667 0.38 5.5C0.38 4.83333 0.526667 4.22333 0.82 3.67C1.11333 3.11 1.53333 2.66667 2.08 2.34C2.62667 2.00667 3.26333 1.84 3.99 1.84C4.71667 1.84 5.35333 2.00667 5.9 2.34C6.44667 2.66667 6.86667 3.11 7.16 3.67C7.45333 4.22333 7.6 4.83333 7.6 5.5C7.6 6.16667 7.45333 6.78 7.16 7.34C6.86667 7.89333 6.44667 8.33667 5.9 8.67C5.35333 8.99667 4.71667 9.16 3.99 9.16ZM3.99 8.34C4.53667 8.34 5.01 8.21333 5.41 7.96C5.81 7.7 6.11667 7.35667 6.33 6.93C6.54333 6.49667 6.64667 6.02 6.64 5.5C6.64667 4.98 6.54333 4.50667 6.33 4.08C6.11667 3.64667 5.81 3.30333 5.41 3.05C5.01 2.79 4.53667 2.66 3.99 2.66C3.44333 2.66 2.96667 2.79 2.56 3.05C2.16 3.30333 1.85333 3.64667 1.64 4.08C1.42667 4.50667 1.32333 4.98 1.33 5.5C1.32333 6.02 1.42667 6.49667 1.64 6.93C1.85333 7.35667 2.16 7.7 2.56 7.96C2.96667 8.21333 3.44333 8.34 3.99 8.34ZM11.2788 4.27C11.7121 4.27 12.0987 4.37333 12.4387 4.58C12.7787 4.78 13.0421 5.06667 13.2288 5.44C13.4154 5.80667 13.5088 6.22667 13.5088 6.7C13.5088 7.16667 13.4121 7.58333 13.2187 7.95C13.0254 8.31667 12.7554 8.60333 12.4088 8.81C12.0621 9.01667 11.6687 9.12 11.2288 9.12C10.8754 9.12 10.5488 9.03667 10.2488 8.87C9.94875 8.70333 9.72542 8.47667 9.57875 8.19V11.13H8.71875V4.39H9.57875V5.21C9.72542 4.92333 9.95208 4.69667 10.2588 4.53C10.5654 4.35667 10.9054 4.27 11.2788 4.27ZM11.1088 8.34C11.5554 8.34 11.9221 8.18667 12.2087 7.88C12.4954 7.57333 12.6388 7.18 12.6388 6.7C12.6388 6.38667 12.5721 6.10333 12.4387 5.85C12.3121 5.59667 12.1321 5.4 11.8988 5.26C11.6654 5.12 11.4021 5.05 11.1088 5.05C10.6488 5.05 10.2721 5.20333 9.97875 5.51C9.68542 5.81667 9.53875 6.21333 9.53875 6.7C9.53875 7.18 9.68542 7.57333 9.97875 7.88C10.2721 8.18667 10.6488 8.34 11.1088 8.34ZM17.187 4.27C17.6203 4.27 18.007 4.37333 18.347 4.58C18.687 4.78 18.9503 5.06667 19.137 5.44C19.3236 5.80667 19.417 6.22667 19.417 6.7C19.417 7.16667 19.3203 7.58333 19.127 7.95C18.9336 8.31667 18.6636 8.60333 18.317 8.81C17.9703 9.01667 17.577 9.12 17.137 9.12C16.7836 9.12 16.457 9.03667 16.157 8.87C15.857 8.70333 15.6336 8.47667 15.487 8.19V11.13H14.627V4.39H15.487V5.21C15.6336 4.92333 15.8603 4.69667 16.167 4.53C16.4736 4.35667 16.8136 4.27 17.187 4.27ZM17.017 8.34C17.4636 8.34 17.8303 8.18667 18.117 7.88C18.4036 7.57333 18.547 7.18 18.547 6.7C18.547 6.38667 18.4803 6.10333 18.347 5.85C18.2203 5.59667 18.0403 5.4 17.807 5.26C17.5736 5.12 17.3103 5.05 17.017 5.05C16.557 5.05 16.1803 5.20333 15.887 5.51C15.5936 5.81667 15.447 6.21333 15.447 6.7C15.447 7.18 15.5936 7.57333 15.887 7.88C16.1803 8.18667 16.557 8.34 17.017 8.34ZM22.5652 9.12C22.0785 9.12 21.6518 9.01333 21.2852 8.8C20.9252 8.58667 20.6485 8.29667 20.4552 7.93C20.2618 7.55667 20.1652 7.14667 20.1652 6.7C20.1652 6.24667 20.2618 5.83667 20.4552 5.47C20.6485 5.09667 20.9252 4.80333 21.2852 4.59C21.6518 4.37667 22.0785 4.27 22.5652 4.27C23.0518 4.27 23.4752 4.37667 23.8352 4.59C24.2018 4.80333 24.4818 5.09667 24.6752 5.47C24.8685 5.83667 24.9652 6.24667 24.9652 6.7C24.9652 7.14667 24.8652 7.55667 24.6652 7.93C24.4718 8.29667 24.1952 8.58667 23.8352 8.8C23.4752 9.01333 23.0518 9.12 22.5652 9.12ZM22.5652 8.34C23.0385 8.34 23.4118 8.18667 23.6852 7.88C23.9585 7.56667 24.0952 7.17333 24.0952 6.7C24.0952 6.22 23.9585 5.82667 23.6852 5.52C23.4118 5.20667 23.0385 5.05 22.5652 5.05C22.0918 5.05 21.7152 5.20667 21.4352 5.52C21.1618 5.82667 21.0252 6.22 21.0252 6.7C21.0252 7.17333 21.1618 7.56667 21.4352 7.88C21.7152 8.18667 22.0918 8.34 22.5652 8.34ZM26.082 4.39H26.952V5.44C27.0387 5.07333 27.2054 4.79667 27.452 4.61C27.7054 4.41667 27.9887 4.32 28.302 4.32C28.482 4.32 28.622 4.33333 28.722 4.36V5.16C28.622 5.14 28.4787 5.13 28.292 5.13C27.8587 5.13 27.5254 5.30333 27.292 5.65C27.0654 5.99667 26.952 6.44333 26.952 6.99V9H26.082V4.39ZM31.8011 8.28C31.8944 8.28 31.9944 8.27667 32.1011 8.27C32.2078 8.25667 32.3011 8.24 32.3811 8.22V8.99C32.1811 9.03667 31.9211 9.06 31.6011 9.06C31.2078 9.06 30.8744 8.96 30.6011 8.76C30.3278 8.55333 30.1911 8.12333 30.1911 7.47V5.12H29.3611V4.39H30.1911V2.93H31.0611V4.39H32.2211V5.12H31.0611V7.28C31.0611 7.68667 31.1211 7.95667 31.2411 8.09C31.3611 8.21667 31.5478 8.28 31.8011 8.28ZM35.1355 9.12C34.6022 9.12 34.1755 8.96 33.8555 8.64C33.5422 8.31333 33.3855 7.84333 33.3855 7.23V4.39H34.2555V7.03C34.2555 7.92333 34.6289 8.37 35.3755 8.37C35.8155 8.37 36.1422 8.23 36.3555 7.95C36.5755 7.67 36.6855 7.32333 36.6855 6.91V4.39H37.5555V9H36.6855V8.16C36.5589 8.45333 36.3589 8.68667 36.0855 8.86C35.8189 9.03333 35.5022 9.12 35.1355 9.12ZM39.0508 4.39H39.9208V5.24C40.0474 4.94 40.2474 4.70333 40.5208 4.53C40.8008 4.35667 41.1374 4.27 41.5308 4.27C42.0908 4.27 42.5141 4.43 42.8008 4.75C43.0941 5.07 43.2408 5.54 43.2408 6.16V9H42.3808V6.54C42.3808 6.02 42.2874 5.63667 42.1008 5.39C41.9208 5.14333 41.6274 5.02 41.2208 5.02C40.8008 5.02 40.4774 5.16 40.2508 5.44C40.0308 5.71333 39.9208 6.08667 39.9208 6.56V9H39.0508V4.39ZM44.6953 4.39H45.5553V9H44.6953V4.39ZM45.1253 3.6C44.9186 3.6 44.7486 3.53333 44.6153 3.4C44.482 3.26667 44.4153 3.1 44.4153 2.9C44.4153 2.7 44.482 2.53333 44.6153 2.4C44.7486 2.26 44.9186 2.19 45.1253 2.19C45.3253 2.19 45.492 2.26 45.6253 2.4C45.7586 2.53333 45.8253 2.7 45.8253 2.9C45.8253 3.1 45.7586 3.26667 45.6253 3.4C45.492 3.53333 45.3253 3.6 45.1253 3.6ZM48.9886 8.28C49.0819 8.28 49.1819 8.27667 49.2886 8.27C49.3953 8.25667 49.4886 8.24 49.5686 8.22V8.99C49.3686 9.03667 49.1086 9.06 48.7886 9.06C48.3953 9.06 48.0619 8.96 47.7886 8.76C47.5153 8.55333 47.3786 8.12333 47.3786 7.47V5.12H46.5486V4.39H47.3786V2.93H48.2486V4.39H49.4086V5.12H48.2486V7.28C48.2486 7.68667 48.3086 7.95667 48.4286 8.09C48.5486 8.21667 48.7353 8.28 48.9886 8.28ZM54.783 4.39V9.09C54.783 9.81667 54.5764 10.37 54.163 10.75C53.7764 11.0833 53.273 11.25 52.653 11.25C51.9864 11.25 51.4664 11.09 51.093 10.77C50.753 10.4833 50.5797 10.0867 50.573 9.58H51.443C51.463 9.88 51.5664 10.11 51.753 10.27C51.9397 10.4367 52.2364 10.52 52.643 10.52C53.0497 10.52 53.363 10.3967 53.583 10.15C53.8097 9.91 53.923 9.53667 53.923 9.03V8.17C53.783 8.46333 53.5764 8.69333 53.303 8.86C53.0297 9.02667 52.703 9.11 52.323 9.11C51.743 9.11 51.3064 8.93333 51.013 8.58C50.7197 8.22667 50.573 7.74667 50.573 7.14V4.39H51.433V6.96C51.433 7.4 51.5197 7.74 51.693 7.98C51.873 8.22 52.1797 8.34 52.613 8.34C53.033 8.34 53.3564 8.19 53.583 7.89C53.8097 7.58333 53.923 7.20667 53.923 6.76V4.39H54.783Z" transform="translate(194.098 204.437)" fill="#424B59"/>
<g id="Group_6">
<ellipse id="Ellipse_5" cx="18.9101" cy="18.9055" rx="18.9101" ry="18.9055" transform="translate(143.21 181.34)" fill="#DCECF7"/>
<mask id="mask2" mask-type="alpha" maskUnits="userSpaceOnUse" x="143" y="181" width="39" height="39">
<ellipse id="Ellipse_6" cx="18.9101" cy="18.9055" rx="18.9101" ry="18.9055" transform="translate(143.21 181.34)" fill="white"/>
</mask>
<g mask="url(#mask2)">
<g id="001-man-1">
<g id="Group_7">
<g id="Group_8">
<path id="Vector_25" d="M-3.43666e-07 0.0319051V10.3491C1.45473 10.4595 2.97436 10.5305 4.47838 10.5305C6.05348 10.5305 7.66394 10.4526 9.20793 10.3332L9.22399 -2.18934e-07L-3.43666e-07 0.0319051Z" transform="translate(157.481 208.621)" fill="#EAEAE1"/>
<path id="Vector_26" d="M27.3171 9.24657C26.2878 5.68278 21.1214 6.0781 18.8915 5.05467C16.6617 4.03124 17.0098 0.597427 16.727 3.34163e-07H11.2873C11.005 0.597427 11.3532 4.03171 9.12282 5.05467C6.893 6.0781 1.72611 5.68287 0.697275 9.24657C0.129689 11.2123 0.156642 11.8135 -1.16199e-08 13.9909C-1.16199e-08 13.9909 7.08906 15.4245 13.8471 15.4245C20.6052 15.4245 28.0149 13.9909 28.0149 13.9909C27.8577 11.8129 27.8846 11.2123 27.3171 9.24657Z" transform="translate(148.112 203.727)" fill="white"/>
<path id="Vector_27" d="M2.64234 8.35369L2.69578 7.59976L2.13438 3.11117e-07H0.655277L6.30994e-07 7.60023L0.0539985 8.36162C0.434297 8.36955 0.814596 8.37493 1.19434 8.37493C1.67479 8.37493 2.15829 8.36691 2.64234 8.35369Z" transform="translate(160.766 210.776)" fill="#474F59"/>
<path id="Vector_28" d="M27.3172 4.35266C26.2879 0.78886 21.1215 1.18419 18.8916 0.160754C18.7863 0.112518 18.6867 0.058903 18.5928 4.49391e-07C18.5928 4.49391e-07 15.11 4.91931 14.0656 4.91931C13.0213 4.91931 9.36928 0.0318107 9.36928 0.0318107H9.36771C9.28934 0.07797 9.20839 0.12092 9.12282 0.160188C6.893 1.18362 1.72611 0.788389 0.697275 4.35209C0.129689 6.31778 0.156642 6.91898 -4.92964e-09 9.09639C-4.92964e-09 9.09639 7.08906 10.53 13.8471 10.53C20.6052 10.53 28.0149 9.09639 28.0149 9.09639C27.8578 6.91898 27.8847 6.31834 27.3172 4.35266Z" transform="translate(148.112 208.621)" fill="#8F39FF"/>
<path id="Vector_29" d="M9.76979 4.35266C8.7405 0.78886 3.57416 1.18419 1.34424 0.160754C1.23892 0.112518 1.13933 0.058903 1.04545 4.49391e-07C1.04545 4.49391e-07 0.609677 0.615456 6.76065e-08 1.4113C2.50323 1.96153 6.05505 2.24963 6.88885 5.13746C7.42948 7.00932 7.43049 7.64384 7.56489 9.58092C9.34029 9.31511 10.4672 9.09705 10.4672 9.09705C10.3104 6.91898 10.3374 6.31834 9.76979 4.35266Z" transform="translate(165.659 208.621)" fill="#7A38D1"/>
<path id="Vector_30" d="M4.0151 0.12413L3.38033e-07 2.18934e-07L1.86826 2.917C2.25844 2.44955 2.6392 1.96625 2.96974 1.53543L4.0151 0.12413Z" transform="translate(162.689 208.497)" fill="#C6C5AF"/>
<path id="Vector_31" d="M1.33908 0.0509729C1.25868 0.0339818 1.17976 0.0169913 1.10148 1.6132e-07C0.771489 0.43082 0.390729 0.914123 1.91552e-07 1.38157L0.324269 1.88772L1.33908 0.0509729Z" transform="translate(164.559 210.032)" fill="#7A38D1"/>
<path id="Vector_32" opacity="0.3" d="M4.05664 -4.49391e-07L1.07044e-07 0.155941C1.07044e-07 0.155941 1.03142 1.53647 2.15459 2.82997L4.05664 -4.49391e-07Z" transform="translate(157.481 208.497)" fill="#C6C5AF"/>
<path id="Vector_33" d="M2.15459 2.67403C1.03133 1.38053 -2.47891e-07 -4.60914e-07 -2.47891e-07 -4.60914e-07L1.7562 3.26721L2.15459 2.67403Z" transform="translate(157.482 208.653)" fill="#7A38D1"/>
<path id="Vector_34" d="M2.50323 -2.65026e-07H0.176395L1.46481e-07 0.583645L2.68378 0.599503L2.50323 -2.65026e-07Z" transform="translate(160.772 208.442)" fill="#C6C5AF"/>
<path id="Vector_35" d="M0.237687 1.46218L1.04545 4.49391e-07C1.04545 4.49391e-07 0.609677 0.615456 -5.85923e-07 1.4113C0.0779052 1.42877 0.157289 1.44519 0.237687 1.46218Z" transform="translate(165.659 208.621)" fill="#7A38D1"/>
<path id="Vector_36" d="M2.14087e-07 0.0338886L1.47347 -1.49797e-07L1.50356 0.424401L2.14087e-07 0.0338886Z" transform="translate(161.426 210.776)" fill="#3D454F"/>
<path id="Vector_37" d="M3.38033e-08 0.00207657L3.4813 -4.26345e-07L3.47502 1.01862L2.49705 2.11795H1.05477L0.00673815 1.01862L3.38033e-08 0.00207657Z" transform="translate(160.371 208.692)" fill="#474F59"/>
<path id="Vector_38" d="M4.05664 1.37411L1.09317 3.45686e-07C1.09317 3.45686e-07 0.78035 0.454701 1.07044e-07 1.53015L1.77697 4.27629L4.05664 1.37411Z" transform="translate(157.481 207.122)" fill="white"/>
<path id="Vector_39" d="M3.38033e-07 1.37411L2.87836 3.45685e-07C2.87836 3.45685e-07 3.23475 0.422891 4.0151 1.49834L2.19456 4.27638L3.38033e-07 1.37411Z" transform="translate(162.689 207.122)" fill="white"/>
<path id="Vector_40" opacity="0.3" d="M3.77437 1.49834C2.99411 0.422891 2.63763 3.45685e-07 2.63763 3.45685e-07L4.95781e-07 1.25904C0.297316 1.78275 0.685368 2.2114 1.19222 2.4438C1.63999 2.64911 2.20647 2.79768 2.83424 2.93248L3.77437 1.49834Z" transform="translate(162.931 207.122)" fill="#E0DBD3"/>
<path id="Vector_41" d="M0.564581 10.1762C0.564581 10.1762 -0.979965 4.8685 1.04032 4.4828C1.04032 4.4828 1.2769 -0.676366 9.21582 0.209721C9.21582 0.209721 11.839 0.649508 12.709 0.132223C13.5791 -0.385063 16.1094 0.455904 15.0655 5.53437C15.0655 5.53437 16.3941 5.60441 15.0416 10.3259L11.538 14.6728H3.45651L0.564581 10.1762Z" transform="translate(154.336 189.042)" fill="#343D44"/>
<path id="Vector_42" d="M2.01735 2.14838C3.1315 2.14838 4.0347 1.66745 4.0347 1.07419C4.0347 0.480931 3.1315 0 2.01735 0C0.903198 0 0 0.480931 0 1.07419C0 1.66745 0.903198 2.14838 2.01735 2.14838Z" transform="matrix(-0.1732 0.984876 -0.983495 -0.180877 169.898 198.441)" fill="#6E5D4A"/>
<path id="Vector_43" d="M1.07419 4.0347C1.66745 4.0347 2.14838 3.1315 2.14838 2.01735C2.14838 0.903199 1.66745 0 1.07419 0C0.480931 0 0 0.903199 0 2.01735C0 3.1315 0.480931 4.0347 1.07419 4.0347Z" transform="matrix(-0.983495 0.180877 -0.1732 -0.984876 157.137 202.027)" fill="#6E5D4A"/>
<path id="Vector_44" d="M12.4332 1.06586e-07L6.5577 0.870135C6.5577 0.870135 4.47566 0.957168 2.77715 1.78851C1.21811 2.55197 0.0310589 4.04549 0.0154592 4.46725C-0.136568 8.63537 0.747534 14.3452 6.50481 15.1792C15.7558 13.8397 12.4332 1.06586e-07 12.4332 1.06586e-07Z" transform="translate(155.608 193.514)" fill="#A68866"/>
<path id="Vector_45" d="M4.84513e-07 15.1793C9.25048 13.8397 5.92795 1.06586e-07 5.92795 1.06586e-07H4.54115C4.92089 5.78095 5.44648 8.85181 3.26595 12.1996C1.53827 14.8525 4.84513e-07 15.1793 4.84513e-07 15.1793Z" transform="translate(162.114 193.514)" fill="#846E56"/>
<path id="Vector_46" d="M12.1947 -8.64214e-08C12.1947 -8.64214e-08 8.98797 1.48399 4.20137 1.40488C-0.0180918 1.33541 0.0368302 4.81699 3.43667e-07 5.05203C3.43667e-07 5.05203 0.576909 3.56597 3.32041 3.08521C5.8133 2.64854 7.21672 3.33347 8.78766 4.20889C10.3592 5.08431 11.197 4.8387 11.8834 4.58345C12.3732 4.40203 13.1385 0.805946 12.1947 -8.64214e-08Z" transform="translate(155.627 192.897)" fill="#846E56"/>
</g>
</g>
</g>
</g>
</g>
</g>
<g id="Group 7.6">
<g id="Rectangle 10.3" filter="url(#filter3_d)">
<rect width="227.622" height="61.6181" rx="3" transform="translate(43.0977 91.4367)" fill="white"/>
</g>
<path id="Scott Lee" d="M5.064 5.58C4.912 5.388 4.704 5.248 4.44 5.16C4.184 5.064 3.94 5.016 3.708 5.016C3.572 5.016 3.432 5.032 3.288 5.064C3.144 5.096 3.008 5.148 2.88 5.22C2.752 5.284 2.648 5.372 2.568 5.484C2.488 5.596 2.448 5.732 2.448 5.892C2.448 6.148 2.544 6.344 2.736 6.48C2.928 6.616 3.168 6.732 3.456 6.828C3.752 6.924 4.068 7.02 4.404 7.116C4.74 7.212 5.052 7.348 5.34 7.524C5.636 7.7 5.88 7.936 6.072 8.232C6.264 8.528 6.36 8.924 6.36 9.42C6.36 9.892 6.272 10.304 6.096 10.656C5.92 11.008 5.68 11.3 5.376 11.532C5.08 11.764 4.732 11.936 4.332 12.048C3.94 12.16 3.524 12.216 3.084 12.216C2.532 12.216 2.02 12.132 1.548 11.964C1.076 11.796 0.636 11.524 0.228 11.148L1.56 9.684C1.752 9.94 1.992 10.14 2.28 10.284C2.576 10.42 2.88 10.488 3.192 10.488C3.344 10.488 3.496 10.472 3.648 10.44C3.808 10.4 3.948 10.344 4.068 10.272C4.196 10.2 4.296 10.108 4.368 9.996C4.448 9.884 4.488 9.752 4.488 9.6C4.488 9.344 4.388 9.144 4.188 9C3.996 8.848 3.752 8.72 3.456 8.616C3.16 8.512 2.84 8.408 2.496 8.304C2.152 8.2 1.832 8.06 1.536 7.884C1.24 7.708 0.992 7.476 0.792 7.188C0.6 6.9 0.504 6.52 0.504 6.048C0.504 5.592 0.592 5.192 0.768 4.848C0.952 4.504 1.192 4.216 1.488 3.984C1.792 3.752 2.14 3.58 2.532 3.468C2.924 3.348 3.328 3.288 3.744 3.288C4.224 3.288 4.688 3.356 5.136 3.492C5.584 3.628 5.988 3.856 6.348 4.176L5.064 5.58ZM11.4746 8.052C11.3866 7.924 11.2626 7.82 11.1026 7.74C10.9426 7.652 10.7706 7.608 10.5866 7.608C10.1306 7.608 9.77462 7.744 9.51862 8.016C9.27062 8.288 9.14662 8.644 9.14662 9.084C9.14662 9.524 9.27062 9.88 9.51862 10.152C9.77462 10.424 10.1306 10.56 10.5866 10.56C10.7866 10.56 10.9586 10.516 11.1026 10.428C11.2466 10.34 11.3706 10.236 11.4746 10.116L12.6626 11.364C12.3826 11.652 12.0506 11.856 11.6666 11.976C11.2906 12.088 10.9306 12.144 10.5866 12.144C10.1386 12.144 9.71463 12.072 9.31463 11.928C8.92263 11.784 8.57862 11.58 8.28262 11.316C7.99462 11.044 7.76662 10.72 7.59863 10.344C7.43062 9.968 7.34662 9.548 7.34662 9.084C7.34662 8.62 7.43062 8.2 7.59863 7.824C7.76662 7.448 7.99462 7.128 8.28262 6.864C8.57862 6.592 8.92263 6.384 9.31463 6.24C9.71463 6.096 10.1386 6.024 10.5866 6.024C10.9306 6.024 11.2906 6.084 11.6666 6.204C12.0506 6.316 12.3826 6.516 12.6626 6.804L11.4746 8.052ZM13.0997 9.084C13.0997 8.62 13.1837 8.2 13.3517 7.824C13.5197 7.448 13.7477 7.128 14.0357 6.864C14.3317 6.592 14.6757 6.384 15.0677 6.24C15.4677 6.096 15.8917 6.024 16.3397 6.024C16.7877 6.024 17.2077 6.096 17.5997 6.24C17.9997 6.384 18.3437 6.592 18.6317 6.864C18.9277 7.128 19.1597 7.448 19.3277 7.824C19.4957 8.2 19.5797 8.62 19.5797 9.084C19.5797 9.548 19.4957 9.968 19.3277 10.344C19.1597 10.72 18.9277 11.044 18.6317 11.316C18.3437 11.58 17.9997 11.784 17.5997 11.928C17.2077 12.072 16.7877 12.144 16.3397 12.144C15.8917 12.144 15.4677 12.072 15.0677 11.928C14.6757 11.784 14.3317 11.58 14.0357 11.316C13.7477 11.044 13.5197 10.72 13.3517 10.344C13.1837 9.968 13.0997 9.548 13.0997 9.084ZM14.8997 9.084C14.8997 9.524 15.0237 9.88 15.2717 10.152C15.5277 10.424 15.8837 10.56 16.3397 10.56C16.7957 10.56 17.1477 10.424 17.3957 10.152C17.6517 9.88 17.7797 9.524 17.7797 9.084C17.7797 8.644 17.6517 8.288 17.3957 8.016C17.1477 7.744 16.7957 7.608 16.3397 7.608C15.8837 7.608 15.5277 7.744 15.2717 8.016C15.0237 8.288 14.8997 8.644 14.8997 9.084ZM24.6119 7.608H23.0279V9.552C23.0279 9.712 23.0359 9.86 23.0519 9.996C23.0679 10.124 23.1039 10.236 23.1599 10.332C23.2159 10.428 23.2999 10.504 23.4119 10.56C23.5319 10.608 23.6879 10.632 23.8799 10.632C23.9759 10.632 24.0999 10.624 24.2519 10.608C24.4119 10.584 24.5319 10.536 24.6119 10.464V11.964C24.4119 12.036 24.2039 12.084 23.9879 12.108C23.7719 12.132 23.5599 12.144 23.3519 12.144C23.0479 12.144 22.7679 12.112 22.5119 12.048C22.2559 11.984 22.0319 11.884 21.8399 11.748C21.6479 11.604 21.4959 11.42 21.3839 11.196C21.2799 10.972 21.2279 10.7 21.2279 10.38V7.608H20.0759V6.168H21.2279V4.44H23.0279V6.168H24.6119V7.608ZM29.4986 7.608H27.9146V9.552C27.9146 9.712 27.9226 9.86 27.9386 9.996C27.9546 10.124 27.9906 10.236 28.0466 10.332C28.1026 10.428 28.1866 10.504 28.2986 10.56C28.4186 10.608 28.5746 10.632 28.7666 10.632C28.8626 10.632 28.9866 10.624 29.1386 10.608C29.2986 10.584 29.4186 10.536 29.4986 10.464V11.964C29.2986 12.036 29.0906 12.084 28.8746 12.108C28.6586 12.132 28.4466 12.144 28.2386 12.144C27.9346 12.144 27.6546 12.112 27.3986 12.048C27.1426 11.984 26.9186 11.884 26.7266 11.748C26.5346 11.604 26.3826 11.42 26.2706 11.196C26.1666 10.972 26.1146 10.7 26.1146 10.38V7.608H24.9626V6.168H26.1146V4.44H27.9146V6.168H29.4986V7.608ZM34.2641 3.504H36.1361V10.272H39.6041V12H34.2641V3.504ZM45.9294 10.992C45.6414 11.36 45.2774 11.644 44.8374 11.844C44.3974 12.044 43.9414 12.144 43.4694 12.144C43.0214 12.144 42.5974 12.072 42.1974 11.928C41.8054 11.784 41.4614 11.58 41.1654 11.316C40.8774 11.044 40.6494 10.72 40.4814 10.344C40.3134 9.968 40.2294 9.548 40.2294 9.084C40.2294 8.62 40.3134 8.2 40.4814 7.824C40.6494 7.448 40.8774 7.128 41.1654 6.864C41.4614 6.592 41.8054 6.384 42.1974 6.24C42.5974 6.096 43.0214 6.024 43.4694 6.024C43.8854 6.024 44.2614 6.096 44.5974 6.24C44.9414 6.384 45.2294 6.592 45.4614 6.864C45.7014 7.128 45.8854 7.448 46.0134 7.824C46.1414 8.2 46.2054 8.62 46.2054 9.084V9.648H42.0294C42.1014 9.992 42.2574 10.268 42.4974 10.476C42.7374 10.676 43.0334 10.776 43.3854 10.776C43.6814 10.776 43.9294 10.712 44.1294 10.584C44.3374 10.448 44.5174 10.276 44.6694 10.068L45.9294 10.992ZM44.4054 8.424C44.4134 8.12 44.3134 7.86 44.1054 7.644C43.8974 7.428 43.6294 7.32 43.3014 7.32C43.1014 7.32 42.9254 7.352 42.7734 7.416C42.6214 7.48 42.4894 7.564 42.3774 7.668C42.2734 7.764 42.1894 7.88 42.1254 8.016C42.0694 8.144 42.0374 8.28 42.0294 8.424H44.4054ZM52.8201 10.992C52.5321 11.36 52.1681 11.644 51.7281 11.844C51.2881 12.044 50.8321 12.144 50.3601 12.144C49.9121 12.144 49.4881 12.072 49.0881 11.928C48.6961 11.784 48.3521 11.58 48.0561 11.316C47.7681 11.044 47.5401 10.72 47.3721 10.344C47.2041 9.968 47.1201 9.548 47.1201 9.084C47.1201 8.62 47.2041 8.2 47.3721 7.824C47.5401 7.448 47.7681 7.128 48.0561 6.864C48.3521 6.592 48.6961 6.384 49.0881 6.24C49.4881 6.096 49.9121 6.024 50.3601 6.024C50.7761 6.024 51.1521 6.096 51.4881 6.24C51.8321 6.384 52.1201 6.592 52.3521 6.864C52.5921 7.128 52.7761 7.448 52.9041 7.824C53.0321 8.2 53.0961 8.62 53.0961 9.084V9.648H48.9201C48.9921 9.992 49.1481 10.268 49.3881 10.476C49.6281 10.676 49.9241 10.776 50.2761 10.776C50.5721 10.776 50.8201 10.712 51.0201 10.584C51.2281 10.448 51.4081 10.276 51.5601 10.068L52.8201 10.992ZM51.2961 8.424C51.3041 8.12 51.2041 7.86 50.9961 7.644C50.7881 7.428 50.5201 7.32 50.1921 7.32C49.9921 7.32 49.8161 7.352 49.6641 7.416C49.5121 7.48 49.3801 7.564 49.2681 7.668C49.1641 7.764 49.0801 7.88 49.0161 8.016C48.9601 8.144 48.9281 8.28 48.9201 8.424H51.2961Z" transform="translate(120.098 104.199)" fill="#424B59"/>
<path id="Customer" d="M4 9.16C3.26 9.16 2.61667 9.00333 2.07 8.69C1.52333 8.37 1.10333 7.93333 0.81 7.38C0.523333 6.82 0.38 6.19333 0.38 5.5C0.38 4.80667 0.523333 4.18333 0.81 3.63C1.10333 3.07 1.52333 2.63333 2.07 2.32C2.61667 2 3.26 1.84 4 1.84C4.61333 1.84 5.15667 1.94667 5.63 2.16C6.10333 2.36667 6.48667 2.65667 6.78 3.03C7.07333 3.40333 7.26333 3.82667 7.35 4.3H6.35C6.21667 3.79333 5.95 3.39333 5.55 3.1C5.15 2.80667 4.63667 2.66 4.01 2.66C3.45667 2.66 2.97667 2.78 2.57 3.02C2.17 3.26 1.86333 3.59667 1.65 4.03C1.43667 4.45667 1.33 4.94667 1.33 5.5C1.33 6.05333 1.43667 6.54667 1.65 6.98C1.86333 7.40667 2.17 7.74 2.57 7.98C2.97667 8.22 3.45667 8.34 4.01 8.34C4.63667 8.34 5.15 8.19333 5.55 7.9C5.95 7.60667 6.21667 7.20667 6.35 6.7H7.35C7.26333 7.17333 7.07333 7.59667 6.78 7.97C6.48667 8.34333 6.10333 8.63667 5.63 8.85C5.15667 9.05667 4.61333 9.16 4 9.16ZM10.1648 9.12C9.63151 9.12 9.20484 8.96 8.88484 8.64C8.57151 8.31333 8.41484 7.84333 8.41484 7.23V4.39H9.28484V7.03C9.28484 7.92333 9.65818 8.37 10.4048 8.37C10.8448 8.37 11.1715 8.23 11.3848 7.95C11.6048 7.67 11.7148 7.32333 11.7148 6.91V4.39H12.5848V9H11.7148V8.16C11.5882 8.45333 11.3882 8.68667 11.1148 8.86C10.8482 9.03333 10.5315 9.12 10.1648 9.12ZM15.6201 9.12C15.2401 9.12 14.9034 9.05333 14.6101 8.92C14.3234 8.78667 14.1001 8.60667 13.9401 8.38C13.7867 8.14667 13.7101 7.89333 13.7101 7.62H14.5701C14.5701 7.85333 14.6701 8.04667 14.8701 8.2C15.0701 8.34667 15.3334 8.42 15.6601 8.42C15.9201 8.42 16.1267 8.36333 16.2801 8.25C16.4401 8.13 16.5201 7.96667 16.5201 7.76C16.5201 7.61333 16.4834 7.48667 16.4101 7.38C16.3367 7.26667 16.2234 7.19 16.0701 7.15L14.8401 6.83C14.5067 6.73667 14.2567 6.58333 14.0901 6.37C13.9301 6.15 13.8501 5.89 13.8501 5.59C13.8501 5.33667 13.9234 5.11 14.0701 4.91C14.2167 4.71 14.4201 4.55333 14.6801 4.44C14.9401 4.32667 15.2367 4.27 15.5701 4.27C16.1367 4.27 16.5734 4.39667 16.8801 4.65C17.1867 4.90333 17.3401 5.24 17.3401 5.66H16.4901C16.4901 5.44 16.4067 5.26667 16.2401 5.14C16.0734 5.00667 15.8401 4.94 15.5401 4.94C15.3001 4.94 15.1001 4.99667 14.9401 5.11C14.7867 5.21667 14.7101 5.36333 14.7101 5.55C14.7101 5.85667 14.8801 6.05667 15.2201 6.15L16.3701 6.46C16.6967 6.54667 16.9501 6.7 17.1301 6.92C17.3101 7.14 17.4001 7.39 17.4001 7.67C17.4001 8.11667 17.2401 8.47 16.9201 8.73C16.6067 8.99 16.1734 9.12 15.6201 9.12ZM20.346 8.28C20.4393 8.28 20.5393 8.27667 20.646 8.27C20.7527 8.25667 20.846 8.24 20.926 8.22V8.99C20.726 9.03667 20.466 9.06 20.146 9.06C19.7527 9.06 19.4193 8.96 19.146 8.76C18.8727 8.55333 18.736 8.12333 18.736 7.47V5.12H17.906V4.39H18.736V2.93H19.606V4.39H20.766V5.12H19.606V7.28C19.606 7.68667 19.666 7.95667 19.786 8.09C19.906 8.21667 20.0927 8.28 20.346 8.28ZM23.9519 9.12C23.4652 9.12 23.0385 9.01333 22.6719 8.8C22.3119 8.58667 22.0352 8.29667 21.8419 7.93C21.6485 7.55667 21.5519 7.14667 21.5519 6.7C21.5519 6.24667 21.6485 5.83667 21.8419 5.47C22.0352 5.09667 22.3119 4.80333 22.6719 4.59C23.0385 4.37667 23.4652 4.27 23.9519 4.27C24.4385 4.27 24.8619 4.37667 25.2219 4.59C25.5885 4.80333 25.8685 5.09667 26.0619 5.47C26.2552 5.83667 26.3519 6.24667 26.3519 6.7C26.3519 7.14667 26.2519 7.55667 26.0519 7.93C25.8585 8.29667 25.5819 8.58667 25.2219 8.8C24.8619 9.01333 24.4385 9.12 23.9519 9.12ZM23.9519 8.34C24.4252 8.34 24.7985 8.18667 25.0719 7.88C25.3452 7.56667 25.4819 7.17333 25.4819 6.7C25.4819 6.22 25.3452 5.82667 25.0719 5.52C24.7985 5.20667 24.4252 5.05 23.9519 5.05C23.4785 5.05 23.1019 5.20667 22.8219 5.52C22.5485 5.82667 22.4119 6.22 22.4119 6.7C22.4119 7.17333 22.5485 7.56667 22.8219 7.88C23.1019 8.18667 23.4785 8.34 23.9519 8.34ZM27.4688 4.39H28.3388V5.23C28.4321 4.95667 28.5987 4.73 28.8387 4.55C29.0787 4.36333 29.3721 4.27 29.7188 4.27C30.1121 4.27 30.4321 4.35667 30.6787 4.53C30.9321 4.70333 31.1021 4.94667 31.1887 5.26C31.2954 4.97333 31.4821 4.73667 31.7488 4.55C32.0221 4.36333 32.3321 4.27 32.6788 4.27C33.2654 4.27 33.6888 4.43333 33.9487 4.76C34.2088 5.08667 34.3388 5.52667 34.3388 6.08V9H33.4688V6.25C33.4688 5.43 33.1354 5.02 32.4687 5.02C32.1154 5.02 31.8388 5.15 31.6388 5.41C31.4388 5.66333 31.3388 6.06 31.3388 6.6V9H30.4688V6.32C30.4688 5.45333 30.1387 5.02 29.4787 5.02C29.1121 5.02 28.8288 5.15333 28.6287 5.42C28.4354 5.68 28.3388 6.07333 28.3388 6.6V9H27.4688V4.39ZM39.8691 6.44C39.8691 6.63333 39.8624 6.80333 39.8491 6.95H36.2791C36.2857 7.39 36.4191 7.73667 36.6791 7.99C36.9391 8.23667 37.2891 8.36 37.7291 8.36C38.0357 8.36 38.2924 8.30333 38.4991 8.19C38.7057 8.07 38.8557 7.9 38.9491 7.68H39.8191C39.7391 8.10667 39.5057 8.45333 39.1191 8.72C38.7324 8.98667 38.2691 9.12 37.7291 9.12C37.0224 9.12 36.4591 8.90333 36.0391 8.47C35.6257 8.03 35.4191 7.43667 35.4191 6.69C35.4191 6.21 35.5124 5.78667 35.6991 5.42C35.8857 5.05333 36.1491 4.77 36.4891 4.57C36.8357 4.37 37.2357 4.27 37.6891 4.27C38.1157 4.27 38.4924 4.36333 38.8191 4.55C39.1524 4.73 39.4091 4.98667 39.5891 5.32C39.7757 5.64667 39.8691 6.02 39.8691 6.44ZM39.0191 6.28C39.0191 5.87333 38.8991 5.55333 38.6591 5.32C38.4257 5.08667 38.0991 4.97 37.6791 4.97C37.2657 4.97 36.9324 5.09 36.6791 5.33C36.4324 5.57 36.2991 5.88667 36.2791 6.28H39.0191ZM41.0039 4.39H41.8739V5.44C41.9606 5.07333 42.1272 4.79667 42.3739 4.61C42.6272 4.41667 42.9106 4.32 43.2239 4.32C43.4039 4.32 43.5439 4.33333 43.6439 4.36V5.16C43.5439 5.14 43.4006 5.13 43.2139 5.13C42.7806 5.13 42.4472 5.30333 42.2139 5.65C41.9872 5.99667 41.8739 6.44333 41.8739 6.99V9H41.0039V4.39Z" transform="translate(120.098 124.199)" fill="#424B59"/>
<ellipse id="Ellipse_7" cx="18.9101" cy="18.9055" rx="18.9101" ry="18.9055" transform="translate(69.1045 101.34)" fill="white"/>
<g id="Group_9">
<mask id="mask3" mask-type="alpha" maskUnits="userSpaceOnUse" x="69" y="101" width="38" height="39">
<ellipse id="Ellipse_8" cx="18.9101" cy="18.9055" rx="18.9101" ry="18.9055" transform="translate(69.1045 101.34)" fill="#36415C"/>
</mask>
<g mask="url(#mask3)">
<g id="003-man">
<g id="Group_10">
<g id="Group_11">
<path id="Vector_47" d="M5.48854 4.65463C8.51977 4.65463 10.9771 3.61265 10.9771 2.32731C10.9771 1.04197 8.51977 0 5.48854 0C2.4573 0 0 1.04197 0 2.32731C0 3.61265 2.4573 4.65463 5.48854 4.65463Z" transform="translate(82.1934 124.246)" fill="#215AB7"/>
<path id="Vector_48" d="M29.3659 9.68949C28.2594 5.95499 22.7056 6.36925 20.3084 5.29679C17.9114 4.22434 18.2856 0.626044 17.9816 -6.0374e-08H12.1339C11.8304 0.626044 12.2047 4.22483 9.80707 5.29679C7.41 6.36925 1.85558 5.95508 0.749573 9.68949C0.139416 11.7493 0.168391 12.3793 -1.89263e-09 14.661C-1.89263e-09 14.661 7.62076 16.1633 14.8857 16.1633C22.1506 16.1633 30.1161 14.661 30.1161 14.661C29.947 12.3787 29.9761 11.7494 29.3659 9.68949Z" transform="translate(72.6064 122.988)" fill="#199ECC"/>
<path id="Vector_49" d="M2.32628 6.11909C4.72335 7.19155 10.2778 6.77738 11.3838 10.5118C11.965 12.4733 11.9661 13.1382 12.1105 15.1681C14.0191 14.8895 15.2305 14.661 15.2305 14.661C15.0621 12.3793 15.0911 11.7494 14.4809 9.68949C13.3744 5.95499 7.82058 6.36925 5.42341 5.29679C3.02634 4.22434 3.40053 0.626044 3.0966 -6.0374e-08H0.000164043C0.000560958 -6.0374e-08 -0.0708836 5.04713 2.32628 6.11909Z" transform="translate(87.4912 122.988)" fill="#198ECC"/>
<path id="Vector_50" d="M8.4138 4.50556C7.17344 3.02666 7.37974 0.513674 7.13107 -5.43366e-07H1.28273C1.03347 0.513674 1.24036 3.02675 0 4.50556C0.591701 5.89326 3.7697 9.60719 4.2069 9.60719C4.6435 9.60719 7.77298 6.00613 8.4138 4.50556Z" transform="translate(83.458 122.988)" fill="#F2CFA8"/>
<path id="Vector_51" d="M2.18032e-07 3.71947C0.970457 4.50675 2.10762 5.2873 3.705 5.51303C5.30625 5.2867 6.44064 4.49003 7.41218 3.69949C6.60407 2.21841 6.85392 0.45205 6.63522 2.65646e-07H0.786883C0.567191 0.452643 0.811989 2.23789 2.18032e-07 3.71947Z" transform="translate(83.9531 122.987)" fill="#C69E7F"/>
<g id="Group_12">
<path id="Vector_52" d="M1.09016e-07 0.735545C1.09016e-07 0.735545 1.2605 0.695484 3.45455 1.42331C5.64859 2.15114 8.71109 0.330777 10.028 -6.88264e-07C10.028 -6.88264e-07 7.21869 4.44443 4.23488 4.33384C1.25098 4.22375 1.09016e-07 0.735545 1.09016e-07 0.735545Z" transform="translate(82.8496 126.693)" fill="#266CDA"/>
<path id="Vector_53" d="M10.0275 4.95067e-07C9.74862 0.0700336 9.33424 0.23018 9.33027 0.234037C8.68886 0.812799 8.26386 1.23923 7.79203 1.6985C6.69278 1.77803 6.22481 1.99317 5.81043 2.18329C5.42503 2.36005 5.09212 2.51298 4.25433 2.51357C4.11601 2.51357 3.96429 2.50912 3.80373 2.50081C2.94372 2.45581 2.2772 1.91701 1.31289 0.871259C0.290046 0.667787 -1.09016e-07 0.736139 -1.09016e-07 0.736139C-1.09016e-07 0.736139 1.25098 4.22375 4.23478 4.33443C7.21819 4.44443 10.0275 4.95067e-07 10.0275 4.95067e-07Z" transform="translate(82.8496 126.694)" fill="#215AB7"/>
<path id="Vector_54" d="M1.28364 0.423661C1.28364 0.423661 2.10625 4.3922 4.63618 4.52505C7.16612 4.65789 6.22017 3.72887 9.42536 3.69217L5.94124 7.32716C5.94124 7.32716 -1.73529 5.96666 0.363396 -1.44898e-07L1.28364 0.423661Z" transform="translate(82.0059 124.874)" fill="#2971E3"/>
<path id="Vector_55" d="M5.94127 7.32657L9.42479 3.69108C9.02152 3.69553 9.0121 3.68722 8.72483 3.7167C8.10187 4.13927 7.21953 4.78085 6.41806 5.31628C6.18944 5.19066 5.95575 5.1317 5.6925 5.1317C5.44929 5.1317 5.21114 5.18225 4.9591 5.23566C4.66628 5.29798 4.36293 5.36188 4.00204 5.36188C3.55253 5.36188 2.80624 4.81477 2.05339 3.93412C1.32783 3.08462 0.848652 2.22671 0.804595 1.88812C0.749423 1.4606 0.768376 1.30936 0.742676 0.558187L0.363424 -4.70917e-07C-1.73536 5.96666 5.94127 7.32657 5.94127 7.32657Z" transform="translate(82.0059 124.875)" fill="#215AB7"/>
<path id="Vector_56" d="M5.45182 1.15139C5.45182 1.15139 6.19137 1.75241 6.24545 2.42514C6.29953 3.09787 3.20469 6.54216 6.41982e-07 7.68464L4.36418 10.2721C4.36418 10.2721 7.37815 8.11553 7.26096 6.81675C7.18961 6.02284 6.75172 5.72985 6.75172 5.72985C6.75172 5.72985 9.11763 2.19002 5.43545 -1.08673e-07L5.45182 1.15139Z" transform="translate(86.2002 123.889)" fill="#2F77EA"/>
<path id="Vector_57" d="M0.809309 0.185666C0.70889 0.0560851 0.625241 -6.15815e-07 0.625241 -6.15815e-07C0.625241 -6.15815e-07 0.0301667 0.780553 1.22271e-06 1.40996C-0.000494921 1.40986 0.390465 0.575398 0.809309 0.185666Z" transform="translate(92.3271 129.619)" fill="#215AB7"/>
<path id="Vector_58" d="M4.44723 1.60344C3.61004 1.60285 1.78125 1.02854 0.896234 0.470942C0.374192 0.142341 6.54095e-07 7.36563e-07 6.54095e-07 7.36563e-07C0.0713461 0.957416 2.33743 2.39517 3.17572 2.89549C3.60339 2.52416 4.08247 2.06657 4.44723 1.60344Z" transform="translate(88.4297 130.434)" fill="#215AB7"/>
<path id="Vector_59" d="M3.14935e-07 1.07523C3.14935e-07 1.07523 1.43504 0.758297 2.50026 7.00338e-07C2.50026 7.00338e-07 1.57783 0.934566 0.340751 1.28928L3.14935e-07 1.07523Z" transform="translate(88.9424 129.775)" fill="#215AB7"/>
<path id="Vector_60" d="M12.3757 9.58058C12.3757 9.58058 9.59159 8.72713 8.64455 7.80087C7.69751 6.87461 7.08408 7.53904 5.89215 7.53904C4.70021 7.53904 2.60272 4.75641 2.49059 3.88575C2.40585 3.22914 2.45209 2.32682 3.44656 1.33547L3.2993 3.62244e-07C3.2993 3.62244e-07 1.82575 0.967901 1.30986 1.95984C0.793974 2.95168 1.06785 4.76413 0.80231 5.51026C0.536278 6.25639 -0.274123 6.22582 0.0945112 7.36109C0.463146 8.49635 3.66784 10.002 4.22054 10.7369C4.77324 11.4714 6.79443 13.9816 8.06774 13.7364C9.34064 13.4908 11.74 12.8047 12.3757 9.58058Z" transform="translate(80.1162 122.903)" fill="#3884FF"/>
<path id="Vector_61" d="M4.30513 1.97586C4.41895 1.75399 4.52155 1.51333 4.61016 1.2509C2.46514 1.1508 -7.38885e-07 -6.0374e-08 -7.38885e-07 -6.0374e-08C1.53993 1.20758 3.4094 1.76349 4.30513 1.97586Z" transform="translate(87.6582 132.076)" fill="#215AB7"/>
<path id="Vector_62" d="M1.62963 2.37954C0.190718 1.24813 0.274368 -3.62244e-07 0.274368 -3.62244e-07C0.25482 0.141747 0.228028 0.267965 0.190718 0.373014C0.142195 0.509816 0.0747189 0.620406 -3.20991e-07 0.717146C0.636949 1.96923 1.62963 2.37954 1.62963 2.37954Z" transform="translate(80.7275 128.04)" fill="#215AB7"/>
<path id="Vector_63" d="M3.74807 3.38463C3.71631 3.36297 3.67106 3.32964 3.61252 3.29066C3.58404 3.2695 3.55338 3.24506 3.51994 3.21954C3.50317 3.20678 3.4859 3.19343 3.46755 3.17948C3.45862 3.17286 3.44919 3.16613 3.44026 3.15831C3.43133 3.1505 3.4224 3.14278 3.41347 3.13437C3.37725 3.10213 3.33766 3.06988 3.29806 3.03378C3.26016 2.9954 3.21937 2.95702 3.17869 2.91537C3.1 2.82862 3.01864 2.73416 2.94114 2.62347C2.90155 2.57006 2.86195 2.5112 2.82177 2.45224C2.78158 2.39161 2.7398 2.33107 2.69575 2.26707C2.60932 2.14086 2.51118 2.00969 2.40183 1.88516C2.34547 1.82403 2.29089 1.76003 2.22838 1.70275C2.19772 1.67328 2.16755 1.64439 2.13689 1.61491L2.03875 1.53093L1.98914 1.48978C1.97237 1.47643 1.9557 1.4614 1.94002 1.45032C1.90767 1.42638 1.87532 1.40195 1.84297 1.37801L1.79445 1.3419L1.76994 1.3241L1.75764 1.3152L1.75595 1.31411C1.75655 1.31411 1.74811 1.30857 1.75089 1.31025L1.74752 1.30808L1.74087 1.30362C1.70574 1.28087 1.67061 1.25802 1.63549 1.23527C1.60095 1.21193 1.56523 1.19195 1.52951 1.17137C1.49379 1.15139 1.45866 1.13022 1.42353 1.11192C1.38841 1.09303 1.35328 1.07414 1.31865 1.05574C1.28412 1.03793 1.24949 1.02072 1.21545 1.00351C1.0805 0.935653 0.948825 0.87116 0.843444 0.808941C0.814469 0.789455 0.785395 0.770562 0.757512 0.752262L0.746894 0.745041C0.743024 0.741678 0.750764 0.748405 0.749673 0.747218L0.748581 0.74613L0.746398 0.744448L0.741337 0.74059L0.72179 0.726147C0.708989 0.716651 0.696089 0.707256 0.683289 0.697759C0.657589 0.67946 0.633079 0.659972 0.609066 0.640486C0.585052 0.620999 0.561138 0.6027 0.538812 0.583807C0.447323 0.508729 0.368139 0.434244 0.300068 0.365893C0.231997 0.297541 0.175734 0.233543 0.130486 0.179633C0.0864284 0.12513 0.0529881 0.0807162 0.0317531 0.0489639C0.0105182 0.0172117 -1.21129e-08 6.2789e-07 -1.21129e-08 6.2789e-07C-1.21129e-08 6.2789e-07 0.00337381 0.0199813 0.0150828 0.0572729C0.0267918 0.093971 0.0446527 0.148475 0.074719 0.21465C0.104885 0.280825 0.146065 0.359167 0.20074 0.444829C0.255415 0.530491 0.32289 0.623868 0.404853 0.718927C0.424401 0.743359 0.446727 0.766209 0.468955 0.790642C0.491281 0.81458 0.513608 0.839606 0.537522 0.86295C0.549231 0.875216 0.561535 0.886887 0.57374 0.899054L0.592098 0.917353L0.596563 0.921806L0.598745 0.923981L0.599837 0.925069C0.599242 0.924476 0.608173 0.931696 0.604898 0.92952L0.614424 0.937829C0.640124 0.960085 0.665726 0.982342 0.692517 1.00569C0.816851 1.10183 0.942969 1.17919 1.07346 1.25862C1.13756 1.29749 1.20225 1.33755 1.26814 1.37761C1.30109 1.3971 1.33224 1.41876 1.3641 1.43934C1.39585 1.46051 1.42879 1.47989 1.45945 1.50274C1.49071 1.52441 1.52197 1.54666 1.55313 1.56833L1.55928 1.57218L1.56097 1.57327L1.56156 1.57386L1.57327 1.58336L1.59728 1.60166L1.64521 1.63836C1.67756 1.66279 1.70931 1.68732 1.74166 1.71175C1.75843 1.72402 1.77183 1.73619 1.78631 1.74905L1.82928 1.78634L1.9163 1.85914C1.94419 1.88585 1.97267 1.91196 2.00055 1.93808C2.058 1.98981 2.1104 2.0454 2.16398 2.0999C2.19127 2.12661 2.21528 2.15609 2.24098 2.18438C2.26609 2.21277 2.29288 2.23938 2.31679 2.26885C2.3413 2.29774 2.36531 2.32672 2.38982 2.3556C2.41384 2.38508 2.43775 2.41396 2.46176 2.44285C2.50969 2.50012 2.55603 2.55957 2.60396 2.61576C2.65308 2.67243 2.69882 2.72862 2.74953 2.78085C2.77463 2.80696 2.79745 2.83367 2.82375 2.8581C2.84945 2.88253 2.87446 2.90707 2.89956 2.93041C2.92407 2.95435 2.95027 2.97542 2.97597 2.99659C3.00167 3.01775 3.02667 3.03833 3.05128 3.05771C3.10318 3.09501 3.15339 3.12834 3.20131 3.16059C3.25093 3.18947 3.29836 3.21618 3.34301 3.24061C3.35413 3.24674 3.36534 3.25288 3.37596 3.25842C3.38707 3.26395 3.39828 3.26841 3.4089 3.27345C3.43063 3.28295 3.45127 3.29235 3.47142 3.30125C3.5116 3.31846 3.54782 3.33567 3.58186 3.34853C3.64993 3.37247 3.7046 3.38968 3.74082 3.40195C3.77764 3.41362 3.79718 3.41975 3.79718 3.41975C3.79718 3.41975 3.77932 3.40748 3.74807 3.38463Z" transform="translate(83.6953 130.632)" fill="#215AB7"/>
</g>
<g id="Group_13">
<path id="Vector_64" d="M2.11564 2.30763C3.28408 2.30763 4.23129 1.79105 4.23129 1.15382C4.23129 0.516582 3.28408 0 2.11564 0C0.947205 0 0 0.516582 0 1.15382C0 1.79105 0.947205 2.30763 2.11564 2.30763Z" transform="matrix(-0.177541 0.984103 -0.984297 -0.176461 96.0264 117.449)" fill="#EDC89F"/>
<path id="Vector_65" d="M1.15382 4.23129C1.79105 4.23129 2.30763 3.28408 2.30763 2.11564C2.30763 0.947205 1.79105 0 1.15382 0C0.516582 0 0 0.947205 0 2.11564C0 3.28408 0.516582 4.23129 1.15382 4.23129Z" transform="matrix(-0.984297 0.176461 -0.177541 -0.984103 82.3076 121.207)" fill="#EDC89F"/>
<path id="Vector_66" d="M13.3491 7.84862e-08L7.03293 0.911815L0.543773 0.0878382C0.543773 0.0878382 9.6903e-08 3.23636 9.6903e-08 4.68133C9.6903e-08 9.05187 0.786982 15.0325 6.97607 15.9064C16.9208 14.5026 13.3491 7.84862e-08 13.3491 7.84862e-08Z" transform="translate(80.6816 112.285)" fill="#F2CFA8"/>
<path id="Vector_67" d="M-3.63386e-08 15.9064C9.9444 14.5026 6.37256 7.84862e-08 6.37256 7.84862e-08H4.88175C5.28998 6.05786 5.85499 9.27582 3.51091 12.784C1.65365 15.564 -3.63386e-08 15.9064 -3.63386e-08 15.9064Z" transform="translate(87.6582 112.285)" fill="#EFC69F"/>
<path id="Vector_68" d="M0 0.581184C0 0.581184 1.56722 2.02893 5.86898 2.02893C10.1707 2.02893 11.8512 1.05031 11.8512 1.05031V0L0 0.581184Z" transform="translate(81.7666 112.894)" fill="#F6C997"/>
<path id="Vector_69" d="M14.5506 4.89371C14.3431 2.78263 12.2996 0 7.36601 0C2.43246 0 0.388844 2.78263 0.181357 4.89371C0.181357 4.89371 -0.152746 6.01849 0.0859984 9.61392C0.516552 9.56723 0.940456 9.68504 1.2433 9.82184L1.49316 5.51085H13.2389L13.4887 9.82184C13.7916 9.68504 14.2155 9.56723 14.646 9.61392C14.8847 6.01899 14.5506 4.89371 14.5506 4.89371Z" transform="translate(80.293 107.642)" fill="#885945"/>
<path id="Vector_70" d="M8.80244 6.83742C11.3468 6.63118 15.3624 5.97398 14.7434 0.328601C14.7434 0.328601 14.1388 1.32766 12.9514 1.16702C11.3223 0.946337 9.98763 0 7.28603 0C4.67254 0 -0.155134 0.782827 0.00383004 4.06637C0.138781 6.83742 5.84096 7.07819 8.80244 6.83742Z" transform="translate(80.5439 107.644)" fill="#1C2838"/>
<path id="Vector_71" d="M11.236 5.33119e-05C9.61079 -0.00548603 8.10708 0.518179 7.30006 0.518179C6.49303 0.518179 4.98942 -0.00607953 3.36415 5.33119e-05C1.92077 0.00509807 0.562726 0.23686 0.121555 0.356451C0.0502097 0.375937 9.08466e-08 0.44043 9.08466e-08 0.514321V1.20209C9.08466e-08 1.26658 0.0379051 1.32494 0.0970454 1.35106C0.159559 1.37826 0.237553 1.42218 0.288854 1.48509C0.385305 1.60349 0.560444 2.8172 1.09866 3.24086C1.44665 3.51437 2.43497 3.76018 3.29608 3.74346C4.15669 3.72674 5.16783 3.6851 5.7255 3.26361C6.49571 2.68208 6.60059 1.60735 6.78853 1.3294C6.93916 1.10703 7.17284 1.07201 7.29996 1.07201C7.42707 1.07201 7.66085 1.10644 7.81138 1.3294C7.99932 1.60735 8.1042 2.68208 8.87442 3.26361C9.43268 3.685 10.4433 3.72674 11.3038 3.74346C12.1644 3.76018 13.1533 3.51496 13.5013 3.24086C14.0395 2.8172 14.2146 1.60349 14.3111 1.48509C14.3624 1.42228 14.4405 1.37836 14.503 1.35106C14.5621 1.32494 14.6 1.26658 14.6 1.20209V0.514321C14.6 0.440332 14.5504 0.375839 14.4785 0.356451C14.0375 0.23686 12.6788 0.00499915 11.236 5.33119e-05ZM6.09324 2.02706C5.96106 2.49968 5.69394 2.87438 5.36986 3.06341C5.04131 3.25521 3.9242 3.37035 3.40275 3.37084C2.71678 3.37143 1.58458 3.18458 1.32966 2.95885C1.07475 2.73312 0.995561 2.32667 0.938703 1.98205C0.881845 1.63792 0.773091 1.04966 1.06423 0.779517C1.42621 0.444288 2.98281 0.331919 3.3966 0.350911C4.25721 0.390379 5.91135 0.582179 6.16012 0.983088C6.31849 1.23592 6.20368 1.63238 6.09324 2.02706ZM13.6599 1.98145C13.6031 2.32559 13.5239 2.73253 13.269 2.95826C13.014 3.18399 11.8824 3.37074 11.1959 3.37025C10.6749 3.37025 9.55731 3.25521 9.22876 3.06281C8.90468 2.87378 8.63756 2.49909 8.50539 2.02646C8.39495 1.63169 8.28004 1.23533 8.43732 0.981802C8.68658 0.580992 10.3403 0.389093 11.2008 0.349626C11.6141 0.330732 13.1707 0.443003 13.5332 0.778232C13.8255 1.04916 13.7162 1.63732 13.6599 1.98145Z" transform="translate(80.3359 117.193)" fill="#1C2838"/>
</g>
</g>
</g>
</g>
</g>
</g>
</g>
</g>
</g>
<defs>
<filter id="filter0_d" x="81.0977" y="3.43671" width="235.419" height="73.6181" filterUnits="userSpaceOnUse" color-interpolation-filters="sRGB">
<feFlood flood-opacity="0" result="BackgroundImageFix"/>
<feColorMatrix in="SourceAlpha" type="matrix" values="0 0 0 0 0 0 0 0 0 0 0 0 0 0 0 0 0 0 255 0"/>
<feOffset dy="2"/>
<feGaussianBlur stdDeviation="3"/>
<feColorMatrix type="matrix" values="0 0 0 0 0.114414 0 0 0 0 0.133722 0 0 0 0 0.163755 0 0 0 0.06 0"/>
<feBlend mode="normal" in2="BackgroundImageFix" result="effect1_dropShadow"/>
<feBlend mode="normal" in="SourceGraphic" in2="effect1_dropShadow" result="shape"/>
</filter>
<filter id="filter1_d" x="79.0977" y="0.436707" width="239.419" height="77.6181" filterUnits="userSpaceOnUse" color-interpolation-filters="sRGB">
<feFlood flood-opacity="0" result="BackgroundImageFix"/>
<feColorMatrix in="SourceAlpha" type="matrix" values="0 0 0 0 0 0 0 0 0 0 0 0 0 0 0 0 0 0 255 0"/>
<feOffset dy="1"/>
<feGaussianBlur stdDeviation="4"/>
<feColorMatrix type="matrix" values="0 0 0 0 0 0 0 0 0 0 0 0 0 0 0 0 0 0 0.15 0"/>
<feBlend mode="normal" in2="BackgroundImageFix" result="effect1_dropShadow"/>
<feBlend mode="normal" in="SourceGraphic" in2="effect1_dropShadow" result="shape"/>
</filter>
<filter id="filter2_d" x="112.098" y="162.437" width="239.419" height="77.6181" filterUnits="userSpaceOnUse" color-interpolation-filters="sRGB">
<feFlood flood-opacity="0" result="BackgroundImageFix"/>
<feColorMatrix in="SourceAlpha" type="matrix" values="0 0 0 0 0 0 0 0 0 0 0 0 0 0 0 0 0 0 255 0"/>
<feOffset dy="1"/>
<feGaussianBlur stdDeviation="4"/>
<feColorMatrix type="matrix" values="0 0 0 0 0 0 0 0 0 0 0 0 0 0 0 0 0 0 0.15 0"/>
<feBlend mode="normal" in2="BackgroundImageFix" result="effect1_dropShadow"/>
<feBlend mode="normal" in="SourceGraphic" in2="effect1_dropShadow" result="shape"/>
</filter>
<filter id="filter3_d" x="35.0977" y="84.4367" width="243.622" height="77.6181" filterUnits="userSpaceOnUse" color-interpolation-filters="sRGB">
<feFlood flood-opacity="0" result="BackgroundImageFix"/>
<feColorMatrix in="SourceAlpha" type="matrix" values="0 0 0 0 0 0 0 0 0 0 0 0 0 0 0 0 0 0 255 0"/>
<feOffset dy="1"/>
<feGaussianBlur stdDeviation="4"/>
<feColorMatrix type="matrix" values="0 0 0 0 0 0 0 0 0 0 0 0 0 0 0 0 0 0 0.15 0"/>
<feBlend mode="normal" in2="BackgroundImageFix" result="effect1_dropShadow"/>
<feBlend mode="normal" in="SourceGraphic" in2="effect1_dropShadow" result="shape"/>
</filter>
<linearGradient id="paint0_linear" x2="1" gradientUnits="userSpaceOnUse" gradientTransform="matrix(-111.008 -38.1142 45.0774 -133.078 68.5551 119.343)">
<stop stop-color="#C5D1DE"/>
<stop offset="0.524862" stop-color="white"/>
<stop offset="0.856917" stop-color="#E5E5E5"/>
</linearGradient>
<linearGradient id="paint1_linear" x2="1" gradientUnits="userSpaceOnUse" gradientTransform="matrix(-81.038 -15.424 122.031 -194.575 11.9383 110.756)">
<stop stop-color="#4D341E"/>
<stop offset="1" stop-color="#704E2E"/>
</linearGradient>
<linearGradient id="paint2_linear" x2="1" gradientUnits="userSpaceOnUse" gradientTransform="matrix(-81.038 -15.424 122.031 -194.575 11.9383 110.756)">
<stop stop-color="#F37110"/>
<stop offset="1" stop-color="#F0C19E"/>
</linearGradient>
<linearGradient id="paint3_linear" x2="1" gradientUnits="userSpaceOnUse" gradientTransform="matrix(229.022 100.479 -364.326 830.006 161.152 -431.108)">
<stop stop-color="white" stop-opacity="0"/>
<stop offset="1" stop-color="#B2D0FF"/>
</linearGradient>
</defs>
</svg>
