<svg width="120" height="217" viewBox="0 0 120 217" version="1.1" xmlns="http://www.w3.org/2000/svg" xmlns:xlink="http://www.w3.org/1999/xlink">
<g id="Canvas" fill="none">
<g id="Group 16">
<g id="Group">
<path id="Rectangle 5" d="M 0 0L 121 0L 121 103.788C 121 109.311 116.523 113.788 111 113.788L 10 113.788C 4.47715 113.788 0 109.311 0 103.788L 0 0Z" transform="translate(-1 103.212)" fill="url(#paint0_linear)"/>
<mask id="mask0" mask-type="alpha" maskUnits="userSpaceOnUse" x="-1" y="95" width="121" height="18">
<ellipse id="Ellipse" cx="60.5" cy="8.50481" rx="60.5" ry="8.50481" transform="translate(-1 95)" fill="url(#paint1_linear)"/>
</mask>
<g mask="url(#mask0)">
<ellipse id="Ellipse_2" cx="60.5" cy="8.50481" rx="60.5" ry="8.50481" transform="translate(-1 95)" fill="url(#paint2_linear)"/>
</g>
</g>
<path id="Vector" d="M 0 0C 4 0 4 4 8 4C 12 4 12 0 16 0C 20 0 20 4 24 4C 28 4 28 0 32 0C 36 0 36 4 40 4C 44 4 44 0 48 0C 52 0 52 4 56 4" transform="matrix(0 -1 1 0 22 101)" stroke="black" stroke-opacity="0.2" stroke-miterlimit="10"/>
<path id="Vector_2" d="M 0 0C 4 0 4 4 8 4C 12 4 12 0 16 0C 20 0 20 4 24 4C 28 4 28 0 32 0C 36 0 36 4 40 4C 44 4 44 0 48 0C 52 0 52 4 56 4" transform="matrix(0 -1 1 0 46 56)" stroke="white" stroke-opacity="0.2" stroke-miterlimit="10"/>
<path id="Vector_3" d="M 0 0C 6.14286 0 6.14286 4 12.2857 4C 18.4286 4 18.4286 0 24.5714 0C 30.7143 0 30.7143 4 36.8571 4C 43 4 43 0 49.1429 0C 55.2857 0 55.2857 4 61.4286 4C 67.5714 4 67.5714 0 73.7143 0C 79.8571 0 79.8571 4 86 4" transform="matrix(0 -1 1 0 70 95)" stroke="white" stroke-opacity="0.2" stroke-miterlimit="10"/>
</g>
</g>
<defs>
<linearGradient id="paint0_linear" x2="1" gradientUnits="userSpaceOnUse" gradientTransform="matrix(-147.452 -56.3077 59.8763 -196.601 91.0619 176.31)">
<stop stop-color="#C5D1DE"/>
<stop offset="0.524862" stop-color="white"/>
<stop offset="0.856917" stop-color="#E5E5E5"/>
</linearGradient>
<linearGradient id="paint1_linear" x2="1" gradientUnits="userSpaceOnUse" gradientTransform="matrix(-107.643 -22.7865 162.094 -287.453 15.8576 163.624)">
<stop stop-color="#4D341E"/>
<stop offset="1" stop-color="#704E2E"/>
</linearGradient>
<linearGradient id="paint2_linear" x2="1" gradientUnits="userSpaceOnUse" gradientTransform="matrix(-107.643 -22.7865 162.094 -287.453 15.8576 163.624)">
<stop stop-color="#F37110"/>
<stop offset="1" stop-color="#F0C19E"/>
</linearGradient>
</defs>
</svg>
