<svg width="109" height="248" viewBox="0 0 109 248" version="1.1" xmlns="http://www.w3.org/2000/svg" xmlns:xlink="http://www.w3.org/1999/xlink">
<title>Group</title>
<desc>Created using Figma</desc>
<g id="Canvas" transform="translate(-10037 28)">
<g id="Group">
<g id="Vector">
<use xlink:href="#path0_fill" transform="translate(10112.7 207.687)" fill="#313251"/>
</g>
<g id="Vector">
<use xlink:href="#path1_fill" transform="translate(10037.7 39.6208)" fill="#D9E0EF"/>
</g>
<g id="Vector">
<use xlink:href="#path2_fill" transform="translate(10064.8 -20.5592)" fill="#D9E0EF"/>
</g>
<g id="Vector">
<use xlink:href="#path3_fill" transform="translate(10048.4 205.976)" fill="#313251"/>
</g>
<g id="Vector">
<use xlink:href="#path4_fill" transform="translate(10114.5 31.0236)" fill="#D9E0EF"/>
</g>
<g id="Vector">
<use xlink:href="#path5_fill" transform="translate(10063.7 99.8011)" fill="#273559"/>
</g>
<g id="Vector">
<use xlink:href="#path6_fill" transform="translate(10043.7 7.28131)" fill="#F2F2F2"/>
</g>
<g id="Vector">
<use xlink:href="#path7_fill" transform="translate(10066.8 -28)" fill="#313251"/>
</g>
</g>
</g>
<defs>
<path id="path0_fill" d="M 24.9539 0.00844581C 24.9539 0.00844581 27.2694 4.80852 26.1188 8.10409C 22.8829 11.3997 1.52606 10.4683 0.447432 10.8265C -0.55929 8.82052 0.447432 6.59959 0.447432 6.59959C 0.447432 6.59959 2.53278 3.33268 7.78212 2.4873C 13.0315 -0.278118 24.9539 0.00844581 24.9539 0.00844581Z"/>
<path id="path1_fill" d="M 6.04033 0.859715C 6.04033 0.859715 0.0143817 7.88072 0 13.1393C 0 19.3436 15.935 36.4376 20.8248 40.3779C 24.6071 42.1117 25.4269 42.6418 27.3684 44.8628C 28.2601 43.0001 28.4327 38.071 28.4327 38.071C 28.4327 38.071 32.5746 36.6382 33.9409 35.1193C 35.2065 33.7151 39.5066 33.6435 39.406 31.2936C 39.2621 27.9694 36.3426 31.6375 35.6236 31.6088C 34.9045 31.5802 34.5593 31.8954 33.5814 31.9384C 32.6034 31.9814 28.8929 31.222 29.4826 27.0667C 27.2965 26.8947 27.728 30.2906 27.4404 30.6488C 27.1527 31.007 25.8871 32.9844 24.8516 32.1247C 20.2782 28.2989 14.6838 17.4522 12.4546 13.7841C 12.7997 11.5345 14.2811 11.6778 14.2811 11.6778L 18.4086 11.2479L 17.7614 2.36422L 10.4268 0L 6.04033 0.859715Z"/>
<path id="path2_fill" d="M 4.19106 2.14929C 4.19106 2.14929 1.45853 6.018 1.31471 9.027C 2.68098 10.6031 2.43649 12.8241 2.43649 12.8241C 2.43649 12.8241 -0.842546 17.4522 0.207321 19.057C 0.725063 19.6731 1.84684 19.0427 2.55154 19.5585C 3.35692 20.1603 3.90343 25.0177 3.42883 27.5968C 2.95423 30.176 10.8498 27.5825 12.0435 30.9497C 14.1145 33.7438 29.8912 27.8691 29.8912 27.8691C 29.8912 27.8691 27.9353 23.5705 27.7483 22.2236C 27.5614 20.8767 12.7482 0 12.7482 0L 4.19106 2.14929Z"/>
<path id="path3_fill" d="M 15.2923 0C 15.2923 0 12.5022 4.37022 4.37654 3.94036C -3.74914 3.5105 1.64401 10.1016 3.15409 10.6748C 4.66417 11.2479 15.019 11.3912 16.5291 12.1076C 18.0392 12.8241 30.767 14.6151 32.9962 12.1076C 34.4344 8.45386 32.9962 6.49085 32.9962 6.49085L 15.2923 0Z"/>
<path id="path4_fill" d="M 23.4422 0C 23.4422 0 29.1949 5.18694 31.1796 9.31357C 31.6973 10.3882 31.6542 11.6635 31.0789 12.7094C 28.1594 18.0683 23.3847 29.3306 21.4719 32.0387C 19.0702 35.4346 10.398 43.9887 9.96654 45.221C 9.31936 47.055 3.8543 47.8718 2.1285 47.9721C 0.402687 48.0724 0 38.7301 0 38.7301C 0 38.7301 4.0988 40.0197 5.89651 38.3289C 7.72299 36.6095 11.2609 29.5169 12.8429 25.8344C 14.2667 22.5388 14.2811 15.5608 15.6473 12.9817C 15.7911 12.7094 15.5323 12.036 15.259 11.8784C 13.2312 10.7608 11.6924 9.01267 11.6924 9.01267L 23.4422 0Z"/>
<path id="path5_fill" d="M -8.77792e-07 0.601802C 1.13616 4.12663 -2.47366 23.0403 5.69517 49.276C 6.57245 52.0844 6.78818 55.0504 6.37111 57.9591C 3.71049 76.0704 7.03267 98.251 -8.77792e-07 106.175C 9.27622 113.482 16.0644 112.795 18.6531 112.58C 24.1182 104.083 21.4288 92.0324 22.2917 87.0604C 23.0683 82.5899 24.7366 56.4116 23.9456 51.7118C 22.867 45.264 25.5995 29.5025 27.9725 20.103C 32.7472 37.068 39.6505 48.7601 43.7205 57.0994C 46.2517 62.2863 49.4444 80.9564 55.0102 92.0038C 57.34 96.6176 58.2317 101.819 57.455 106.934C 57.1386 109.026 56.8079 110.373 56.8079 110.373C 56.8079 110.373 70.6 112.795 73.275 109.083C 75.5041 105.974 71.6786 99.4833 72.3401 92.9924C 70.902 67.0147 57.1962 52.0271 54.9382 39.246C 53.0686 28.7145 53.5001 -1.62897e-14 53.5001 -1.62897e-14L -8.77792e-07 0.601802Z"/>
<path id="path6_fill" d="M 33.078 3.1093C 32.3589 6.1183 23.4422 8.13863 21.7164 8.98402C 11.6924 13.8987 2.15726 32.053 0 33.1993C 5.32124 33.271 13.9215 41.6532 8.24074 44.0174C 11.0883 46.4819 18.61 40.2633 20.5659 39.5469C 27.7999 53.3023 19.6598 83.9655 18.5524 92.5196C 33.078 99.4403 73.4907 92.5196 73.4907 92.5196C 73.4907 92.5196 68.7447 50.8091 75.2165 32.6692C 83.7736 37.8561 86.5781 34.7755 86.5781 34.7755C 86.5781 34.7755 95.4947 28.9007 94.2004 23.7424C 90.3892 19.8737 68.9317 4.37273e-07 52.8241 4.37273e-07C 39.8806 4.37273e-07 33.078 3.1093 33.078 3.1093Z"/>
<path id="path7_fill" d="M 2.52048 9.63305C 1.36994 9.81932 -0.0826189 7.11122 0.00367154 6.06523C 2.7362 6.49509 15.2483 -7.26034 24.2657 5.30582C 29.9752 8.88796 28.4651 12.4701 28.8534 15.2355C 29.2417 18.0009 28.2063 21.4971 28.1056 22.6434C 28.0049 23.7897 25.3731 26.5121 25.7038 29.6787C 20.3826 29.5211 17.3624 22.5001 13.2349 18.3448C 9.12169 14.2039 7.66914 22.8297 7.66914 22.8297L 6.41792 22.8727C 6.41792 22.8727 7.18016 19.0469 5.08042 17.8147C 2.96631 16.5681 2.59238 14.4761 3.45529 12.0832C 4.31819 9.69036 2.52048 9.63305 2.52048 9.63305Z"/>
</defs>
</svg>
