<svg width="240" height="78" viewBox="0 0 240 78" version="1.1" xmlns="http://www.w3.org/2000/svg" xmlns:xlink="http://www.w3.org/1999/xlink">
<g id="Canvas" fill="none">
<g id="Group 7.4">
<g id="Rectangle 10" filter="url(#filter0_d)">
<rect width="223.419" height="61.6181" rx="3" transform="translate(8 7)" fill="white"/>
</g>
<path id="Tyler gorden" d="M 2.196 5.836L 0.12 5.836L 0.12 4.6L 5.664 4.6L 5.664 5.836L 3.576 5.836L 3.576 13L 2.196 13L 2.196 5.836ZM 8.22412 15.94C 7.84812 15.94 7.50012 15.892 7.18012 15.796C 6.86813 15.7 6.59613 15.556 6.36413 15.364C 6.13212 15.172 5.94813 14.932 5.81213 14.644C 5.68413 14.356 5.61613 14.02 5.60812 13.636L 6.92812 13.636C 6.96012 14.044 7.10013 14.344 7.34812 14.536C 7.60412 14.736 7.90412 14.836 8.24812 14.836C 8.44813 14.836 8.63213 14.816 8.80013 14.776C 8.96812 14.736 9.11212 14.664 9.23213 14.56C 9.35213 14.456 9.44413 14.32 9.50812 14.152C 9.58012 13.984 9.61612 13.768 9.61612 13.504L 9.61612 12.22C 9.44013 12.524 9.19612 12.756 8.88412 12.916C 8.57213 13.068 8.20812 13.144 7.79212 13.144C 7.38412 13.144 7.04013 13.076 6.76012 12.94C 6.48813 12.804 6.27213 12.62 6.11213 12.388C 5.97613 12.18 5.88013 11.948 5.82412 11.692C 5.77613 11.436 5.75212 11.116 5.75212 10.732L 5.75212 7.408L 7.06013 7.408L 7.06013 10.3C 7.06013 10.54 7.08013 10.764 7.12012 10.972C 7.16012 11.18 7.22412 11.36 7.31213 11.512C 7.40813 11.656 7.53212 11.772 7.68413 11.86C 7.84412 11.948 8.04013 11.992 8.27213 11.992C 8.72812 11.992 9.06412 11.832 9.28012 11.512C 9.50413 11.184 9.61612 10.78 9.61612 10.3L 9.61612 7.408L 10.9241 7.408L 10.9241 13.504C 10.9241 14.312 10.6921 14.924 10.2281 15.34C 9.77213 15.74 9.10413 15.94 8.22412 15.94ZM 12.6416 4.6L 13.9496 4.6L 13.9496 13L 12.6416 13L 12.6416 4.6ZM 18.0282 8.248C 17.6202 8.248 17.2802 8.364 17.0082 8.596C 16.7362 8.828 16.6002 9.172 16.6002 9.628L 19.3842 9.628C 19.3842 9.196 19.2562 8.86 19.0002 8.62C 18.7522 8.372 18.4282 8.248 18.0282 8.248ZM 16.6002 10.6C 16.6162 10.8 16.6522 10.988 16.7082 11.164C 16.7642 11.34 16.8482 11.496 16.9602 11.632C 17.0802 11.76 17.2322 11.864 17.4162 11.944C 17.6002 12.016 17.8282 12.052 18.1002 12.052C 18.4762 12.052 18.7482 11.98 18.9162 11.836C 19.0842 11.692 19.2082 11.52 19.2882 11.32L 20.6082 11.32C 20.5682 11.56 20.4802 11.792 20.3442 12.016C 20.2162 12.232 20.0442 12.424 19.8282 12.592C 19.6122 12.76 19.3602 12.896 19.0722 13C 18.7842 13.096 18.4602 13.144 18.1002 13.144C 17.6282 13.144 17.2162 13.068 16.8642 12.916C 16.5202 12.764 16.2322 12.556 16.0002 12.292C 15.7682 12.028 15.5922 11.716 15.4722 11.356C 15.3602 10.996 15.3042 10.612 15.3042 10.204C 15.3042 9.788 15.3642 9.4 15.4842 9.04C 15.6122 8.68 15.7922 8.368 16.0242 8.104C 16.2562 7.84 16.5442 7.636 16.8882 7.492C 17.2322 7.34 17.6242 7.264 18.0642 7.264C 18.4242 7.264 18.7602 7.328 19.0722 7.456C 19.3922 7.584 19.6682 7.764 19.9002 7.996C 20.1402 8.22 20.3242 8.484 20.4522 8.788C 20.5882 9.092 20.6562 9.424 20.6562 9.784C 20.6562 9.88 20.6522 9.996 20.6442 10.132C 20.6442 10.26 20.6282 10.416 20.5962 10.6L 16.6002 10.6ZM 25.6272 8.62C 25.5232 8.596 25.4352 8.58 25.3632 8.572C 25.2992 8.564 25.2152 8.56 25.1112 8.56C 24.5512 8.56 24.1232 8.724 23.8272 9.052C 23.5312 9.372 23.3832 9.884 23.3832 10.588L 23.3832 13L 22.0752 13L 22.0752 7.408L 23.3832 7.408L 23.3832 8.308C 23.4472 8.18 23.5352 8.06 23.6472 7.948C 23.7672 7.828 23.9032 7.724 24.0552 7.636C 24.2152 7.54 24.3832 7.468 24.5592 7.42C 24.7432 7.364 24.9272 7.336 25.1112 7.336C 25.3192 7.336 25.4912 7.364 25.6272 7.42L 25.6272 8.62ZM 32.1304 8.428C 31.8824 8.428 31.6584 8.476 31.4584 8.572C 31.2584 8.668 31.0864 8.796 30.9424 8.956C 30.7984 9.116 30.6864 9.304 30.6064 9.52C 30.5344 9.736 30.4984 9.964 30.4984 10.204C 30.4984 10.444 30.5344 10.672 30.6064 10.888C 30.6864 11.104 30.7984 11.292 30.9424 11.452C 31.0864 11.612 31.2584 11.74 31.4584 11.836C 31.6584 11.932 31.8824 11.98 32.1304 11.98C 32.3784 11.98 32.6024 11.932 32.8024 11.836C 33.0104 11.74 33.1864 11.612 33.3304 11.452C 33.4744 11.292 33.5864 11.104 33.6664 10.888C 33.7464 10.672 33.7864 10.444 33.7864 10.204C 33.7864 9.964 33.7464 9.736 33.6664 9.52C 33.5864 9.304 33.4744 9.116 33.3304 8.956C 33.1864 8.796 33.0104 8.668 32.8024 8.572C 32.6024 8.476 32.3784 8.428 32.1304 8.428ZM 35.1184 13.276C 35.1184 13.748 35.0464 14.152 34.9024 14.488C 34.7664 14.824 34.5704 15.1 34.3144 15.316C 34.0584 15.532 33.7464 15.692 33.3784 15.796C 33.0104 15.9 32.5904 15.952 32.1184 15.952C 31.6464 15.952 31.2384 15.884 30.8944 15.748C 30.5504 15.62 30.2624 15.448 30.0304 15.232C 29.7984 15.016 29.6184 14.768 29.4904 14.488C 29.3704 14.216 29.3024 13.932 29.2864 13.636L 30.6064 13.636C 30.6384 13.94 30.7784 14.204 31.0264 14.428C 31.2744 14.66 31.6344 14.776 32.1064 14.776C 32.6344 14.776 33.0464 14.656 33.3424 14.416C 33.6384 14.184 33.7864 13.804 33.7864 13.276L 33.7864 12.244C 33.6104 12.524 33.3584 12.744 33.0304 12.904C 32.7104 13.064 32.3864 13.144 32.0584 13.144C 31.6344 13.144 31.2464 13.068 30.8944 12.916C 30.5424 12.756 30.2384 12.54 29.9824 12.268C 29.7344 11.996 29.5384 11.684 29.3944 11.332C 29.2584 10.98 29.1904 10.604 29.1904 10.204C 29.1904 9.812 29.2584 9.44 29.3944 9.088C 29.5384 8.728 29.7344 8.412 29.9824 8.14C 30.2384 7.868 30.5424 7.656 30.8944 7.504C 31.2464 7.344 31.6344 7.264 32.0584 7.264C 32.3864 7.264 32.7104 7.344 33.0304 7.504C 33.3584 7.664 33.6104 7.884 33.7864 8.164L 33.7864 7.408L 35.0944 7.408L 35.1184 13.276ZM 39.3257 13.144C 38.8777 13.144 38.4737 13.068 38.1137 12.916C 37.7537 12.756 37.4457 12.54 37.1897 12.268C 36.9337 11.996 36.7337 11.684 36.5897 11.332C 36.4537 10.98 36.3857 10.604 36.3857 10.204C 36.3857 9.812 36.4537 9.44 36.5897 9.088C 36.7337 8.728 36.9337 8.412 37.1897 8.14C 37.4457 7.868 37.7537 7.656 38.1137 7.504C 38.4737 7.344 38.8777 7.264 39.3257 7.264C 39.7737 7.264 40.1777 7.344 40.5377 7.504C 40.9057 7.656 41.2177 7.868 41.4737 8.14C 41.7377 8.412 41.9377 8.728 42.0737 9.088C 42.2177 9.44 42.2897 9.812 42.2897 10.204C 42.2897 10.604 42.2177 10.98 42.0737 11.332C 41.9377 11.684 41.7377 11.996 41.4737 12.268C 41.2177 12.54 40.9057 12.756 40.5377 12.916C 40.1777 13.068 39.7737 13.144 39.3257 13.144ZM 39.3257 11.98C 39.5737 11.98 39.7977 11.932 39.9977 11.836C 40.2057 11.74 40.3817 11.612 40.5257 11.452C 40.6697 11.292 40.7817 11.104 40.8617 10.888C 40.9417 10.672 40.9817 10.444 40.9817 10.204C 40.9817 9.964 40.9417 9.736 40.8617 9.52C 40.7817 9.304 40.6697 9.116 40.5257 8.956C 40.3817 8.796 40.2057 8.668 39.9977 8.572C 39.7977 8.476 39.5737 8.428 39.3257 8.428C 39.0777 8.428 38.8537 8.476 38.6537 8.572C 38.4537 8.668 38.2817 8.796 38.1377 8.956C 37.9937 9.116 37.8817 9.304 37.8017 9.52C 37.7297 9.736 37.6937 9.964 37.6937 10.204C 37.6937 10.444 37.7297 10.672 37.8017 10.888C 37.8817 11.104 37.9937 11.292 38.1377 11.452C 38.2817 11.612 38.4537 11.74 38.6537 11.836C 38.8537 11.932 39.0777 11.98 39.3257 11.98ZM 47.178 8.62C 47.074 8.596 46.986 8.58 46.914 8.572C 46.85 8.564 46.766 8.56 46.662 8.56C 46.102 8.56 45.674 8.724 45.378 9.052C 45.082 9.372 44.934 9.884 44.934 10.588L 44.934 13L 43.626 13L 43.626 7.408L 44.934 7.408L 44.934 8.308C 44.998 8.18 45.086 8.06 45.198 7.948C 45.318 7.828 45.454 7.724 45.606 7.636C 45.766 7.54 45.934 7.468 46.11 7.42C 46.294 7.364 46.478 7.336 46.662 7.336C 46.87 7.336 47.042 7.364 47.178 7.42L 47.178 8.62ZM 52.1614 12.244C 51.9854 12.524 51.7334 12.744 51.4054 12.904C 51.0854 13.064 50.7614 13.144 50.4334 13.144C 50.0094 13.144 49.6214 13.068 49.2694 12.916C 48.9174 12.756 48.6134 12.54 48.3574 12.268C 48.1094 11.996 47.9134 11.684 47.7694 11.332C 47.6334 10.98 47.5654 10.604 47.5654 10.204C 47.5654 9.812 47.6334 9.44 47.7694 9.088C 47.9134 8.728 48.1094 8.412 48.3574 8.14C 48.6134 7.868 48.9174 7.656 49.2694 7.504C 49.6214 7.344 50.0094 7.264 50.4334 7.264C 50.7614 7.264 51.0854 7.344 51.4054 7.504C 51.7334 7.664 51.9854 7.884 52.1614 8.164L 52.1614 4.6L 53.4694 4.6L 53.4694 13L 52.1614 13L 52.1614 12.244ZM 50.5054 11.98C 50.7534 11.98 50.9774 11.932 51.1774 11.836C 51.3854 11.74 51.5614 11.612 51.7054 11.452C 51.8494 11.292 51.9614 11.104 52.0414 10.888C 52.1214 10.672 52.1614 10.444 52.1614 10.204C 52.1614 9.964 52.1214 9.736 52.0414 9.52C 51.9614 9.304 51.8494 9.116 51.7054 8.956C 51.5614 8.796 51.3854 8.668 51.1774 8.572C 50.9774 8.476 50.7534 8.428 50.5054 8.428C 50.2574 8.428 50.0334 8.476 49.8334 8.572C 49.6334 8.668 49.4614 8.796 49.3174 8.956C 49.1734 9.116 49.0614 9.304 48.9814 9.52C 48.9094 9.736 48.8734 9.964 48.8734 10.204C 48.8734 10.444 48.9094 10.672 48.9814 10.888C 49.0614 11.104 49.1734 11.292 49.3174 11.452C 49.4614 11.612 49.6334 11.74 49.8334 11.836C 50.0334 11.932 50.2574 11.98 50.5054 11.98ZM 57.5438 8.248C 57.1358 8.248 56.7958 8.364 56.5238 8.596C 56.2518 8.828 56.1158 9.172 56.1158 9.628L 58.8998 9.628C 58.8998 9.196 58.7718 8.86 58.5158 8.62C 58.2678 8.372 57.9438 8.248 57.5438 8.248ZM 56.1158 10.6C 56.1318 10.8 56.1678 10.988 56.2238 11.164C 56.2798 11.34 56.3638 11.496 56.4758 11.632C 56.5958 11.76 56.7478 11.864 56.9318 11.944C 57.1158 12.016 57.3438 12.052 57.6158 12.052C 57.9918 12.052 58.2638 11.98 58.4318 11.836C 58.5998 11.692 58.7238 11.52 58.8038 11.32L 60.1238 11.32C 60.0838 11.56 59.9958 11.792 59.8598 12.016C 59.7318 12.232 59.5598 12.424 59.3438 12.592C 59.1278 12.76 58.8758 12.896 58.5878 13C 58.2998 13.096 57.9758 13.144 57.6158 13.144C 57.1438 13.144 56.7318 13.068 56.3798 12.916C 56.0358 12.764 55.7478 12.556 55.5158 12.292C 55.2838 12.028 55.1078 11.716 54.9878 11.356C 54.8758 10.996 54.8198 10.612 54.8198 10.204C 54.8198 9.788 54.8798 9.4 54.9998 9.04C 55.1278 8.68 55.3078 8.368 55.5398 8.104C 55.7718 7.84 56.0598 7.636 56.4038 7.492C 56.7478 7.34 57.1398 7.264 57.5798 7.264C 57.9398 7.264 58.2758 7.328 58.5878 7.456C 58.9078 7.584 59.1838 7.764 59.4158 7.996C 59.6558 8.22 59.8398 8.484 59.9678 8.788C 60.1038 9.092 60.1718 9.424 60.1718 9.784C 60.1718 9.88 60.1678 9.996 60.1598 10.132C 60.1598 10.26 60.1438 10.416 60.1118 10.6L 56.1158 10.6ZM 61.5908 7.408L 62.8988 7.408L 62.8988 8.188C 63.0748 7.884 63.3188 7.656 63.6308 7.504C 63.9428 7.344 64.3068 7.264 64.7228 7.264C 65.1308 7.264 65.4708 7.332 65.7428 7.468C 66.0228 7.604 66.2428 7.788 66.4028 8.02C 66.5388 8.228 66.6308 8.46 66.6788 8.716C 66.7348 8.972 66.7628 9.292 66.7628 9.676L 66.7628 13L 65.4548 13L 65.4548 10.108C 65.4548 9.868 65.4348 9.644 65.3948 9.436C 65.3548 9.228 65.2868 9.052 65.1908 8.908C 65.1028 8.756 64.9788 8.636 64.8188 8.548C 64.6668 8.46 64.4748 8.416 64.2428 8.416C 63.7868 8.416 63.4468 8.58 63.2228 8.908C 63.0068 9.228 62.8988 9.628 62.8988 10.108L 62.8988 13L 61.5908 13L 61.5908 7.408Z" transform="translate(82 22)" fill="#424B59"/>
<path id="Customer" d="M 6.36 5.84C 6.07 6.71 5.15 7.34 4.19 7.34C 2.38 7.34 1.34 6.03 1.34 4.49C 1.34 3.02 2.34 1.66 4.06 1.66C 5.36 1.66 6.19 2.43 6.4 3.45L 7.36 3.45C 7.1 1.99 5.98 0.84 3.95 0.84C 1.76 0.84 0.41 2.59 0.41 4.49C 0.41 6.45 1.79 8.16 4.08 8.16C 5.75 8.16 7.01 7.15 7.36 5.84L 6.36 5.84ZM 11.7539 3.46L 11.7539 5.79C 11.7539 6.61 11.3339 7.34 10.4539 7.34C 9.61391 7.34 9.31391 6.7 9.31391 5.86L 9.31391 3.46L 8.44391 3.46L 8.44391 6.14C 8.44391 6.77 8.53391 7.18 8.78391 7.52C 9.05391 7.89 9.52391 8.11 10.1539 8.11C 10.9139 8.11 11.4839 7.74 11.7539 7.19L 11.7539 8L 12.6239 8L 12.6239 3.46L 11.7539 3.46ZM 16.1082 5.47C 15.2682 5.2 14.7982 5.13 14.7982 4.67C 14.7982 4.26 15.1582 4.04 15.6382 4.04C 16.2382 4.04 16.5582 4.34 16.5582 4.87L 17.3982 4.87C 17.3982 3.96 16.6382 3.34 15.6482 3.34C 14.7082 3.34 13.9582 3.8 13.9582 4.65C 13.9582 5.47 14.4982 5.68 15.1882 5.9C 16.0982 6.21 16.6382 6.26 16.6382 6.77C 16.6382 7.22 16.2782 7.42 15.7282 7.42C 15.1182 7.42 14.6582 7.16 14.6582 6.47L 13.8082 6.47C 13.8082 7.57 14.6882 8.11 15.6882 8.11C 16.7082 8.11 17.4682 7.66 17.4682 6.75C 17.4682 5.89 16.7982 5.69 16.1082 5.47ZM 21.0039 7.23C 20.8739 7.25 20.5939 7.27 20.4139 7.27C 19.9739 7.27 19.6639 7.16 19.6639 6.28L 19.6639 4.19L 20.8439 4.19L 20.8439 3.46L 19.6639 3.46L 19.6639 1.93L 18.7939 1.93L 18.7939 3.46L 17.9539 3.46L 17.9539 4.19L 18.7939 4.19L 18.7939 6.47C 18.7939 7.96 19.6639 8.06 20.2239 8.06C 20.5139 8.06 20.8339 8.03 21.0039 8L 21.0039 7.23ZM 23.9033 8.11C 25.3633 8.11 26.3033 7.01 26.3033 5.73C 26.3033 4.44 25.3633 3.34 23.9033 3.34C 22.4633 3.34 21.5233 4.44 21.5233 5.73C 21.5233 7.01 22.4633 8.11 23.9033 8.11ZM 23.9033 7.33C 22.9833 7.33 22.3833 6.6 22.3833 5.73C 22.3833 4.86 22.9833 4.12 23.9033 4.12C 24.8433 4.12 25.4433 4.86 25.4433 5.73C 25.4433 6.6 24.8433 7.33 23.9033 7.33ZM 34.239 8L 34.239 5.13C 34.239 4.13 33.829 3.34 32.619 3.34C 31.909 3.34 31.349 3.79 31.159 4.31C 30.989 3.73 30.539 3.34 29.699 3.34C 29.029 3.34 28.529 3.77 28.359 4.27L 28.359 3.46L 27.489 3.46L 27.489 8L 28.359 8L 28.359 5.69C 28.359 4.63 28.819 4.11 29.479 4.11C 30.089 4.11 30.429 4.52 30.429 5.44L 30.429 8L 31.299 8L 31.299 5.69C 31.299 4.63 31.739 4.11 32.409 4.11C 33.029 4.11 33.369 4.55 33.369 5.39L 33.369 8L 34.239 8ZM 37.6012 4.01C 38.3312 4.01 38.8812 4.51 38.8812 5.3L 36.2512 5.3C 36.2712 4.48 36.8212 4.01 37.6012 4.01ZM 39.6812 5.96C 39.7212 5.71 39.7212 5.52 39.7212 5.39C 39.7212 4.23 38.8012 3.34 37.6212 3.34C 36.1912 3.34 35.3812 4.36 35.3812 5.73C 35.3812 7.04 36.1212 8.11 37.6512 8.11C 38.7912 8.11 39.5312 7.43 39.6812 6.66L 38.8012 6.66C 38.6612 7.05 38.3312 7.38 37.6512 7.38C 36.6512 7.38 36.2812 6.73 36.2412 5.96L 39.6812 5.96ZM 43.7951 3.46C 43.6751 3.41 43.5351 3.39 43.3651 3.39C 42.7251 3.39 42.0951 3.78 41.8551 4.35L 41.8551 3.46L 40.9851 3.46L 40.9851 8L 41.8551 8L 41.8551 6.01C 41.8551 4.92 42.3551 4.21 43.3651 4.21C 43.5251 4.21 43.6151 4.22 43.7951 4.26L 43.7951 3.46Z" transform="translate(82 42)" fill="#424B59"/>
<g id="Group">
<ellipse id="Ellipse" cx="18.9101" cy="18.9055" rx="18.9101" ry="18.9055" transform="translate(31.1123 18.9035)" fill="#DCECF7"/>
<mask id="mask0" mask-type="alpha" maskUnits="userSpaceOnUse" x="31" y="18" width="38" height="39">
<ellipse id="Ellipse_2" cx="18.9101" cy="18.9055" rx="18.9101" ry="18.9055" transform="translate(31.1123 18.9035)" fill="white"/>
</mask>
<g mask="url(#mask0)">
<g id="001-man-1">
<g id="Group_2">
<g id="Group_3">
<path id="Vector" d="M -3.43666e-07 0.0319051L -3.43666e-07 10.3491C 1.45473 10.4595 2.97436 10.5305 4.47838 10.5305C 6.05348 10.5305 7.66394 10.4526 9.20793 10.3332L 9.22399 -2.18934e-07L -3.43666e-07 0.0319051Z" transform="translate(45.3838 46.184)" fill="#EAEAE1"/>
<path id="Vector_2" d="M 27.3171 9.24657C 26.2878 5.68278 21.1214 6.0781 18.8915 5.05467C 16.6617 4.03124 17.0098 0.597427 16.727 3.34163e-07L 11.2873 3.34163e-07C 11.005 0.597427 11.3532 4.03171 9.12282 5.05467C 6.893 6.0781 1.72611 5.68287 0.697275 9.24657C 0.129689 11.2123 0.156642 11.8135 -1.16199e-08 13.9909C -1.16199e-08 13.9909 7.08906 15.4245 13.8471 15.4245C 20.6052 15.4245 28.0149 13.9909 28.0149 13.9909C 27.8577 11.8129 27.8846 11.2123 27.3171 9.24657Z" transform="translate(36.0146 41.2902)" fill="white"/>
<path id="Vector_3" d="M 2.64234 8.35369L 2.69578 7.59976L 2.13438 3.11117e-07L 0.655277 3.11117e-07L 6.30994e-07 7.60023L 0.0539985 8.36162C 0.434297 8.36955 0.814596 8.37493 1.19434 8.37493C 1.67479 8.37493 2.15829 8.36691 2.64234 8.35369Z" transform="translate(48.668 48.3397)" fill="#474F59"/>
<path id="Vector_4" d="M 27.3172 4.35266C 26.2879 0.78886 21.1215 1.18419 18.8916 0.160754C 18.7863 0.112518 18.6867 0.058903 18.5928 4.49391e-07C 18.5928 4.49391e-07 15.11 4.91931 14.0656 4.91931C 13.0213 4.91931 9.36928 0.0318107 9.36928 0.0318107L 9.36771 0.0318107C 9.28934 0.07797 9.20839 0.12092 9.12282 0.160188C 6.893 1.18362 1.72611 0.788389 0.697275 4.35209C 0.129689 6.31778 0.156642 6.91898 -4.92964e-09 9.09639C -4.92964e-09 9.09639 7.08906 10.53 13.8471 10.53C 20.6052 10.53 28.0149 9.09639 28.0149 9.09639C 27.8578 6.91898 27.8847 6.31834 27.3172 4.35266Z" transform="translate(36.0146 46.1841)" fill="#8F39FF"/>
<path id="Vector_5" d="M 9.76979 4.35266C 8.7405 0.78886 3.57416 1.18419 1.34424 0.160754C 1.23892 0.112518 1.13933 0.058903 1.04545 4.49391e-07C 1.04545 4.49391e-07 0.609677 0.615456 6.76065e-08 1.4113C 2.50323 1.96153 6.05505 2.24963 6.88885 5.13746C 7.42948 7.00932 7.43049 7.64384 7.56489 9.58092C 9.34029 9.31511 10.4672 9.09705 10.4672 9.09705C 10.3104 6.91898 10.3374 6.31834 9.76979 4.35266Z" transform="translate(53.5615 46.1841)" fill="#7A38D1"/>
<path id="Vector_6" d="M 4.0151 0.12413L 3.38033e-07 2.18934e-07L 1.86826 2.917C 2.25844 2.44955 2.6392 1.96625 2.96974 1.53543L 4.0151 0.12413Z" transform="translate(50.5918 46.0599)" fill="#C6C5AF"/>
<path id="Vector_7" d="M 1.33908 0.0509729C 1.25868 0.0339818 1.17976 0.0169913 1.10148 1.6132e-07C 0.771489 0.43082 0.390729 0.914123 1.91552e-07 1.38157L 0.324269 1.88772L 1.33908 0.0509729Z" transform="translate(52.4609 47.5953)" fill="#7A38D1"/>
<path id="Vector_8" opacity="0.3" d="M 4.05664 -4.49391e-07L 1.07044e-07 0.155941C 1.07044e-07 0.155941 1.03142 1.53647 2.15459 2.82997L 4.05664 -4.49391e-07Z" transform="translate(45.3838 46.0598)" fill="#C6C5AF"/>
<path id="Vector_9" d="M 2.15459 2.67403C 1.03133 1.38053 -2.47891e-07 -4.60914e-07 -2.47891e-07 -4.60914e-07L 1.7562 3.26721L 2.15459 2.67403Z" transform="translate(45.3848 46.2159)" fill="#7A38D1"/>
<path id="Vector_10" d="M 2.50323 -2.65026e-07L 0.176395 -2.65026e-07L 1.46481e-07 0.583645L 2.68378 0.599503L 2.50323 -2.65026e-07Z" transform="translate(48.6748 46.0057)" fill="#C6C5AF"/>
<path id="Vector_11" d="M 0.237687 1.46218L 1.04545 4.49391e-07C 1.04545 4.49391e-07 0.609677 0.615456 -5.85923e-07 1.4113C 0.0779052 1.42877 0.157289 1.44519 0.237687 1.46218Z" transform="translate(53.5615 46.1841)" fill="#7A38D1"/>
<path id="Vector_12" d="M 2.14087e-07 0.0338886L 1.47347 -1.49797e-07L 1.50356 0.424401L 2.14087e-07 0.0338886Z" transform="translate(49.3281 48.3392)" fill="#3D454F"/>
<path id="Vector_13" d="M 3.38033e-08 0.00207657L 3.4813 -4.26345e-07L 3.47502 1.01862L 2.49705 2.11795L 1.05477 2.11795L 0.00673815 1.01862L 3.38033e-08 0.00207657Z" transform="translate(48.2734 46.2551)" fill="#474F59"/>
<path id="Vector_14" d="M 4.05664 1.37411L 1.09317 3.45686e-07C 1.09317 3.45686e-07 0.78035 0.454701 1.07044e-07 1.53015L 1.77697 4.27629L 4.05664 1.37411Z" transform="translate(45.3838 44.6857)" fill="white"/>
<path id="Vector_15" d="M 3.38033e-07 1.37411L 2.87836 3.45685e-07C 2.87836 3.45685e-07 3.23475 0.422891 4.0151 1.49834L 2.19456 4.27638L 3.38033e-07 1.37411Z" transform="translate(50.5918 44.6857)" fill="white"/>
<path id="Vector_16" opacity="0.3" d="M 3.77437 1.49834C 2.99411 0.422891 2.63763 3.45685e-07 2.63763 3.45685e-07L 4.95781e-07 1.25904C 0.297316 1.78275 0.685368 2.2114 1.19222 2.4438C 1.63999 2.64911 2.20647 2.79768 2.83424 2.93248L 3.77437 1.49834Z" transform="translate(50.833 44.6857)" fill="#E0DBD3"/>
<path id="Vector_17" d="M 0.564581 10.1762C 0.564581 10.1762 -0.979965 4.8685 1.04032 4.4828C 1.04032 4.4828 1.2769 -0.676366 9.21582 0.209721C 9.21582 0.209721 11.839 0.649508 12.709 0.132223C 13.5791 -0.385063 16.1094 0.455904 15.0655 5.53437C 15.0655 5.53437 16.3941 5.60441 15.0416 10.3259L 11.538 14.6728L 3.45651 14.6728L 0.564581 10.1762Z" transform="translate(42.2383 26.6058)" fill="#343D44"/>
<path id="Vector_18" d="M 2.01735 2.14838C 3.1315 2.14838 4.0347 1.66745 4.0347 1.07419C 4.0347 0.480931 3.1315 0 2.01735 0C 0.903198 0 0 0.480931 0 1.07419C 0 1.66745 0.903198 2.14838 2.01735 2.14838Z" transform="matrix(-0.1732 0.984876 -0.983495 -0.180877 57.8008 36.0043)" fill="#6E5D4A"/>
<path id="Vector_19" d="M 1.07419 4.0347C 1.66745 4.0347 2.14838 3.1315 2.14838 2.01735C 2.14838 0.903199 1.66745 0 1.07419 0C 0.480931 0 0 0.903199 0 2.01735C 0 3.1315 0.480931 4.0347 1.07419 4.0347Z" transform="matrix(-0.983495 0.180877 -0.1732 -0.984876 45.0391 39.5904)" fill="#6E5D4A"/>
<path id="Vector_20" d="M 12.4332 1.06586e-07L 6.5577 0.870135C 6.5577 0.870135 4.47566 0.957168 2.77715 1.78851C 1.21811 2.55197 0.0310589 4.04549 0.0154592 4.46725C -0.136568 8.63537 0.747534 14.3452 6.50481 15.1792C 15.7558 13.8397 12.4332 1.06586e-07 12.4332 1.06586e-07Z" transform="translate(43.5107 31.0769)" fill="#A68866"/>
<path id="Vector_21" d="M 4.84513e-07 15.1793C 9.25048 13.8397 5.92795 1.06586e-07 5.92795 1.06586e-07L 4.54115 1.06586e-07C 4.92089 5.78095 5.44648 8.85182 3.26595 12.1996C 1.53827 14.8525 4.84513e-07 15.1793 4.84513e-07 15.1793Z" transform="translate(50.0166 31.0769)" fill="#846E56"/>
<path id="Vector_22" d="M 12.1947 -8.64214e-08C 12.1947 -8.64214e-08 8.98797 1.48399 4.20137 1.40488C -0.0180918 1.33541 0.0368302 4.81699 3.43666e-07 5.05203C 3.43666e-07 5.05203 0.576909 3.56597 3.32041 3.08521C 5.8133 2.64854 7.21672 3.33347 8.78766 4.20889C 10.3592 5.08431 11.197 4.8387 11.8834 4.58345C 12.3732 4.40203 13.1385 0.805946 12.1947 -8.64214e-08Z" transform="translate(43.5293 30.4604)" fill="#846E56"/>
</g>
</g>
</g>
</g>
</g>
</g>
</g>
<defs>
<filter id="filter0_d" x="0" y="0" width="239.419" height="77.6181" filterUnits="userSpaceOnUse" color-interpolation-filters="sRGB">
<feFlood flood-opacity="0" result="BackgroundImageFix"/>
<feColorMatrix in="SourceAlpha" type="matrix" values="0 0 0 0 0 0 0 0 0 0 0 0 0 0 0 0 0 0 255 0"/>
<feOffset dy="1"/>
<feGaussianBlur stdDeviation="4"/>
<feColorMatrix type="matrix" values="0 0 0 0 0 0 0 0 0 0 0 0 0 0 0 0 0 0 0.15 0"/>
<feBlend mode="normal" in2="BackgroundImageFix" result="effect1_dropShadow"/>
<feBlend mode="normal" in="SourceGraphic" in2="effect1_dropShadow" result="shape"/>
</filter>
</defs>
</svg>
