<svg width="244" height="78" viewBox="0 0 244 78" version="1.1" xmlns="http://www.w3.org/2000/svg" xmlns:xlink="http://www.w3.org/1999/xlink">
<g id="Canvas" fill="none">
<g id="Group 7.6">
<g id="Rectangle 10.3" filter="url(#filter0_d)">
<rect width="227.622" height="61.6181" rx="3" transform="translate(8 7)" fill="white"/>
</g>
<path id="David fresner" d="M 3.6 4.6C 4.296 4.6 4.912 4.72 5.448 4.96C 5.992 5.2 6.448 5.516 6.816 5.908C 7.192 6.3 7.476 6.748 7.668 7.252C 7.86 7.756 7.956 8.272 7.956 8.8C 7.956 9.328 7.86 9.844 7.668 10.348C 7.476 10.852 7.192 11.3 6.816 11.692C 6.448 12.084 5.992 12.4 5.448 12.64C 4.912 12.88 4.296 13 3.6 13L 0.876 13L 0.876 4.6L 3.6 4.6ZM 2.256 5.836L 2.256 11.764L 3.6 11.764C 4.064 11.764 4.48 11.68 4.848 11.512C 5.216 11.344 5.524 11.124 5.772 10.852C 6.02 10.572 6.208 10.256 6.336 9.904C 6.472 9.544 6.54 9.176 6.54 8.8C 6.54 8.424 6.472 8.06 6.336 7.708C 6.208 7.348 6.02 7.032 5.772 6.76C 5.524 6.48 5.216 6.256 4.848 6.088C 4.48 5.92 4.064 5.836 3.6 5.836L 2.256 5.836ZM 14.7741 7.408L 14.7741 13L 13.4661 13L 13.4661 12.244C 13.2901 12.524 13.0381 12.744 12.7101 12.904C 12.3901 13.064 12.0661 13.144 11.7381 13.144C 11.3141 13.144 10.9261 13.068 10.5741 12.916C 10.2221 12.756 9.91806 12.54 9.66206 12.268C 9.41406 11.996 9.21806 11.684 9.07406 11.332C 8.93806 10.98 8.87006 10.604 8.87006 10.204C 8.87006 9.812 8.93806 9.44 9.07406 9.088C 9.21806 8.728 9.41406 8.412 9.66206 8.14C 9.91806 7.868 10.2221 7.656 10.5741 7.504C 10.9261 7.344 11.3141 7.264 11.7381 7.264C 12.0661 7.264 12.3901 7.344 12.7101 7.504C 13.0381 7.664 13.2901 7.884 13.4661 8.164L 13.4661 7.408L 14.7741 7.408ZM 11.8101 11.98C 12.0581 11.98 12.2821 11.932 12.4821 11.836C 12.6901 11.74 12.8661 11.612 13.0101 11.452C 13.1541 11.292 13.2661 11.104 13.3461 10.888C 13.4261 10.672 13.4661 10.444 13.4661 10.204C 13.4661 9.964 13.4261 9.736 13.3461 9.52C 13.2661 9.304 13.1541 9.116 13.0101 8.956C 12.8661 8.796 12.6901 8.668 12.4821 8.572C 12.2821 8.476 12.0581 8.428 11.8101 8.428C 11.5621 8.428 11.3381 8.476 11.1381 8.572C 10.9381 8.668 10.7661 8.796 10.6221 8.956C 10.4781 9.116 10.3661 9.304 10.2861 9.52C 10.2141 9.736 10.1781 9.964 10.1781 10.204C 10.1781 10.444 10.2141 10.672 10.2861 10.888C 10.3661 11.104 10.4781 11.292 10.6221 11.452C 10.7661 11.612 10.9381 11.74 11.1381 11.836C 11.3381 11.932 11.5621 11.98 11.8101 11.98ZM 17.0605 7.408L 18.5965 11.128L 20.1565 7.408L 21.5605 7.408L 19.0285 13L 18.1525 13L 15.6565 7.408L 17.0605 7.408ZM 22.4502 7.408L 23.7582 7.408L 23.7582 13L 22.4502 13L 22.4502 7.408ZM 22.1382 5.368C 22.1382 5.096 22.2302 4.868 22.4142 4.684C 22.6062 4.492 22.8342 4.396 23.0982 4.396C 23.3702 4.396 23.5982 4.492 23.7822 4.684C 23.9742 4.868 24.0702 5.096 24.0702 5.368C 24.0702 5.632 23.9742 5.86 23.7822 6.052C 23.5982 6.236 23.3702 6.328 23.0982 6.328C 22.8342 6.328 22.6062 6.236 22.4142 6.052C 22.2302 5.86 22.1382 5.632 22.1382 5.368ZM 29.6848 12.244C 29.5088 12.524 29.2568 12.744 28.9288 12.904C 28.6088 13.064 28.2848 13.144 27.9568 13.144C 27.5328 13.144 27.1448 13.068 26.7928 12.916C 26.4408 12.756 26.1368 12.54 25.8808 12.268C 25.6328 11.996 25.4368 11.684 25.2928 11.332C 25.1568 10.98 25.0888 10.604 25.0888 10.204C 25.0888 9.812 25.1568 9.44 25.2928 9.088C 25.4368 8.728 25.6328 8.412 25.8808 8.14C 26.1368 7.868 26.4408 7.656 26.7928 7.504C 27.1448 7.344 27.5328 7.264 27.9568 7.264C 28.2848 7.264 28.6088 7.344 28.9288 7.504C 29.2568 7.664 29.5088 7.884 29.6848 8.164L 29.6848 4.6L 30.9928 4.6L 30.9928 13L 29.6848 13L 29.6848 12.244ZM 28.0288 11.98C 28.2768 11.98 28.5008 11.932 28.7008 11.836C 28.9088 11.74 29.0848 11.612 29.2288 11.452C 29.3728 11.292 29.4848 11.104 29.5648 10.888C 29.6448 10.672 29.6848 10.444 29.6848 10.204C 29.6848 9.964 29.6448 9.736 29.5648 9.52C 29.4848 9.304 29.3728 9.116 29.2288 8.956C 29.0848 8.796 28.9088 8.668 28.7008 8.572C 28.5008 8.476 28.2768 8.428 28.0288 8.428C 27.7808 8.428 27.5568 8.476 27.3568 8.572C 27.1568 8.668 26.9848 8.796 26.8408 8.956C 26.6968 9.116 26.5848 9.304 26.5048 9.52C 26.4328 9.736 26.3968 9.964 26.3968 10.204C 26.3968 10.444 26.4328 10.672 26.5048 10.888C 26.5848 11.104 26.6968 11.292 26.8408 11.452C 26.9848 11.612 27.1568 11.74 27.3568 11.836C 27.5568 11.932 27.7808 11.98 28.0288 11.98ZM 39.0153 5.776C 38.9273 5.752 38.8353 5.732 38.7393 5.716C 38.6433 5.7 38.5433 5.692 38.4393 5.692C 38.3353 5.692 38.2313 5.696 38.1273 5.704C 38.0233 5.712 37.9273 5.744 37.8393 5.8C 37.7593 5.856 37.6913 5.944 37.6353 6.064C 37.5793 6.184 37.5513 6.352 37.5513 6.568L 37.5513 7.408L 39.0153 7.408L 39.0153 8.5L 37.5513 8.5L 37.5513 13L 36.2433 13L 36.2433 8.5L 35.1033 8.5L 35.1033 7.408L 36.2433 7.408L 36.2433 6.712C 36.2433 6.176 36.3153 5.764 36.4593 5.476C 36.6113 5.18 36.7913 4.964 36.9993 4.828C 37.2153 4.684 37.4393 4.6 37.6713 4.576C 37.9033 4.544 38.0993 4.528 38.2593 4.528C 38.4273 4.528 38.5753 4.544 38.7033 4.576C 38.8393 4.6 38.9433 4.632 39.0153 4.672L 39.0153 5.776ZM 43.6038 8.62C 43.4998 8.596 43.4118 8.58 43.3398 8.572C 43.2758 8.564 43.1918 8.56 43.0878 8.56C 42.5278 8.56 42.0998 8.724 41.8038 9.052C 41.5078 9.372 41.3598 9.884 41.3598 10.588L 41.3598 13L 40.0518 13L 40.0518 7.408L 41.3598 7.408L 41.3598 8.308C 41.4238 8.18 41.5118 8.06 41.6238 7.948C 41.7438 7.828 41.8798 7.724 42.0318 7.636C 42.1918 7.54 42.3598 7.468 42.5358 7.42C 42.7198 7.364 42.9038 7.336 43.0878 7.336C 43.2958 7.336 43.4678 7.364 43.6038 7.42L 43.6038 8.62ZM 46.7977 8.248C 46.3897 8.248 46.0497 8.364 45.7777 8.596C 45.5058 8.828 45.3698 9.172 45.3698 9.628L 48.1537 9.628C 48.1537 9.196 48.0257 8.86 47.7697 8.62C 47.5217 8.372 47.1977 8.248 46.7977 8.248ZM 45.3698 10.6C 45.3857 10.8 45.4218 10.988 45.4778 11.164C 45.5337 11.34 45.6177 11.496 45.7298 11.632C 45.8497 11.76 46.0017 11.864 46.1858 11.944C 46.3697 12.016 46.5978 12.052 46.8698 12.052C 47.2457 12.052 47.5177 11.98 47.6857 11.836C 47.8537 11.692 47.9777 11.52 48.0578 11.32L 49.3777 11.32C 49.3377 11.56 49.2497 11.792 49.1138 12.016C 48.9858 12.232 48.8138 12.424 48.5977 12.592C 48.3817 12.76 48.1297 12.896 47.8418 13C 47.5538 13.096 47.2298 13.144 46.8698 13.144C 46.3978 13.144 45.9858 13.068 45.6338 12.916C 45.2897 12.764 45.0017 12.556 44.7697 12.292C 44.5377 12.028 44.3618 11.716 44.2418 11.356C 44.1297 10.996 44.0737 10.612 44.0737 10.204C 44.0737 9.788 44.1338 9.4 44.2537 9.04C 44.3818 8.68 44.5618 8.368 44.7938 8.104C 45.0258 7.84 45.3137 7.636 45.6578 7.492C 46.0017 7.34 46.3938 7.264 46.8338 7.264C 47.1938 7.264 47.5298 7.328 47.8418 7.456C 48.1618 7.584 48.4378 7.764 48.6698 7.996C 48.9097 8.22 49.0938 8.484 49.2218 8.788C 49.3577 9.092 49.4258 9.424 49.4258 9.784C 49.4258 9.88 49.4217 9.996 49.4138 10.132C 49.4138 10.26 49.3977 10.416 49.3658 10.6L 45.3698 10.6ZM 53.3887 9.844C 53.5807 9.916 53.7687 9.992 53.9527 10.072C 54.1368 10.152 54.3008 10.252 54.4447 10.372C 54.5887 10.492 54.7007 10.636 54.7807 10.804C 54.8687 10.972 54.9128 11.184 54.9128 11.44C 54.9128 11.728 54.8528 11.98 54.7328 12.196C 54.6208 12.412 54.4607 12.592 54.2527 12.736C 54.0528 12.872 53.8168 12.972 53.5448 13.036C 53.2728 13.108 52.9847 13.144 52.6807 13.144C 52.3767 13.144 52.0887 13.1 51.8167 13.012C 51.5448 12.924 51.3008 12.796 51.0848 12.628C 50.8767 12.452 50.7088 12.24 50.5807 11.992C 50.4608 11.736 50.4007 11.444 50.4007 11.116L 51.6728 11.116C 51.6728 11.484 51.7727 11.744 51.9727 11.896C 52.1808 12.04 52.4408 12.112 52.7527 12.112C 53.0087 12.112 53.2248 12.064 53.4008 11.968C 53.5767 11.872 53.6647 11.704 53.6647 11.464C 53.6647 11.336 53.6288 11.232 53.5567 11.152C 53.4848 11.072 53.3768 11 53.2328 10.936C 53.0887 10.864 52.9088 10.792 52.6927 10.72C 52.4768 10.648 52.2208 10.556 51.9248 10.444C 51.7327 10.372 51.5527 10.296 51.3848 10.216C 51.2247 10.128 51.0848 10.028 50.9647 9.916C 50.8447 9.804 50.7528 9.664 50.6887 9.496C 50.6248 9.328 50.5928 9.124 50.5928 8.884C 50.5928 8.62 50.6488 8.388 50.7607 8.188C 50.8728 7.988 51.0247 7.82 51.2168 7.684C 51.4087 7.54 51.6288 7.436 51.8767 7.372C 52.1327 7.3 52.4047 7.264 52.6927 7.264C 52.9887 7.264 53.2648 7.312 53.5208 7.408C 53.7847 7.504 54.0128 7.636 54.2047 7.804C 54.3967 7.972 54.5487 8.172 54.6608 8.404C 54.7728 8.636 54.8288 8.888 54.8288 9.16L 53.5567 9.16C 53.5567 8.896 53.4848 8.688 53.3407 8.536C 53.2048 8.376 52.9768 8.296 52.6568 8.296C 52.4328 8.296 52.2408 8.348 52.0807 8.452C 51.9287 8.556 51.8528 8.708 51.8528 8.908C 51.8528 9.028 51.8848 9.128 51.9488 9.208C 52.0128 9.28 52.1087 9.348 52.2367 9.412C 52.3647 9.468 52.5247 9.532 52.7168 9.604C 52.9088 9.668 53.1327 9.748 53.3887 9.844ZM 56.294 7.408L 57.602 7.408L 57.602 8.188C 57.778 7.884 58.022 7.656 58.334 7.504C 58.646 7.344 59.01 7.264 59.426 7.264C 59.834 7.264 60.174 7.332 60.446 7.468C 60.726 7.604 60.946 7.788 61.106 8.02C 61.242 8.228 61.334 8.46 61.382 8.716C 61.438 8.972 61.466 9.292 61.466 9.676L 61.466 13L 60.158 13L 60.158 10.108C 60.158 9.868 60.138 9.644 60.098 9.436C 60.058 9.228 59.99 9.052 59.894 8.908C 59.806 8.756 59.682 8.636 59.522 8.548C 59.37 8.46 59.178 8.416 58.946 8.416C 58.49 8.416 58.15 8.58 57.926 8.908C 57.71 9.228 57.602 9.628 57.602 10.108L 57.602 13L 56.294 13L 56.294 7.408ZM 65.454 8.248C 65.046 8.248 64.706 8.364 64.434 8.596C 64.162 8.828 64.026 9.172 64.026 9.628L 66.81 9.628C 66.81 9.196 66.682 8.86 66.426 8.62C 66.178 8.372 65.854 8.248 65.454 8.248ZM 64.026 10.6C 64.042 10.8 64.078 10.988 64.134 11.164C 64.19 11.34 64.274 11.496 64.386 11.632C 64.506 11.76 64.658 11.864 64.842 11.944C 65.026 12.016 65.254 12.052 65.526 12.052C 65.902 12.052 66.174 11.98 66.342 11.836C 66.51 11.692 66.634 11.52 66.714 11.32L 68.034 11.32C 67.994 11.56 67.906 11.792 67.77 12.016C 67.642 12.232 67.47 12.424 67.254 12.592C 67.038 12.76 66.786 12.896 66.498 13C 66.21 13.096 65.886 13.144 65.526 13.144C 65.054 13.144 64.642 13.068 64.29 12.916C 63.946 12.764 63.658 12.556 63.426 12.292C 63.194 12.028 63.018 11.716 62.898 11.356C 62.786 10.996 62.73 10.612 62.73 10.204C 62.73 9.788 62.79 9.4 62.91 9.04C 63.038 8.68 63.218 8.368 63.45 8.104C 63.682 7.84 63.97 7.636 64.314 7.492C 64.658 7.34 65.05 7.264 65.49 7.264C 65.85 7.264 66.186 7.328 66.498 7.456C 66.818 7.584 67.094 7.764 67.326 7.996C 67.566 8.22 67.75 8.484 67.878 8.788C 68.014 9.092 68.082 9.424 68.082 9.784C 68.082 9.88 68.078 9.996 68.07 10.132C 68.07 10.26 68.054 10.416 68.022 10.6L 64.026 10.6ZM 73.053 8.62C 72.949 8.596 72.861 8.58 72.789 8.572C 72.725 8.564 72.641 8.56 72.537 8.56C 71.977 8.56 71.549 8.724 71.253 9.052C 70.957 9.372 70.809 9.884 70.809 10.588L 70.809 13L 69.501 13L 69.501 7.408L 70.809 7.408L 70.809 8.308C 70.873 8.18 70.961 8.06 71.073 7.948C 71.193 7.828 71.329 7.724 71.481 7.636C 71.641 7.54 71.809 7.468 71.985 7.42C 72.169 7.364 72.353 7.336 72.537 7.336C 72.745 7.336 72.917 7.364 73.053 7.42L 73.053 8.62Z" transform="translate(85 19.7618)" fill="#424B59"/>
<path id="Lead" d="M 1.69 7.18L 1.69 1L 0.78 1L 0.78 8L 3.98 8L 3.98 7.18L 1.69 7.18ZM 6.70273 4.01C 7.43273 4.01 7.98273 4.51 7.98273 5.3L 5.35273 5.3C 5.37273 4.48 5.92273 4.01 6.70273 4.01ZM 8.78273 5.96C 8.82273 5.71 8.82273 5.52 8.82273 5.39C 8.82273 4.23 7.90273 3.34 6.72273 3.34C 5.29273 3.34 4.48273 4.36 4.48273 5.73C 4.48273 7.04 5.22273 8.11 6.75273 8.11C 7.89273 8.11 8.63273 7.43 8.78273 6.66L 7.90273 6.66C 7.76273 7.05 7.43273 7.38 6.75273 7.38C 5.75273 7.38 5.38273 6.73 5.34273 5.96L 8.78273 5.96ZM 13.6366 3.46L 13.6366 4.24C 13.3466 3.69 12.7066 3.34 12.0466 3.34C 10.6566 3.34 9.71664 4.44 9.71664 5.73C 9.71664 7.01 10.6566 8.11 12.0466 8.11C 12.7066 8.11 13.3466 7.76 13.6366 7.21L 13.6366 8L 14.4966 8L 14.4966 3.46L 13.6366 3.46ZM 12.0966 7.33C 11.1766 7.33 10.5766 6.6 10.5766 5.73C 10.5766 4.86 11.1766 4.12 12.0966 4.12C 13.0366 4.12 13.6366 4.86 13.6366 5.73C 13.6366 6.6 13.0366 7.33 12.0966 7.33ZM 19.6034 8L 20.4634 8L 20.4634 1L 19.6034 1L 19.6034 4.24C 19.3134 3.69 18.6734 3.34 18.0134 3.34C 16.6234 3.34 15.6834 4.44 15.6834 5.73C 15.6834 7.01 16.6234 8.11 18.0134 8.11C 18.6734 8.11 19.3134 7.76 19.6034 7.21L 19.6034 8ZM 18.0634 7.33C 17.1434 7.33 16.5434 6.6 16.5434 5.73C 16.5434 4.86 17.1434 4.12 18.0634 4.12C 19.0034 4.12 19.6034 4.86 19.6034 5.73C 19.6034 6.6 19.0034 7.33 18.0634 7.33Z" transform="translate(85 39.7618)" fill="#424B59"/>
<ellipse id="Ellipse" cx="18.9101" cy="18.9055" rx="18.9101" ry="18.9055" transform="translate(34.0068 16.9035)" fill="white"/>
<g id="Group">
<mask id="mask0" mask-type="alpha" maskUnits="userSpaceOnUse" x="34" y="16" width="38" height="39">
<ellipse id="Ellipse_2" cx="18.9101" cy="18.9055" rx="18.9101" ry="18.9055" transform="translate(34.0068 16.9035)" fill="#36415C"/>
</mask>
<g mask="url(#mask0)">
<g id="003-man">
<g id="Group_2">
<g id="Group_3">
<path id="Vector" d="M 5.48854 4.65463C 8.51977 4.65463 10.9771 3.61265 10.9771 2.32731C 10.9771 1.04197 8.51977 0 5.48854 0C 2.4573 0 0 1.04197 0 2.32731C 0 3.61265 2.4573 4.65463 5.48854 4.65463Z" transform="translate(47.0957 39.8095)" fill="#215AB7"/>
<path id="Vector_2" d="M 29.3659 9.68949C 28.2594 5.95499 22.7056 6.36925 20.3084 5.29679C 17.9114 4.22434 18.2856 0.626044 17.9816 -6.0374e-08L 12.1339 -6.0374e-08C 11.8304 0.626044 12.2047 4.22483 9.80707 5.29679C 7.41 6.36925 1.85558 5.95508 0.749573 9.68949C 0.139416 11.7493 0.168391 12.3793 -1.89263e-09 14.661C -1.89263e-09 14.661 7.62076 16.1633 14.8857 16.1633C 22.1506 16.1633 30.1161 14.661 30.1161 14.661C 29.947 12.3787 29.9761 11.7494 29.3659 9.68949Z" transform="translate(37.5088 38.5513)" fill="#199ECC"/>
<path id="Vector_3" d="M 2.32628 6.11909C 4.72335 7.19155 10.2778 6.77738 11.3838 10.5118C 11.965 12.4733 11.9661 13.1382 12.1105 15.1681C 14.0191 14.8895 15.2305 14.661 15.2305 14.661C 15.0621 12.3793 15.0911 11.7494 14.4809 9.68949C 13.3744 5.95499 7.82058 6.36925 5.42341 5.29679C 3.02634 4.22434 3.40053 0.626044 3.0966 -6.0374e-08L 0.000164043 -6.0374e-08C 0.000560958 -6.0374e-08 -0.0708836 5.04713 2.32628 6.11909Z" transform="translate(52.3936 38.5513)" fill="#198ECC"/>
<path id="Vector_4" d="M 8.4138 4.50556C 7.17344 3.02666 7.37974 0.513674 7.13107 -5.43366e-07L 1.28273 -5.43366e-07C 1.03347 0.513674 1.24036 3.02675 0 4.50556C 0.591701 5.89326 3.7697 9.60719 4.2069 9.60719C 4.64351 9.60719 7.77298 6.00613 8.4138 4.50556Z" transform="translate(48.3604 38.5508)" fill="#F2CFA8"/>
<path id="Vector_5" d="M 2.18032e-07 3.71947C 0.970457 4.50675 2.10762 5.2873 3.705 5.51303C 5.30625 5.2867 6.44064 4.49003 7.41218 3.69949C 6.60407 2.21841 6.85392 0.45205 6.63522 2.65646e-07L 0.786883 2.65646e-07C 0.567191 0.452643 0.811989 2.23789 2.18032e-07 3.71947Z" transform="translate(48.8555 38.5507)" fill="#C69E7F"/>
<g id="Group_4">
<path id="Vector_6" d="M 1.09016e-07 0.735545C 1.09016e-07 0.735545 1.2605 0.695484 3.45455 1.42331C 5.64859 2.15114 8.71109 0.330777 10.028 -6.88264e-07C 10.028 -6.88264e-07 7.21869 4.44443 4.23488 4.33384C 1.25098 4.22375 1.09016e-07 0.735545 1.09016e-07 0.735545Z" transform="translate(47.752 42.2563)" fill="#266CDA"/>
<path id="Vector_7" d="M 10.0275 4.95067e-07C 9.74862 0.0700336 9.33424 0.23018 9.33027 0.234037C 8.68886 0.812799 8.26386 1.23923 7.79203 1.6985C 6.69278 1.77803 6.22481 1.99317 5.81043 2.18329C 5.42503 2.36005 5.09212 2.51298 4.25433 2.51357C 4.11601 2.51357 3.96429 2.50912 3.80373 2.50081C 2.94372 2.45581 2.2772 1.91701 1.31289 0.871259C 0.290046 0.667787 -1.09016e-07 0.736139 -1.09016e-07 0.736139C -1.09016e-07 0.736139 1.25098 4.22375 4.23478 4.33443C 7.21819 4.44443 10.0275 4.95067e-07 10.0275 4.95067e-07Z" transform="translate(47.752 42.2568)" fill="#215AB7"/>
<path id="Vector_8" d="M 1.28364 0.423661C 1.28364 0.423661 2.10625 4.3922 4.63618 4.52505C 7.16612 4.65789 6.22017 3.72887 9.42536 3.69217L 5.94124 7.32716C 5.94124 7.32716 -1.73529 5.96666 0.363396 -1.44898e-07L 1.28364 0.423661Z" transform="translate(46.9082 40.4377)" fill="#2971E3"/>
<path id="Vector_9" d="M 5.94127 7.32657L 9.42479 3.69108C 9.02152 3.69553 9.0121 3.68722 8.72483 3.7167C 8.10187 4.13927 7.21953 4.78085 6.41806 5.31628C 6.18944 5.19066 5.95575 5.1317 5.6925 5.1317C 5.44929 5.1317 5.21114 5.18225 4.9591 5.23566C 4.66628 5.29798 4.36293 5.36188 4.00204 5.36188C 3.55253 5.36188 2.80624 4.81477 2.05339 3.93412C 1.32783 3.08462 0.848652 2.22671 0.804595 1.88812C 0.749423 1.4606 0.768376 1.30936 0.742676 0.558187L 0.363424 -4.70917e-07C -1.73536 5.96666 5.94127 7.32657 5.94127 7.32657Z" transform="translate(46.9082 40.4383)" fill="#215AB7"/>
<path id="Vector_10" d="M 5.45182 1.15139C 5.45182 1.15139 6.19137 1.75241 6.24545 2.42514C 6.29953 3.09787 3.20469 6.54216 6.41982e-07 7.68464L 4.36418 10.2721C 4.36418 10.2721 7.37815 8.11553 7.26096 6.81675C 7.18961 6.02284 6.75172 5.72985 6.75172 5.72985C 6.75172 5.72985 9.11763 2.19002 5.43545 -1.08673e-07L 5.45182 1.15139Z" transform="translate(51.1025 39.4526)" fill="#2F77EA"/>
<path id="Vector_11" d="M 0.809309 0.185666C 0.70889 0.0560851 0.625241 -6.15815e-07 0.625241 -6.15815e-07C 0.625241 -6.15815e-07 0.0301667 0.780553 1.22271e-06 1.40996C -0.000494921 1.40986 0.390465 0.575398 0.809309 0.185666Z" transform="translate(57.2295 45.1824)" fill="#215AB7"/>
<path id="Vector_12" d="M 4.44723 1.60344C 3.61004 1.60285 1.78125 1.02854 0.896234 0.470942C 0.374192 0.142341 6.54095e-07 7.36563e-07 6.54095e-07 7.36563e-07C 0.0713461 0.957416 2.33743 2.39517 3.17571 2.89549C 3.60339 2.52416 4.08247 2.06657 4.44723 1.60344Z" transform="translate(53.332 45.9974)" fill="#215AB7"/>
<path id="Vector_13" d="M 3.14935e-07 1.07523C 3.14935e-07 1.07523 1.43504 0.758297 2.50026 7.00338e-07C 2.50026 7.00338e-07 1.57783 0.934566 0.340751 1.28928L 3.14935e-07 1.07523Z" transform="translate(53.8447 45.338)" fill="#215AB7"/>
<path id="Vector_14" d="M 12.3757 9.58058C 12.3757 9.58058 9.59159 8.72713 8.64455 7.80087C 7.69751 6.87461 7.08408 7.53904 5.89215 7.53904C 4.70021 7.53904 2.60272 4.75641 2.49059 3.88575C 2.40585 3.22914 2.45209 2.32682 3.44656 1.33547L 3.2993 3.62244e-07C 3.2993 3.62244e-07 1.82575 0.967901 1.30986 1.95984C 0.793974 2.95168 1.06785 4.76413 0.80231 5.51026C 0.536278 6.25639 -0.274123 6.22582 0.0945112 7.36109C 0.463146 8.49636 3.66784 10.002 4.22054 10.7369C 4.77324 11.4714 6.79443 13.9816 8.06773 13.7364C 9.34064 13.4908 11.74 12.8047 12.3757 9.58058Z" transform="translate(45.0186 38.4667)" fill="#3884FF"/>
<path id="Vector_15" d="M 4.30513 1.97586C 4.41895 1.75399 4.52155 1.51333 4.61016 1.2509C 2.46514 1.1508 -7.38885e-07 -6.0374e-08 -7.38885e-07 -6.0374e-08C 1.53993 1.20758 3.4094 1.76349 4.30513 1.97586Z" transform="translate(52.5605 47.6392)" fill="#215AB7"/>
<path id="Vector_16" d="M 1.62963 2.37954C 0.190718 1.24813 0.274368 -3.62244e-07 0.274368 -3.62244e-07C 0.25482 0.141747 0.228028 0.267965 0.190718 0.373014C 0.142195 0.509816 0.0747189 0.620405 -3.20991e-07 0.717146C 0.636949 1.96923 1.62963 2.37954 1.62963 2.37954Z" transform="translate(45.6299 43.6034)" fill="#215AB7"/>
<path id="Vector_17" d="M 3.74807 3.38463C 3.71631 3.36297 3.67106 3.32964 3.61252 3.29066C 3.58404 3.2695 3.55338 3.24506 3.51994 3.21954C 3.50317 3.20678 3.4859 3.19343 3.46755 3.17948C 3.45862 3.17286 3.44919 3.16613 3.44026 3.15831C 3.43133 3.1505 3.4224 3.14278 3.41347 3.13437C 3.37725 3.10213 3.33766 3.06988 3.29806 3.03378C 3.26016 2.9954 3.21937 2.95702 3.17869 2.91537C 3.1 2.82862 3.01864 2.73416 2.94114 2.62347C 2.90155 2.57006 2.86195 2.5112 2.82177 2.45224C 2.78158 2.39161 2.7398 2.33107 2.69575 2.26707C 2.60932 2.14086 2.51118 2.00969 2.40183 1.88516C 2.34547 1.82403 2.29089 1.76003 2.22838 1.70275C 2.19772 1.67328 2.16755 1.64439 2.13689 1.61491L 2.03875 1.53093L 1.98914 1.48978C 1.97237 1.47643 1.9557 1.4614 1.94002 1.45032C 1.90767 1.42638 1.87532 1.40195 1.84297 1.37801L 1.79445 1.3419L 1.76994 1.3241L 1.75764 1.3152L 1.75595 1.31411C 1.75655 1.31411 1.74811 1.30857 1.75089 1.31025L 1.74752 1.30808L 1.74087 1.30362C 1.70574 1.28087 1.67061 1.25802 1.63549 1.23527C 1.60095 1.21193 1.56523 1.19195 1.52951 1.17137C 1.49379 1.15139 1.45866 1.13022 1.42353 1.11192C 1.38841 1.09303 1.35328 1.07414 1.31865 1.05574C 1.28412 1.03793 1.24949 1.02072 1.21545 1.00351C 1.0805 0.935653 0.948825 0.87116 0.843444 0.808941C 0.814469 0.789455 0.785395 0.770562 0.757512 0.752262L 0.746894 0.745041C 0.743024 0.741678 0.750764 0.748405 0.749673 0.747218L 0.748581 0.74613L 0.746398 0.744448L 0.741337 0.74059L 0.72179 0.726147C 0.708989 0.716651 0.696089 0.707255 0.683289 0.69776C 0.657589 0.67946 0.633079 0.659972 0.609066 0.640486C 0.585052 0.620999 0.561138 0.6027 0.538812 0.583807C 0.447323 0.508729 0.368139 0.434244 0.300068 0.365893C 0.231997 0.297541 0.175734 0.233543 0.130486 0.179633C 0.0864284 0.12513 0.0529881 0.0807162 0.0317531 0.0489639C 0.0105182 0.0172117 -1.21129e-08 6.2789e-07 -1.21129e-08 6.2789e-07C -1.21129e-08 6.2789e-07 0.00337381 0.0199813 0.0150828 0.0572729C 0.0267918 0.093971 0.0446527 0.148474 0.074719 0.21465C 0.104885 0.280825 0.146065 0.359167 0.20074 0.444829C 0.255415 0.530491 0.32289 0.623868 0.404853 0.718927C 0.424401 0.743359 0.446727 0.766209 0.468955 0.790642C 0.491281 0.81458 0.513608 0.839606 0.537522 0.86295C 0.549231 0.875216 0.561535 0.886887 0.57374 0.899054L 0.592098 0.917353L 0.596563 0.921806L 0.598745 0.923981L 0.599837 0.925069C 0.599242 0.924476 0.608173 0.931696 0.604898 0.92952L 0.614424 0.937829C 0.640124 0.960085 0.665726 0.982342 0.692517 1.00569C 0.816851 1.10183 0.942969 1.17919 1.07346 1.25862C 1.13756 1.29749 1.20225 1.33755 1.26814 1.37761C 1.30109 1.3971 1.33224 1.41876 1.3641 1.43934C 1.39585 1.46051 1.42879 1.47989 1.45945 1.50274C 1.49071 1.52441 1.52197 1.54666 1.55313 1.56833L 1.55928 1.57218L 1.56097 1.57327L 1.56156 1.57386L 1.57327 1.58336L 1.59728 1.60166L 1.64521 1.63836C 1.67756 1.66279 1.70931 1.68732 1.74166 1.71175C 1.75843 1.72402 1.77183 1.73619 1.78631 1.74905L 1.82928 1.78634L 1.9163 1.85914C 1.94419 1.88585 1.97267 1.91196 2.00055 1.93808C 2.058 1.98981 2.1104 2.0454 2.16398 2.0999C 2.19127 2.12661 2.21528 2.15609 2.24098 2.18438C 2.26609 2.21277 2.29288 2.23938 2.31679 2.26885C 2.3413 2.29774 2.36531 2.32672 2.38982 2.3556C 2.41384 2.38508 2.43775 2.41396 2.46176 2.44285C 2.50969 2.50012 2.55603 2.55957 2.60396 2.61576C 2.65308 2.67243 2.69882 2.72862 2.74953 2.78085C 2.77463 2.80696 2.79745 2.83367 2.82375 2.8581C 2.84945 2.88253 2.87446 2.90707 2.89956 2.93041C 2.92407 2.95435 2.95027 2.97542 2.97597 2.99659C 3.00167 3.01775 3.02667 3.03833 3.05128 3.05771C 3.10318 3.09501 3.15339 3.12834 3.20131 3.16059C 3.25093 3.18947 3.29836 3.21618 3.34301 3.24061C 3.35413 3.24674 3.36534 3.25288 3.37596 3.25842C 3.38707 3.26395 3.39828 3.26841 3.4089 3.27345C 3.43063 3.28295 3.45127 3.29235 3.47142 3.30125C 3.5116 3.31846 3.54782 3.33567 3.58186 3.34853C 3.64993 3.37247 3.7046 3.38968 3.74082 3.40195C 3.77764 3.41362 3.79718 3.41975 3.79718 3.41975C 3.79718 3.41975 3.77932 3.40748 3.74807 3.38463Z" transform="translate(48.5977 46.1954)" fill="#215AB7"/>
</g>
<g id="Group_5">
<path id="Vector_18" d="M 2.11564 2.30763C 3.28408 2.30763 4.23129 1.79105 4.23129 1.15382C 4.23129 0.516582 3.28408 0 2.11564 0C 0.947205 0 0 0.516582 0 1.15382C 0 1.79105 0.947205 2.30763 2.11564 2.30763Z" transform="matrix(-0.177541 0.984103 -0.984297 -0.176461 60.9287 33.0123)" fill="#EDC89F"/>
<path id="Vector_19" d="M 1.15382 4.23129C 1.79105 4.23129 2.30763 3.28408 2.30763 2.11564C 2.30763 0.947205 1.79105 0 1.15382 0C 0.516582 0 0 0.947205 0 2.11564C 0 3.28408 0.516582 4.23129 1.15382 4.23129Z" transform="matrix(-0.984297 0.176461 -0.177541 -0.984103 47.21 36.7701)" fill="#EDC89F"/>
<path id="Vector_20" d="M 13.3491 7.84862e-08L 7.03293 0.911815L 0.543773 0.0878382C 0.543773 0.0878382 9.6903e-08 3.23636 9.6903e-08 4.68133C 9.6903e-08 9.05187 0.786982 15.0325 6.97607 15.9064C 16.9208 14.5026 13.3491 7.84862e-08 13.3491 7.84862e-08Z" transform="translate(45.584 27.8488)" fill="#F2CFA8"/>
<path id="Vector_21" d="M -3.63386e-08 15.9064C 9.9444 14.5026 6.37256 7.84862e-08 6.37256 7.84862e-08L 4.88175 7.84862e-08C 5.28998 6.05786 5.85499 9.27582 3.51091 12.784C 1.65365 15.564 -3.63386e-08 15.9064 -3.63386e-08 15.9064Z" transform="translate(52.5605 27.8488)" fill="#EFC69F"/>
<path id="Vector_22" d="M 0 0.581184C 0 0.581184 1.56722 2.02893 5.86898 2.02893C 10.1707 2.02893 11.8512 1.05031 11.8512 1.05031L 11.8512 0L 0 0.581184Z" transform="translate(46.6689 28.4568)" fill="#F6C997"/>
<path id="Vector_23" d="M 14.5506 4.89371C 14.3431 2.78263 12.2996 0 7.36601 0C 2.43246 0 0.388844 2.78263 0.181357 4.89371C 0.181357 4.89371 -0.152746 6.01849 0.0859984 9.61392C 0.516552 9.56723 0.940456 9.68504 1.2433 9.82184L 1.49316 5.51085L 13.2389 5.51085L 13.4887 9.82184C 13.7916 9.68504 14.2155 9.56723 14.646 9.61392C 14.8847 6.01899 14.5506 4.89371 14.5506 4.89371Z" transform="translate(45.1953 23.2053)" fill="#885945"/>
<path id="Vector_24" d="M 8.80244 6.83742C 11.3468 6.63118 15.3624 5.97398 14.7434 0.328601C 14.7434 0.328601 14.1388 1.32766 12.9514 1.16702C 11.3223 0.946337 9.98763 0 7.28603 0C 4.67254 0 -0.155134 0.782827 0.00383004 4.06637C 0.138781 6.83742 5.84096 7.07819 8.80244 6.83742Z" transform="translate(45.4463 23.2069)" fill="#1C2838"/>
<path id="Vector_25" d="M 11.236 5.33119e-05C 9.61079 -0.00548603 8.10708 0.518179 7.30006 0.518179C 6.49303 0.518179 4.98942 -0.00607953 3.36415 5.33119e-05C 1.92077 0.00509807 0.562726 0.23686 0.121555 0.356451C 0.0502097 0.375937 9.08466e-08 0.44043 9.08466e-08 0.514321L 9.08466e-08 1.20209C 9.08466e-08 1.26658 0.0379051 1.32494 0.0970454 1.35106C 0.15956 1.37826 0.237553 1.42218 0.288854 1.48509C 0.385305 1.60349 0.560444 2.8172 1.09866 3.24086C 1.44665 3.51437 2.43497 3.76018 3.29608 3.74346C 4.15669 3.72674 5.16783 3.6851 5.7255 3.26361C 6.49571 2.68208 6.60059 1.60735 6.78853 1.3294C 6.93916 1.10703 7.17284 1.07201 7.29996 1.07201C 7.42707 1.07201 7.66085 1.10644 7.81138 1.3294C 7.99932 1.60735 8.10421 2.68208 8.87442 3.26361C 9.43268 3.685 10.4433 3.72674 11.3038 3.74346C 12.1644 3.76018 13.1533 3.51496 13.5013 3.24086C 14.0395 2.8172 14.2146 1.60349 14.3111 1.48509C 14.3624 1.42228 14.4405 1.37836 14.503 1.35106C 14.5621 1.32494 14.6 1.26658 14.6 1.20209L 14.6 0.514321C 14.6 0.440332 14.5504 0.375839 14.4785 0.356451C 14.0375 0.23686 12.6788 0.00499915 11.236 5.33119e-05ZM 6.09324 2.02706C 5.96106 2.49968 5.69394 2.87438 5.36986 3.06341C 5.04131 3.25521 3.9242 3.37035 3.40275 3.37084C 2.71678 3.37143 1.58458 3.18458 1.32966 2.95885C 1.07475 2.73312 0.995561 2.32667 0.938703 1.98205C 0.881845 1.63792 0.773091 1.04966 1.06423 0.779517C 1.42621 0.444288 2.98281 0.331919 3.3966 0.350911C 4.25721 0.390379 5.91135 0.582179 6.16012 0.983088C 6.31849 1.23592 6.20368 1.63238 6.09324 2.02706ZM 13.6599 1.98145C 13.6031 2.32559 13.5239 2.73253 13.269 2.95826C 13.014 3.18399 11.8824 3.37074 11.1959 3.37025C 10.6749 3.37025 9.55731 3.25521 9.22876 3.06281C 8.90468 2.87378 8.63756 2.49909 8.50539 2.02646C 8.39495 1.63169 8.28004 1.23533 8.43732 0.981802C 8.68658 0.580992 10.3403 0.389093 11.2008 0.349626C 11.6141 0.330732 13.1707 0.443003 13.5332 0.778232C 13.8255 1.04916 13.7162 1.63732 13.6599 1.98145Z" transform="translate(45.2383 32.7563)" fill="#1C2838"/>
</g>
</g>
</g>
</g>
</g>
</g>
</g>
</g>
<defs>
<filter id="filter0_d" x="0" y="0" width="243.622" height="77.6181" filterUnits="userSpaceOnUse" color-interpolation-filters="sRGB">
<feFlood flood-opacity="0" result="BackgroundImageFix"/>
<feColorMatrix in="SourceAlpha" type="matrix" values="0 0 0 0 0 0 0 0 0 0 0 0 0 0 0 0 0 0 255 0"/>
<feOffset dy="1"/>
<feGaussianBlur stdDeviation="4"/>
<feColorMatrix type="matrix" values="0 0 0 0 0 0 0 0 0 0 0 0 0 0 0 0 0 0 0.15 0"/>
<feBlend mode="normal" in2="BackgroundImageFix" result="effect1_dropShadow"/>
<feBlend mode="normal" in="SourceGraphic" in2="effect1_dropShadow" result="shape"/>
</filter>
</defs>
</svg>
