<svg width="472" height="309" viewBox="0 0 472 309" version="1.1" xmlns="http://www.w3.org/2000/svg" xmlns:xlink="http://www.w3.org/1999/xlink">
<g id="Canvas" fill="none">
<g id="Group 18">
<g id="Group 16">
<g id="Group">
<path id="Rectangle 5" d="M 0 0L 121 0L 121 103.788C 121 109.311 116.523 113.788 111 113.788L 10 113.788C 4.47715 113.788 0 109.311 0 103.788L 0 0Z" transform="translate(0.290039 194.318)" fill="url(#paint0_linear)"/>
<mask id="mask0" mask-type="alpha" maskUnits="userSpaceOnUse" x="0" y="186" width="122" height="18">
<g id="mask0">
<path id="Ellipse" d="M 60.5 17.0096C 93.9132 17.0096 121 13.2019 121 8.50481C 121 3.80773 93.9132 0 60.5 0C 27.0868 0 0 3.80773 0 8.50481C 0 13.2019 27.0868 17.0096 60.5 17.0096Z" transform="translate(0.290039 186.106)" fill="url(#paint1_linear)"/>
</g>
</mask>
<g mask="url(#mask0)">
<g id="Group_2">
<path id="Ellipse_2" d="M 60.5 17.0096C 93.9132 17.0096 121 13.2019 121 8.50481C 121 3.80773 93.9132 0 60.5 0C 27.0868 0 0 3.80773 0 8.50481C 0 13.2019 27.0868 17.0096 60.5 17.0096Z" transform="translate(0.290039 186.106)" fill="url(#paint2_linear)"/>
</g>
</g>
</g>
<path id="Vector" d="M 0 0C 4 0 4 4 8 4C 12 4 12 0 16 0C 20 0 20 4 24 4C 28 4 28 0 32 0C 36 0 36 4 40 4C 44 4 44 0 48 0C 52 0 52 4 56 4" transform="matrix(0 -1 1 0 23.29 192.106)" stroke="black" stroke-opacity="0.2" stroke-miterlimit="10"/>
<path id="Vector_2" d="M 0 0C 4 0 4 4 8 4C 12 4 12 0 16 0C 20 0 20 4 24 4C 28 4 28 0 32 0C 36 0 36 4 40 4C 44 4 44 0 48 0C 52 0 52 4 56 4" transform="matrix(0 -1 1 0 47.29 147.106)" stroke="white" stroke-opacity="0.2" stroke-miterlimit="10"/>
<path id="Vector_3" d="M 0 0C 6.14286 0 6.14286 4 12.2857 4C 18.4286 4 18.4286 0 24.5714 0C 30.7143 0 30.7143 4 36.8571 4C 43 4 43 0 49.1429 0C 55.2857 0 55.2857 4 61.4286 4C 67.5714 4 67.5714 0 73.7143 0C 79.8571 0 79.8571 4 86 4" transform="matrix(0 -1 1 0 71.29 186.106)" stroke="white" stroke-opacity="0.2" stroke-miterlimit="10"/>
</g>
<g id="Group 17">
<g id="Group 7.5">
<g id="Rectangle 10" filter="url(#filter0_d)">
<path id="Vector_4" d="M 220.419 0L 3 0C 1.34315 0 0 1.34315 0 3L 0 58.6181C 0 60.275 1.34315 61.6181 3 61.6181L 220.419 61.6181C 222.076 61.6181 223.419 60.275 223.419 58.6181L 223.419 3C 223.419 1.34315 222.076 0 220.419 0Z" transform="translate(207.29 7.297)" fill="white"/>
</g>
<path id="Rectangle 10_2" d="M 220.419 0L 3 0C 1.34315 0 0 1.34315 0 3L 0 58.6181C 0 60.275 1.34315 61.6181 3 61.6181L 220.419 61.6181C 222.076 61.6181 223.419 60.275 223.419 58.6181L 223.419 3C 223.419 1.34315 222.076 0 220.419 0Z" transform="translate(207.29 7.297)" fill="url(#paint3_linear)" fill-opacity="0.06"/>
<g id="Rectangle 10_3" filter="url(#filter1_d)">
<path id="Vector_5" d="M 220.419 0L 3 0C 1.34315 0 0 1.34315 0 3L 0 58.6181C 0 60.275 1.34315 61.6181 3 61.6181L 220.419 61.6181C 222.076 61.6181 223.419 60.275 223.419 58.6181L 223.419 3C 223.419 1.34315 222.076 0 220.419 0Z" transform="translate(207.29 7.297)" fill="white"/>
</g>
<path id="Carol smith" d="M 8.4 5.904C 8.304 6.312 8.14 6.692 7.908 7.044C 7.676 7.396 7.388 7.704 7.044 7.968C 6.7 8.232 6.304 8.44 5.856 8.592C 5.408 8.736 4.928 8.808 4.416 8.808C 3.728 8.808 3.112 8.688 2.568 8.448C 2.024 8.208 1.56 7.888 1.176 7.488C 0.8 7.08 0.508 6.612 0.3 6.084C 0.1 5.548 2.38419e-10 4.984 2.38419e-10 4.392C 2.38419e-10 3.824 0.096 3.276 0.288 2.748C 0.488 2.22 0.772 1.752 1.14 1.344C 1.516 0.936 1.964 0.612 2.484 0.372C 3.012 0.124 3.608 -9.15527e-08 4.272 -9.15527e-08C 4.896 -9.15527e-08 5.448 0.0879999 5.928 0.264C 6.416 0.432 6.832 0.664 7.176 0.96C 7.52 1.248 7.792 1.592 7.992 1.992C 8.2 2.384 8.336 2.808 8.4 3.264L 6.948 3.264C 6.9 2.976 6.804 2.708 6.66 2.46C 6.524 2.212 6.348 2 6.132 1.824C 5.924 1.64 5.676 1.496 5.388 1.392C 5.108 1.288 4.796 1.236 4.452 1.236C 3.972 1.236 3.54 1.324 3.156 1.5C 2.78 1.676 2.464 1.912 2.208 2.208C 1.952 2.496 1.756 2.832 1.62 3.216C 1.484 3.592 1.416 3.984 1.416 4.392C 1.416 4.824 1.484 5.232 1.62 5.616C 1.764 6 1.968 6.34 2.232 6.636C 2.504 6.924 2.836 7.152 3.228 7.32C 3.628 7.488 4.084 7.572 4.596 7.572C 4.836 7.572 5.076 7.532 5.316 7.452C 5.564 7.364 5.792 7.248 6 7.104C 6.208 6.952 6.388 6.776 6.54 6.576C 6.7 6.368 6.816 6.144 6.888 5.904L 8.4 5.904ZM 15.2087 3.012L 15.2087 8.604L 13.9007 8.604L 13.9007 7.848C 13.7247 8.128 13.4727 8.348 13.1447 8.508C 12.8247 8.668 12.5007 8.748 12.1727 8.748C 11.7487 8.748 11.3607 8.672 11.0087 8.52C 10.6567 8.36 10.3527 8.144 10.0967 7.872C 9.8487 7.6 9.6527 7.288 9.50869 6.936C 9.37269 6.584 9.30469 6.208 9.30469 5.808C 9.30469 5.416 9.37269 5.044 9.50869 4.692C 9.6527 4.332 9.8487 4.016 10.0967 3.744C 10.3527 3.472 10.6567 3.26 11.0087 3.108C 11.3607 2.948 11.7487 2.868 12.1727 2.868C 12.5007 2.868 12.8247 2.948 13.1447 3.108C 13.4727 3.268 13.7247 3.488 13.9007 3.768L 13.9007 3.012L 15.2087 3.012ZM 12.2447 7.584C 12.4927 7.584 12.7167 7.536 12.9167 7.44C 13.1247 7.344 13.3007 7.216 13.4447 7.056C 13.5887 6.896 13.7007 6.708 13.7807 6.492C 13.8607 6.276 13.9007 6.048 13.9007 5.808C 13.9007 5.568 13.8607 5.34 13.7807 5.124C 13.7007 4.908 13.5887 4.72 13.4447 4.56C 13.3007 4.4 13.1247 4.272 12.9167 4.176C 12.7167 4.08 12.4927 4.032 12.2447 4.032C 11.9967 4.032 11.7727 4.08 11.5727 4.176C 11.3727 4.272 11.2007 4.4 11.0567 4.56C 10.9127 4.72 10.8007 4.908 10.7207 5.124C 10.6487 5.34 10.6127 5.568 10.6127 5.808C 10.6127 6.048 10.6487 6.276 10.7207 6.492C 10.8007 6.708 10.9127 6.896 11.0567 7.056C 11.2007 7.216 11.3727 7.344 11.5727 7.44C 11.7727 7.536 11.9967 7.584 12.2447 7.584ZM 20.5072 4.224C 20.4032 4.2 20.3152 4.184 20.2432 4.176C 20.1792 4.168 20.0952 4.164 19.9912 4.164C 19.4312 4.164 19.0032 4.328 18.7072 4.656C 18.4112 4.976 18.2632 5.488 18.2632 6.192L 18.2632 8.604L 16.9552 8.604L 16.9552 3.012L 18.2632 3.012L 18.2632 3.912C 18.3272 3.784 18.4152 3.664 18.5272 3.552C 18.6472 3.432 18.7832 3.328 18.9352 3.24C 19.0952 3.144 19.2632 3.072 19.4392 3.024C 19.6232 2.968 19.8072 2.94 19.9912 2.94C 20.1992 2.94 20.3712 2.968 20.5072 3.024L 20.5072 4.224ZM 23.7291 8.748C 23.2811 8.748 22.8771 8.672 22.5171 8.52C 22.1571 8.36 21.8491 8.144 21.5931 7.872C 21.3371 7.6 21.1371 7.288 20.9931 6.936C 20.8571 6.584 20.7891 6.208 20.7891 5.808C 20.7891 5.416 20.8571 5.044 20.9931 4.692C 21.1371 4.332 21.3371 4.016 21.5931 3.744C 21.8491 3.472 22.1571 3.26 22.5171 3.108C 22.8771 2.948 23.2811 2.868 23.7291 2.868C 24.1771 2.868 24.5811 2.948 24.9411 3.108C 25.3091 3.26 25.6211 3.472 25.8771 3.744C 26.1411 4.016 26.3411 4.332 26.4771 4.692C 26.6211 5.044 26.6931 5.416 26.6931 5.808C 26.6931 6.208 26.6211 6.584 26.4771 6.936C 26.3411 7.288 26.1411 7.6 25.8771 7.872C 25.6211 8.144 25.3091 8.36 24.9411 8.52C 24.5811 8.672 24.1771 8.748 23.7291 8.748ZM 23.7291 7.584C 23.9771 7.584 24.2011 7.536 24.4011 7.44C 24.6091 7.344 24.7851 7.216 24.9291 7.056C 25.0731 6.896 25.1851 6.708 25.2651 6.492C 25.3451 6.276 25.3851 6.048 25.3851 5.808C 25.3851 5.568 25.3451 5.34 25.2651 5.124C 25.1851 4.908 25.0731 4.72 24.9291 4.56C 24.7851 4.4 24.6091 4.272 24.4011 4.176C 24.2011 4.08 23.9771 4.032 23.7291 4.032C 23.4811 4.032 23.2571 4.08 23.0571 4.176C 22.8571 4.272 22.6851 4.4 22.5411 4.56C 22.3971 4.72 22.2851 4.908 22.2051 5.124C 22.1331 5.34 22.0971 5.568 22.0971 5.808C 22.0971 6.048 22.1331 6.276 22.2051 6.492C 22.2851 6.708 22.3971 6.896 22.5411 7.056C 22.6851 7.216 22.8571 7.344 23.0571 7.44C 23.2571 7.536 23.4811 7.584 23.7291 7.584ZM 28.0294 0.204L 29.3374 0.204L 29.3374 8.604L 28.0294 8.604L 28.0294 0.204ZM 36.632 5.448C 36.824 5.52 37.012 5.596 37.196 5.676C 37.38 5.756 37.544 5.856 37.688 5.976C 37.832 6.096 37.944 6.24 38.024 6.408C 38.112 6.576 38.156 6.788 38.156 7.044C 38.156 7.332 38.096 7.584 37.976 7.8C 37.864 8.016 37.704 8.196 37.496 8.34C 37.296 8.476 37.06 8.576 36.788 8.64C 36.516 8.712 36.228 8.748 35.924 8.748C 35.62 8.748 35.332 8.704 35.06 8.616C 34.788 8.528 34.544 8.4 34.328 8.232C 34.12 8.056 33.952 7.844 33.824 7.596C 33.704 7.34 33.644 7.048 33.644 6.72L 34.916 6.72C 34.916 7.088 35.016 7.348 35.216 7.5C 35.424 7.644 35.684 7.716 35.996 7.716C 36.252 7.716 36.468 7.668 36.644 7.572C 36.82 7.476 36.908 7.308 36.908 7.068C 36.908 6.94 36.872 6.836 36.8 6.756C 36.728 6.676 36.62 6.604 36.476 6.54C 36.332 6.468 36.152 6.396 35.936 6.324C 35.72 6.252 35.464 6.16 35.168 6.048C 34.976 5.976 34.796 5.9 34.628 5.82C 34.468 5.732 34.328 5.632 34.208 5.52C 34.088 5.408 33.996 5.268 33.932 5.1C 33.868 4.932 33.836 4.728 33.836 4.488C 33.836 4.224 33.892 3.992 34.004 3.792C 34.116 3.592 34.268 3.424 34.46 3.288C 34.652 3.144 34.872 3.04 35.12 2.976C 35.376 2.904 35.648 2.868 35.936 2.868C 36.232 2.868 36.508 2.916 36.764 3.012C 37.028 3.108 37.256 3.24 37.448 3.408C 37.64 3.576 37.792 3.776 37.904 4.008C 38.016 4.24 38.072 4.492 38.072 4.764L 36.8 4.764C 36.8 4.5 36.728 4.292 36.584 4.14C 36.448 3.98 36.22 3.9 35.9 3.9C 35.676 3.9 35.484 3.952 35.324 4.056C 35.172 4.16 35.096 4.312 35.096 4.512C 35.096 4.632 35.128 4.732 35.192 4.812C 35.256 4.884 35.352 4.952 35.48 5.016C 35.608 5.072 35.768 5.136 35.96 5.208C 36.152 5.272 36.376 5.352 36.632 5.448ZM 46.5932 8.604L 46.5932 5.472C 46.5932 5.024 46.5092 4.672 46.3412 4.416C 46.1812 4.152 45.9172 4.02 45.5492 4.02C 45.3812 4.02 45.2252 4.048 45.0812 4.104C 44.9452 4.16 44.8212 4.256 44.7092 4.392C 44.6052 4.528 44.5212 4.708 44.4572 4.932C 44.4012 5.148 44.3732 5.424 44.3732 5.76L 44.3732 8.604L 43.0652 8.604L 43.0652 5.46C 43.0652 5.012 42.9852 4.66 42.8252 4.404C 42.6732 4.148 42.4132 4.02 42.0452 4.02C 41.8772 4.02 41.7212 4.048 41.5772 4.104C 41.4332 4.16 41.3052 4.256 41.1932 4.392C 41.0892 4.528 41.0052 4.708 40.9412 4.932C 40.8772 5.148 40.8452 5.424 40.8452 5.76L 40.8452 8.604L 39.5372 8.604L 39.5372 3.012L 40.8452 3.012L 40.8452 3.792C 40.9652 3.536 41.1612 3.32 41.4332 3.144C 41.7132 2.96 42.0372 2.868 42.4052 2.868C 42.9172 2.868 43.3092 2.964 43.5812 3.156C 43.8532 3.348 44.0492 3.584 44.1692 3.864C 44.3052 3.584 44.5252 3.348 44.8292 3.156C 45.1332 2.964 45.4852 2.868 45.8852 2.868C 46.3012 2.868 46.6412 2.936 46.9052 3.072C 47.1692 3.2 47.3732 3.368 47.5172 3.576C 47.6692 3.784 47.7692 4.02 47.8172 4.284C 47.8732 4.54 47.9012 4.8 47.9012 5.064L 47.9012 8.604L 46.5932 8.604ZM 49.5684 3.012L 50.8764 3.012L 50.8764 8.604L 49.5684 8.604L 49.5684 3.012ZM 49.2564 0.972C 49.2564 0.7 49.3484 0.472 49.5324 0.288C 49.7244 0.096 49.9524 -9.15527e-08 50.2164 -9.15527e-08C 50.4884 -9.15527e-08 50.7164 0.096 50.9004 0.288C 51.0924 0.472 51.1884 0.7 51.1884 0.972C 51.1884 1.236 51.0924 1.464 50.9004 1.656C 50.7164 1.84 50.4884 1.932 50.2164 1.932C 49.9524 1.932 49.7244 1.84 49.5324 1.656C 49.3484 1.464 49.2564 1.236 49.2564 0.972ZM 55.723 8.604C 55.619 8.62 55.479 8.636 55.303 8.652C 55.127 8.668 54.943 8.676 54.751 8.676C 54.591 8.676 54.407 8.66 54.199 8.628C 53.991 8.604 53.791 8.528 53.599 8.4C 53.415 8.272 53.259 8.076 53.131 7.812C 53.003 7.548 52.939 7.18 52.939 6.708L 52.939 4.104L 51.991 4.104L 51.991 3.012L 52.939 3.012L 52.939 1.32L 54.247 1.32L 54.247 3.012L 55.531 3.012L 55.531 4.104L 54.247 4.104L 54.247 6.408C 54.247 6.648 54.263 6.84 54.295 6.984C 54.335 7.128 54.391 7.24 54.463 7.32C 54.535 7.392 54.619 7.44 54.715 7.464C 54.819 7.488 54.935 7.5 55.063 7.5C 55.167 7.5 55.287 7.496 55.423 7.488C 55.559 7.48 55.659 7.468 55.723 7.452L 55.723 8.604ZM 56.8341 0.204L 58.1421 0.204L 58.1421 3.792C 58.3181 3.488 58.5621 3.26 58.8741 3.108C 59.1861 2.948 59.5501 2.868 59.9661 2.868C 60.3741 2.868 60.7141 2.936 60.9861 3.072C 61.2661 3.208 61.4861 3.392 61.6461 3.624C 61.7821 3.832 61.8741 4.064 61.9221 4.32C 61.9781 4.576 62.0061 4.896 62.0061 5.28L 62.0061 8.604L 60.6981 8.604L 60.6981 5.712C 60.6981 5.472 60.6781 5.248 60.6381 5.04C 60.5981 4.832 60.5301 4.656 60.4341 4.512C 60.3461 4.36 60.2221 4.24 60.0621 4.152C 59.9101 4.064 59.7181 4.02 59.4861 4.02C 59.0301 4.02 58.6901 4.184 58.4661 4.512C 58.2501 4.832 58.1421 5.232 58.1421 5.712L 58.1421 8.604L 56.8341 8.604L 56.8341 0.204Z" transform="translate(280.746 24.886)" fill="#424B59"/>
<path id="Prospect" d="M -2.86102e-08 7L 0.91 7L 0.91 4.77L 2.46 4.77C 3.92 4.77 4.86 3.67 4.86 2.38C 4.86 1.1 3.92 0 2.46 0L -2.86102e-08 0L -2.86102e-08 7ZM 2.46 3.94L 0.91 3.94L 0.91 0.82L 2.46 0.82C 3.37 0.82 3.95 1.54 3.95 2.38C 3.95 3.23 3.37 3.94 2.46 3.94ZM 8.7182 2.46C 8.5982 2.41 8.4582 2.39 8.2882 2.39C 7.6482 2.39 7.0182 2.78 6.7782 3.35L 6.7782 2.46L 5.9082 2.46L 5.9082 7L 6.7782 7L 6.7782 5.01C 6.7782 3.92 7.2782 3.21 8.2882 3.21C 8.4482 3.21 8.5382 3.22 8.7182 3.26L 8.7182 2.46ZM 11.3362 7.11C 12.7962 7.11 13.7362 6.01 13.7362 4.73C 13.7362 3.44 12.7962 2.34 11.3362 2.34C 9.8962 2.34 8.95617 3.44 8.95617 4.73C 8.95617 6.01 9.8962 7.11 11.3362 7.11ZM 11.3362 6.33C 10.4162 6.33 9.8162 5.6 9.8162 4.73C 9.8162 3.86 10.4162 3.12 11.3362 3.12C 12.2762 3.12 12.8762 3.86 12.8762 4.73C 12.8762 5.6 12.2762 6.33 11.3362 6.33ZM 16.8419 4.47C 16.0019 4.2 15.5319 4.13 15.5319 3.67C 15.5319 3.26 15.8919 3.04 16.3719 3.04C 16.9719 3.04 17.2919 3.34 17.2919 3.87L 18.1319 3.87C 18.1319 2.96 17.3719 2.34 16.3819 2.34C 15.4419 2.34 14.6919 2.8 14.6919 3.65C 14.6919 4.47 15.2319 4.68 15.9219 4.9C 16.8319 5.21 17.3719 5.26 17.3719 5.77C 17.3719 6.22 17.0119 6.42 16.4619 6.42C 15.8519 6.42 15.3919 6.16 15.3919 5.47L 14.5419 5.47C 14.5419 6.57 15.4219 7.11 16.4219 7.11C 17.4419 7.11 18.2019 6.66 18.2019 5.75C 18.2019 4.89 17.5319 4.69 16.8419 4.47ZM 20.3134 2.46L 19.4434 2.46L 19.4434 9.46L 20.3134 9.46L 20.3134 6.21C 20.6034 6.76 21.2334 7.11 21.8934 7.11C 23.2934 7.11 24.2334 6.01 24.2334 4.73C 24.2334 3.44 23.2934 2.34 21.8934 2.34C 21.2334 2.34 20.6034 2.69 20.3134 3.24L 20.3134 2.46ZM 21.8534 3.12C 22.7634 3.12 23.3634 3.86 23.3634 4.73C 23.3634 5.6 22.7634 6.33 21.8534 6.33C 20.9134 6.33 20.3134 5.6 20.3134 4.73C 20.3134 3.86 20.9134 3.12 21.8534 3.12ZM 27.2997 3.01C 28.0297 3.01 28.5797 3.51 28.5797 4.3L 25.9497 4.3C 25.9697 3.48 26.5197 3.01 27.2997 3.01ZM 29.3797 4.96C 29.4197 4.71 29.4197 4.52 29.4197 4.39C 29.4197 3.23 28.4997 2.34 27.3197 2.34C 25.8897 2.34 25.0797 3.36 25.0797 4.73C 25.0797 6.04 25.8197 7.11 27.3497 7.11C 28.4897 7.11 29.2297 6.43 29.3797 5.66L 28.4997 5.66C 28.3597 6.05 28.0297 6.38 27.3497 6.38C 26.3497 6.38 25.9797 5.73 25.9397 4.96L 29.3797 4.96ZM 34.7436 4.11C 34.6636 3.23 34.0636 2.34 32.5936 2.34C 31.1236 2.34 30.3336 3.5 30.3336 4.73C 30.3336 5.96 31.1236 7.11 32.6036 7.11C 33.9236 7.11 34.6136 6.38 34.7536 5.44L 33.8836 5.44C 33.7436 5.98 33.4136 6.33 32.6636 6.33C 31.6536 6.33 31.2036 5.59 31.2036 4.73C 31.2036 3.88 31.6736 3.12 32.6136 3.12C 33.4636 3.12 33.8036 3.55 33.8736 4.11L 34.7436 4.11ZM 38.4466 6.23C 38.3166 6.25 38.0366 6.27 37.8566 6.27C 37.4166 6.27 37.1066 6.16 37.1066 5.28L 37.1066 3.19L 38.2866 3.19L 38.2866 2.46L 37.1066 2.46L 37.1066 0.93L 36.2366 0.93L 36.2366 2.46L 35.3966 2.46L 35.3966 3.19L 36.2366 3.19L 36.2366 5.47C 36.2366 6.96 37.1066 7.06 37.6666 7.06C 37.9566 7.06 38.2766 7.03 38.4466 7L 38.4466 6.23Z" transform="translate(281.07 41.49)" fill="#424B59"/>
<g id="Group_2_2">
<path id="Ellipse_3" d="M 18.9101 37.811C 29.3539 37.811 37.8202 29.3467 37.8202 18.9055C 37.8202 8.46428 29.3539 0 18.9101 0C 8.46634 0 0 8.46428 0 18.9055C 0 29.3467 8.46634 37.811 18.9101 37.811Z" transform="translate(230.402 19.2004)" fill="#FF883B"/>
<mask id="mask1" mask-type="alpha" maskUnits="userSpaceOnUse" x="230" y="19" width="39" height="39">
<g id="mask1">
<path id="Ellipse_4" d="M 18.9101 37.811C 29.3539 37.811 37.8202 29.3467 37.8202 18.9055C 37.8202 8.46428 29.3539 0 18.9101 0C 8.46634 0 0 8.46428 0 18.9055C 0 29.3467 8.46634 37.811 18.9101 37.811Z" transform="translate(230.402 19.2004)" fill="white"/>
</g>
</mask>
<g mask="url(#mask1)">
<g id="Group_3">
<g id="002-businesswoman">
<g id="Group_3_2">
<g id="Group_4">
<path id="Vector_4_2" d="M 3.86265 7.86063C 5.99594 7.86063 7.72531 6.10097 7.72531 3.93032C 7.72531 1.75966 5.99594 0 3.86265 0C 1.72937 0 0 1.75966 0 3.93032C 0 6.10097 1.72937 7.86063 3.86265 7.86063Z" transform="translate(250.479 40.4214)" fill="#242A2C"/>
<path id="Vector_5_2" d="M 3.86265 7.86063C 5.99594 7.86063 7.72531 6.10097 7.72531 3.93032C 7.72531 1.75966 5.99594 0 3.86265 0C 1.72937 0 0 1.75966 0 3.93032C 0 6.10097 1.72937 7.86063 3.86265 7.86063Z" transform="translate(240.419 40.4214)" fill="#242A2C"/>
<path id="Vector_6" d="M 5.64195 22.3862C 5.64195 22.3862 3.85317 20.2006 2.49403 16.9104C 1.32606 14.0835 -0.0497985 11.1991 0.0013865 7.39001C 0.0500633 3.76831 2.10926 0 8.29753 0C 13.7151 0 14.9985 2.51929 14.7411 4.23846C 14.7411 4.23846 15.5598 4.31228 15.9921 4.88452C 16.7251 5.85516 16.8129 9.98208 15.9242 12.9296C 13.9057 19.6246 11.2062 22.3862 11.2062 22.3862L 5.64195 22.3862Z" transform="translate(240.892 26.9027)" fill="#242A2C"/>
<path id="Vector_7" d="M 25.9517 9.25899C 24.9743 5.69041 20.0658 6.08627 17.9475 5.06146C 15.8293 4.03665 16.1598 0.59823 15.8914 0L 10.7229 0C 10.4546 0.59823 10.7855 4.03713 8.6668 5.06146C 6.54852 6.08627 1.64006 5.6905 0.662618 9.25899C 0.123271 11.2273 0.149375 11.8288 0 14.0097C 0 14.0097 6.73486 15.4452 13.1549 15.4452C 19.575 15.4452 26.6142 14.0097 26.6142 14.0097C 26.4654 11.8288 26.4911 11.2273 25.9517 9.25899Z" transform="translate(236.005 41.5663)" fill="#4E565D"/>
<path id="Vector_8" d="M 2.05577 5.84722C 4.17405 6.87203 9.08251 6.47627 10.06 10.0448C 10.5738 11.9191 10.5748 12.5545 10.7021 14.4942C 12.3886 14.228 13.4594 14.0097 13.4594 14.0097C 13.3106 11.8293 13.3363 11.2274 12.7968 9.25899C 11.8194 5.69041 6.91091 6.08627 4.79264 5.06146C 2.67436 4.03665 3.00488 0.59823 2.73651 0L 0.000200027 0C 0.000200027 9.4522e-05 -0.062968 4.82298 2.05577 5.84722Z" transform="translate(249.159 41.5662)" fill="#444B51"/>
<path id="Vector_9" d="M 3.08782 0C 3.08782 0 1.50787 1.89876 0 2.35189C 0 2.35189 3.14263 7.60561 7.728 9.95439L 3.08782 0Z" transform="translate(241.584 46.6277)" fill="#393E43"/>
<path id="Vector_10" d="M 4.64018 0C 4.64018 0 6.22013 1.89876 7.728 2.35189C 7.728 2.35189 4.58537 7.60561 0 9.95439L 4.64018 0Z" transform="translate(249.312 46.6277)" fill="#393E43"/>
<path id="Vector_11" d="M 11.9959 1.31546C 11.4017 1.02802 11.0007 0.550968 10.7245 0L 8.09038 0L 8.0888 0L 6.62265 0L 6.62107 0L 3.98695 0C 3.71077 0.550968 3.30974 1.02802 2.71559 1.31546C 2.67908 1.33295 1.88911 2.96988 0 3.76197C 0 3.76197 0.878226 5.17035 2.76826 7.30768C 4.6583 9.44501 7.35512 11.2699 7.35512 11.2699C 7.35512 11.2699 10.0519 9.44501 11.942 7.30768C 13.8321 5.17035 14.7103 3.76197 14.7103 3.76197C 12.8223 2.96988 12.0324 1.33304 11.9959 1.31546Z" transform="translate(241.957 45.3123)" fill="#464B50"/>
<path id="Vector_12" d="M 4.25588 1.31546C 3.66172 1.02802 3.2607 0.550968 2.98452 0L 0.350399 0L 0.34882 0L 0 0C 0.303394 0.919131 0.777436 1.74308 1.51883 2.1017C 2.60904 2.62875 4.43749 2.78017 6.08953 3.28908C 4.83173 2.45294 4.28616 1.32983 4.25588 1.31546Z" transform="translate(249.696 45.3123)" fill="#444B51"/>
<path id="Vector_13" d="M 7.43548 4.30538C 6.33904 2.89218 6.52176 0.490852 6.30198 0L 1.1335 0C 0.913155 0.490852 1.09588 2.89228 0 4.30538C 0.438556 9.3312 3.71802 15.0158 3.71802 15.0158C 3.71802 15.0158 6.98856 9.38121 7.43548 4.30538Z" transform="translate(245.595 41.5658)" fill="#FFDDB8"/>
<path id="Vector_14" d="M 0 0C 1.05733 2.82583 2.2984 4.97696 2.2984 4.97696C 2.2984 4.97696 3.54263 2.83329 4.60098 0L 0 0Z" transform="translate(247.014 51.6046)" fill="#EAE5DC"/>
<path id="Vector_15" d="M 2.05539 5.84817C 2.46784 6.04789 2.98638 6.19346 3.56065 6.32475C 3.70315 5.65166 3.81128 4.97374 3.87027 4.30538C 2.77383 2.89218 2.95656 0.490853 2.73677 0L 0.000276057 0C -0.000188416 0.00103974 -0.0633569 4.82393 2.05539 5.84817Z" transform="translate(249.16 41.5653)" fill="#F1CBA5"/>
<path id="Vector_16" d="M 0 3.55421C 0.857325 4.30651 1.86291 5.05239 3.2737 5.26809C 4.68914 5.05182 5.6911 4.29054 6.55 3.53512C 5.83574 2.11984 6.05664 0.431965 5.86342 0L 0.694945 0C 0.501259 0.432438 0.717426 2.13837 0 3.55421Z" transform="translate(246.033 41.5658)" fill="#CCA281"/>
<g id="Group_5">
<path id="Vector_17" d="M 2.02036 2.16174C 3.13618 2.16174 4.04073 1.67782 4.04073 1.08087C 4.04073 0.483922 3.13618 0 2.02036 0C 0.904548 0 0 0.483922 0 1.08087C 0 1.67782 0.904548 2.16174 2.02036 2.16174Z" transform="matrix(-0.174046 0.984727 -0.983656 -0.180001 256.755 36.2736)" fill="#EABF95"/>
<path id="Vector_18" d="M 1.08087 4.04073C 1.67782 4.04073 2.16174 3.13618 2.16174 2.02037C 2.16174 0.904548 1.67782 0 1.08087 0C 0.483922 0 0 0.904548 0 2.02037C 0 3.13618 0.483922 4.04073 1.08087 4.04073Z" transform="matrix(-0.983656 0.180001 -0.174046 -0.984727 244.686 39.8644)" fill="#EABF95"/>
<path id="Vector_19" d="M 11.7771 0L 6.21175 0.871303C 6.21175 0.871303 4.23969 0.958453 2.63048 1.79091C 1.15336 2.5554 0.0292418 4.05093 0.0146573 4.47325C -0.129422 8.64696 0.708023 14.3645 6.16159 15.1996C 14.9244 13.8581 11.7771 0 11.7771 0Z" transform="translate(243.145 31.3395)" fill="#FFDDB8"/>
<path id="Vector_20" d="M 0 15.1997C 8.76285 13.8582 5.61548 0 5.61548 0L 4.30186 0C 4.66164 5.78871 5.15918 8.8637 3.09367 12.216C 1.45724 14.8724 0 15.1997 0 15.1997Z" transform="translate(249.307 31.3395)" fill="#F1CBA5"/>
<path id="Vector_21" d="M 11.445 0C 11.445 0 8.40725 1.48598 3.87315 1.40677C -0.124199 1.3372 0.0350213 7.98124 0 8.2166C 0 8.2166 1.01348 4.1083 3.7927 3.21412C 6.17462 2.44746 7.66632 3.11421 9.3544 3.27575C 11.233 3.45534 11.8596 2.0049 11.8596 2.0049L 11.445 0Z" transform="translate(243.269 30.722)" fill="#F1CBA5"/>
<path id="Vector_22" d="M 13.724 4.12002L 12.6479 1.42378C 12.6479 1.42378 12.3164 0.640197 11.6073 0C 11.6073 0 8.72988 1.71756 4.19681 1.58164C -0.648023 1.43607 -0.230834 5.91518 0.323654 8.78459C 0.323654 8.78459 0.513159 5.65912 2.90919 3.98987C 4.55445 2.84341 6.56822 2.85617 8.23438 3.19238C 9.82167 3.51272 10.7959 3.29173 11.3917 2.93046C 11.8151 3.49098 12.3508 4.45898 12.5263 5.91462L 13.724 4.12002Z" transform="translate(242.943 30.1547)" fill="#2F3233"/>
<path id="Vector_23" d="M 0.405671 0.825554C 0.629717 0.825554 0.811343 0.640749 0.811343 0.412778C 0.811343 0.184807 0.629717 0 0.405671 0C 0.181625 0 0 0.184807 0 0.412778C 0 0.640749 0.181625 0.825554 0.405671 0.825554Z" transform="translate(255.312 39.2426)" fill="#CC7D2E"/>
<path id="Vector_24" d="M 0.405671 0.825554C 0.629717 0.825554 0.811342 0.640749 0.811342 0.412778C 0.811342 0.184807 0.629717 0 0.405671 0C 0.181625 0 0 0.184807 0 0.412778C 0 0.640749 0.181625 0.825554 0.405671 0.825554Z" transform="translate(242.507 39.2426)" fill="#CC7D2E"/>
</g>
</g>
</g>
</g>
</g>
</g>
</g>
</g>
<g id="Group 7.4">
<g id="Rectangle 10_4" filter="url(#filter2_d)">
<path id="Vector_25" d="M 220.419 0L 3 0C 1.34315 0 0 1.34315 0 3L 0 58.6181C 0 60.275 1.34315 61.6181 3 61.6181L 220.419 61.6181C 222.076 61.6181 223.419 60.275 223.419 58.6181L 223.419 3C 223.419 1.34315 222.076 0 220.419 0Z" transform="translate(240.29 169.297)" fill="white"/>
</g>
<path id="Tyler gorden" d="M 2.076 1.236L -2.68221e-09 1.236L -2.68221e-09 -9.53674e-08L 5.544 -9.53674e-08L 5.544 1.236L 3.456 1.236L 3.456 8.4L 2.076 8.4L 2.076 1.236ZM 8.10412 11.34C 7.72812 11.34 7.38012 11.292 7.06012 11.196C 6.74813 11.1 6.47613 10.956 6.24413 10.764C 6.01212 10.572 5.82813 10.332 5.69213 10.044C 5.56413 9.756 5.49613 9.42 5.48812 9.036L 6.80812 9.036C 6.84012 9.444 6.98013 9.744 7.22812 9.936C 7.48412 10.136 7.78412 10.236 8.12812 10.236C 8.32813 10.236 8.51213 10.216 8.68013 10.176C 8.84812 10.136 8.99212 10.064 9.11213 9.96C 9.23213 9.856 9.32413 9.72 9.38812 9.552C 9.46012 9.384 9.49612 9.168 9.49612 8.904L 9.49612 7.62C 9.32013 7.924 9.07612 8.156 8.76412 8.316C 8.45213 8.468 8.08812 8.544 7.67212 8.544C 7.26412 8.544 6.92013 8.476 6.64012 8.34C 6.36813 8.204 6.15213 8.02 5.99213 7.788C 5.85613 7.58 5.76013 7.348 5.70412 7.092C 5.65613 6.836 5.63212 6.516 5.63212 6.132L 5.63212 2.808L 6.94013 2.808L 6.94013 5.7C 6.94013 5.94 6.96013 6.164 7.00012 6.372C 7.04012 6.58 7.10412 6.76 7.19213 6.912C 7.28813 7.056 7.41212 7.172 7.56413 7.26C 7.72412 7.348 7.92013 7.392 8.15213 7.392C 8.60812 7.392 8.94412 7.232 9.16012 6.912C 9.38413 6.584 9.49612 6.18 9.49612 5.7L 9.49612 2.808L 10.8041 2.808L 10.8041 8.904C 10.8041 9.712 10.5721 10.324 10.1081 10.74C 9.65213 11.14 8.98413 11.34 8.10412 11.34ZM 12.5216 -9.53674e-08L 13.8296 -9.53674e-08L 13.8296 8.4L 12.5216 8.4L 12.5216 -9.53674e-08ZM 17.9082 3.648C 17.5002 3.648 17.1602 3.764 16.8882 3.996C 16.6162 4.228 16.4802 4.572 16.4802 5.028L 19.2642 5.028C 19.2642 4.596 19.1362 4.26 18.8802 4.02C 18.6322 3.772 18.3082 3.648 17.9082 3.648ZM 16.4802 6C 16.4962 6.2 16.5322 6.388 16.5882 6.564C 16.6442 6.74 16.7282 6.896 16.8402 7.032C 16.9602 7.16 17.1122 7.264 17.2962 7.344C 17.4802 7.416 17.7082 7.452 17.9802 7.452C 18.3562 7.452 18.6282 7.38 18.7962 7.236C 18.9642 7.092 19.0882 6.92 19.1682 6.72L 20.4882 6.72C 20.4482 6.96 20.3602 7.192 20.2242 7.416C 20.0962 7.632 19.9242 7.824 19.7082 7.992C 19.4922 8.16 19.2402 8.296 18.9522 8.4C 18.6642 8.496 18.3402 8.544 17.9802 8.544C 17.5082 8.544 17.0962 8.468 16.7442 8.316C 16.4002 8.164 16.1122 7.956 15.8802 7.692C 15.6482 7.428 15.4722 7.116 15.3522 6.756C 15.2402 6.396 15.1842 6.012 15.1842 5.604C 15.1842 5.188 15.2442 4.8 15.3642 4.44C 15.4922 4.08 15.6722 3.768 15.9042 3.504C 16.1362 3.24 16.4242 3.036 16.7682 2.892C 17.1122 2.74 17.5042 2.664 17.9442 2.664C 18.3042 2.664 18.6402 2.728 18.9522 2.856C 19.2722 2.984 19.5482 3.164 19.7802 3.396C 20.0202 3.62 20.2042 3.884 20.3322 4.188C 20.4682 4.492 20.5362 4.824 20.5362 5.184C 20.5362 5.28 20.5322 5.396 20.5242 5.532C 20.5242 5.66 20.5082 5.816 20.4762 6L 16.4802 6ZM 25.5072 4.02C 25.4032 3.996 25.3152 3.98 25.2432 3.972C 25.1792 3.964 25.0952 3.96 24.9912 3.96C 24.4312 3.96 24.0032 4.124 23.7072 4.452C 23.4112 4.772 23.2632 5.284 23.2632 5.988L 23.2632 8.4L 21.9552 8.4L 21.9552 2.808L 23.2632 2.808L 23.2632 3.708C 23.3272 3.58 23.4152 3.46 23.5272 3.348C 23.6472 3.228 23.7832 3.124 23.9352 3.036C 24.0952 2.94 24.2632 2.868 24.4392 2.82C 24.6232 2.764 24.8072 2.736 24.9912 2.736C 25.1992 2.736 25.3712 2.764 25.5072 2.82L 25.5072 4.02ZM 32.0104 3.828C 31.7624 3.828 31.5384 3.876 31.3384 3.972C 31.1384 4.068 30.9664 4.196 30.8224 4.356C 30.6784 4.516 30.5664 4.704 30.4864 4.92C 30.4144 5.136 30.3784 5.364 30.3784 5.604C 30.3784 5.844 30.4144 6.072 30.4864 6.288C 30.5664 6.504 30.6784 6.692 30.8224 6.852C 30.9664 7.012 31.1384 7.14 31.3384 7.236C 31.5384 7.332 31.7624 7.38 32.0104 7.38C 32.2584 7.38 32.4824 7.332 32.6824 7.236C 32.8904 7.14 33.0664 7.012 33.2104 6.852C 33.3544 6.692 33.4664 6.504 33.5464 6.288C 33.6264 6.072 33.6664 5.844 33.6664 5.604C 33.6664 5.364 33.6264 5.136 33.5464 4.92C 33.4664 4.704 33.3544 4.516 33.2104 4.356C 33.0664 4.196 32.8904 4.068 32.6824 3.972C 32.4824 3.876 32.2584 3.828 32.0104 3.828ZM 34.9984 8.676C 34.9984 9.148 34.9264 9.552 34.7824 9.888C 34.6464 10.224 34.4504 10.5 34.1944 10.716C 33.9384 10.932 33.6264 11.092 33.2584 11.196C 32.8904 11.3 32.4704 11.352 31.9984 11.352C 31.5264 11.352 31.1184 11.284 30.7744 11.148C 30.4304 11.02 30.1424 10.848 29.9104 10.632C 29.6784 10.416 29.4984 10.168 29.3704 9.888C 29.2504 9.616 29.1824 9.332 29.1664 9.036L 30.4864 9.036C 30.5184 9.34 30.6584 9.604 30.9064 9.828C 31.1544 10.06 31.5144 10.176 31.9864 10.176C 32.5144 10.176 32.9264 10.056 33.2224 9.816C 33.5184 9.584 33.6664 9.204 33.6664 8.676L 33.6664 7.644C 33.4904 7.924 33.2384 8.144 32.9104 8.304C 32.5904 8.464 32.2664 8.544 31.9384 8.544C 31.5144 8.544 31.1264 8.468 30.7744 8.316C 30.4224 8.156 30.1184 7.94 29.8624 7.668C 29.6144 7.396 29.4184 7.084 29.2744 6.732C 29.1384 6.38 29.0704 6.004 29.0704 5.604C 29.0704 5.212 29.1384 4.84 29.2744 4.488C 29.4184 4.128 29.6144 3.812 29.8624 3.54C 30.1184 3.268 30.4224 3.056 30.7744 2.904C 31.1264 2.744 31.5144 2.664 31.9384 2.664C 32.2664 2.664 32.5904 2.744 32.9104 2.904C 33.2384 3.064 33.4904 3.284 33.6664 3.564L 33.6664 2.808L 34.9744 2.808L 34.9984 8.676ZM 39.2057 8.544C 38.7577 8.544 38.3537 8.468 37.9937 8.316C 37.6337 8.156 37.3257 7.94 37.0697 7.668C 36.8137 7.396 36.6137 7.084 36.4697 6.732C 36.3337 6.38 36.2657 6.004 36.2657 5.604C 36.2657 5.212 36.3337 4.84 36.4697 4.488C 36.6137 4.128 36.8137 3.812 37.0697 3.54C 37.3257 3.268 37.6337 3.056 37.9937 2.904C 38.3537 2.744 38.7577 2.664 39.2057 2.664C 39.6537 2.664 40.0577 2.744 40.4177 2.904C 40.7857 3.056 41.0977 3.268 41.3537 3.54C 41.6177 3.812 41.8177 4.128 41.9537 4.488C 42.0977 4.84 42.1697 5.212 42.1697 5.604C 42.1697 6.004 42.0977 6.38 41.9537 6.732C 41.8177 7.084 41.6177 7.396 41.3537 7.668C 41.0977 7.94 40.7857 8.156 40.4177 8.316C 40.0577 8.468 39.6537 8.544 39.2057 8.544ZM 39.2057 7.38C 39.4537 7.38 39.6777 7.332 39.8777 7.236C 40.0857 7.14 40.2617 7.012 40.4057 6.852C 40.5497 6.692 40.6617 6.504 40.7417 6.288C 40.8217 6.072 40.8617 5.844 40.8617 5.604C 40.8617 5.364 40.8217 5.136 40.7417 4.92C 40.6617 4.704 40.5497 4.516 40.4057 4.356C 40.2617 4.196 40.0857 4.068 39.8777 3.972C 39.6777 3.876 39.4537 3.828 39.2057 3.828C 38.9577 3.828 38.7337 3.876 38.5337 3.972C 38.3337 4.068 38.1617 4.196 38.0177 4.356C 37.8737 4.516 37.7617 4.704 37.6817 4.92C 37.6097 5.136 37.5737 5.364 37.5737 5.604C 37.5737 5.844 37.6097 6.072 37.6817 6.288C 37.7617 6.504 37.8737 6.692 38.0177 6.852C 38.1617 7.012 38.3337 7.14 38.5337 7.236C 38.7337 7.332 38.9577 7.38 39.2057 7.38ZM 47.058 4.02C 46.954 3.996 46.866 3.98 46.794 3.972C 46.73 3.964 46.646 3.96 46.542 3.96C 45.982 3.96 45.554 4.124 45.258 4.452C 44.962 4.772 44.814 5.284 44.814 5.988L 44.814 8.4L 43.506 8.4L 43.506 2.808L 44.814 2.808L 44.814 3.708C 44.878 3.58 44.966 3.46 45.078 3.348C 45.198 3.228 45.334 3.124 45.486 3.036C 45.646 2.94 45.814 2.868 45.99 2.82C 46.174 2.764 46.358 2.736 46.542 2.736C 46.75 2.736 46.922 2.764 47.058 2.82L 47.058 4.02ZM 52.0414 7.644C 51.8654 7.924 51.6134 8.144 51.2854 8.304C 50.9654 8.464 50.6414 8.544 50.3134 8.544C 49.8894 8.544 49.5014 8.468 49.1494 8.316C 48.7974 8.156 48.4934 7.94 48.2374 7.668C 47.9894 7.396 47.7934 7.084 47.6494 6.732C 47.5134 6.38 47.4454 6.004 47.4454 5.604C 47.4454 5.212 47.5134 4.84 47.6494 4.488C 47.7934 4.128 47.9894 3.812 48.2374 3.54C 48.4934 3.268 48.7974 3.056 49.1494 2.904C 49.5014 2.744 49.8894 2.664 50.3134 2.664C 50.6414 2.664 50.9654 2.744 51.2854 2.904C 51.6134 3.064 51.8654 3.284 52.0414 3.564L 52.0414 -9.53674e-08L 53.3494 -9.53674e-08L 53.3494 8.4L 52.0414 8.4L 52.0414 7.644ZM 50.3854 7.38C 50.6334 7.38 50.8574 7.332 51.0574 7.236C 51.2654 7.14 51.4414 7.012 51.5854 6.852C 51.7294 6.692 51.8414 6.504 51.9214 6.288C 52.0014 6.072 52.0414 5.844 52.0414 5.604C 52.0414 5.364 52.0014 5.136 51.9214 4.92C 51.8414 4.704 51.7294 4.516 51.5854 4.356C 51.4414 4.196 51.2654 4.068 51.0574 3.972C 50.8574 3.876 50.6334 3.828 50.3854 3.828C 50.1374 3.828 49.9134 3.876 49.7134 3.972C 49.5134 4.068 49.3414 4.196 49.1974 4.356C 49.0534 4.516 48.9414 4.704 48.8614 4.92C 48.7894 5.136 48.7534 5.364 48.7534 5.604C 48.7534 5.844 48.7894 6.072 48.8614 6.288C 48.9414 6.504 49.0534 6.692 49.1974 6.852C 49.3414 7.012 49.5134 7.14 49.7134 7.236C 49.9134 7.332 50.1374 7.38 50.3854 7.38ZM 57.4238 3.648C 57.0158 3.648 56.6758 3.764 56.4038 3.996C 56.1318 4.228 55.9958 4.572 55.9958 5.028L 58.7798 5.028C 58.7798 4.596 58.6518 4.26 58.3958 4.02C 58.1478 3.772 57.8238 3.648 57.4238 3.648ZM 55.9958 6C 56.0118 6.2 56.0478 6.388 56.1038 6.564C 56.1598 6.74 56.2438 6.896 56.3558 7.032C 56.4758 7.16 56.6278 7.264 56.8118 7.344C 56.9958 7.416 57.2238 7.452 57.4958 7.452C 57.8718 7.452 58.1438 7.38 58.3118 7.236C 58.4798 7.092 58.6038 6.92 58.6838 6.72L 60.0038 6.72C 59.9638 6.96 59.8758 7.192 59.7398 7.416C 59.6118 7.632 59.4398 7.824 59.2238 7.992C 59.0078 8.16 58.7558 8.296 58.4678 8.4C 58.1798 8.496 57.8558 8.544 57.4958 8.544C 57.0238 8.544 56.6118 8.468 56.2598 8.316C 55.9158 8.164 55.6278 7.956 55.3958 7.692C 55.1638 7.428 54.9878 7.116 54.8678 6.756C 54.7558 6.396 54.6998 6.012 54.6998 5.604C 54.6998 5.188 54.7598 4.8 54.8798 4.44C 55.0078 4.08 55.1878 3.768 55.4198 3.504C 55.6518 3.24 55.9398 3.036 56.2838 2.892C 56.6278 2.74 57.0198 2.664 57.4598 2.664C 57.8198 2.664 58.1558 2.728 58.4678 2.856C 58.7878 2.984 59.0638 3.164 59.2958 3.396C 59.5358 3.62 59.7198 3.884 59.8478 4.188C 59.9838 4.492 60.0518 4.824 60.0518 5.184C 60.0518 5.28 60.0478 5.396 60.0398 5.532C 60.0398 5.66 60.0238 5.816 59.9918 6L 55.9958 6ZM 61.4708 2.808L 62.7788 2.808L 62.7788 3.588C 62.9548 3.284 63.1988 3.056 63.5108 2.904C 63.8228 2.744 64.1868 2.664 64.6028 2.664C 65.0108 2.664 65.3508 2.732 65.6228 2.868C 65.9028 3.004 66.1228 3.188 66.2828 3.42C 66.4188 3.628 66.5108 3.86 66.5588 4.116C 66.6148 4.372 66.6428 4.692 66.6428 5.076L 66.6428 8.4L 65.3348 8.4L 65.3348 5.508C 65.3348 5.268 65.3148 5.044 65.2748 4.836C 65.2348 4.628 65.1668 4.452 65.0708 4.308C 64.9828 4.156 64.8588 4.036 64.6988 3.948C 64.5468 3.86 64.3548 3.816 64.1228 3.816C 63.6668 3.816 63.3268 3.98 63.1028 4.308C 62.8868 4.628 62.7788 5.028 62.7788 5.508L 62.7788 8.4L 61.4708 8.4L 61.4708 2.808Z" transform="translate(314.41 188.897)" fill="#424B59"/>
<path id="Customer" d="M 5.95 5C 5.66 5.87 4.74 6.5 3.78 6.5C 1.97 6.5 0.93 5.19 0.93 3.65C 0.93 2.18 1.93 0.82 3.65 0.82C 4.95 0.82 5.78 1.59 5.99 2.61L 6.95 2.61C 6.69 1.15 5.57 -2.6226e-08 3.54 -2.6226e-08C 1.35 -2.6226e-08 -3.57628e-09 1.75 -3.57628e-09 3.65C -3.57628e-09 5.61 1.38 7.32 3.67 7.32C 5.34 7.32 6.6 6.31 6.95 5L 5.95 5ZM 11.3439 2.62L 11.3439 4.95C 11.3439 5.77 10.9239 6.5 10.0439 6.5C 9.20391 6.5 8.90391 5.86 8.90391 5.02L 8.90391 2.62L 8.03391 2.62L 8.03391 5.3C 8.03391 5.93 8.12391 6.34 8.37391 6.68C 8.64391 7.05 9.11391 7.27 9.7439 7.27C 10.5039 7.27 11.0739 6.9 11.3439 6.35L 11.3439 7.16L 12.2139 7.16L 12.2139 2.62L 11.3439 2.62ZM 15.6982 4.63C 14.8582 4.36 14.3882 4.29 14.3882 3.83C 14.3882 3.42 14.7482 3.2 15.2282 3.2C 15.8282 3.2 16.1482 3.5 16.1482 4.03L 16.9882 4.03C 16.9882 3.12 16.2282 2.5 15.2382 2.5C 14.2982 2.5 13.5482 2.96 13.5482 3.81C 13.5482 4.63 14.0882 4.84 14.7782 5.06C 15.6882 5.37 16.2282 5.42 16.2282 5.93C 16.2282 6.38 15.8682 6.58 15.3182 6.58C 14.7082 6.58 14.2482 6.32 14.2482 5.63L 13.3982 5.63C 13.3982 6.73 14.2782 7.27 15.2782 7.27C 16.2982 7.27 17.0582 6.82 17.0582 5.91C 17.0582 5.05 16.3882 4.85 15.6982 4.63ZM 20.5939 6.39C 20.4639 6.41 20.1839 6.43 20.0039 6.43C 19.5639 6.43 19.2539 6.32 19.2539 5.44L 19.2539 3.35L 20.4339 3.35L 20.4339 2.62L 19.2539 2.62L 19.2539 1.09L 18.3839 1.09L 18.3839 2.62L 17.5439 2.62L 17.5439 3.35L 18.3839 3.35L 18.3839 5.63C 18.3839 7.12 19.2539 7.22 19.8139 7.22C 20.1039 7.22 20.4239 7.19 20.5939 7.16L 20.5939 6.39ZM 23.4933 7.27C 24.9533 7.27 25.8933 6.17 25.8933 4.89C 25.8933 3.6 24.9533 2.5 23.4933 2.5C 22.0533 2.5 21.1133 3.6 21.1133 4.89C 21.1133 6.17 22.0533 7.27 23.4933 7.27ZM 23.4933 6.49C 22.5733 6.49 21.9733 5.76 21.9733 4.89C 21.9733 4.02 22.5733 3.28 23.4933 3.28C 24.4333 3.28 25.0333 4.02 25.0333 4.89C 25.0333 5.76 24.4333 6.49 23.4933 6.49ZM 33.829 7.16L 33.829 4.29C 33.829 3.29 33.419 2.5 32.209 2.5C 31.499 2.5 30.939 2.95 30.749 3.47C 30.579 2.89 30.129 2.5 29.289 2.5C 28.619 2.5 28.119 2.93 27.949 3.43L 27.949 2.62L 27.079 2.62L 27.079 7.16L 27.949 7.16L 27.949 4.85C 27.949 3.79 28.409 3.27 29.069 3.27C 29.679 3.27 30.019 3.68 30.019 4.6L 30.019 7.16L 30.889 7.16L 30.889 4.85C 30.889 3.79 31.329 3.27 31.999 3.27C 32.619 3.27 32.959 3.71 32.959 4.55L 32.959 7.16L 33.829 7.16ZM 37.1912 3.17C 37.9212 3.17 38.4712 3.67 38.4712 4.46L 35.8412 4.46C 35.8612 3.64 36.4112 3.17 37.1912 3.17ZM 39.2712 5.12C 39.3112 4.87 39.3112 4.68 39.3112 4.55C 39.3112 3.39 38.3912 2.5 37.2112 2.5C 35.7812 2.5 34.9712 3.52 34.9712 4.89C 34.9712 6.2 35.7112 7.27 37.2412 7.27C 38.3812 7.27 39.1212 6.59 39.2712 5.82L 38.3912 5.82C 38.2512 6.21 37.9212 6.54 37.2412 6.54C 36.2412 6.54 35.8712 5.89 35.8312 5.12L 39.2712 5.12ZM 43.3851 2.62C 43.2651 2.57 43.1251 2.55 42.9551 2.55C 42.3151 2.55 41.6851 2.94 41.4451 3.51L 41.4451 2.62L 40.5751 2.62L 40.5751 7.16L 41.4451 7.16L 41.4451 5.17C 41.4451 4.08 41.9451 3.37 42.9551 3.37C 43.1151 3.37 43.2051 3.38 43.3851 3.42L 43.3851 2.62Z" transform="translate(314.7 205.137)" fill="#424B59"/>
<g id="Group_6">
<path id="Ellipse_5" d="M 18.9101 37.811C 29.3539 37.811 37.8202 29.3467 37.8202 18.9055C 37.8202 8.46428 29.3539 0 18.9101 0C 8.46634 0 0 8.46428 0 18.9055C 0 29.3467 8.46634 37.811 18.9101 37.811Z" transform="translate(263.402 181.201)" fill="#DCECF7"/>
<mask id="mask2" mask-type="alpha" maskUnits="userSpaceOnUse" x="263" y="181" width="39" height="39">
<g id="mask2">
<path id="Ellipse_6" d="M 18.9101 37.811C 29.3539 37.811 37.8202 29.3467 37.8202 18.9055C 37.8202 8.46428 29.3539 0 18.9101 0C 8.46634 0 0 8.46428 0 18.9055C 0 29.3467 8.46634 37.811 18.9101 37.811Z" transform="translate(263.402 181.201)" fill="white"/>
</g>
</mask>
<g mask="url(#mask2)">
<g id="Group_7">
<g id="001-man-1">
<g id="Group_7_2">
<g id="Group_8">
<path id="Vector_25_2" d="M 0 0.0319053L 0 10.3491C 1.45473 10.4595 2.97436 10.5305 4.47838 10.5305C 6.05348 10.5305 7.66394 10.4526 9.20793 10.3332L 9.22399 0L 0 0.0319053Z" transform="translate(277.675 208.481)" fill="#EAEAE1"/>
<path id="Vector_26" d="M 27.3171 9.24657C 26.2878 5.68278 21.1214 6.0781 18.8915 5.05467C 16.6617 4.03124 17.0098 0.597427 16.727 0L 11.2873 0C 11.005 0.597427 11.3532 4.03171 9.12282 5.05467C 6.893 6.0781 1.72611 5.68287 0.697275 9.24657C 0.129689 11.2123 0.156642 11.8135 0 13.9909C 0 13.9909 7.08906 15.4245 13.8471 15.4245C 20.6052 15.4245 28.0149 13.9909 28.0149 13.9909C 27.8577 11.8129 27.8846 11.2123 27.3171 9.24657Z" transform="translate(268.306 203.587)" fill="white"/>
<path id="Vector_27" d="M 2.64234 8.35369L 2.69578 7.59976L 2.13438 0L 0.655276 0L 0 7.60023L 0.0539979 8.36162C 0.434296 8.36955 0.814595 8.37493 1.19434 8.37493C 1.67479 8.37493 2.15829 8.36691 2.64234 8.35369Z" transform="translate(280.959 210.637)" fill="#474F59"/>
<path id="Vector_28" d="M 27.3172 4.35266C 26.2879 0.78886 21.1215 1.18419 18.8916 0.160754C 18.7863 0.112518 18.6867 0.0589026 18.5928 0C 18.5928 0 15.11 4.91931 14.0656 4.91931C 13.0213 4.91931 9.36928 0.0318103 9.36928 0.0318103L 9.36771 0.0318103C 9.28934 0.0779696 9.20839 0.12092 9.12282 0.160188C 6.893 1.18362 1.72611 0.788388 0.697275 4.35209C 0.129689 6.31778 0.156642 6.91898 0 9.09639C 0 9.09639 7.08906 10.53 13.8471 10.53C 20.6052 10.53 28.0149 9.09639 28.0149 9.09639C 27.8578 6.91898 27.8847 6.31834 27.3172 4.35266Z" transform="translate(268.306 208.481)" fill="#8F39FF"/>
<path id="Vector_29" d="M 9.76979 4.35266C 8.7405 0.78886 3.57416 1.18419 1.34424 0.160754C 1.23892 0.112518 1.13933 0.0589026 1.04545 0C 1.04545 0 0.609677 0.615455 0 1.4113C 2.50323 1.96153 6.05505 2.24963 6.88885 5.13746C 7.42948 7.00932 7.43049 7.64384 7.56489 9.58092C 9.34029 9.31511 10.4672 9.09705 10.4672 9.09705C 10.3104 6.91898 10.3374 6.31834 9.76979 4.35266Z" transform="translate(285.853 208.481)" fill="#7A38D1"/>
<path id="Vector_30" d="M 4.0151 0.12413L 0 0L 1.86826 2.917C 2.25844 2.44955 2.6392 1.96625 2.96974 1.53543L 4.0151 0.12413Z" transform="translate(282.883 208.357)" fill="#C6C5AF"/>
<path id="Vector_31" d="M 1.33908 0.0509727C 1.25868 0.0339816 1.17976 0.0169911 1.10148 0C 0.771489 0.43082 0.390729 0.914123 0 1.38157L 0.324269 1.88772L 1.33908 0.0509727Z" transform="translate(284.752 209.892)" fill="#7A38D1"/>
<path id="Vector_32" opacity="0.3" d="M 4.05664 0L 0 0.155941C 0 0.155941 1.03142 1.53647 2.15459 2.82997L 4.05664 0Z" transform="translate(277.675 208.357)" fill="#C6C5AF"/>
<path id="Vector_33" d="M 2.15459 2.67403C 1.03133 1.38053 0 0 0 0L 1.7562 3.26721L 2.15459 2.67403Z" transform="translate(277.676 208.513)" fill="#7A38D1"/>
<path id="Vector_34" d="M 2.50323 0L 0.176395 0L 0 0.583645L 2.68378 0.599503L 2.50323 0Z" transform="translate(280.966 208.303)" fill="#C6C5AF"/>
<path id="Vector_35" d="M 0.237688 1.46218L 1.04545 0C 1.04545 0 0.609678 0.615455 0 1.4113C 0.0779058 1.42877 0.15729 1.44519 0.237688 1.46218Z" transform="translate(285.853 208.481)" fill="#7A38D1"/>
<path id="Vector_36" d="M 0 0.0338887L 1.47347 0L 1.50356 0.424401L 0 0.0338887Z" transform="translate(281.619 210.636)" fill="#3D454F"/>
<path id="Vector_37" d="M 0 0.002077L 3.4813 0L 3.47502 1.01862L 2.49705 2.11795L 1.05477 2.11795L 0.00673812 1.01862L 0 0.002077Z" transform="translate(280.563 208.552)" fill="#474F59"/>
<path id="Vector_38" d="M 4.05664 1.37411L 1.09317 0C 1.09317 0 0.78035 0.454701 0 1.53015L 1.77697 4.27629L 4.05664 1.37411Z" transform="translate(277.675 206.983)" fill="white"/>
<path id="Vector_39" d="M 0 1.37411L 2.87836 0C 2.87836 0 3.23475 0.422891 4.0151 1.49834L 2.19456 4.27638L 0 1.37411Z" transform="translate(282.883 206.983)" fill="white"/>
<path id="Vector_40" opacity="0.3" d="M 3.77437 1.49834C 2.99411 0.422891 2.63763 0 2.63763 0L 0 1.25904C 0.297316 1.78275 0.685368 2.2114 1.19222 2.4438C 1.63999 2.64911 2.20647 2.79768 2.83424 2.93248L 3.77437 1.49834Z" transform="translate(283.124 206.983)" fill="#E0DBD3"/>
<path id="Vector_41" d="M 0.564581 10.1762C 0.564581 10.1762 -0.979964 4.8685 1.04032 4.4828C 1.04032 4.4828 1.2769 -0.676366 9.21582 0.209721C 9.21582 0.209721 11.839 0.649508 12.709 0.132223C 13.5791 -0.385063 16.1094 0.455904 15.0655 5.53437C 15.0655 5.53437 16.3941 5.60441 15.0416 10.3259L 11.538 14.6728L 3.45651 14.6728L 0.564581 10.1762Z" transform="translate(274.528 188.903)" fill="#343D44"/>
<path id="Vector_42" d="M 2.01735 2.14838C 3.1315 2.14838 4.0347 1.66745 4.0347 1.07419C 4.0347 0.480931 3.1315 0 2.01735 0C 0.903198 0 0 0.480931 0 1.07419C 0 1.66745 0.903198 2.14838 2.01735 2.14838Z" transform="matrix(-0.1732 0.984876 -0.983495 -0.180877 290.092 198.301)" fill="#6E5D4A"/>
<path id="Vector_43" d="M 1.07419 4.0347C 1.66745 4.0347 2.14838 3.1315 2.14838 2.01735C 2.14838 0.903199 1.66745 0 1.07419 0C 0.480931 0 0 0.903199 0 2.01735C 0 3.1315 0.480931 4.0347 1.07419 4.0347Z" transform="matrix(-0.983495 0.180877 -0.1732 -0.984876 277.33 201.887)" fill="#6E5D4A"/>
<path id="Vector_44" d="M 12.4332 0L 6.5577 0.870135C 6.5577 0.870135 4.47566 0.957168 2.77715 1.78851C 1.21811 2.55197 0.031059 4.04549 0.0154593 4.46725C -0.136568 8.63537 0.747534 14.3452 6.50481 15.1792C 15.7558 13.8397 12.4332 0 12.4332 0Z" transform="translate(275.802 193.374)" fill="#A68866"/>
<path id="Vector_45" d="M 0 15.1793C 9.25048 13.8397 5.92795 0 5.92795 0L 4.54115 0C 4.92089 5.78095 5.44648 8.85182 3.26595 12.1996C 1.53827 14.8525 0 15.1793 0 15.1793Z" transform="translate(282.308 193.374)" fill="#846E56"/>
<path id="Vector_46" d="M 12.1947 0C 12.1947 0 8.98797 1.48399 4.20137 1.40488C -0.0180926 1.33541 0.0368299 4.81699 0 5.05203C 0 5.05203 0.576909 3.56597 3.32041 3.08521C 5.8133 2.64854 7.21672 3.33347 8.78766 4.20889C 10.3592 5.08431 11.197 4.8387 11.8834 4.58345C 12.3732 4.40203 13.1385 0.805946 12.1947 0Z" transform="translate(275.819 192.757)" fill="#846E56"/>
</g>
</g>
</g>
</g>
</g>
</g>
</g>
<g id="Group 7.6">
<g id="Rectangle 10.3" filter="url(#filter3_d)">
<path id="Vector_47" d="M 224.622 0L 3 0C 1.34315 0 0 1.34315 0 3L 0 58.6181C 0 60.275 1.34315 61.6181 3 61.6181L 224.622 61.6181C 226.279 61.6181 227.622 60.275 227.622 58.6181L 227.622 3C 227.622 1.34315 226.279 0 224.622 0Z" transform="translate(163.29 91.297)" fill="white"/>
</g>
<path id="David fresner" d="M 2.724 0.204C 3.42 0.204 4.036 0.324 4.572 0.564C 5.116 0.804 5.572 1.12 5.94 1.512C 6.316 1.904 6.6 2.352 6.792 2.856C 6.984 3.36 7.08 3.876 7.08 4.404C 7.08 4.932 6.984 5.448 6.792 5.952C 6.6 6.456 6.316 6.904 5.94 7.296C 5.572 7.688 5.116 8.004 4.572 8.244C 4.036 8.484 3.42 8.604 2.724 8.604L -1.28746e-08 8.604L -1.28746e-08 0.204L 2.724 0.204ZM 1.38 1.44L 1.38 7.368L 2.724 7.368C 3.188 7.368 3.604 7.284 3.972 7.116C 4.34 6.948 4.648 6.728 4.896 6.456C 5.144 6.176 5.332 5.86 5.46 5.508C 5.596 5.148 5.664 4.78 5.664 4.404C 5.664 4.028 5.596 3.664 5.46 3.312C 5.332 2.952 5.144 2.636 4.896 2.364C 4.648 2.084 4.34 1.86 3.972 1.692C 3.604 1.524 3.188 1.44 2.724 1.44L 1.38 1.44ZM 13.8981 3.012L 13.8981 8.604L 12.5901 8.604L 12.5901 7.848C 12.4141 8.128 12.1621 8.348 11.8341 8.508C 11.5141 8.668 11.1901 8.748 10.8621 8.748C 10.4381 8.748 10.0501 8.672 9.6981 8.52C 9.3461 8.36 9.04206 8.144 8.78606 7.872C 8.53806 7.6 8.34206 7.288 8.19806 6.936C 8.06206 6.584 7.99406 6.208 7.99406 5.808C 7.99406 5.416 8.06206 5.044 8.19806 4.692C 8.34206 4.332 8.53806 4.016 8.78606 3.744C 9.04206 3.472 9.3461 3.26 9.6981 3.108C 10.0501 2.948 10.4381 2.868 10.8621 2.868C 11.1901 2.868 11.5141 2.948 11.8341 3.108C 12.1621 3.268 12.4141 3.488 12.5901 3.768L 12.5901 3.012L 13.8981 3.012ZM 10.9341 7.584C 11.1821 7.584 11.4061 7.536 11.6061 7.44C 11.8141 7.344 11.9901 7.216 12.1341 7.056C 12.2781 6.896 12.3901 6.708 12.4701 6.492C 12.5501 6.276 12.5901 6.048 12.5901 5.808C 12.5901 5.568 12.5501 5.34 12.4701 5.124C 12.3901 4.908 12.2781 4.72 12.1341 4.56C 11.9901 4.4 11.8141 4.272 11.6061 4.176C 11.4061 4.08 11.1821 4.032 10.9341 4.032C 10.6861 4.032 10.4621 4.08 10.2621 4.176C 10.0621 4.272 9.8901 4.4 9.7461 4.56C 9.6021 4.72 9.4901 4.908 9.4101 5.124C 9.3381 5.34 9.3021 5.568 9.3021 5.808C 9.3021 6.048 9.3381 6.276 9.4101 6.492C 9.4901 6.708 9.6021 6.896 9.7461 7.056C 9.8901 7.216 10.0621 7.344 10.2621 7.44C 10.4621 7.536 10.6861 7.584 10.9341 7.584ZM 16.1845 3.012L 17.7205 6.732L 19.2805 3.012L 20.6845 3.012L 18.1525 8.604L 17.2765 8.604L 14.7805 3.012L 16.1845 3.012ZM 21.5742 3.012L 22.8822 3.012L 22.8822 8.604L 21.5742 8.604L 21.5742 3.012ZM 21.2622 0.972C 21.2622 0.7 21.3542 0.472 21.5382 0.288C 21.7302 0.096 21.9582 -9.15527e-08 22.2222 -9.15527e-08C 22.4942 -9.15527e-08 22.7222 0.096 22.9062 0.288C 23.0982 0.472 23.1942 0.7 23.1942 0.972C 23.1942 1.236 23.0982 1.464 22.9062 1.656C 22.7222 1.84 22.4942 1.932 22.2222 1.932C 21.9582 1.932 21.7302 1.84 21.5382 1.656C 21.3542 1.464 21.2622 1.236 21.2622 0.972ZM 28.8088 7.848C 28.6328 8.128 28.3808 8.348 28.0528 8.508C 27.7328 8.668 27.4088 8.748 27.0808 8.748C 26.6568 8.748 26.2688 8.672 25.9168 8.52C 25.5648 8.36 25.2608 8.144 25.0048 7.872C 24.7568 7.6 24.5608 7.288 24.4168 6.936C 24.2808 6.584 24.2128 6.208 24.2128 5.808C 24.2128 5.416 24.2808 5.044 24.4168 4.692C 24.5608 4.332 24.7568 4.016 25.0048 3.744C 25.2608 3.472 25.5648 3.26 25.9168 3.108C 26.2688 2.948 26.6568 2.868 27.0808 2.868C 27.4088 2.868 27.7328 2.948 28.0528 3.108C 28.3808 3.268 28.6328 3.488 28.8088 3.768L 28.8088 0.204L 30.1168 0.204L 30.1168 8.604L 28.8088 8.604L 28.8088 7.848ZM 27.1528 7.584C 27.4008 7.584 27.6248 7.536 27.8248 7.44C 28.0328 7.344 28.2088 7.216 28.3528 7.056C 28.4968 6.896 28.6088 6.708 28.6888 6.492C 28.7688 6.276 28.8088 6.048 28.8088 5.808C 28.8088 5.568 28.7688 5.34 28.6888 5.124C 28.6088 4.908 28.4968 4.72 28.3528 4.56C 28.2088 4.4 28.0328 4.272 27.8248 4.176C 27.6248 4.08 27.4008 4.032 27.1528 4.032C 26.9048 4.032 26.6808 4.08 26.4808 4.176C 26.2808 4.272 26.1088 4.4 25.9648 4.56C 25.8208 4.72 25.7088 4.908 25.6288 5.124C 25.5568 5.34 25.5208 5.568 25.5208 5.808C 25.5208 6.048 25.5568 6.276 25.6288 6.492C 25.7088 6.708 25.8208 6.896 25.9648 7.056C 26.1088 7.216 26.2808 7.344 26.4808 7.44C 26.6808 7.536 26.9048 7.584 27.1528 7.584ZM 38.1393 1.38C 38.0513 1.356 37.9593 1.336 37.8633 1.32C 37.7673 1.304 37.6673 1.296 37.5633 1.296C 37.4593 1.296 37.3553 1.3 37.2513 1.308C 37.1473 1.316 37.0513 1.348 36.9633 1.404C 36.8833 1.46 36.8153 1.548 36.7593 1.668C 36.7033 1.788 36.6753 1.956 36.6753 2.172L 36.6753 3.012L 38.1393 3.012L 38.1393 4.104L 36.6753 4.104L 36.6753 8.604L 35.3673 8.604L 35.3673 4.104L 34.2273 4.104L 34.2273 3.012L 35.3673 3.012L 35.3673 2.316C 35.3673 1.78 35.4393 1.368 35.5833 1.08C 35.7353 0.784 35.9153 0.568 36.1233 0.432C 36.3393 0.288 36.5633 0.204 36.7953 0.18C 37.0273 0.148 37.2233 0.132 37.3833 0.132C 37.5513 0.132 37.6993 0.148 37.8273 0.18C 37.9633 0.204 38.0673 0.236 38.1393 0.276L 38.1393 1.38ZM 42.7278 4.224C 42.6238 4.2 42.5358 4.184 42.4638 4.176C 42.3998 4.168 42.3158 4.164 42.2118 4.164C 41.6518 4.164 41.2238 4.328 40.9278 4.656C 40.6318 4.976 40.4838 5.488 40.4838 6.192L 40.4838 8.604L 39.1758 8.604L 39.1758 3.012L 40.4838 3.012L 40.4838 3.912C 40.5478 3.784 40.6358 3.664 40.7478 3.552C 40.8678 3.432 41.0038 3.328 41.1558 3.24C 41.3158 3.144 41.4838 3.072 41.6598 3.024C 41.8438 2.968 42.0278 2.94 42.2118 2.94C 42.4198 2.94 42.5918 2.968 42.7278 3.024L 42.7278 4.224ZM 45.9217 3.852C 45.5137 3.852 45.1737 3.968 44.9017 4.2C 44.6298 4.432 44.4938 4.776 44.4938 5.232L 47.2777 5.232C 47.2777 4.8 47.1497 4.464 46.8937 4.224C 46.6457 3.976 46.3217 3.852 45.9217 3.852ZM 44.4938 6.204C 44.5097 6.404 44.5458 6.592 44.6018 6.768C 44.6577 6.944 44.7417 7.1 44.8538 7.236C 44.9737 7.364 45.1257 7.468 45.3098 7.548C 45.4937 7.62 45.7218 7.656 45.9938 7.656C 46.3697 7.656 46.6417 7.584 46.8097 7.44C 46.9777 7.296 47.1017 7.124 47.1818 6.924L 48.5017 6.924C 48.4617 7.164 48.3737 7.396 48.2378 7.62C 48.1098 7.836 47.9378 8.028 47.7217 8.196C 47.5057 8.364 47.2537 8.5 46.9658 8.604C 46.6778 8.7 46.3538 8.748 45.9938 8.748C 45.5218 8.748 45.1098 8.672 44.7578 8.52C 44.4137 8.368 44.1257 8.16 43.8937 7.896C 43.6617 7.632 43.4858 7.32 43.3658 6.96C 43.2537 6.6 43.1977 6.216 43.1977 5.808C 43.1977 5.392 43.2578 5.004 43.3777 4.644C 43.5058 4.284 43.6858 3.972 43.9178 3.708C 44.1498 3.444 44.4377 3.24 44.7818 3.096C 45.1257 2.944 45.5178 2.868 45.9578 2.868C 46.3178 2.868 46.6538 2.932 46.9658 3.06C 47.2858 3.188 47.5618 3.368 47.7938 3.6C 48.0337 3.824 48.2178 4.088 48.3458 4.392C 48.4817 4.696 48.5498 5.028 48.5498 5.388C 48.5498 5.484 48.5457 5.6 48.5378 5.736C 48.5378 5.864 48.5217 6.02 48.4898 6.204L 44.4938 6.204ZM 52.5127 5.448C 52.7047 5.52 52.8927 5.596 53.0767 5.676C 53.2608 5.756 53.4248 5.856 53.5687 5.976C 53.7127 6.096 53.8247 6.24 53.9047 6.408C 53.9927 6.576 54.0368 6.788 54.0368 7.044C 54.0368 7.332 53.9768 7.584 53.8568 7.8C 53.7448 8.016 53.5847 8.196 53.3767 8.34C 53.1768 8.476 52.9408 8.576 52.6688 8.64C 52.3968 8.712 52.1087 8.748 51.8047 8.748C 51.5007 8.748 51.2127 8.704 50.9407 8.616C 50.6688 8.528 50.4248 8.4 50.2088 8.232C 50.0007 8.056 49.8328 7.844 49.7047 7.596C 49.5848 7.34 49.5247 7.048 49.5247 6.72L 50.7968 6.72C 50.7968 7.088 50.8967 7.348 51.0967 7.5C 51.3048 7.644 51.5648 7.716 51.8767 7.716C 52.1327 7.716 52.3488 7.668 52.5248 7.572C 52.7007 7.476 52.7887 7.308 52.7887 7.068C 52.7887 6.94 52.7528 6.836 52.6807 6.756C 52.6088 6.676 52.5008 6.604 52.3568 6.54C 52.2127 6.468 52.0328 6.396 51.8167 6.324C 51.6008 6.252 51.3448 6.16 51.0488 6.048C 50.8567 5.976 50.6767 5.9 50.5088 5.82C 50.3487 5.732 50.2088 5.632 50.0887 5.52C 49.9687 5.408 49.8768 5.268 49.8127 5.1C 49.7488 4.932 49.7168 4.728 49.7168 4.488C 49.7168 4.224 49.7728 3.992 49.8847 3.792C 49.9968 3.592 50.1487 3.424 50.3408 3.288C 50.5327 3.144 50.7528 3.04 51.0007 2.976C 51.2567 2.904 51.5287 2.868 51.8167 2.868C 52.1127 2.868 52.3888 2.916 52.6448 3.012C 52.9087 3.108 53.1368 3.24 53.3287 3.408C 53.5207 3.576 53.6727 3.776 53.7848 4.008C 53.8968 4.24 53.9528 4.492 53.9528 4.764L 52.6807 4.764C 52.6807 4.5 52.6088 4.292 52.4647 4.14C 52.3288 3.98 52.1008 3.9 51.7808 3.9C 51.5568 3.9 51.3648 3.952 51.2047 4.056C 51.0527 4.16 50.9768 4.312 50.9768 4.512C 50.9768 4.632 51.0088 4.732 51.0728 4.812C 51.1368 4.884 51.2327 4.952 51.3607 5.016C 51.4887 5.072 51.6487 5.136 51.8408 5.208C 52.0328 5.272 52.2567 5.352 52.5127 5.448ZM 55.418 3.012L 56.726 3.012L 56.726 3.792C 56.902 3.488 57.146 3.26 57.458 3.108C 57.77 2.948 58.134 2.868 58.55 2.868C 58.958 2.868 59.298 2.936 59.57 3.072C 59.85 3.208 60.07 3.392 60.23 3.624C 60.366 3.832 60.458 4.064 60.506 4.32C 60.562 4.576 60.59 4.896 60.59 5.28L 60.59 8.604L 59.282 8.604L 59.282 5.712C 59.282 5.472 59.262 5.248 59.222 5.04C 59.182 4.832 59.114 4.656 59.018 4.512C 58.93 4.36 58.806 4.24 58.646 4.152C 58.494 4.064 58.302 4.02 58.07 4.02C 57.614 4.02 57.274 4.184 57.05 4.512C 56.834 4.832 56.726 5.232 56.726 5.712L 56.726 8.604L 55.418 8.604L 55.418 3.012ZM 64.578 3.852C 64.17 3.852 63.83 3.968 63.558 4.2C 63.286 4.432 63.15 4.776 63.15 5.232L 65.934 5.232C 65.934 4.8 65.806 4.464 65.55 4.224C 65.302 3.976 64.978 3.852 64.578 3.852ZM 63.15 6.204C 63.166 6.404 63.202 6.592 63.258 6.768C 63.314 6.944 63.398 7.1 63.51 7.236C 63.63 7.364 63.782 7.468 63.966 7.548C 64.15 7.62 64.378 7.656 64.65 7.656C 65.026 7.656 65.298 7.584 65.466 7.44C 65.634 7.296 65.758 7.124 65.838 6.924L 67.158 6.924C 67.118 7.164 67.03 7.396 66.894 7.62C 66.766 7.836 66.594 8.028 66.378 8.196C 66.162 8.364 65.91 8.5 65.622 8.604C 65.334 8.7 65.01 8.748 64.65 8.748C 64.178 8.748 63.766 8.672 63.414 8.52C 63.07 8.368 62.782 8.16 62.55 7.896C 62.318 7.632 62.142 7.32 62.022 6.96C 61.91 6.6 61.854 6.216 61.854 5.808C 61.854 5.392 61.914 5.004 62.034 4.644C 62.162 4.284 62.342 3.972 62.574 3.708C 62.806 3.444 63.094 3.24 63.438 3.096C 63.782 2.944 64.174 2.868 64.614 2.868C 64.974 2.868 65.31 2.932 65.622 3.06C 65.942 3.188 66.218 3.368 66.45 3.6C 66.69 3.824 66.874 4.088 67.002 4.392C 67.138 4.696 67.206 5.028 67.206 5.388C 67.206 5.484 67.202 5.6 67.194 5.736C 67.194 5.864 67.178 6.02 67.146 6.204L 63.15 6.204ZM 72.177 4.224C 72.073 4.2 71.985 4.184 71.913 4.176C 71.849 4.168 71.765 4.164 71.661 4.164C 71.101 4.164 70.673 4.328 70.377 4.656C 70.081 4.976 69.933 5.488 69.933 6.192L 69.933 8.604L 68.625 8.604L 68.625 3.012L 69.933 3.012L 69.933 3.912C 69.997 3.784 70.085 3.664 70.197 3.552C 70.317 3.432 70.453 3.328 70.605 3.24C 70.765 3.144 70.933 3.072 71.109 3.024C 71.293 2.968 71.477 2.94 71.661 2.94C 71.869 2.94 72.041 2.968 72.177 3.024L 72.177 4.224Z" transform="translate(241.166 108.455)" fill="#424B59"/>
<path id="Lead" d="M 0.91 6.18L 0.91 0L -2.86102e-08 0L -2.86102e-08 7L 3.2 7L 3.2 6.18L 0.91 6.18ZM 5.92273 3.01C 6.65273 3.01 7.20273 3.51 7.20273 4.3L 4.57273 4.3C 4.59273 3.48 5.14273 3.01 5.92273 3.01ZM 8.00273 4.96C 8.04273 4.71 8.04273 4.52 8.04273 4.39C 8.04273 3.23 7.12273 2.34 5.94273 2.34C 4.51273 2.34 3.70273 3.36 3.70273 4.73C 3.70273 6.04 4.44273 7.11 5.97273 7.11C 7.11273 7.11 7.85273 6.43 8.00273 5.66L 7.12273 5.66C 6.98273 6.05 6.65273 6.38 5.97273 6.38C 4.97273 6.38 4.60273 5.73 4.56273 4.96L 8.00273 4.96ZM 12.8566 2.46L 12.8566 3.24C 12.5666 2.69 11.9266 2.34 11.2666 2.34C 9.8766 2.34 8.93664 3.44 8.93664 4.73C 8.93664 6.01 9.8766 7.11 11.2666 7.11C 11.9266 7.11 12.5666 6.76 12.8566 6.21L 12.8566 7L 13.7166 7L 13.7166 2.46L 12.8566 2.46ZM 11.3166 6.33C 10.3966 6.33 9.7966 5.6 9.7966 4.73C 9.7966 3.86 10.3966 3.12 11.3166 3.12C 12.2566 3.12 12.8566 3.86 12.8566 4.73C 12.8566 5.6 12.2566 6.33 11.3166 6.33ZM 18.8234 7L 19.6834 7L 19.6834 0L 18.8234 0L 18.8234 3.24C 18.5334 2.69 17.8934 2.34 17.2334 2.34C 15.8434 2.34 14.9034 3.44 14.9034 4.73C 14.9034 6.01 15.8434 7.11 17.2334 7.11C 17.8934 7.11 18.5334 6.76 18.8234 6.21L 18.8234 7ZM 17.2834 6.33C 16.3634 6.33 15.7634 5.6 15.7634 4.73C 15.7634 3.86 16.3634 3.12 17.2834 3.12C 18.2234 3.12 18.8234 3.86 18.8234 4.73C 18.8234 5.6 18.2234 6.33 17.2834 6.33Z" transform="translate(241.07 125.059)" fill="#424B59"/>
<path id="Ellipse_7" d="M 18.9101 37.811C 29.3539 37.811 37.8202 29.3467 37.8202 18.9055C 37.8202 8.46428 29.3539 0 18.9101 0C 8.46634 0 0 8.46428 0 18.9055C 0 29.3467 8.46634 37.811 18.9101 37.811Z" transform="translate(189.297 101.201)" fill="white"/>
<g id="Group_9">
<mask id="mask3" mask-type="alpha" maskUnits="userSpaceOnUse" x="189" y="101" width="39" height="39">
<g id="mask3">
<path id="Ellipse_8" d="M 18.9101 37.811C 29.3539 37.811 37.8202 29.3467 37.8202 18.9055C 37.8202 8.46428 29.3539 0 18.9101 0C 8.46634 0 0 8.46428 0 18.9055C 0 29.3467 8.46634 37.811 18.9101 37.811Z" transform="translate(189.297 101.201)" fill="#36415C"/>
</g>
</mask>
<g mask="url(#mask3)">
<g id="Group_10">
<g id="003-man">
<g id="Group_10_2">
<g id="Group_11">
<path id="Vector_47_2" d="M 5.48854 4.65463C 8.51977 4.65463 10.9771 3.61265 10.9771 2.32731C 10.9771 1.04197 8.51977 0 5.48854 0C 2.4573 0 0 1.04197 0 2.32731C 0 3.61265 2.4573 4.65463 5.48854 4.65463Z" transform="translate(202.386 124.107)" fill="#215AB7"/>
<path id="Vector_48" d="M 29.3659 9.68949C 28.2594 5.95499 22.7056 6.36925 20.3084 5.29679C 17.9114 4.22434 18.2856 0.626044 17.9816 0L 12.1339 0C 11.8304 0.626044 12.2047 4.22483 9.80707 5.29679C 7.41 6.36925 1.85558 5.95508 0.749573 9.68949C 0.139416 11.7493 0.168391 12.3793 0 14.661C 0 14.661 7.62076 16.1633 14.8857 16.1633C 22.1506 16.1633 30.1161 14.661 30.1161 14.661C 29.947 12.3787 29.9761 11.7494 29.3659 9.68949Z" transform="translate(192.799 122.848)" fill="#199ECC"/>
<path id="Vector_49" d="M 2.32628 6.11909C 4.72335 7.19155 10.2778 6.77738 11.3838 10.5118C 11.965 12.4733 11.9661 13.1382 12.1105 15.1681C 14.0191 14.8895 15.2305 14.661 15.2305 14.661C 15.0621 12.3793 15.0911 11.7494 14.4809 9.68949C 13.3744 5.95499 7.82058 6.36925 5.42341 5.29679C 3.02634 4.22434 3.40053 0.626044 3.0966 0L 0.000164164 0C 0.000561079 0 -0.0708833 5.04713 2.32628 6.11909Z" transform="translate(207.684 122.848)" fill="#198ECC"/>
<path id="Vector_50" d="M 8.4138 4.50556C 7.17344 3.02666 7.37974 0.513675 7.13107 0L 1.28273 0C 1.03347 0.513675 1.24036 3.02675 0 4.50556C 0.591701 5.89326 3.7697 9.60719 4.2069 9.60719C 4.64351 9.60719 7.77298 6.00613 8.4138 4.50556Z" transform="translate(203.649 122.848)" fill="#F2CFA8"/>
<path id="Vector_51" d="M 0 3.71947C 0.970457 4.50675 2.10762 5.2873 3.705 5.51303C 5.30625 5.2867 6.44064 4.49003 7.41218 3.69949C 6.60407 2.21841 6.85392 0.45205 6.63522 0L 0.786883 0C 0.567191 0.452643 0.811989 2.23789 0 3.71947Z" transform="translate(204.145 122.848)" fill="#C69E7F"/>
<g id="Group_12">
<path id="Vector_52" d="M 0 0.735546C 0 0.735546 1.2605 0.695485 3.45455 1.42331C 5.64859 2.15114 8.71109 0.330778 10.028 0C 10.028 0 7.21869 4.44443 4.23488 4.33384C 1.25098 4.22375 0 0.735546 0 0.735546Z" transform="translate(203.042 126.553)" fill="#266CDA"/>
<path id="Vector_53" d="M 10.0275 0C 9.74862 0.0700331 9.33424 0.23018 9.33027 0.234037C 8.68886 0.812799 8.26386 1.23923 7.79203 1.6985C 6.69278 1.77803 6.22481 1.99317 5.81043 2.18329C 5.42503 2.36005 5.09212 2.51298 4.25433 2.51357C 4.11601 2.51357 3.96429 2.50912 3.80373 2.50081C 2.94372 2.45581 2.2772 1.91701 1.31289 0.871258C 0.290046 0.667786 0 0.736139 0 0.736139C 0 0.736139 1.25098 4.22375 4.23478 4.33443C 7.21819 4.44443 10.0275 0 10.0275 0Z" transform="translate(203.042 126.554)" fill="#215AB7"/>
<path id="Vector_54" d="M 1.28364 0.423661C 1.28364 0.423661 2.10625 4.3922 4.63618 4.52505C 7.16612 4.65789 6.22017 3.72887 9.42536 3.69217L 5.94124 7.32716C 5.94124 7.32716 -1.73529 5.96666 0.363396 0L 1.28364 0.423661Z" transform="translate(202.197 124.735)" fill="#2971E3"/>
<path id="Vector_55" d="M 5.94127 7.32657L 9.42479 3.69108C 9.02152 3.69553 9.0121 3.68722 8.72483 3.7167C 8.10187 4.13927 7.21953 4.78085 6.41806 5.31628C 6.18944 5.19066 5.95575 5.1317 5.6925 5.1317C 5.44929 5.1317 5.21114 5.18225 4.9591 5.23566C 4.66628 5.29798 4.36293 5.36188 4.00204 5.36188C 3.55253 5.36188 2.80624 4.81477 2.05339 3.93412C 1.32783 3.08462 0.848651 2.22671 0.804594 1.88812C 0.749422 1.4606 0.768375 1.30936 0.742675 0.558187L 0.363423 0C -1.73536 5.96666 5.94127 7.32657 5.94127 7.32657Z" transform="translate(202.197 124.735)" fill="#215AB7"/>
<path id="Vector_56" d="M 5.45182 1.15139C 5.45182 1.15139 6.19137 1.75241 6.24545 2.42514C 6.29953 3.09787 3.20469 6.54216 0 7.68464L 4.36418 10.2721C 4.36418 10.2721 7.37815 8.11553 7.26096 6.81675C 7.18961 6.02284 6.75172 5.72985 6.75172 5.72985C 6.75172 5.72985 9.11763 2.19002 5.43545 0L 5.45182 1.15139Z" transform="translate(206.393 123.75)" fill="#2F77EA"/>
<path id="Vector_57" d="M 0.809308 0.185667C 0.708889 0.0560857 0.62524 0 0.62524 0C 0.62524 0 0.0301659 0.780554 4.71714e-07 1.40996C -0.000495672 1.40986 0.390464 0.575399 0.809308 0.185667Z" transform="translate(212.519 129.479)" fill="#215AB7"/>
<path id="Vector_58" d="M 4.44723 1.60344C 3.61004 1.60285 1.78125 1.02854 0.896233 0.470941C 0.374191 0.14234 0 0 0 0C 0.0713454 0.957415 2.33743 2.39517 3.17571 2.89549C 3.60339 2.52416 4.08247 2.06657 4.44723 1.60344Z" transform="translate(208.622 130.294)" fill="#215AB7"/>
<path id="Vector_59" d="M 0 1.07523C 0 1.07523 1.43504 0.758296 2.50026 0C 2.50026 0 1.57783 0.934565 0.340751 1.28928L 0 1.07523Z" transform="translate(209.135 129.635)" fill="#215AB7"/>
<path id="Vector_60" d="M 12.3757 9.58058C 12.3757 9.58058 9.59159 8.72713 8.64455 7.80087C 7.69751 6.87461 7.08408 7.53904 5.89215 7.53904C 4.70021 7.53904 2.60272 4.75641 2.49059 3.88575C 2.40585 3.22914 2.45209 2.32682 3.44656 1.33547L 3.2993 0C 3.2993 0 1.82575 0.967901 1.30986 1.95984C 0.793974 2.95168 1.06785 4.76413 0.80231 5.51026C 0.536278 6.25639 -0.274123 6.22582 0.0945111 7.36109C 0.463146 8.49636 3.66784 10.002 4.22054 10.7369C 4.77324 11.4714 6.79443 13.9816 8.06773 13.7364C 9.34064 13.4908 11.74 12.8047 12.3757 9.58058Z" transform="translate(200.309 122.764)" fill="#3884FF"/>
<path id="Vector_61" d="M 4.30513 1.97586C 4.41895 1.75399 4.52155 1.51333 4.61016 1.2509C 2.46514 1.1508 0 0 0 0C 1.53993 1.20758 3.4094 1.76349 4.30513 1.97586Z" transform="translate(207.851 131.936)" fill="#215AB7"/>
<path id="Vector_62" d="M 1.62963 2.37954C 0.190718 1.24813 0.274368 0 0.274368 0C 0.25482 0.141747 0.228028 0.267965 0.190718 0.373014C 0.142195 0.509816 0.0747192 0.620405 0 0.717146C 0.636949 1.96923 1.62963 2.37954 1.62963 2.37954Z" transform="translate(200.92 127.9)" fill="#215AB7"/>
<path id="Vector_63" d="M 3.74807 3.38463C 3.71631 3.36297 3.67106 3.32964 3.61252 3.29066C 3.58404 3.2695 3.55338 3.24506 3.51994 3.21954C 3.50317 3.20678 3.4859 3.19343 3.46755 3.17948C 3.45862 3.17286 3.44919 3.16613 3.44026 3.15831C 3.43133 3.1505 3.4224 3.14278 3.41347 3.13437C 3.37725 3.10213 3.33766 3.06988 3.29806 3.03378C 3.26016 2.9954 3.21937 2.95702 3.17869 2.91537C 3.1 2.82862 3.01864 2.73416 2.94114 2.62347C 2.90155 2.57006 2.86195 2.5112 2.82177 2.45224C 2.78158 2.39161 2.7398 2.33107 2.69575 2.26707C 2.60932 2.14086 2.51118 2.00969 2.40183 1.88516C 2.34547 1.82403 2.29089 1.76003 2.22838 1.70275C 2.19772 1.67328 2.16755 1.64439 2.13689 1.61491L 2.03875 1.53093L 1.98914 1.48978C 1.97237 1.47643 1.9557 1.4614 1.94002 1.45032C 1.90767 1.42638 1.87532 1.40195 1.84297 1.37801L 1.79445 1.3419L 1.76994 1.3241L 1.75764 1.3152L 1.75595 1.31411C 1.75655 1.31411 1.74811 1.30857 1.75089 1.31025L 1.74752 1.30808L 1.74087 1.30362C 1.70574 1.28087 1.67061 1.25802 1.63549 1.23527C 1.60095 1.21193 1.56523 1.19195 1.52951 1.17137C 1.49379 1.15139 1.45866 1.13022 1.42353 1.11192C 1.38841 1.09303 1.35328 1.07414 1.31865 1.05574C 1.28412 1.03793 1.24949 1.02072 1.21545 1.00351C 1.0805 0.935652 0.948825 0.871159 0.843444 0.80894C 0.814469 0.789454 0.785395 0.770561 0.757512 0.752261L 0.746894 0.74504C 0.743024 0.741677 0.750764 0.748404 0.749673 0.747217L 0.748581 0.746129L 0.746398 0.744447L 0.741337 0.740589L 0.72179 0.726146C 0.708989 0.71665 0.696089 0.707254 0.683289 0.697759C 0.657589 0.679459 0.633079 0.659971 0.609066 0.640485C 0.585052 0.620998 0.561138 0.602699 0.538812 0.583806C 0.447323 0.508728 0.368139 0.434243 0.300068 0.365892C 0.231997 0.29754 0.175734 0.233542 0.130486 0.179632C 0.0864284 0.125129 0.0529881 0.0807156 0.0317531 0.0489633C 0.0105182 0.0172111 0 0 0 0C 0 0 0.00337382 0.0199807 0.0150828 0.0572723C 0.0267918 0.0939704 0.0446527 0.148473 0.074719 0.214649C 0.104885 0.280824 0.146065 0.359166 0.20074 0.444828C 0.255415 0.53049 0.32289 0.623867 0.404853 0.718926C 0.424401 0.743358 0.446727 0.766208 0.468955 0.790641C 0.491281 0.814579 0.513608 0.839605 0.537522 0.862949C 0.549231 0.875215 0.561535 0.886886 0.57374 0.899053L 0.592098 0.917352L 0.596563 0.921805L 0.598745 0.92398L 0.599837 0.925068C 0.599242 0.924475 0.608173 0.931695 0.604898 0.929519L 0.614424 0.937828C 0.640124 0.960084 0.665726 0.982341 0.692517 1.00569C 0.816851 1.10183 0.942969 1.17919 1.07346 1.25862C 1.13756 1.29749 1.20225 1.33755 1.26814 1.37761C 1.30109 1.3971 1.33224 1.41876 1.3641 1.43934C 1.39585 1.46051 1.42879 1.47989 1.45945 1.50274C 1.49071 1.52441 1.52197 1.54666 1.55313 1.56833L 1.55928 1.57218L 1.56097 1.57327L 1.56156 1.57386L 1.57327 1.58336L 1.59728 1.60166L 1.64521 1.63836C 1.67756 1.66279 1.70931 1.68732 1.74166 1.71175C 1.75843 1.72402 1.77183 1.73619 1.78631 1.74905L 1.82928 1.78634L 1.9163 1.85914C 1.94419 1.88585 1.97267 1.91196 2.00055 1.93808C 2.058 1.98981 2.1104 2.0454 2.16398 2.0999C 2.19127 2.12661 2.21528 2.15609 2.24098 2.18438C 2.26609 2.21277 2.29288 2.23938 2.31679 2.26885C 2.3413 2.29774 2.36531 2.32672 2.38982 2.3556C 2.41384 2.38508 2.43775 2.41396 2.46176 2.44285C 2.50969 2.50012 2.55603 2.55957 2.60396 2.61576C 2.65308 2.67243 2.69882 2.72862 2.74953 2.78085C 2.77463 2.80696 2.79745 2.83367 2.82375 2.8581C 2.84945 2.88253 2.87446 2.90707 2.89956 2.93041C 2.92407 2.95435 2.95027 2.97542 2.97597 2.99659C 3.00167 3.01775 3.02667 3.03833 3.05128 3.05771C 3.10318 3.09501 3.15339 3.12834 3.20131 3.16059C 3.25093 3.18947 3.29836 3.21618 3.34301 3.24061C 3.35413 3.24674 3.36534 3.25288 3.37596 3.25842C 3.38707 3.26395 3.39828 3.26841 3.4089 3.27345C 3.43063 3.28295 3.45127 3.29235 3.47142 3.30125C 3.5116 3.31846 3.54782 3.33567 3.58186 3.34853C 3.64993 3.37247 3.7046 3.38968 3.74082 3.40195C 3.77764 3.41362 3.79718 3.41975 3.79718 3.41975C 3.79718 3.41975 3.77932 3.40748 3.74807 3.38463Z" transform="translate(203.888 130.492)" fill="#215AB7"/>
</g>
<g id="Group_13">
<path id="Vector_64" d="M 2.11564 2.30763C 3.28408 2.30763 4.23129 1.79105 4.23129 1.15382C 4.23129 0.516582 3.28408 0 2.11564 0C 0.947205 0 0 0.516582 0 1.15382C 0 1.79105 0.947205 2.30763 2.11564 2.30763Z" transform="matrix(-0.177541 0.984103 -0.984297 -0.176461 216.219 117.309)" fill="#EDC89F"/>
<path id="Vector_65" d="M 1.15382 4.23129C 1.79105 4.23129 2.30763 3.28408 2.30763 2.11564C 2.30763 0.947205 1.79105 0 1.15382 0C 0.516582 0 0 0.947205 0 2.11564C 0 3.28408 0.516582 4.23129 1.15382 4.23129Z" transform="matrix(-0.984297 0.176461 -0.177541 -0.984103 202.5 121.067)" fill="#EDC89F"/>
<path id="Vector_66" d="M 13.3491 0L 7.03293 0.911815L 0.543773 0.0878381C 0.543773 0.0878381 0 3.23636 0 4.68133C 0 9.05187 0.786982 15.0325 6.97607 15.9064C 16.9208 14.5026 13.3491 0 13.3491 0Z" transform="translate(200.874 112.146)" fill="#F2CFA8"/>
<path id="Vector_67" d="M 0 15.9064C 9.9444 14.5026 6.37256 0 6.37256 0L 4.88175 0C 5.28998 6.05786 5.85499 9.27582 3.51091 12.784C 1.65365 15.564 0 15.9064 0 15.9064Z" transform="translate(207.852 112.146)" fill="#EFC69F"/>
<path id="Vector_68" d="M 0 0.581184C 0 0.581184 1.56722 2.02893 5.86898 2.02893C 10.1707 2.02893 11.8512 1.05031 11.8512 1.05031L 11.8512 0L 0 0.581184Z" transform="translate(201.959 112.754)" fill="#F6C997"/>
<path id="Vector_69" d="M 14.5506 4.89371C 14.3431 2.78263 12.2996 0 7.36601 0C 2.43246 0 0.388844 2.78263 0.181357 4.89371C 0.181357 4.89371 -0.152746 6.01849 0.0859983 9.61392C 0.516552 9.56723 0.940456 9.68504 1.2433 9.82184L 1.49316 5.51085L 13.2389 5.51085L 13.4887 9.82184C 13.7916 9.68504 14.2155 9.56723 14.646 9.61392C 14.8847 6.01899 14.5506 4.89371 14.5506 4.89371Z" transform="translate(200.485 107.502)" fill="#885945"/>
<path id="Vector_70" d="M 8.80244 6.83742C 11.3468 6.63118 15.3624 5.97398 14.7434 0.328601C 14.7434 0.328601 14.1388 1.32766 12.9514 1.16702C 11.3223 0.946337 9.98763 0 7.28603 0C 4.67254 0 -0.155134 0.782827 0.00383027 4.06637C 0.138781 6.83742 5.84096 7.07819 8.80244 6.83742Z" transform="translate(200.736 107.504)" fill="#1C2838"/>
<path id="Vector_71" d="M 11.236 5.33905e-05C 9.61079 -0.00548595 8.10708 0.518179 7.30006 0.518179C 6.49303 0.518179 4.98942 -0.00607945 3.36415 5.33905e-05C 1.92077 0.00509815 0.562726 0.23686 0.121555 0.356451C 0.0502096 0.375937 0 0.44043 0 0.514321L 0 1.20209C 0 1.26658 0.037905 1.32494 0.0970453 1.35106C 0.15956 1.37826 0.237553 1.42218 0.288854 1.48509C 0.385305 1.60349 0.560444 2.8172 1.09866 3.24086C 1.44665 3.51437 2.43497 3.76018 3.29608 3.74346C 4.15669 3.72674 5.16783 3.6851 5.7255 3.26361C 6.49571 2.68208 6.60059 1.60735 6.78853 1.3294C 6.93916 1.10703 7.17284 1.07201 7.29996 1.07201C 7.42707 1.07201 7.66085 1.10644 7.81138 1.3294C 7.99932 1.60735 8.10421 2.68208 8.87442 3.26361C 9.43268 3.685 10.4433 3.72674 11.3038 3.74346C 12.1644 3.76018 13.1533 3.51496 13.5013 3.24086C 14.0395 2.8172 14.2146 1.60349 14.3111 1.48509C 14.3624 1.42228 14.4405 1.37836 14.503 1.35106C 14.5621 1.32494 14.6 1.26658 14.6 1.20209L 14.6 0.514321C 14.6 0.440332 14.5504 0.375839 14.4785 0.356451C 14.0375 0.23686 12.6788 0.00499923 11.236 5.33905e-05ZM 6.09324 2.02706C 5.96106 2.49968 5.69394 2.87438 5.36986 3.06341C 5.04131 3.25521 3.9242 3.37035 3.40275 3.37084C 2.71678 3.37143 1.58458 3.18458 1.32966 2.95885C 1.07475 2.73312 0.995561 2.32667 0.938703 1.98205C 0.881845 1.63792 0.773091 1.04966 1.06423 0.779517C 1.42621 0.444288 2.98281 0.331919 3.3966 0.350911C 4.25721 0.390379 5.91135 0.582179 6.16012 0.983088C 6.31849 1.23592 6.20368 1.63238 6.09324 2.02706ZM 13.6599 1.98145C 13.6031 2.32559 13.5239 2.73253 13.269 2.95826C 13.014 3.18399 11.8824 3.37074 11.1959 3.37025C 10.6749 3.37025 9.55731 3.25521 9.22876 3.06281C 8.90468 2.87378 8.63756 2.49909 8.50539 2.02646C 8.39495 1.63169 8.28004 1.23533 8.43732 0.981802C 8.68658 0.580992 10.3403 0.389093 11.2008 0.349626C 11.6141 0.330732 13.1707 0.443003 13.5332 0.778232C 13.8255 1.04916 13.7162 1.63732 13.6599 1.98145Z" transform="translate(200.528 117.053)" fill="#1C2838"/>
</g>
</g>
</g>
</g>
</g>
</g>
</g>
</g>
</g>
</g>
</g>
<defs>
<filter id="filter0_d" x="201.29" y="3.297" width="235.419" height="73.6181" filterUnits="userSpaceOnUse" color-interpolation-filters="sRGB">
<feFlood flood-opacity="0" result="BackgroundImageFix"/>
<feColorMatrix in="SourceAlpha" type="matrix" values="0 0 0 0 0 0 0 0 0 0 0 0 0 0 0 0 0 0 255 0"/>
<feOffset dy="2"/>
<feGaussianBlur stdDeviation="3"/>
<feColorMatrix type="matrix" values="0 0 0 0 0.114414 0 0 0 0 0.133722 0 0 0 0 0.163755 0 0 0 0.06 0"/>
<feBlend mode="normal" in2="BackgroundImageFix" result="effect1_dropShadow"/>
<feBlend mode="normal" in="SourceGraphic" in2="effect1_dropShadow" result="shape"/>
</filter>
<filter id="filter1_d" x="199.29" y="0.296997" width="239.419" height="77.6181" filterUnits="userSpaceOnUse" color-interpolation-filters="sRGB">
<feFlood flood-opacity="0" result="BackgroundImageFix"/>
<feColorMatrix in="SourceAlpha" type="matrix" values="0 0 0 0 0 0 0 0 0 0 0 0 0 0 0 0 0 0 255 0"/>
<feOffset dy="1"/>
<feGaussianBlur stdDeviation="4"/>
<feColorMatrix type="matrix" values="0 0 0 0 0 0 0 0 0 0 0 0 0 0 0 0 0 0 0.15 0"/>
<feBlend mode="normal" in2="BackgroundImageFix" result="effect1_dropShadow"/>
<feBlend mode="normal" in="SourceGraphic" in2="effect1_dropShadow" result="shape"/>
</filter>
<filter id="filter2_d" x="232.29" y="162.297" width="239.419" height="77.6181" filterUnits="userSpaceOnUse" color-interpolation-filters="sRGB">
<feFlood flood-opacity="0" result="BackgroundImageFix"/>
<feColorMatrix in="SourceAlpha" type="matrix" values="0 0 0 0 0 0 0 0 0 0 0 0 0 0 0 0 0 0 255 0"/>
<feOffset dy="1"/>
<feGaussianBlur stdDeviation="4"/>
<feColorMatrix type="matrix" values="0 0 0 0 0 0 0 0 0 0 0 0 0 0 0 0 0 0 0.15 0"/>
<feBlend mode="normal" in2="BackgroundImageFix" result="effect1_dropShadow"/>
<feBlend mode="normal" in="SourceGraphic" in2="effect1_dropShadow" result="shape"/>
</filter>
<filter id="filter3_d" x="155.29" y="84.297" width="243.622" height="77.6181" filterUnits="userSpaceOnUse" color-interpolation-filters="sRGB">
<feFlood flood-opacity="0" result="BackgroundImageFix"/>
<feColorMatrix in="SourceAlpha" type="matrix" values="0 0 0 0 0 0 0 0 0 0 0 0 0 0 0 0 0 0 255 0"/>
<feOffset dy="1"/>
<feGaussianBlur stdDeviation="4"/>
<feColorMatrix type="matrix" values="0 0 0 0 0 0 0 0 0 0 0 0 0 0 0 0 0 0 0.15 0"/>
<feBlend mode="normal" in2="BackgroundImageFix" result="effect1_dropShadow"/>
<feBlend mode="normal" in="SourceGraphic" in2="effect1_dropShadow" result="shape"/>
</filter>
<linearGradient id="paint0_linear" x2="1" gradientUnits="userSpaceOnUse" gradientTransform="matrix(-147.452 -56.3077 59.8763 -196.601 61.1237 274.611)">
<stop stop-color="#C5D1DE"/>
<stop offset="0.524862" stop-color="white"/>
<stop offset="0.856917" stop-color="#E5E5E5"/>
</linearGradient>
<linearGradient id="paint1_linear" x2="1" gradientUnits="userSpaceOnUse" gradientTransform="matrix(-107.643 -22.7865 162.094 -287.453 -65.1894 307.351)">
<stop stop-color="#4D341E"/>
<stop offset="1" stop-color="#704E2E"/>
</linearGradient>
<linearGradient id="paint2_linear" x2="1" gradientUnits="userSpaceOnUse" gradientTransform="matrix(-107.643 -22.7865 162.094 -287.453 -65.1894 307.351)">
<stop stop-color="#F37110"/>
<stop offset="1" stop-color="#F0C19E"/>
</linearGradient>
<linearGradient id="paint3_linear" x2="1" gradientUnits="userSpaceOnUse" gradientTransform="matrix(229.022 100.479 -364.326 830.006 343.315 -846.111)">
<stop stop-color="white" stop-opacity="0"/>
<stop offset="1" stop-color="#B2D0FF"/>
</linearGradient>
</defs>
</svg>
