<svg width="240" height="78" viewBox="0 0 240 78" version="1.1" xmlns="http://www.w3.org/2000/svg" xmlns:xlink="http://www.w3.org/1999/xlink">
<g id="Canvas" fill="none">
<g id="Group 7.5">
<g id="Rectangle 10" filter="url(#filter0_d)">
<rect width="223.419" height="61.6181" rx="3" transform="translate(8 7)" fill="white"/>
</g>
<rect id="Rectangle 10_2" width="223.419" height="61.6181" rx="3" transform="translate(8 7)" fill="url(#paint0_linear)" fill-opacity="0.06"/>
<g id="Rectangle 10_3" filter="url(#filter1_d)">
<rect width="223.419" height="61.6181" rx="3" transform="translate(8 7)" fill="white"/>
</g>
<path id="Carol smith" d="M 8.856 10.3C 8.76 10.708 8.596 11.088 8.364 11.44C 8.132 11.792 7.844 12.1 7.5 12.364C 7.156 12.628 6.76 12.836 6.312 12.988C 5.864 13.132 5.384 13.204 4.872 13.204C 4.184 13.204 3.568 13.084 3.024 12.844C 2.48 12.604 2.016 12.284 1.632 11.884C 1.256 11.476 0.964 11.008 0.756 10.48C 0.556 9.944 0.456 9.38 0.456 8.788C 0.456 8.22 0.552 7.672 0.744 7.144C 0.944 6.616 1.228 6.148 1.596 5.74C 1.972 5.332 2.42 5.008 2.94 4.768C 3.468 4.52 4.064 4.396 4.728 4.396C 5.352 4.396 5.904 4.484 6.384 4.66C 6.872 4.828 7.288 5.06 7.632 5.356C 7.976 5.644 8.248 5.988 8.448 6.388C 8.656 6.78 8.792 7.204 8.856 7.66L 7.404 7.66C 7.356 7.372 7.26 7.104 7.116 6.856C 6.98 6.608 6.804 6.396 6.588 6.22C 6.38 6.036 6.132 5.892 5.844 5.788C 5.564 5.684 5.252 5.632 4.908 5.632C 4.428 5.632 3.996 5.72 3.612 5.896C 3.236 6.072 2.92 6.308 2.664 6.604C 2.408 6.892 2.212 7.228 2.076 7.612C 1.94 7.988 1.872 8.38 1.872 8.788C 1.872 9.22 1.94 9.628 2.076 10.012C 2.22 10.396 2.424 10.736 2.688 11.032C 2.96 11.32 3.292 11.548 3.684 11.716C 4.084 11.884 4.54 11.968 5.052 11.968C 5.292 11.968 5.532 11.928 5.772 11.848C 6.02 11.76 6.248 11.644 6.456 11.5C 6.664 11.348 6.844 11.172 6.996 10.972C 7.156 10.764 7.272 10.54 7.344 10.3L 8.856 10.3ZM 15.6647 7.408L 15.6647 13L 14.3567 13L 14.3567 12.244C 14.1807 12.524 13.9287 12.744 13.6007 12.904C 13.2807 13.064 12.9567 13.144 12.6287 13.144C 12.2047 13.144 11.8167 13.068 11.4647 12.916C 11.1127 12.756 10.8087 12.54 10.5527 12.268C 10.3047 11.996 10.1087 11.684 9.96469 11.332C 9.82869 10.98 9.76069 10.604 9.76069 10.204C 9.76069 9.812 9.82869 9.44 9.96469 9.088C 10.1087 8.728 10.3047 8.412 10.5527 8.14C 10.8087 7.868 11.1127 7.656 11.4647 7.504C 11.8167 7.344 12.2047 7.264 12.6287 7.264C 12.9567 7.264 13.2807 7.344 13.6007 7.504C 13.9287 7.664 14.1807 7.884 14.3567 8.164L 14.3567 7.408L 15.6647 7.408ZM 12.7007 11.98C 12.9487 11.98 13.1727 11.932 13.3727 11.836C 13.5807 11.74 13.7567 11.612 13.9007 11.452C 14.0447 11.292 14.1567 11.104 14.2367 10.888C 14.3167 10.672 14.3567 10.444 14.3567 10.204C 14.3567 9.964 14.3167 9.736 14.2367 9.52C 14.1567 9.304 14.0447 9.116 13.9007 8.956C 13.7567 8.796 13.5807 8.668 13.3727 8.572C 13.1727 8.476 12.9487 8.428 12.7007 8.428C 12.4527 8.428 12.2287 8.476 12.0287 8.572C 11.8287 8.668 11.6567 8.796 11.5127 8.956C 11.3687 9.116 11.2567 9.304 11.1767 9.52C 11.1047 9.736 11.0687 9.964 11.0687 10.204C 11.0687 10.444 11.1047 10.672 11.1767 10.888C 11.2567 11.104 11.3687 11.292 11.5127 11.452C 11.6567 11.612 11.8287 11.74 12.0287 11.836C 12.2287 11.932 12.4527 11.98 12.7007 11.98ZM 20.9632 8.62C 20.8592 8.596 20.7712 8.58 20.6992 8.572C 20.6352 8.564 20.5512 8.56 20.4472 8.56C 19.8872 8.56 19.4592 8.724 19.1632 9.052C 18.8672 9.372 18.7192 9.884 18.7192 10.588L 18.7192 13L 17.4112 13L 17.4112 7.408L 18.7192 7.408L 18.7192 8.308C 18.7832 8.18 18.8712 8.06 18.9832 7.948C 19.1032 7.828 19.2392 7.724 19.3912 7.636C 19.5512 7.54 19.7192 7.468 19.8952 7.42C 20.0792 7.364 20.2632 7.336 20.4472 7.336C 20.6552 7.336 20.8272 7.364 20.9632 7.42L 20.9632 8.62ZM 24.1851 13.144C 23.7371 13.144 23.3331 13.068 22.9731 12.916C 22.6131 12.756 22.3051 12.54 22.0491 12.268C 21.7931 11.996 21.5931 11.684 21.4491 11.332C 21.3131 10.98 21.2451 10.604 21.2451 10.204C 21.2451 9.812 21.3131 9.44 21.4491 9.088C 21.5931 8.728 21.7931 8.412 22.0491 8.14C 22.3051 7.868 22.6131 7.656 22.9731 7.504C 23.3331 7.344 23.7371 7.264 24.1851 7.264C 24.6331 7.264 25.0371 7.344 25.3971 7.504C 25.7651 7.656 26.0771 7.868 26.3331 8.14C 26.5971 8.412 26.7971 8.728 26.9331 9.088C 27.0771 9.44 27.1491 9.812 27.1491 10.204C 27.1491 10.604 27.0771 10.98 26.9331 11.332C 26.7971 11.684 26.5971 11.996 26.3331 12.268C 26.0771 12.54 25.7651 12.756 25.3971 12.916C 25.0371 13.068 24.6331 13.144 24.1851 13.144ZM 24.1851 11.98C 24.4331 11.98 24.6571 11.932 24.8571 11.836C 25.0651 11.74 25.2411 11.612 25.3851 11.452C 25.5291 11.292 25.6411 11.104 25.7211 10.888C 25.8011 10.672 25.8411 10.444 25.8411 10.204C 25.8411 9.964 25.8011 9.736 25.7211 9.52C 25.6411 9.304 25.5291 9.116 25.3851 8.956C 25.2411 8.796 25.0651 8.668 24.8571 8.572C 24.6571 8.476 24.4331 8.428 24.1851 8.428C 23.9371 8.428 23.7131 8.476 23.5131 8.572C 23.3131 8.668 23.1411 8.796 22.9971 8.956C 22.8531 9.116 22.7411 9.304 22.6611 9.52C 22.5891 9.736 22.5531 9.964 22.5531 10.204C 22.5531 10.444 22.5891 10.672 22.6611 10.888C 22.7411 11.104 22.8531 11.292 22.9971 11.452C 23.1411 11.612 23.3131 11.74 23.5131 11.836C 23.7131 11.932 23.9371 11.98 24.1851 11.98ZM 28.4854 4.6L 29.7934 4.6L 29.7934 13L 28.4854 13L 28.4854 4.6ZM 37.088 9.844C 37.28 9.916 37.468 9.992 37.652 10.072C 37.836 10.152 38 10.252 38.144 10.372C 38.288 10.492 38.4 10.636 38.48 10.804C 38.568 10.972 38.612 11.184 38.612 11.44C 38.612 11.728 38.552 11.98 38.432 12.196C 38.32 12.412 38.16 12.592 37.952 12.736C 37.752 12.872 37.516 12.972 37.244 13.036C 36.972 13.108 36.684 13.144 36.38 13.144C 36.076 13.144 35.788 13.1 35.516 13.012C 35.244 12.924 35 12.796 34.784 12.628C 34.576 12.452 34.408 12.24 34.28 11.992C 34.16 11.736 34.1 11.444 34.1 11.116L 35.372 11.116C 35.372 11.484 35.472 11.744 35.672 11.896C 35.88 12.04 36.14 12.112 36.452 12.112C 36.708 12.112 36.924 12.064 37.1 11.968C 37.276 11.872 37.364 11.704 37.364 11.464C 37.364 11.336 37.328 11.232 37.256 11.152C 37.184 11.072 37.076 11 36.932 10.936C 36.788 10.864 36.608 10.792 36.392 10.72C 36.176 10.648 35.92 10.556 35.624 10.444C 35.432 10.372 35.252 10.296 35.084 10.216C 34.924 10.128 34.784 10.028 34.664 9.916C 34.544 9.804 34.452 9.664 34.388 9.496C 34.324 9.328 34.292 9.124 34.292 8.884C 34.292 8.62 34.348 8.388 34.46 8.188C 34.572 7.988 34.724 7.82 34.916 7.684C 35.108 7.54 35.328 7.436 35.576 7.372C 35.832 7.3 36.104 7.264 36.392 7.264C 36.688 7.264 36.964 7.312 37.22 7.408C 37.484 7.504 37.712 7.636 37.904 7.804C 38.096 7.972 38.248 8.172 38.36 8.404C 38.472 8.636 38.528 8.888 38.528 9.16L 37.256 9.16C 37.256 8.896 37.184 8.688 37.04 8.536C 36.904 8.376 36.676 8.296 36.356 8.296C 36.132 8.296 35.94 8.348 35.78 8.452C 35.628 8.556 35.552 8.708 35.552 8.908C 35.552 9.028 35.584 9.128 35.648 9.208C 35.712 9.28 35.808 9.348 35.936 9.412C 36.064 9.468 36.224 9.532 36.416 9.604C 36.608 9.668 36.832 9.748 37.088 9.844ZM 47.0492 13L 47.0492 9.868C 47.0492 9.42 46.9652 9.068 46.7972 8.812C 46.6372 8.548 46.3732 8.416 46.0052 8.416C 45.8372 8.416 45.6812 8.444 45.5372 8.5C 45.4012 8.556 45.2772 8.652 45.1652 8.788C 45.0612 8.924 44.9772 9.104 44.9132 9.328C 44.8572 9.544 44.8292 9.82 44.8292 10.156L 44.8292 13L 43.5212 13L 43.5212 9.856C 43.5212 9.408 43.4412 9.056 43.2812 8.8C 43.1292 8.544 42.8692 8.416 42.5012 8.416C 42.3332 8.416 42.1772 8.444 42.0332 8.5C 41.8892 8.556 41.7612 8.652 41.6492 8.788C 41.5452 8.924 41.4612 9.104 41.3972 9.328C 41.3332 9.544 41.3012 9.82 41.3012 10.156L 41.3012 13L 39.9932 13L 39.9932 7.408L 41.3012 7.408L 41.3012 8.188C 41.4212 7.932 41.6172 7.716 41.8892 7.54C 42.1692 7.356 42.4932 7.264 42.8612 7.264C 43.3732 7.264 43.7652 7.36 44.0372 7.552C 44.3092 7.744 44.5052 7.98 44.6252 8.26C 44.7612 7.98 44.9812 7.744 45.2852 7.552C 45.5892 7.36 45.9412 7.264 46.3412 7.264C 46.7572 7.264 47.0972 7.332 47.3612 7.468C 47.6252 7.596 47.8292 7.764 47.9732 7.972C 48.1252 8.18 48.2252 8.416 48.2732 8.68C 48.3292 8.936 48.3572 9.196 48.3572 9.46L 48.3572 13L 47.0492 13ZM 50.0244 7.408L 51.3324 7.408L 51.3324 13L 50.0244 13L 50.0244 7.408ZM 49.7124 5.368C 49.7124 5.096 49.8044 4.868 49.9884 4.684C 50.1804 4.492 50.4084 4.396 50.6724 4.396C 50.9444 4.396 51.1724 4.492 51.3564 4.684C 51.5484 4.868 51.6444 5.096 51.6444 5.368C 51.6444 5.632 51.5484 5.86 51.3564 6.052C 51.1724 6.236 50.9444 6.328 50.6724 6.328C 50.4084 6.328 50.1804 6.236 49.9884 6.052C 49.8044 5.86 49.7124 5.632 49.7124 5.368ZM 56.179 13C 56.075 13.016 55.935 13.032 55.759 13.048C 55.583 13.064 55.399 13.072 55.207 13.072C 55.047 13.072 54.863 13.056 54.655 13.024C 54.447 13 54.247 12.924 54.055 12.796C 53.871 12.668 53.715 12.472 53.587 12.208C 53.459 11.944 53.395 11.576 53.395 11.104L 53.395 8.5L 52.447 8.5L 52.447 7.408L 53.395 7.408L 53.395 5.716L 54.703 5.716L 54.703 7.408L 55.987 7.408L 55.987 8.5L 54.703 8.5L 54.703 10.804C 54.703 11.044 54.719 11.236 54.751 11.38C 54.791 11.524 54.847 11.636 54.919 11.716C 54.991 11.788 55.075 11.836 55.171 11.86C 55.275 11.884 55.391 11.896 55.519 11.896C 55.623 11.896 55.743 11.892 55.879 11.884C 56.015 11.876 56.115 11.864 56.179 11.848L 56.179 13ZM 57.2901 4.6L 58.5981 4.6L 58.5981 8.188C 58.7741 7.884 59.0181 7.656 59.3301 7.504C 59.6421 7.344 60.0061 7.264 60.4221 7.264C 60.8301 7.264 61.1701 7.332 61.4421 7.468C 61.7221 7.604 61.9421 7.788 62.1021 8.02C 62.2381 8.228 62.3301 8.46 62.3781 8.716C 62.4341 8.972 62.4621 9.292 62.4621 9.676L 62.4621 13L 61.1541 13L 61.1541 10.108C 61.1541 9.868 61.1341 9.644 61.0941 9.436C 61.0541 9.228 60.9861 9.052 60.8901 8.908C 60.8021 8.756 60.6781 8.636 60.5181 8.548C 60.3661 8.46 60.1741 8.416 59.9421 8.416C 59.4861 8.416 59.1461 8.58 58.9221 8.908C 58.7061 9.228 58.5981 9.628 58.5981 10.108L 58.5981 13L 57.2901 13L 57.2901 4.6Z" transform="translate(81 20.193)" fill="#424B59"/>
<path id="Prospect" d="M 0.78 8L 1.69 8L 1.69 5.77L 3.24 5.77C 4.7 5.77 5.64 4.67 5.64 3.38C 5.64 2.1 4.7 1 3.24 1L 0.78 1L 0.78 8ZM 3.24 4.94L 1.69 4.94L 1.69 1.82L 3.24 1.82C 4.15 1.82 4.73 2.54 4.73 3.38C 4.73 4.23 4.15 4.94 3.24 4.94ZM 9.4982 3.46C 9.3782 3.41 9.2382 3.39 9.0682 3.39C 8.4282 3.39 7.7982 3.78 7.5582 4.35L 7.5582 3.46L 6.6882 3.46L 6.6882 8L 7.5582 8L 7.5582 6.01C 7.5582 4.92 8.0582 4.21 9.0682 4.21C 9.2282 4.21 9.3182 4.22 9.4982 4.26L 9.4982 3.46ZM 12.1162 8.11C 13.5762 8.11 14.5162 7.01 14.5162 5.73C 14.5162 4.44 13.5762 3.34 12.1162 3.34C 10.6762 3.34 9.73617 4.44 9.73617 5.73C 9.73617 7.01 10.6762 8.11 12.1162 8.11ZM 12.1162 7.33C 11.1962 7.33 10.5962 6.6 10.5962 5.73C 10.5962 4.86 11.1962 4.12 12.1162 4.12C 13.0562 4.12 13.6562 4.86 13.6562 5.73C 13.6562 6.6 13.0562 7.33 12.1162 7.33ZM 17.6219 5.47C 16.7819 5.2 16.3119 5.13 16.3119 4.67C 16.3119 4.26 16.6719 4.04 17.1519 4.04C 17.7519 4.04 18.0719 4.34 18.0719 4.87L 18.9119 4.87C 18.9119 3.96 18.1519 3.34 17.1619 3.34C 16.2219 3.34 15.4719 3.8 15.4719 4.65C 15.4719 5.47 16.0119 5.68 16.7019 5.9C 17.6119 6.21 18.1519 6.26 18.1519 6.77C 18.1519 7.22 17.7919 7.42 17.2419 7.42C 16.6319 7.42 16.1719 7.16 16.1719 6.47L 15.3219 6.47C 15.3219 7.57 16.2019 8.11 17.2019 8.11C 18.2219 8.11 18.9819 7.66 18.9819 6.75C 18.9819 5.89 18.3119 5.69 17.6219 5.47ZM 21.0934 3.46L 20.2234 3.46L 20.2234 10.46L 21.0934 10.46L 21.0934 7.21C 21.3834 7.76 22.0134 8.11 22.6734 8.11C 24.0734 8.11 25.0134 7.01 25.0134 5.73C 25.0134 4.44 24.0734 3.34 22.6734 3.34C 22.0134 3.34 21.3834 3.69 21.0934 4.24L 21.0934 3.46ZM 22.6334 4.12C 23.5434 4.12 24.1434 4.86 24.1434 5.73C 24.1434 6.6 23.5434 7.33 22.6334 7.33C 21.6934 7.33 21.0934 6.6 21.0934 5.73C 21.0934 4.86 21.6934 4.12 22.6334 4.12ZM 28.0797 4.01C 28.8097 4.01 29.3597 4.51 29.3597 5.3L 26.7297 5.3C 26.7497 4.48 27.2997 4.01 28.0797 4.01ZM 30.1597 5.96C 30.1997 5.71 30.1997 5.52 30.1997 5.39C 30.1997 4.23 29.2797 3.34 28.0997 3.34C 26.6697 3.34 25.8597 4.36 25.8597 5.73C 25.8597 7.04 26.5997 8.11 28.1297 8.11C 29.2697 8.11 30.0097 7.43 30.1597 6.66L 29.2797 6.66C 29.1397 7.05 28.8097 7.38 28.1297 7.38C 27.1297 7.38 26.7597 6.73 26.7197 5.96L 30.1597 5.96ZM 35.5236 5.11C 35.4436 4.23 34.8436 3.34 33.3736 3.34C 31.9036 3.34 31.1136 4.5 31.1136 5.73C 31.1136 6.96 31.9036 8.11 33.3836 8.11C 34.7036 8.11 35.3936 7.38 35.5336 6.44L 34.6636 6.44C 34.5236 6.98 34.1936 7.33 33.4436 7.33C 32.4336 7.33 31.9836 6.59 31.9836 5.73C 31.9836 4.88 32.4536 4.12 33.3936 4.12C 34.2436 4.12 34.5836 4.55 34.6536 5.11L 35.5236 5.11ZM 39.2266 7.23C 39.0966 7.25 38.8166 7.27 38.6366 7.27C 38.1966 7.27 37.8866 7.16 37.8866 6.28L 37.8866 4.19L 39.0666 4.19L 39.0666 3.46L 37.8866 3.46L 37.8866 1.93L 37.0166 1.93L 37.0166 3.46L 36.1766 3.46L 36.1766 4.19L 37.0166 4.19L 37.0166 6.47C 37.0166 7.96 37.8866 8.06 38.4466 8.06C 38.7366 8.06 39.0566 8.03 39.2266 8L 39.2266 7.23Z" transform="translate(81 40.193)" fill="#424B59"/>
<g id="Group">
<ellipse id="Ellipse" cx="18.9101" cy="18.9055" rx="18.9101" ry="18.9055" transform="translate(31.1123 18.9035)" fill="#FF883B"/>
<mask id="mask0" mask-type="alpha" maskUnits="userSpaceOnUse" x="31" y="18" width="38" height="39">
<ellipse id="Ellipse_2" cx="18.9101" cy="18.9055" rx="18.9101" ry="18.9055" transform="translate(31.1123 18.9035)" fill="white"/>
</mask>
<g mask="url(#mask0)">
<g id="002-businesswoman">
<g id="Group_2">
<g id="Group_3">
<path id="Vector" d="M 3.86265 7.86063C 5.99594 7.86063 7.72531 6.10097 7.72531 3.93032C 7.72531 1.75966 5.99594 0 3.86265 0C 1.72937 0 0 1.75966 0 3.93032C 0 6.10097 1.72937 7.86063 3.86265 7.86063Z" transform="translate(51.1904 40.1245)" fill="#242A2C"/>
<path id="Vector_2" d="M 3.86265 7.86063C 5.99594 7.86063 7.72531 6.10097 7.72531 3.93032C 7.72531 1.75966 5.99594 0 3.86265 0C 1.72937 0 0 1.75966 0 3.93032C 0 6.10097 1.72937 7.86063 3.86265 7.86063Z" transform="translate(41.1289 40.1245)" fill="#242A2C"/>
<path id="Vector_3" d="M 5.64195 22.3862C 5.64195 22.3862 3.85317 20.2006 2.49403 16.9104C 1.32606 14.0835 -0.0497985 11.1991 0.00138649 7.39001C 0.0500633 3.76831 2.10926 0 8.29753 0C 13.7151 0 14.9985 2.51929 14.7411 4.23846C 14.7411 4.23846 15.5598 4.31228 15.9921 4.88452C 16.7251 5.85516 16.8129 9.98208 15.9242 12.9296C 13.9057 19.6246 11.2062 22.3862 11.2062 22.3862L 5.64195 22.3862Z" transform="translate(41.6016 26.6058)" fill="#242A2C"/>
<path id="Vector_4" d="M 25.9517 9.25899C 24.9743 5.69041 20.0658 6.08627 17.9475 5.06146C 15.8293 4.03665 16.1598 0.598229 15.8914 -5.19225e-07L 10.7229 -5.19225e-07C 10.4546 0.598229 10.7855 4.03713 8.6668 5.06146C 6.54852 6.08627 1.64006 5.6905 0.662618 9.25899C 0.123271 11.2273 0.149375 11.8288 4.25238e-08 14.0097C 4.25238e-08 14.0097 6.73486 15.4452 13.1549 15.4452C 19.575 15.4452 26.6142 14.0097 26.6142 14.0097C 26.4654 11.8288 26.4911 11.2273 25.9517 9.25899Z" transform="translate(36.7148 41.2694)" fill="#4E565D"/>
<path id="Vector_5" d="M 2.05577 5.84722C 4.17405 6.87203 9.08251 6.47627 10.06 10.0448C 10.5738 11.9191 10.5748 12.5545 10.7021 14.4942C 12.3886 14.228 13.4594 14.0097 13.4594 14.0097C 13.3106 11.8293 13.3363 11.2274 12.7968 9.25899C 11.8194 5.69041 6.91091 6.08627 4.79264 5.06146C 2.67436 4.03665 3.00488 0.59823 2.73651 2.53843e-07L 0.000199724 2.53843e-07C 0.000199724 9.47758e-05 -0.0629682 4.82298 2.05577 5.84722Z" transform="translate(49.8691 41.2693)" fill="#444B51"/>
<path id="Vector_6" d="M 3.08782 6.46146e-07C 3.08782 6.46146e-07 1.50787 1.89876 6.80381e-08 2.35189C 6.80381e-08 2.35189 3.14263 7.60561 7.728 9.95439L 3.08782 6.46146e-07Z" transform="translate(42.2939 46.3308)" fill="#393E43"/>
<path id="Vector_7" d="M 4.64018 6.46146e-07C 4.64018 6.46146e-07 6.22013 1.89876 7.728 2.35189C 7.728 2.35189 4.58537 7.60561 2.94832e-07 9.95439L 4.64018 6.46146e-07Z" transform="translate(50.0225 46.3308)" fill="#393E43"/>
<path id="Vector_8" d="M 11.9959 1.31546C 11.4017 1.02802 11.0007 0.550968 10.7245 -5.76916e-08L 8.09038 -5.76916e-08L 8.0888 -5.76916e-08L 6.62265 -5.76916e-08L 6.62107 -5.76916e-08L 3.98695 -5.76916e-08C 3.71077 0.550968 3.30974 1.02802 2.71559 1.31546C 2.67908 1.33295 1.88911 2.96988 -2.89162e-07 3.76197C -2.89162e-07 3.76197 0.878226 5.17035 2.76826 7.30768C 4.6583 9.44501 7.35512 11.2699 7.35512 11.2699C 7.35512 11.2699 10.0519 9.44501 11.942 7.30768C 13.8321 5.17035 14.7103 3.76197 14.7103 3.76197C 12.8223 2.96988 12.0324 1.33304 11.9959 1.31546Z" transform="translate(42.667 45.0153)" fill="#464B50"/>
<path id="Vector_9" d="M 4.25588 1.31546C 3.66172 1.02802 3.2607 0.550968 2.98452 -5.76916e-08L 0.350399 -5.76916e-08L 0.34882 -5.76916e-08L -3.17511e-07 -5.76916e-08C 0.303394 0.919131 0.777436 1.74308 1.51883 2.1017C 2.60904 2.62875 4.43749 2.78017 6.08953 3.28908C 4.83173 2.45294 4.28616 1.32983 4.25588 1.31546Z" transform="translate(50.4062 45.0153)" fill="#444B51"/>
<path id="Vector_10" d="M 7.43548 4.30538C 6.33904 2.89218 6.52176 0.490852 6.30198 -2.0769e-07L 1.1335 -2.0769e-07C 0.913155 0.490852 1.09588 2.89228 5.10286e-08 4.30538C 0.438556 9.3312 3.71802 15.0158 3.71802 15.0158C 3.71802 15.0158 6.98856 9.38121 7.43548 4.30538Z" transform="translate(46.3047 41.2689)" fill="#FFDDB8"/>
<path id="Vector_11" d="M -1.13397e-07 -1.3846e-07C 1.05733 2.82583 2.2984 4.97696 2.2984 4.97696C 2.2984 4.97696 3.54263 2.83329 4.60098 -1.3846e-07L -1.13397e-07 -1.3846e-07Z" transform="translate(47.7236 51.3077)" fill="#EAE5DC"/>
<path id="Vector_12" d="M 2.05539 5.84817C 2.46784 6.04789 2.98638 6.19346 3.56065 6.32475C 3.70315 5.65166 3.81128 4.97374 3.87027 4.30538C 2.77383 2.89218 2.95656 0.490852 2.73677 -6.69223e-07L 0.000276206 -6.69223e-07C -0.000188267 0.00103907 -0.0633566 4.82393 2.05539 5.84817Z" transform="translate(49.8701 41.2684)" fill="#F1CBA5"/>
<path id="Vector_13" d="M 1.64425e-07 3.55421C 0.857325 4.30651 1.86291 5.05239 3.2737 5.26809C 4.68914 5.05182 5.6911 4.29054 6.55 3.53512C 5.83574 2.11984 6.05664 0.431965 5.86342 -2.0769e-07L 0.694945 -2.0769e-07C 0.501259 0.432438 0.717426 2.13837 1.64425e-07 3.55421Z" transform="translate(46.7432 41.2689)" fill="#CCA281"/>
<g id="Group_4">
<path id="Vector_14" d="M 2.02036 2.16174C 3.13618 2.16174 4.04073 1.67782 4.04073 1.08087C 4.04073 0.483922 3.13618 0 2.02036 0C 0.904548 0 0 0.483922 0 1.08087C 0 1.67782 0.904548 2.16174 2.02036 2.16174Z" transform="matrix(-0.174046 0.984727 -0.983656 -0.180001 57.4648 35.9766)" fill="#EABF95"/>
<path id="Vector_15" d="M 1.08087 4.04073C 1.67782 4.04073 2.16174 3.13618 2.16174 2.02037C 2.16174 0.904548 1.67782 0 1.08087 0C 0.483922 0 0 0.904548 0 2.02037C 0 3.13618 0.483922 4.04073 1.08087 4.04073Z" transform="matrix(-0.983656 0.180001 -0.174046 -0.984727 45.3945 39.5674)" fill="#EABF95"/>
<path id="Vector_16" d="M 11.7771 -2.59612e-08L 6.21175 0.871303C 6.21175 0.871303 4.23969 0.958453 2.63048 1.79091C 1.15336 2.5554 0.0292421 4.05093 0.0146576 4.47325C -0.129422 8.64696 0.708023 14.3645 6.16159 15.1996C 14.9244 13.8581 11.7771 -2.59612e-08 11.7771 -2.59612e-08Z" transform="translate(43.8535 31.0425)" fill="#FFDDB8"/>
<path id="Vector_17" d="M 2.26794e-08 15.1997C 8.76285 13.8582 5.61548 -2.59612e-08 5.61548 -2.59612e-08L 4.30186 -2.59612e-08C 4.66164 5.78871 5.15918 8.8637 3.09367 12.216C 1.45724 14.8724 2.26794e-08 15.1997 2.26794e-08 15.1997Z" transform="translate(50.0156 31.0425)" fill="#F1CBA5"/>
<path id="Vector_18" d="M 11.445 1.41344e-07C 11.445 1.41344e-07 8.40725 1.48598 3.87315 1.40677C -0.124199 1.3372 0.0350212 7.98124 -1.30406e-07 8.2166C -1.30406e-07 8.2166 1.01348 4.1083 3.7927 3.21412C 6.17462 2.44746 7.66632 3.11421 9.3544 3.27575C 11.233 3.45534 11.8596 2.0049 11.8596 2.0049L 11.445 1.41344e-07Z" transform="translate(43.9775 30.4251)" fill="#F1CBA5"/>
<path id="Vector_19" d="M 13.724 4.12002L 12.6479 1.42378C 12.6479 1.42378 12.3164 0.640197 11.6073 -6.34608e-08C 11.6073 -6.34608e-08 8.72988 1.71756 4.19681 1.58164C -0.648023 1.43607 -0.230834 5.91518 0.323654 8.78459C 0.323654 8.78459 0.513159 5.65912 2.90919 3.98987C 4.55445 2.84341 6.56822 2.85617 8.23438 3.19238C 9.82167 3.51272 10.7959 3.29173 11.3917 2.93046C 11.8151 3.49098 12.3508 4.45898 12.5263 5.91462L 13.724 4.12002Z" transform="translate(43.6533 29.8577)" fill="#2F3233"/>
<path id="Vector_20" d="M 0.405671 0.825554C 0.629717 0.825554 0.811343 0.640749 0.811343 0.412778C 0.811343 0.184807 0.629717 0 0.405671 0C 0.181625 0 0 0.184807 0 0.412778C 0 0.640749 0.181625 0.825554 0.405671 0.825554Z" transform="translate(56.0215 38.9456)" fill="#CC7D2E"/>
<path id="Vector_21" d="M 0.405671 0.825554C 0.629717 0.825554 0.811342 0.640749 0.811342 0.412778C 0.811342 0.184807 0.629717 0 0.405671 0C 0.181625 0 0 0.184807 0 0.412778C 0 0.640749 0.181625 0.825554 0.405671 0.825554Z" transform="translate(43.2168 38.9456)" fill="#CC7D2E"/>
</g>
</g>
</g>
</g>
</g>
</g>
</g>
</g>
<defs>
<filter id="filter0_d" x="2" y="3" width="235.419" height="73.6181" filterUnits="userSpaceOnUse" color-interpolation-filters="sRGB">
<feFlood flood-opacity="0" result="BackgroundImageFix"/>
<feColorMatrix in="SourceAlpha" type="matrix" values="0 0 0 0 0 0 0 0 0 0 0 0 0 0 0 0 0 0 255 0"/>
<feOffset dy="2"/>
<feGaussianBlur stdDeviation="3"/>
<feColorMatrix type="matrix" values="0 0 0 0 0.114414 0 0 0 0 0.133722 0 0 0 0 0.163755 0 0 0 0.06 0"/>
<feBlend mode="normal" in2="BackgroundImageFix" result="effect1_dropShadow"/>
<feBlend mode="normal" in="SourceGraphic" in2="effect1_dropShadow" result="shape"/>
</filter>
<filter id="filter1_d" x="0" y="0" width="239.419" height="77.6181" filterUnits="userSpaceOnUse" color-interpolation-filters="sRGB">
<feFlood flood-opacity="0" result="BackgroundImageFix"/>
<feColorMatrix in="SourceAlpha" type="matrix" values="0 0 0 0 0 0 0 0 0 0 0 0 0 0 0 0 0 0 255 0"/>
<feOffset dy="1"/>
<feGaussianBlur stdDeviation="4"/>
<feColorMatrix type="matrix" values="0 0 0 0 0 0 0 0 0 0 0 0 0 0 0 0 0 0 0.15 0"/>
<feBlend mode="normal" in2="BackgroundImageFix" result="effect1_dropShadow"/>
<feBlend mode="normal" in="SourceGraphic" in2="effect1_dropShadow" result="shape"/>
</filter>
<linearGradient id="paint0_linear" x2="1" gradientUnits="userSpaceOnUse" gradientTransform="matrix(229.022 100.479 -364.326 830.006 161.152 -431.108)">
<stop stop-color="white" stop-opacity="0"/>
<stop offset="1" stop-color="#B2D0FF"/>
</linearGradient>
</defs>
</svg>
