<?xml version="1.0" encoding="UTF-8"?>
<svg version="1.1" viewBox="0 0 180 87" xmlns="http://www.w3.org/2000/svg" xmlns:xlink="http://www.w3.org/1999/xlink">
<g transform="matrix(1.5 0 0 1.5 -20192 738)">
<use transform="translate(13530 -479.12)" fill="#303030" xlink:href="#f"/>
<use transform="translate(13511 -492)" fill="#F17221" xlink:href="#e"/>
<use transform="translate(13507 -481.77)" fill="#303030" xlink:href="#d"/>
<use transform="translate(13529 -447.03)" fill="#303030" xlink:href="#c"/>
<use transform="translate(13505 -447.6)" fill="#F17221" xlink:href="#b"/>
<use transform="translate(13461 -447.15)" fill="#303030" xlink:href="#a"/>
</g>
<defs>
<path id="f" d="m3.4669 1.4355c-0.89125-0.88904-2.1177-1.4355-3.4669-1.4355v3.3523c0.42518 0 0.80948 0.17129 1.0875 0.45676 0.27801 0.27732 0.45789 0.66882 0.45789 1.0848 0 0.42414-0.17171 0.80748-0.45789 1.0848-0.278 0.27732-0.67048 0.45676-1.0875 0.45676v3.3604c1.3491 0 2.5838-0.55464 3.4669-1.4355 0.89125-0.88905 1.4391-2.1125 1.4391-3.4665 0-1.3458-0.55601-2.5774-1.4391-3.4583z" fill-rule="evenodd"/>
<path id="e" d="m11.235 14.543c0.1553 0.3507 0.6214 0.3507 1.0875 0.3589 0.4742 0.0081 1.2346 0.0326 1.7579 0.0081 0.0736 0 0.139-0.0081 0.1963-0.0081 0.466-0.0327 0.7032-0.0898 0.7686-0.5873 0.0409-0.2855 0.0081-0.6933 0.0245-1.2887 0.0164-0.4568-0.0164-0.416 0.1799-0.8319 0.4088-0.7586 0.3516-1.1093 1.2428-1.1582 0.6705-0.0327 1.5781 0.0734 1.5781-0.7586v-0.0571c0.0082-1.0603 0.229-2.349-0.7604-2.349-0.9567 0-2.2731 0.22837-2.314-1.1664-0.0082-0.56279-0.139-2.0636 0.7523-2.0228 0.4497 0.01631 1.2919 0.15497 1.2919-0.50569 0-1.8026 0.1635-1.6394-1.6435-1.6394-1.0875 0 0.0817 1.933-1.1693 2.5774-0.2044 0.10603-0.2943 0.12234-0.5233 0.12234-0.3516 0-0.8667-0.01631-0.8667 0.5057 0 0.73407-0.1635 1.6394 0.5233 1.6394l0.7604 0.01632c0.2862 0.03262 0.3353 0.04078 0.5151 0.29363 0.3189 0.49753 0.3762 2.088 0.2126 2.7486-0.2044 0.6933-0.6623 1.2153-1.3818 1.3948-0.368 0.0489-1.1039-0.0082-1.529-0.0082-0.8095 0-0.8095 0.8564-0.7768 1.7536 0.0082 0.2203 0.0163 0.4405 0.0163 0.6525 0 0.1305 0.0246 0.2284 0.0573 0.31zm2.3058-14.543h0.556c0.2289 0 0.417 0.1876 0.417 0.41597v0.55463c0 0.22837-0.1881 0.41597-0.417 0.41597h-0.556c-0.229 0-0.417-0.1876-0.417-0.41597v-0.55463c0-0.22838 0.188-0.41597 0.417-0.41597zm-3.2543 14.543h-10.286v6.9492c0 3.8172 3.1398 6.9492 6.9665 6.9492h0.139c3.8348 0 6.9665-3.132 6.9665-6.9492v-5.6687c-0.5806 0.0245-1.1857-0.0081-1.7662-0.0163-0.556-0.0081-1.1038-0.0244-1.5536-0.416-0.2616-0.212-0.4088-0.5138-0.466-0.8482z" fill-rule="evenodd"/>
<path id="d" d="m18.275 1.2446e-7h-16.59-1.6844v1.6802 9.5919c0 3.0994 1.2674 5.9215 3.3197 7.9606 2.0442 2.0391 4.8733 3.3115 7.9804 3.3115h0.1553c3.1072 0 5.9363-1.2643 7.9804-3.3115 2.0442-2.0391 3.3197-4.8612 3.3197-7.9606v-7.251-0.66066-2.0065c-0.4497 0.35072-1.0139 0.35072-1.5699 0.40781-0.3925 0.04079-0.3925 0.04079-0.5151 0.20391-0.4743 0.62804-0.2371 1.4926-0.3434 2.2512-0.0982 0.68513-0.4252 1.0685-0.9322 1.2561v5.7992c0 2.1777-0.8912 4.1516-2.3303 5.5871s-3.4178 2.3246-5.601 2.3246h-0.1553c-2.175 0-4.1619-0.8891-5.601-2.3246-1.4391-1.4355-2.3303-3.4094-2.3303-5.5871v-7.9117h11.186c-0.0246-0.78301-0.0328-1.6884 0.5805-2.2675 0.3107-0.29363 0.7114-0.42413 1.1447-0.42413 0.3925 0 0.9485 0.06525 1.341 0.024468 0.2862-0.08972 0.5233-0.30994 0.6214-0.59541l0.0245-0.097876z" fill-rule="evenodd"/>
<path id="c" d="m4.8651 10.057c0.55601 0 1.0711-0.08973 1.529-0.26917 0.46607-0.17944 0.85855-0.43228 1.1856-0.76669 0.32707-0.33442 0.58054-0.71777 0.76861-1.1745 0.17988-0.4486 0.278-0.9543 0.278-1.5089v-0.03263c0-0.54647-0.08994-1.044-0.278-1.5089-0.17989-0.46492-0.44154-0.85642-0.76861-1.1908-0.32706-0.33441-0.71954-0.58726-1.1856-0.77485-0.46606-0.17944-0.97302-0.27732-1.529-0.27732h-2.1177v7.4957h2.1177v0.0082zm-4.8651-9.9671h4.8569c0.97302 0 1.8643 0.15497 2.6819 0.47307 0.80948 0.30994 1.5127 0.75038 2.1014 1.305 0.58867 0.55463 1.0385 1.2071 1.3655 1.9657 0.3189 0.75038 0.4824 1.566 0.4824 2.4388v0.03262c0 0.87273-0.1635 1.6965-0.4824 2.4469-0.3189 0.75854-0.7768 1.411-1.3655 1.9738-0.58872 0.5628-1.2837 0.9951-2.1014 1.3213-0.80949 0.3181-1.7089 0.4813-2.6819 0.4813h-4.8569v-12.438zm21.079 7.2265l-1.6517-4.0292-1.6598 4.0292h3.3115zm-2.8863-7.3163h2.5265l5.3394 12.52h-2.8618l-1.1366-2.7895h-5.2657l-1.1366 2.7895h-2.8046l5.3394-12.52zm12.698 2.6182h-3.7939v-2.5203h10.327v2.5203h-3.794v9.91h-2.7392v-9.91zm15.789 4.6981l-1.6599-4.0292-1.6516 4.0292h3.3115zm-2.8863-7.3163h2.5265l5.3394 12.52h-2.8619l-1.1365-2.7895h-5.2657l-1.1366 2.7895h-2.7964l5.3312-12.52z" fill-rule="evenodd"/>
<path id="b" d="m5.1758 10.97c0.39247 0 0.73589-0.0652 1.0384-0.2039 0.30253-0.1387 0.56419-0.3263 0.77678-0.5628 0.21259-0.23653 0.37612-0.51384 0.49059-0.82379 0.11448-0.31809 0.17171-0.64435 0.17171-1.0032v-0.03262c0-0.35888-0.05724-0.69329-0.17989-1.0032-0.12264-0.30994-0.29435-0.59541-0.51512-0.83194-0.22895-0.2447-0.4906-0.43229-0.80131-0.57911-0.31071-0.13866-0.64595-0.21206-1.0139-0.21206-0.39248 0-0.73589 0.06525-1.0384 0.20391-0.30253 0.13865-0.56418 0.32625-0.77678 0.56279-0.21259 0.23653-0.37612 0.51385-0.49059 0.82379-0.11448 0.30994-0.17171 0.64435-0.17171 1.0032v0.03263c0 0.35888 0.05723 0.69328 0.17988 1.0032 0.12265 0.30994 0.29436 0.59541 0.51513 0.83191 0.22894 0.2447 0.4906 0.4323 0.79313 0.5791 0.30253 0.1469 0.64595 0.2121 1.0221 0.2121zm-0.03271 2.3327c-0.7359 0-1.4146-0.1305-2.0442-0.3833-0.6296-0.2529-1.1693-0.6036-1.6272-1.044-0.45789-0.4405-0.81766-0.9625-1.0793-1.5661-0.26165-0.59538-0.39248-1.2397-0.39248-1.9249v-0.03263c0-0.68513 0.13083-1.3295 0.39248-1.9249 0.26165-0.59541 0.62142-1.1174 1.0875-1.5742 0.46606-0.4486 1.0057-0.80749 1.6353-1.0685s1.3164-0.39151 2.0687-0.39151c0.7359 0 1.4146 0.13051 2.0442 0.38335 0.6296 0.25285 1.1692 0.60357 1.6271 1.044 0.45789 0.44044 0.81767 0.96245 1.0793 1.566 0.26161 0.59541 0.39251 1.2398 0.39251 1.9249v0.03263c0 0.68513-0.1309 1.3295-0.39251 1.9249-0.26165 0.5954-0.62142 1.1255-1.0875 1.5741s-1.0057 0.8075-1.6353 1.0685c-0.63778 0.261-1.3246 0.3915-2.0687 0.3915zm7.5961-7.4304h-1.1202v-2.2185h1.1202v-0.60357c0-1.0277 0.2534-1.8026 0.7686-2.3083 0.4987-0.49754 1.2265-0.74223 2.1913-0.74223 0.4252 0 0.7931 0.024466 1.0957 0.073404 0.3025 0.048938 0.5805 0.11419 0.8258 0.19575v2.2348c-0.2044-0.07341-0.4006-0.1305-0.5887-0.17128s-0.4007-0.06525-0.6378-0.06525c-0.6541 0-0.9812 0.34256-0.9812 1.0277v0.37519h2.1914v2.2022h-2.1505v7.2102h-2.7065v-7.2102h-0.0081z" fill-rule="evenodd"/>
<path id="a" d="m6.3941 12.854c-0.91578 0-1.7662-0.1631-2.5429-0.4975-0.78496-0.3344-1.4554-0.783-2.0278-1.3621-0.57237-0.571-1.0139-1.2561-1.3328-2.031-0.31889-0.77486-0.4906-1.615-0.4906-2.504v-0.03262c0-0.88904 0.16353-1.721 0.48242-2.4958 0.31889-0.77485 0.7686-1.4518 1.3328-2.0391 0.57236-0.58725 1.251-1.044 2.0442-1.3866 0.79313-0.33441 1.6762-0.50569 2.6329-0.50569 0.58054 0 1.112 0.048934 1.5944 0.13865 0.48242 0.097876 0.91578 0.22838 1.3083 0.39151s0.75227 0.36703 1.0875 0.60356c0.3353 0.23654 0.6378 0.49754 0.924 0.78302l-1.7416 2.0065c-0.4906-0.44045-0.98119-0.78301-1.4881-1.0277-0.50695-0.25285-1.0711-0.3752-1.7007-0.3752-0.5233 0-1.0057 0.09788-1.4473 0.30179s-0.82584 0.48123-1.1447 0.83195c-0.31889 0.35888-0.57236 0.7667-0.74407 1.2316-0.17989 0.46491-0.26983 0.97061-0.26983 1.5008v0.03262c0 0.53017 0.08994 1.0359 0.26983 1.5089s0.42518 0.88904 0.7359 1.2398c0.31071 0.35888 0.69501 0.63619 1.1366 0.84005 0.44153 0.204 0.93213 0.31 1.4718 0.31 0.71136 0 1.3164-0.1305 1.807-0.39151 0.49059-0.26101 0.98119-0.61173 1.4718-1.0685l1.7416 1.7618c-0.3189 0.3425-0.6541 0.6525-0.9975 0.9217-0.3435 0.2691-0.71959 0.5056-1.1284 0.7014-0.40883 0.1957-0.85855 0.3426-1.341 0.4404-0.49877 0.1142-1.0384 0.1713-1.6435 0.1713zm12.494-0.0244c-1.6762 0-2.9927-0.465-3.9493-1.3866-0.9649-0.9217-1.4473-2.3001-1.4473-4.1353v-7.1042h2.7392v7.0308c0 1.0195 0.2371 1.7862 0.7113 2.3001 0.4743 0.51382 1.1366 0.77482 1.9788 0.77482s1.5045-0.2528 1.9787-0.74219c0.4743-0.49754 0.7114-1.2398 0.7114-2.2348v-7.1205h2.7392v7.0145c0 0.94614-0.1309 1.7699-0.3843 2.4714-0.2535 0.70149-0.6215 1.2806-1.0957 1.7455s-1.0466 0.8156-1.7253 1.044c-0.6705 0.2284-1.4227 0.3426-2.2567 0.3426zm13.172-6.3538c0.6868 0 1.2265-0.17944 1.6026-0.53832 0.3762-0.35888 0.5724-0.80748 0.5724-1.3376v-0.03262c0-0.61172-0.1963-1.0848-0.5969-1.4029-0.4007-0.3181-0.9403-0.48123-1.6272-0.48123h-2.1177v3.8009h2.1668v-0.00816zm-4.9141-6.2722h5.094c0.7441 0 1.4145 0.10603 2.0033 0.30994 0.5887 0.20391 1.0875 0.49754 1.4963 0.88089 0.4088 0.37519 0.7195 0.83195 0.9403 1.3621s0.3271 1.1093 0.3271 1.7455v0.03263c0 0.71775-0.1309 1.354-0.3925 1.9004-0.2617 0.54647-0.6214 1.0032-1.0793 1.3703-0.4579 0.36704-0.9894 0.64436-1.6026 0.8238-0.6133 0.17944-1.2674 0.27731-1.9706 0.27731h-2.085v3.7275h-2.731v-12.43z" fill-rule="evenodd"/>
</defs>
</svg>
