<svg width="2560" height="1400" viewBox="0 0 2560 1400" version="1.1" xmlns="http://www.w3.org/2000/svg" xmlns:xlink="http://www.w3.org/1999/xlink">
<title>Group 18</title>
<desc>Created using Figma</desc>
<g id="Canvas" transform="matrix(2 0 0 2 -14224 1024)">
<g id="Group 18">
<mask id="mask0_alpha" mask-type="alpha">
<g id="Rectangle 4">
<use xlink:href="#path0_fill" transform="translate(7112 -512)" fill="#495CF2"/>
</g>
</mask>
<g id="Rectangle 4.1" mask="url(#mask0_alpha)">
<use xlink:href="#path1_fill" transform="translate(7112 -512)" fill="url(#paint1_linear)"/>
</g>
<g id="Ellipse 2" mask="url(#mask0_alpha)">
<use xlink:href="#path2_fill" transform="translate(7899 -175)" fill="#3849D6" fill-opacity="0.5"/>
</g>
<g id="Ellipse 2" mask="url(#mask0_alpha)">
<use xlink:href="#path3_fill" transform="translate(8080 -303)" fill="#FFFFFF" fill-opacity="0.05"/>
</g>
</g>
</g>
<defs>
<linearGradient id="paint1_linear" x1="0" y1="0" x2="1" y2="0" gradientUnits="userSpaceOnUse" gradientTransform="matrix(-1310 -683.5 1249.83 -2395.43 674.586 1897.71)">
<stop offset="0" stop-color="#495CF2"/>
<stop offset="1" stop-color="#2438D6" stop-opacity="0.9"/>
</linearGradient>
<path id="path0_fill" d="M 0 0L 1281 0L 1281 700L 0 700L 0 0Z"/>
<path id="path1_fill" d="M 0 0L 1280 0L 1280 700L 0 700L 0 0Z"/>
<path id="path2_fill" d="M 341.082 170.5C 341.082 264.665 264.729 341 170.541 341C 76.3539 341 0 264.665 0 170.5C 0 76.3354 76.3539 0 170.541 0C 264.729 0 341.082 76.3354 341.082 170.5Z"/>
<path id="path3_fill" d="M 301 150.5C 301 233.619 233.619 301 150.5 301C 67.3811 301 0 233.619 0 150.5C 0 67.3811 67.3811 0 150.5 0C 233.619 0 301 67.3811 301 150.5Z"/>
</defs>
</svg>
