<?xml version="1.0" encoding="UTF-8"?>
<svg version="1.1" viewBox="0 0 1280 700" xmlns="http://www.w3.org/2000/svg" xmlns:xlink="http://www.w3.org/1999/xlink">
<g transform="translate(-7112 512)">
<mask id="a" mask-type="alpha">
<use transform="translate(7112 -512)" fill="#495CF2" xlink:href="#b"/>
</mask>
<g mask="url(#a)">
<use transform="translate(7112 -512)" fill="url(#e)" xlink:href="#b"/>
</g>
<g mask="url(#a)">
<use transform="translate(7899 -175)" fill="#3849D6" fill-opacity=".5" xlink:href="#d"/>
</g>
<g mask="url(#a)">
<use transform="translate(8080 -303)" fill="#FFFFFF" fill-opacity=".05" xlink:href="#c"/>
</g>
</g>
<defs>
<linearGradient id="e" x2="1" gradientTransform="matrix(-1310 -683.5 1249.8 -2395.4 674.59 1897.7)" gradientUnits="userSpaceOnUse">
<stop stop-color="#495CF2" offset="0"/>
<stop stop-color="#2438D6" stop-opacity=".9" offset="1"/>
</linearGradient>
<path id="b" d="m0 0h1280v700h-1280v-700z"/>
<path id="d" d="m341.08 170.5c0 94.165-76.353 170.5-170.54 170.5-94.187 0-170.54-76.335-170.54-170.5 0-94.165 76.354-170.5 170.54-170.5 94.188 0 170.54 76.335 170.54 170.5z"/>
<path id="c" d="M 301 150.5C 301 233.619 233.619 301 150.5 301C 67.3811 301 0 233.619 0 150.5C 0 67.3811 67.3811 0 150.5 0C 233.619 0 301 67.3811 301 150.5Z"/>
</defs>
</svg>
