<?xml version="1.0" encoding="UTF-8"?>
<svg version="1.1" viewBox="0 0 246 455" xmlns="http://www.w3.org/2000/svg" xmlns:xlink="http://www.w3.org/1999/xlink">
<g transform="matrix(1.5 0 0 1.5 -12342 168)">
<use transform="translate(8228 24.048)" fill="url(#g)" xlink:href="#d"/>
<mask id="h" mask-type="alpha">
<use transform="translate(8228 12)" fill="url(#f)" xlink:href="#b"/>
</mask>
<g mask="url(#h)">
<use transform="translate(8228 12)" fill="url(#e)" xlink:href="#b"/>
</g>
<use transform="matrix(6.1232e-17 -1 1 6.1232e-17 8356 2)" fill="#FFFFFF" fill-opacity=".2" xlink:href="#c"/>
<use transform="matrix(6.1232e-17 -1 1 6.1232e-17 8308 -56)" fill="#FFFFFF" fill-opacity=".2" xlink:href="#a"/>
<use transform="matrix(6.1232e-17 -1 1 6.1232e-17 8266 6)" fill="#FFFFFF" fill-opacity=".2" xlink:href="#a"/>
</g>
<defs>
<linearGradient id="g" x2="1" gradientTransform="matrix(-215.7 -82.615 87.588 -288.46 133.21 258.68)" gradientUnits="userSpaceOnUse">
<stop stop-color="#C5D1DE" offset="0"/>
<stop stop-color="#fff" offset=".52486"/>
<stop stop-color="#E5E5E5" offset=".85692"/>
</linearGradient>
<linearGradient id="f" x2="1" gradientTransform="matrix(-157.46 -33.433 237.11 -421.76 23.197 240.07)" gradientUnits="userSpaceOnUse">
<stop stop-color="#4D341E" offset="0"/>
<stop stop-color="#704E2E" offset="1"/>
</linearGradient>
<linearGradient id="e" x2="1" gradientTransform="matrix(-157.46 -33.433 237.11 -421.76 23.197 240.07)" gradientUnits="userSpaceOnUse">
<stop stop-color="#F37110" offset="0"/>
<stop stop-color="#F0C19E" offset="1"/>
</linearGradient>
<path id="d" d="m0 0h177v156.95c0 5.523-4.477 10-10 10h-157c-5.5228 0-10-4.477-10-10v-156.95z"/>
<path id="b" d="m177 12.478c0 6.8916-39.623 12.478-88.5 12.478-48.877 0-88.5-5.5867-88.5-12.478 0-6.8916 39.623-12.478 88.5-12.478 48.877 0 88.5 5.5868 88.5 12.478z"/>
<path id="c" d="m0 0.5c2.9245 0 4.3598 0.93558 5.87 1.919 1.5612 1.0166 3.1974 2.081 6.4157 2.081v-1c-2.9245 0-4.3598-0.93558-5.87-1.919-1.5612-1.0166-3.1974-2.081-6.4157-2.081v1zm12.286 4c3.2183 0 4.8545-1.0644 6.4157-2.081 1.5103-0.98342 2.9455-1.919 5.87-1.919v-1c-3.2183 0-4.8545 1.0644-6.4157 2.081-1.5102 0.98342-2.9455 1.919-5.87 1.919v1zm12.286-4c2.9246 0 4.3598 0.93558 5.8701 1.919 1.5611 1.0166 3.1973 2.081 6.4156 2.081v-1c-2.9245 0-4.3597-0.93558-5.87-1.919-1.5612-1.0166-3.1973-2.081-6.4157-2.081v1zm12.286 4c3.2184 0 4.8546-1.0644 6.4157-2.081 1.5103-0.98342 2.9455-1.919 5.8701-1.919v-1c-3.2184 0-4.8546 1.0644-6.4157 2.081-1.5103 0.98342-2.9455 1.919-5.8701 1.919v1zm12.286-4c2.9245 0 4.3597 0.93558 5.87 1.919 1.5612 1.0166 3.1974 2.081 6.4157 2.081v-1c-2.9246 0-4.3598-0.93558-5.87-1.919-1.5612-1.0166-3.1974-2.081-6.4157-2.081v1zm12.286 4c3.2183 0 4.8545-1.0644 6.4157-2.081 1.5102-0.98342 2.9455-1.919 5.87-1.919v-1c-3.2183 0-4.8545 1.0644-6.4157 2.081-1.5103 0.98342-2.9455 1.919-5.87 1.919v1zm12.286-4c2.9245 0 4.3598 0.93558 5.87 1.919 1.5612 1.0166 3.1974 2.081 6.4157 2.081v-1c-2.9245 0-4.3598-0.93558-5.87-1.919-1.5612-1.0166-3.1974-2.081-6.4157-2.081v1z"/>
<path id="a" d="m0 0.5c1.7802 0 2.6517 0.85881 3.6464 1.8536 1.0052 1.0053 2.1337 2.1464 4.3536 2.1464v-1c-1.7802 0-2.6517-0.85881-3.6464-1.8536-1.0052-1.0053-2.1337-2.1464-4.3536-2.1464v1zm8 4c2.2198 0 3.3483-1.1412 4.3536-2.1464 0.9947-0.99474 1.8662-1.8536 3.6464-1.8536v-1c-2.2198 0-3.3483 1.1412-4.3536 2.1464-0.9947 0.99474-1.8662 1.8536-3.6464 1.8536v1zm8-4c1.7802 0 2.6517 0.85881 3.6464 1.8536 1.0053 1.0053 2.1338 2.1464 4.3536 2.1464v-1c-1.7802 0-2.6517-0.85881-3.6464-1.8536-1.0053-1.0053-2.1338-2.1464-4.3536-2.1464v1zm8 4c2.2198 0 3.3483-1.1412 4.3536-2.1464 0.9947-0.99474 1.8662-1.8536 3.6464-1.8536v-1c-2.2198 0-3.3483 1.1412-4.3536 2.1464-0.9947 0.99474-1.8662 1.8536-3.6464 1.8536v1zm8-4c1.7802 0 2.6517 0.85881 3.6464 1.8536 1.0053 1.0053 2.1338 2.1464 4.3536 2.1464v-1c-1.7802 0-2.6517-0.85881-3.6464-1.8536-1.0053-1.0053-2.1338-2.1464-4.3536-2.1464v1zm8 4c2.2198 0 3.3483-1.1412 4.3536-2.1464 0.9947-0.99474 1.8662-1.8536 3.6464-1.8536v-1c-2.2198 0-3.3483 1.1412-4.3535 2.1464-0.9948 0.99474-1.8663 1.8536-3.6465 1.8536v1zm8-4c1.7802 0 2.6517 0.85881 3.6464 1.8536 1.0053 1.0053 2.1338 2.1464 4.3536 2.1464v-1c-1.7802 0-2.6517-0.85881-3.6464-1.8536-1.0053-1.0053-2.1338-2.1464-4.3536-2.1464v1z"/>
</defs>
</svg>
