<svg width="67" height="68" viewBox="0 0 67 68" version="1.1" xmlns="http://www.w3.org/2000/svg" xmlns:xlink="http://www.w3.org/1999/xlink">
<title>icons8-org_unit</title>
<desc>Created using Figma</desc>
<g id="Canvas" transform="translate(-2409 -1821)">
<g id="icons8-org_unit">
<g id="Vector">
<use xlink:href="#path0_stroke" transform="translate(2450.62 1822.83)" fill="#3D54FF"/>
</g>
<g id="Vector">
<use xlink:href="#path1_stroke" transform="translate(2410 1822.83)" fill="#3D54FF"/>
</g>
<g id="Vector">
<use xlink:href="#path2_stroke" transform="translate(2434.38 1834.2)" fill="#3D54FF"/>
</g>
<g id="Vector">
<use xlink:href="#path3_stroke" transform="translate(2450.62 1863.45)" fill="#3D54FF"/>
</g>
<g id="Vector">
<use xlink:href="#path4_stroke" transform="translate(2410 1864.27)" fill="#FF842B"/>
</g>
<g id="Vector">
<use xlink:href="#path5_stroke" transform="translate(2410.49 1863.45)" fill="#FF842B"/>
</g>
<g id="Vector">
<use xlink:href="#path6_stroke" transform="translate(2410 1863.45)" fill="#FF842B"/>
</g>
<g id="Vector">
<use xlink:href="#path7_stroke" transform="translate(2418.77 1871.58)" fill="#FF842B"/>
</g>
<g id="Vector">
<use xlink:href="#path8_stroke" transform="translate(2426.9 1879.7)" fill="#FF842B"/>
</g>
<g id="Vector">
<use xlink:href="#path9_stroke" transform="translate(2410 1863.45)" fill="#3D54FF"/>
</g>
<g id="Vector">
<use xlink:href="#path2_stroke" transform="translate(2434.38 1876.45)" fill="#3D54FF"/>
</g>
<g id="Vector">
<use xlink:href="#path10_stroke" transform="translate(2463.62 1847.2)" fill="#3D54FF"/>
</g>
<g id="Vector">
<use xlink:href="#path10_stroke" transform="translate(2421.38 1847.2)" fill="#3D54FF"/>
</g>
</g>
</g>
<defs>
<path id="path0_stroke" d="M 0 0L 0 -1C -0.552285 -1 -1 -0.552285 -1 2.22045e-16L 0 0ZM 24.375 0L 25.375 0C 25.375 -0.552285 24.9273 -1 24.375 -1L 24.375 0ZM 24.375 24.375L 24.375 25.375C 24.9273 25.375 25.375 24.9273 25.375 24.375L 24.375 24.375ZM 0 24.375L -1 24.375C -1 24.9273 -0.552285 25.375 2.22045e-16 25.375L 0 24.375ZM 0 1L 24.375 1L 24.375 -1L 0 -1L 0 1ZM 23.375 0L 23.375 24.375L 25.375 24.375L 25.375 0L 23.375 0ZM 24.375 23.375L 0 23.375L 0 25.375L 24.375 25.375L 24.375 23.375ZM 1 24.375L 1 18.8906L -1 18.8906L -1 24.375L 1 24.375ZM 1 18.8906L 1 0L -1 0L -1 18.8906L 1 18.8906Z"/>
<path id="path1_stroke" d="M 0 0L 0 -1C -0.552285 -1 -1 -0.552285 -1 2.22045e-16L 0 0ZM 24.375 0L 25.375 0C 25.375 -0.552285 24.9273 -1 24.375 -1L 24.375 0ZM 24.375 24.375L 24.375 25.375C 24.9273 25.375 25.375 24.9273 25.375 24.375L 24.375 24.375ZM 0 24.375L -1 24.375C -1 24.9273 -0.552285 25.375 2.22045e-16 25.375L 0 24.375ZM 0 1L 24.375 1L 24.375 -1L 0 -1L 0 1ZM 23.375 0L 23.375 19.6528L 25.375 19.6528L 25.375 0L 23.375 0ZM 23.375 19.6528L 23.375 24.375L 25.375 24.375L 25.375 19.6528L 23.375 19.6528ZM 24.375 23.375L 0 23.375L 0 25.375L 24.375 25.375L 24.375 23.375ZM 1 24.375L 1 0L -1 0L -1 24.375L 1 24.375Z"/>
<path id="path2_stroke" d="M 0 1L 16.25 1L 16.25 -1L 0 -1L 0 1Z"/>
<path id="path3_stroke" d="M 0 0L 0 -1C -0.552285 -1 -1 -0.552285 -1 2.22045e-16L 0 0ZM 24.375 0L 25.375 0C 25.375 -0.552285 24.9273 -1 24.375 -1L 24.375 0ZM 24.375 24.375L 24.375 25.375C 24.9273 25.375 25.375 24.9273 25.375 24.375L 24.375 24.375ZM 0 24.375L -1 24.375C -1 24.9273 -0.552285 25.375 2.22045e-16 25.375L 0 24.375ZM 0 1L 6.39925 1L 6.39925 -1L 0 -1L 0 1ZM 6.39925 1L 24.375 1L 24.375 -1L 6.39925 -1L 6.39925 1ZM 23.375 0L 23.375 24.375L 25.375 24.375L 25.375 0L 23.375 0ZM 24.375 23.375L 0 23.375L 0 25.375L 24.375 25.375L 24.375 23.375ZM 1 24.375L 1 0L -1 0L -1 24.375L 1 24.375Z"/>
<path id="path4_stroke" d="M 24.2696 0.707107C 24.6601 0.316583 24.6601 -0.316583 24.2696 -0.707107C 23.8791 -1.09763 23.2459 -1.09763 22.8554 -0.707107L 24.2696 0.707107ZM -0.707107 22.8554C -1.09763 23.2459 -1.09763 23.8791 -0.707107 24.2696C -0.316583 24.6601 0.316583 24.6601 0.707107 24.2696L -0.707107 22.8554ZM 22.8554 -0.707107L -0.707107 22.8554L 0.707107 24.2696L 24.2696 0.707107L 22.8554 -0.707107Z"/>
<path id="path5_stroke" d="M 8.34461 0.707107C 8.73513 0.316582 8.73513 -0.316583 8.34461 -0.707107C 7.95408 -1.09763 7.32092 -1.09763 6.93039 -0.707107L 8.34461 0.707107ZM -0.707107 6.93039C -1.09763 7.32092 -1.09763 7.95408 -0.707106 8.34461C -0.316582 8.73513 0.316583 8.73513 0.707107 8.34461L -0.707107 6.93039ZM 6.93039 -0.707107L -0.707107 6.93039L 0.707107 8.34461L 8.34461 0.707107L 6.93039 -0.707107Z"/>
<path id="path6_stroke" d="M 16.9571 0.707107C 17.3476 0.316583 17.3476 -0.316583 16.9571 -0.707107C 16.5666 -1.09763 15.9334 -1.09763 15.5429 -0.707107L 16.9571 0.707107ZM -0.707107 15.5429C -1.09763 15.9334 -1.09763 16.5666 -0.707107 16.9571C -0.316583 17.3476 0.316583 17.3476 0.707107 16.9571L -0.707107 15.5429ZM 15.5429 -0.707107L -0.707107 15.5429L 0.707107 16.9571L 16.9571 0.707107L 15.5429 -0.707107Z"/>
<path id="path7_stroke" d="M 16.3071 0.707107C 16.6976 0.316583 16.6976 -0.316582 16.3071 -0.707107C 15.9166 -1.09763 15.2834 -1.09763 14.8929 -0.707107L 16.3071 0.707107ZM -0.707107 14.8929C -1.09763 15.2834 -1.09763 15.9166 -0.707107 16.3071C -0.316583 16.6976 0.316582 16.6976 0.707106 16.3071L -0.707107 14.8929ZM 14.8929 -0.707107L -0.707107 14.8929L 0.707106 16.3071L 16.3071 0.707107L 14.8929 -0.707107Z"/>
<path id="path8_stroke" d="M 8.18211 0.707107C 8.57263 0.316583 8.57263 -0.316582 8.18211 -0.707107C 7.79158 -1.09763 7.15842 -1.09763 6.76789 -0.707107L 8.18211 0.707107ZM -0.707107 6.76789C -1.09763 7.15841 -1.09763 7.79158 -0.707108 8.1821C -0.316583 8.57263 0.316582 8.57263 0.707106 8.1821L -0.707107 6.76789ZM 6.76789 -0.707107L -0.707107 6.76789L 0.707106 8.1821L 8.18211 0.707107L 6.76789 -0.707107Z"/>
<path id="path9_stroke" d="M 0 0L 0 -1C -0.552285 -1 -1 -0.552285 -1 2.22045e-16L 0 0ZM 24.375 0L 25.375 0C 25.375 -0.552285 24.9273 -1 24.375 -1L 24.375 0ZM 24.375 24.375L 24.375 25.375C 24.9273 25.375 25.375 24.9273 25.375 24.375L 24.375 24.375ZM 0 24.375L -1 24.375C -1 24.9273 -0.552285 25.375 2.22045e-16 25.375L 0 24.375ZM 0 1L 24.375 1L 24.375 -1L 0 -1L 0 1ZM 23.375 0L 23.375 5.941L 25.375 5.941L 25.375 0L 23.375 0ZM 23.375 5.941L 23.375 24.375L 25.375 24.375L 25.375 5.941L 23.375 5.941ZM 24.375 23.375L 0 23.375L 0 25.375L 24.375 25.375L 24.375 23.375ZM 1 24.375L 1 0L -1 0L -1 24.375L 1 24.375Z"/>
<path id="path10_stroke" d="M -1 0L -1 16.25L 1 16.25L 1 0L -1 0Z"/>
</defs>
</svg>
