<?xml version="1.0" encoding="UTF-8"?>
<svg version="1.1" viewBox="0 0 73 80" xmlns="http://www.w3.org/2000/svg" xmlns:xlink="http://www.w3.org/1999/xlink">
<g transform="translate(-3004 -1812)">
<use transform="translate(3037 1813.8)" fill="#3D54FF" xlink:href="#a"/>
<use transform="translate(3005 1829.6)" fill="#3D54FF" xlink:href="#a"/>
<use transform="translate(3037 1883.8)" fill="#3D54FF" xlink:href="#a"/>
<use transform="translate(3037 1847.1)" fill="#FF842B" xlink:href="#e"/>
<use transform="translate(3026.3 1840.1)" fill="#FF842B" xlink:href="#d"/>
<use transform="translate(3068.9 1829.6)" fill="#3D54FF" xlink:href="#a"/>
<use transform="translate(3005 1868.1)" fill="#3D54FF" xlink:href="#a"/>
<use transform="translate(3068.9 1868.1)" fill="#3D54FF" xlink:href="#a"/>
<use transform="matrix(6.1838e-17 1 -1 6.0632e-17 3039.9 1820.5)" fill="#3D54FF" xlink:href="#c"/>
<use transform="matrix(6.1838e-17 1 -1 6.0632e-17 3039.9 1869.6)" fill="#3D54FF" xlink:href="#c"/>
<use transform="matrix(-.89618 -.4437 .45074 -.89265 3070.4 1868.5)" fill="#3D54FF" xlink:href="#b"/>
<use transform="matrix(-.89618 -.4437 .45074 -.89265 3021.9 1838.4)" fill="#3D54FF" xlink:href="#b"/>
<use transform="matrix(-.89618 .4437 .45074 .89265 3069.2 1836.2)" fill="#3D54FF" xlink:href="#b"/>
<use transform="matrix(-.89618 .4437 .45074 .89265 3021.9 1866.3)" fill="#3D54FF" xlink:href="#b"/>
</g>
<defs>
<path id="a" d="m6.1 3.5c0 1.3674-1.1282 2.5-2.55 2.5v2c2.4995 0 4.55-2.0014 4.55-4.5h-2zm-2.55 2.5c-1.4218 0-2.55-1.1326-2.55-2.5h-2c0 2.4986 2.0505 4.5 4.55 4.5v-2zm-2.55-2.5c0-1.3674 1.1282-2.5 2.55-2.5v-2c-2.4995 0-4.55 2.0014-4.55 4.5h2zm2.55-2.5c1.4218 0 2.55 1.1326 2.55 2.5h2c0-2.4986-2.0505-4.5-4.55-4.5v2z"/>
<path id="e" d="m0-1c-0.55228 0-1 0.44772-1 1s0.44772 1 1 1v-2zm7.1 2c0.55229 0 1-0.44772 1-1s-0.44771-1-1-1v2zm-7.1 0h7.1v-2h-7.1v2z"/>
<path id="d" d="m0 0v-1c-0.55228 0-1 0.44772-1 1l1-2.2204e-16zm28.4 0h1c0-0.55228-0.4477-1-1-1v1zm0 24.5v1c0.5523 0 1-0.4477 1-1h-1zm-28.4 0h-1c0 0.5523 0.44772 1 1 1l-2.2204e-16 -1zm0-23.5h28.4v-2h-28.4v2zm27.4-1v24.5h2v-24.5h-2zm1 23.5h-28.4v2h28.4v-2zm-27.4 1v-24.5h-2v24.5h2z"/>
<path id="c" d="m0-1.1102e-16h14.507v-2h-14.507v2z"/>
<path id="b" d="m0 0h10.06v-2h-10.06v2z"/>
</defs>
</svg>
