<?xml version="1.0" encoding="UTF-8"?>
<svg version="1.1" viewBox="0 0 67 68" xmlns="http://www.w3.org/2000/svg" xmlns:xlink="http://www.w3.org/1999/xlink">
<g transform="translate(-2409 -1821)">
<use transform="translate(2450.6 1822.8)" fill="#3D54FF" xlink:href="#k"/>
<use transform="translate(2410 1822.8)" fill="#3D54FF" xlink:href="#j"/>
<use transform="translate(2434.4 1834.2)" fill="#3D54FF" xlink:href="#a"/>
<use transform="translate(2450.6 1863.4)" fill="#3D54FF" xlink:href="#i"/>
<use transform="translate(2410 1864.3)" fill="#FF842B" xlink:href="#h"/>
<use transform="translate(2410.5 1863.4)" fill="#FF842B" xlink:href="#g"/>
<use transform="translate(2410 1863.4)" fill="#FF842B" xlink:href="#f"/>
<use transform="translate(2418.8 1871.6)" fill="#FF842B" xlink:href="#e"/>
<use transform="translate(2426.9 1879.7)" fill="#FF842B" xlink:href="#d"/>
<use transform="translate(2410 1863.4)" fill="#3D54FF" xlink:href="#c"/>
<use transform="translate(2434.4 1876.4)" fill="#3D54FF" xlink:href="#a"/>
<use transform="translate(2463.6 1847.2)" fill="#3D54FF" xlink:href="#b"/>
<use transform="translate(2421.4 1847.2)" fill="#3D54FF" xlink:href="#b"/>
</g>
<defs>
<path id="k" d="m0 0v-1c-0.55228 0-1 0.44772-1 1l1-2.2204e-16zm24.375 0h1c0-0.55228-0.4477-1-1-1v1zm0 24.375v1c0.5523 0 1-0.4477 1-1h-1zm-24.375 0h-1c0 0.5523 0.44772 1 1 1l-2.2204e-16 -1zm0-23.375h24.375v-2h-24.375v2zm23.375-1v24.375h2v-24.375h-2zm1 23.375h-24.375v2h24.375v-2zm-23.375 1v-5.4844h-2v5.4844h2zm0-5.4844v-18.891h-2v18.891h2z"/>
<path id="j" d="m0 0v-1c-0.55228 0-1 0.44772-1 1l1-2.2204e-16zm24.375 0h1c0-0.55228-0.4477-1-1-1v1zm0 24.375v1c0.5523 0 1-0.4477 1-1h-1zm-24.375 0h-1c0 0.5523 0.44772 1 1 1l-2.2204e-16 -1zm0-23.375h24.375v-2h-24.375v2zm23.375-1v19.653h2v-19.653h-2zm0 19.653v4.7222h2v-4.7222h-2zm1 3.7222h-24.375v2h24.375v-2zm-23.375 1v-24.375h-2v24.375h2z"/>
<path id="a" d="m0 1h16.25v-2h-16.25v2z"/>
<path id="i" d="m0 0v-1c-0.55228 0-1 0.44772-1 1l1-2.2204e-16zm24.375 0h1c0-0.55228-0.4477-1-1-1v1zm0 24.375v1c0.5523 0 1-0.4477 1-1h-1zm-24.375 0h-1c0 0.5523 0.44772 1 1 1l-2.2204e-16 -1zm0-23.375h6.3992v-2h-6.3992v2zm6.3992 0h17.976v-2h-17.976v2zm16.976-1v24.375h2v-24.375h-2zm1 23.375h-24.375v2h24.375v-2zm-23.375 1v-24.375h-2v24.375h2z"/>
<path id="h" d="m24.27 0.70711c0.3905-0.39052 0.3905-1.0237 0-1.4142-0.3905-0.39052-1.0237-0.39052-1.4142 0l1.4142 1.4142zm-24.977 22.148c-0.39052 0.3905-0.39052 1.0237 0 1.4142 0.39052 0.3905 1.0237 0.3905 1.4142 0l-1.4142-1.4142zm23.563-23.563l-23.563 23.563 1.4142 1.4142 23.562-23.562-1.4142-1.4142z"/>
<path id="g" d="m8.3446 0.70711c0.39052-0.39052 0.39052-1.0237 0-1.4142-0.39053-0.39052-1.0237-0.39052-1.4142 0l1.4142 1.4142zm-9.0517 6.2233c-0.39052 0.39053-0.39052 1.0237 1e-6 1.4142 0.39052 0.39052 1.0237 0.39052 1.4142 0l-1.4142-1.4142zm7.6375-7.6375l-7.6375 7.6375 1.4142 1.4142 7.6375-7.6375-1.4142-1.4142z"/>
<path id="f" d="m16.957 0.70711c0.3905-0.39052 0.3905-1.0237 0-1.4142-0.3905-0.39052-1.0237-0.39052-1.4142 0l1.4142 1.4142zm-17.664 14.836c-0.39052 0.3905-0.39052 1.0237 0 1.4142 0.39052 0.3905 1.0237 0.3905 1.4142 0l-1.4142-1.4142zm16.25-16.25l-16.25 16.25 1.4142 1.4142 16.25-16.25-1.4142-1.4142z"/>
<path id="e" d="m16.307 0.70711c0.3905-0.39052 0.3905-1.0237 0-1.4142-0.3905-0.39052-1.0237-0.39052-1.4142 0l1.4142 1.4142zm-17.014 14.186c-0.39052 0.3905-0.39052 1.0237 0 1.4142 0.39052 0.3905 1.0237 0.3905 1.4142 0l-1.4142-1.4142zm15.6-15.6l-15.6 15.6 1.4142 1.4142 15.6-15.6-1.4142-1.4142z"/>
<path id="d" d="m8.1821 0.70711c0.39052-0.39052 0.39052-1.0237 0-1.4142-0.39053-0.39052-1.0237-0.39052-1.4142 0l1.4142 1.4142zm-8.8892 6.0608c-0.39052 0.39052-0.39052 1.0237-1e-6 1.4142 0.39052 0.39053 1.0237 0.39053 1.4142 0l-1.4142-1.4142zm7.475-7.475l-7.475 7.475 1.4142 1.4142 7.475-7.475-1.4142-1.4142z"/>
<path id="c" d="m0 0v-1c-0.55228 0-1 0.44772-1 1l1-2.2204e-16zm24.375 0h1c0-0.55228-0.4477-1-1-1v1zm0 24.375v1c0.5523 0 1-0.4477 1-1h-1zm-24.375 0h-1c0 0.5523 0.44772 1 1 1l-2.2204e-16 -1zm0-23.375h24.375v-2h-24.375v2zm23.375-1v5.941h2v-5.941h-2zm0 5.941v18.434h2v-18.434h-2zm1 17.434h-24.375v2h24.375v-2zm-23.375 1v-24.375h-2v24.375h2z"/>
<path id="b" d="m-1 0v16.25h2v-16.25h-2z"/>
</defs>
</svg>
