<svg width="116" height="241" viewBox="0 0 116 241" version="1.1" xmlns="http://www.w3.org/2000/svg" xmlns:xlink="http://www.w3.org/1999/xlink">
<title>Group</title>
<desc>Created using Figma</desc>
<g id="Canvas" transform="translate(-9933 19)">
<g id="Group">
<g id="Vector">
<use xlink:href="#path0_fill" transform="translate(9950.32 -18.7526)" fill="#313251"/>
</g>
<g id="Vector">
<use xlink:href="#path1_fill" transform="translate(9997.08 41.1356)" fill="#D9E0EF"/>
</g>
<g id="Vector">
<use xlink:href="#path2_fill" transform="translate(9933 35.2516)" fill="#D9E0EF"/>
</g>
<g id="Vector">
<use xlink:href="#path3_fill" transform="translate(9970.3 -12.1267)" fill="#D9E0EF"/>
</g>
<g id="Vector">
<use xlink:href="#path4_fill" transform="translate(9945.38 15.0153)" fill="#F2F2F2"/>
</g>
<g id="Vector">
<use xlink:href="#path5_fill" transform="translate(9995.51 207.117)" fill="#313251"/>
</g>
<g id="Vector">
<use xlink:href="#path6_fill" transform="translate(9954.09 209.368)" fill="#313251"/>
</g>
<g id="Vector">
<use xlink:href="#path7_fill" transform="translate(9951.83 105.063)" fill="#273559"/>
</g>
</g>
</g>
<defs>
<path id="path0_fill" d="M 51.9695 45.6528C 51.9695 45.6528 45.5303 38.8017 45.9292 28.8509C 46.3851 17.4059 41.114 -2.54347 30.5007 2.06634C 3.63539 -9.18737 17.3802 28.5171 0 43.1413L 51.9695 45.6528Z"/>
<path id="path1_fill" d="M 10.0007 -9.65391e-07C 10.8639 2.49908 9.0334 17.889 10.0007 19.8977C 14.51 19.3916 26.6835 15.3741 29.5706 11.9102C 32.8447 7.98757 35.1365 8.22483 37.0563 7.48143C 38.9612 6.73803 41.7441 5.78901 41.8929 6.95947C 42.0864 8.50953 37.9194 8.98404 37.6218 10.028C 37.339 11.0244 45.7176 12.4321 49.3191 9.96469C 49.6316 9.74325 50.0334 9.72744 50.3608 9.91724C 52.3848 11.0719 50.0632 13.2704 48.7833 14.52C 48.6345 14.6781 48.4857 14.8363 48.3666 15.0261C 46.9528 17.1772 43.0389 18.9804 37.1753 18.9171C 35.0323 18.9013 33.0232 19.3442 30.0617 18.9962C 24.4512 21.8749 23.588 23.3933 19.9866 25.7975C 16.1768 28.344 4.89619 34.6075 2.72341 32.8044C 0.535752 31.0171 0 15.3583 0 15.3583L 3.46751 0.917386L 10.0007 -9.65391e-07Z"/>
<path id="path2_fill" d="M 12.3793 1.83477C 13.049 3.7328 11.3376 13.6975 11.6352 15.8328C 10.3107 15.6113 8.53974 14.8996 7.55753 14.8996C 6.47114 14.8996 3.97095 12.2898 3.19709 13.3021C 2.39346 14.346 4.25371 15.9593 5.62286 16.5445C 6.99201 17.1298 7.69146 19.1702 7.69146 19.1702C 7.69146 19.1702 4.61088 22.2545 0.87549 21.8432C -2.5325 21.8907 4.83411 27.1261 8.83738 27.4583C 7.42359 31.0171 9.13502 33.9749 9.13502 33.9749C 9.13502 33.9749 13.4955 38.2138 13.7931 39.0363C 14.82 39.3368 15.4004 39.0363 15.4004 39.0363C 15.4004 39.0363 18.5851 36.379 19.2995 35.8096C 21.0555 34.4177 21.5764 24.5321 23.0646 23.3775C 24.0766 21.4794 26.7554 8.14574 26.7554 8.14574L 16.0849 1.93078e-06L 12.3793 1.83477Z"/>
<path id="path3_fill" d="M 15.8692 29.9978L 18.1486 32.1755L 17.2938 44.0179L 13.0912 54.9066C 13.0912 54.9066 0.783532 31.4673 0 28.2881C 1.36678 27.0865 1.01061 22.1929 0.982114 22.018C 0.825408 21.5412 0.71144 21.0484 0.625963 20.5079C -0.656179 12.7984 7.20501 16.8364 9.52973 0.00224213C 11.2393 -0.0772373 18.291 1.90975 18.7184 13.4343C 18.9606 20.1423 17.2368 23.9573 15.3564 26.0556C 14.701 27.4544 15.8692 29.9978 15.8692 29.9978Z"/>
<path id="path4_fill" d="M 13.5427 5.14691C 11.608 5.14691 2.67877 4.90966 -2.27082e-07 22.0711C 6.25046 20.173 12.3967 29.3943 13.7361 29.078C 13.1408 31.4031 10.6704 43.6138 10.6704 43.6138C 10.6704 43.6138 12.7986 47.8527 12.3521 49.735C 12.7241 56.8526 3.12523 76.4656 2.97641 91.3336C 10.1198 101.377 45.0182 96.8695 58.9329 94.1806C 59.3049 79.8663 52.5782 72.1951 54.4683 59.1777C 53.7986 55.9352 52.4592 46.3343 54.9147 41.0356C 58.2632 35.9742 56.775 30.4383 56.775 30.4383C 56.775 30.4383 61.7605 26.7213 62.579 24.8232C 63.3975 22.9252 60.7187 11.6951 57.9655 10.9043C 55.2124 10.1134 45.7623 5.65306 42.265 2.806C 39.2439 9.81292 39.5118 24.9023 39.5118 24.9023C 39.5118 24.9023 32.3684 10.588 32.3684 6.87096C 30.7314 3.70757 25.9692 1.73045 25.9692 0.227835C 25.9692 -1.27478 15.4773 5.14691 13.5427 5.14691Z"/>
<path id="path5_fill" d="M 0.0395665 5.21235C 0.0395665 5.21235 1.86878 8.30939 1.93258 9.04043C 3.84672 11.3925 15.1028 11.3448 20.1912 11.5832C 22.3446 11.6785 23.0146 9.8827 23.0146 9.8827L 22.9348 8.19814C 22.9188 7.75315 22.6158 7.35586 22.1851 7.21283C 19.9998 6.4659 13.4917 3.98671 12.5666 0.331518C 5.54808 -0.765041 -0.550625 0.857901 0.0395665 5.21235Z"/>
<path id="path6_fill" d="M 0 0.641097C 1.64296 2.34156 0.526387 5.77427 1.32394 7.42706C 1.64297 9.22287 7.1142 12.3059 9.2995 12.4013C 11.4848 12.5125 13.8137 11.4478 13.8137 11.4478L 13.8137 4.83663C 13.8137 4.83663 13.0799 2.4528 13.1278 1.45159C 11.8517 0.32325 3.36569 -0.709736 0 0.641097Z"/>
<path id="path7_fill" d="M 2.11937e-07 1.71469C 2.11937e-07 1.71469 6.06971 16.6333 5.028 22.5722C 3.98629 28.5111 3.43071 97.5451 0.930596 103.959C 3.52793 107.095 16.0702 106.43 16.0702 106.43C 16.0702 106.43 19.362 55.3867 19.1953 45.8527C 22.9732 32.6921 27.3206 12.8323 27.3206 12.8323C 28.154 21.8595 34.6126 35.4002 34.6126 35.4002C 34.6126 35.4002 37.7378 101.235 42.113 106.556C 51.6967 106.176 50.655 105.86 56.4886 102.138C 53.3496 94.5519 56.5025 60.5654 53.794 56.0518C 55.2385 48.2125 53.794 5.91153 50.2522 2.47487C 41.2796 -2.60884 2.11937e-07 1.71469 2.11937e-07 1.71469Z"/>
</defs>
</svg>
