<svg width="112" height="233" viewBox="0 0 112 233" version="1.1" xmlns="http://www.w3.org/2000/svg" xmlns:xlink="http://www.w3.org/1999/xlink">
<title>Group</title>
<desc>Created using Figma</desc>
<g id="Canvas" transform="translate(-9590 11)">
<g id="Group">
<g id="Vector">
<use xlink:href="#path0_fill" transform="translate(9597.78 204.86)" fill="#313251"/>
</g>
<g id="Vector">
<use xlink:href="#path1_fill" transform="translate(9590 69.3499)" fill="#E1E6F0"/>
</g>
<g id="Vector">
<use xlink:href="#path2_fill" transform="translate(9645.13 72.7764)" fill="#E1E6F0"/>
</g>
<g id="Vector">
<use xlink:href="#path3_fill" transform="translate(9664.61 198.527)" fill="#313251"/>
</g>
<g id="Vector">
<use xlink:href="#path4_fill" transform="translate(9626.93 -5.2214)" fill="#E1E6F0"/>
</g>
<g id="Vector">
<use xlink:href="#path5_fill" transform="translate(9594.83 21.6919)" fill="#F2F2F2"/>
</g>
<g id="Vector">
<use xlink:href="#path6_fill" transform="translate(9614.07 98.5922)" fill="#273559"/>
</g>
<g id="Vector">
<use xlink:href="#path7_fill" transform="translate(9599.43 114.123)" fill="#273559"/>
</g>
<g id="Vector">
<use xlink:href="#path8_fill" transform="translate(9621.87 -10.1606)" fill="#313251"/>
</g>
</g>
</g>
<defs>
<path id="path0_fill" d="M 1.71546 4.48509C 0.738999 2.99226 -0.607846 13.4588 0.301275 16.0419C 4.22396 16.9309 11.8505 15.1026 15.3691 15.1026C 19.1571 15.1026 22.6084 17.1154 37.0028 15.6897C 38.6022 14.0123 38.7705 9.65127 28.9217 9.60096C 24.292 9.56741 20.9417 1.18074 15.1502 0.140791C 9.37564 -0.932702 1.71546 4.48509 1.71546 4.48509Z"/>
<path id="path1_fill" d="M 4.82723 1.96733C 4.27165 4.09754 4.49051 32.0419 3.69924 34.2895C 2.90797 36.5372 -0.678004 41.7872 0.113268 47.1547C 1.42644 50.3081 5.07976 51.0126 6.898 51.6835C 8.00915 52.086 7.80712 53.7298 8.22801 54.8201C 8.36269 55.1723 8.53105 55.4239 8.74991 55.4239C 9.42333 55.4239 10.2146 53.864 10.3325 46.8192C 11.5615 45.5948 11.0059 51.3145 11.4436 51.3312C 14.0868 51.4487 12.8241 43.2297 11.5614 33.6186C 11.0059 29.375 16.0565 7.11674 16.1576 2.20215C 11.9992 -2.61179 4.82723 1.96733 4.82723 1.96733Z"/>
<path id="path2_fill" d="M 5.13485 1.02376e-06C 8.67031 1.67733 20.6236 21.386 26.6844 24.2878C 32.7452 27.1896 37.8463 34.0163 36.7015 36.7336C 35.8597 38.7464 29.2939 41.2624 28.1996 40.256C 26.1625 38.3941 22.93 32.8422 20.9771 29.8565C 18.8558 26.5857 4.22573 16.0185 2.18862 13.5025C 0.134685 10.9865 0 0.754801 0 0.754801L 5.13485 1.02376e-06Z"/>
<path id="path3_fill" d="M 0.0385121 10.566C -0.416048 12.2265 3.28777 18.7178 4.06221 21.4016C 7.19363 22.1899 10.6617 20.6132 12.5305 18.8185C 13.608 17.7953 14.9548 17.074 16.3858 16.6883C 21.9921 15.1451 33.2046 10.8008 36.6895 5.73526C 37.3966 4.69531 37.3293 3.30312 36.437 2.41413C 33.1709 -0.806347 26.1505 5.23206 21.2177 2.39736C 15.4936 -0.906983 11.6719 0.166523 11.6719 0.166523L 0.0385121 10.566Z"/>
<path id="path4_fill" d="M 21.196 2.73592C 21.196 2.73592 23.7213 8.6569 23.4351 9.73039C 23.1489 10.7871 23.0142 11.6258 23.0142 11.6258C 23.0142 11.6258 25.9604 14.9301 25.7416 15.9868C 25.5227 17.0436 24.2717 16.5594 23.4688 16.8255C 24.5326 18.465 24.7064 27.1704 23.0142 26.9063C 18.9248 27.6469 16.4989 26.9063 16.4989 26.9063C 16.4989 26.9063 12.7614 33.2131 12.9971 35.9807C 13.2159 38.7483 14.3944 43.6964 14.3102 43.948C 14.2261 44.1996 13.721 47.3865 13.721 47.3865C 13.721 47.3865 11.5324 46.3801 11.5324 46.0447C 11.5324 45.7092 7.49183 34.3033 7.49183 34.3033L 0 29.6068L 0.185192 27.3927C 0.185192 27.3927 1.16166 26.3192 1.04381 24.7761C 0.925958 23.2329 1.5152 10.4013 1.5152 10.4013L 5.38738 2.73592C 5.40422 2.73592 17.7278 -3.4199 21.196 2.73592Z"/>
<path id="path5_fill" d="M 28.5026 0.261255C 31.0279 -1.24834 41.7185 4.10235 42.4761 8.14472C 43.2674 12.3381 44.6647 16.1456 45.8432 18.9971C 44.8331 12.6232 44.4964 8.2789 46.0116 7.2725C 47.9477 7.69184 47.5268 11.1807 47.0217 13.529C 46.5167 15.8772 51.8199 19.819 51.904 27.7024C 51.9714 34.0763 52.6616 47.1595 55.4395 51.1012C 55.2711 54.7914 51.399 54.6236 51.399 54.6236C 51.399 54.6236 52.5775 76.5967 56.9547 83.1383C 52.2407 89.6799 41.6343 78.945 35.4052 78.4417C 29.176 77.9386 22.1051 91.6927 17.5595 91.3572C 13.0139 91.0218 20.7582 54.5398 15.3709 43.9726C 15.3709 43.9726 12.4583 47.4111 11.3303 49.8768C 8.29993 50.8832 1.28445e-07 49.6587 1.28445e-07 49.6587L 0.707094 44.8448C 1.12798 42.0268 2.13812 39.3431 3.68699 36.9613C 7.12144 31.6777 13.2664 21.7647 14.7143 16.6656C 16.7345 9.50336 28.4858 3.91784 28.4858 3.91784L 28.5026 0.261255Z"/>
<path id="path6_fill" d="M 0 14.0209C 4.20889 20.6967 25.0176 45.0683 29.5632 52.1131C 34.1088 59.1579 37.8632 77.726 50.5572 110.501C 57.7291 114.963 63.0492 104.765 62.1064 99.5313C 59.2443 92.9226 51.3653 58.2186 50.4393 53.6898C 50.2373 52.7002 50.7255 49.681 48.7221 46.8295C 40.4559 35.0211 37.678 11.3036 34.8328 7.84829C 12.5425 -9.93144 1.19532 7.09349 0 14.0209Z"/>
<path id="path7_fill" d="M 15.6518 -4.09505e-06C 16.7293 6.17258 12.6888 24.5394 12.6888 32.0874C 10.6685 39.6354 -0.948022 69.0726 0.0621114 95.239C 11.8807 97.9898 14.6417 90.207 14.6417 90.207C 14.6417 90.207 14.3218 84.1854 16.8472 79.405C 19.3725 74.6246 21.2413 48.1059 26.1404 44.9861C 30.5176 42.1849 30.6187 37.371 30.6187 37.371C 30.6187 37.371 30.989 24.7407 33.7164 22.8788C 32.6389 12.949 15.6518 -4.09505e-06 15.6518 -4.09505e-06Z"/>
<path id="path8_fill" d="M 5.28194 29.5979C 5.09675 30.5875 11.2081 28.1218 10.5346 23.7607C 9.86121 19.3997 6.84765 17.4036 9.42349 16.5147C 11.9993 15.6257 14.4742 17.0682 15.3664 19.081C 16.2587 21.0938 17.9423 20.7583 17.9423 20.7583C 17.9423 20.7583 15.9725 16.045 17.4372 14.9212C 18.9019 13.7974 20.8043 11.4827 19.1208 10.9795C 16.8816 10.3085 17.9423 9.01697 18.8346 8.2454C 19.7269 7.45705 23.094 4.33721 26.2422 7.69188C 29.2726 7.13836 28.2456 2.29087 25.2321 1.09996C 22.067 -0.158038 7.50423 -1.58377 3.34585 4.57204C -5.69485 17.9572 6.59511 22.8047 5.28194 29.5979Z"/>
</defs>
</svg>
