<svg width="86" height="59" viewBox="0 0 86 59" version="1.1" xmlns="http://www.w3.org/2000/svg" xmlns:xlink="http://www.w3.org/1999/xlink">
<title>icons8-equity_security</title>
<desc>Created using Figma</desc>
<g id="Canvas" transform="translate(-3292 -1828)">
<g id="icons8-equity_security">
<g id="Vector">
<use xlink:href="#path0_stroke" transform="translate(3293 1829.83)" fill="#3D54FF"/>
</g>
<g id="Vector">
<use xlink:href="#path1_stroke" transform="translate(3366.5 1829.83)" fill="#FF842B"/>
</g>
<g id="Vector">
<use xlink:href="#path2_stroke" transform="translate(3293 1874.74)" fill="#3D54FF"/>
</g>
<g id="Vector">
<use xlink:href="#path3_stroke" transform="translate(3366.5 1874.74)" fill="#FF842B"/>
</g>
<g id="Vector">
<use xlink:href="#path4_stroke" transform="translate(3305.25 1845.37)" fill="#3D54FF"/>
</g>
<g id="Vector">
<use xlink:href="#path4_stroke" transform="translate(3352.5 1845.37)" fill="#FF842B"/>
</g>
<g id="Vector">
<use xlink:href="#path5_stroke" transform="translate(3303.5 1867.83)" fill="#3D54FF"/>
</g>
<g id="Vector">
<use xlink:href="#path6_stroke" transform="translate(3314 1876.46)" fill="#3D54FF"/>
</g>
<g id="Vector">
<use xlink:href="#path6_stroke" transform="translate(3340.25 1876.46)" fill="#FF842B"/>
</g>
<g id="Vector">
<use xlink:href="#path5_stroke" transform="translate(3340.25 1867.83)" fill="#FF842B"/>
</g>
<g id="Vector">
<use xlink:href="#path7_stroke" transform="translate(3293 1829.83)" fill="#3D54FF"/>
</g>
<g id="Vector">
<use xlink:href="#path8_stroke" transform="translate(3340.25 1829.83)" fill="#FF842B"/>
</g>
<g id="Line">
<use xlink:href="#path9_stroke" transform="matrix(6.2038e-17 1 -1 6.04371e-17 3333.25 1829.83)" fill="#3D54FF"/>
</g>
</g>
</g>
<defs>
<path id="path0_stroke" d="M 9.5 0C 9.5 5.15961 5.25958 9.36364 0 9.36364L 0 11.3636C 6.33942 11.3636 11.5 6.28875 11.5 0L 9.5 0Z"/>
<path id="path1_stroke" d="M 10.5 9.36364C 5.24042 9.36364 1 5.15961 1 0L -1 0C -1 6.28875 4.16058 11.3636 10.5 11.3636L 10.5 9.36364Z"/>
<path id="path2_stroke" d="M 0 1C 5.25958 1 9.5 5.20402 9.5 10.3636L 11.5 10.3636C 11.5 4.07489 6.33942 -1 0 -1L 0 1Z"/>
<path id="path3_stroke" d="M 1 10.3636C 1 5.20402 5.24042 1 10.5 1L 10.5 -1C 4.16058 -1 -1 4.07489 -1 10.3636L 1 10.3636Z"/>
<path id="path4_stroke" d="M 0 0L 0 -1L -1 -1L -1 0L 0 0ZM 12.25 0L 13.25 0L 13.25 -1L 12.25 -1L 12.25 0ZM 12.25 6.90909L 12.25 7.90909L 13.25 7.90909L 13.25 6.90909L 12.25 6.90909ZM 0 6.90909L -1 6.90909L -1 7.90909L 0 7.90909L 0 6.90909ZM 0 1L 12.25 1L 12.25 -1L 0 -1L 0 1ZM 11.25 0L 11.25 6.90909L 13.25 6.90909L 13.25 0L 11.25 0ZM 12.25 5.90909L 0 5.90909L 0 7.90909L 12.25 7.90909L 12.25 5.90909ZM 1 6.90909L 1 0L -1 0L -1 6.90909L 1 6.90909Z"/>
<path id="path5_stroke" d="M 0 1L 26.25 1L 26.25 -1L 0 -1L 0 1Z"/>
<path id="path6_stroke" d="M 0 1L 15.75 1L 15.75 -1L 0 -1L 0 1Z"/>
<path id="path7_stroke" d="M 0 55.2727L -1 55.2727C -1 55.825 -0.552285 56.2727 2.22045e-16 56.2727L 0 55.2727ZM 0 0L 0 -1C -0.552285 -1 -1 -0.552285 -1 2.22045e-16L 0 0ZM 36.75 54.2727L 0 54.2727L 0 56.2727L 36.75 56.2727L 36.75 54.2727ZM 1 55.2727L 1 0L -1 0L -1 55.2727L 1 55.2727ZM 0 1L 36.75 1L 36.75 -1L 0 -1L 0 1Z"/>
<path id="path8_stroke" d="M 36.75 0L 37.75 0C 37.75 -0.552285 37.3023 -1 36.75 -1L 36.75 0ZM 36.75 55.2727L 36.75 56.2727C 37.3023 56.2727 37.75 55.825 37.75 55.2727L 36.75 55.2727ZM 0 1L 36.75 1L 36.75 -1L 0 -1L 0 1ZM 35.75 0L 35.75 55.2727L 37.75 55.2727L 37.75 0L 35.75 0ZM 36.75 54.2727L 0 54.2727L 0 56.2727L 36.75 56.2727L 36.75 54.2727Z"/>
<path id="path9_stroke" d="M 0 0L 57 0L 57 -2L 0 -2L 0 0Z"/>
</defs>
</svg>
