<svg width="84" height="240" viewBox="0 0 84 240" version="1.1" xmlns="http://www.w3.org/2000/svg" xmlns:xlink="http://www.w3.org/1999/xlink">
<title>Group</title>
<desc>Created using Figma</desc>
<g id="Canvas" transform="translate(-9776 17)">
<g id="Group">
<g id="Vector">
<use xlink:href="#path0_fill" transform="translate(9790.75 85.1936)" fill="#273559"/>
</g>
<g id="Vector">
<use xlink:href="#path1_fill" transform="translate(9831.04 69.8058)" fill="#D9E0EF"/>
</g>
<g id="Vector">
<use xlink:href="#path2_fill" transform="translate(9797.03 -16.3963)" fill="#D9E0EF"/>
</g>
<g id="Vector">
<use xlink:href="#path3_fill" transform="translate(9776.09 67.0777)" fill="#D9E0EF"/>
</g>
<g id="Vector">
<use xlink:href="#path4_fill" transform="translate(9776 17.1627)" fill="#FF842B"/>
</g>
<g id="Vector">
<use xlink:href="#path5_fill" transform="translate(9783.91 -17.0007)" fill="#313251"/>
</g>
<g id="Vector">
<use xlink:href="#path6_fill" transform="translate(9805.51 207.236)" fill="#313251"/>
</g>
<g id="Vector">
<use xlink:href="#path7_fill" transform="translate(9833.48 206.131)" fill="#313251"/>
</g>
</g>
</g>
<defs>
<path id="path0_fill" d="M 0.625739 0C 0.625739 0 33.7328 8.24618 49.104 4.4176C 53.9223 20.5713 58.2676 68.031 58.2676 68.031C 58.2676 68.031 51.1595 110.836 53.5243 121.439C 49.3859 130.863 42.2846 124.113 42.2846 124.113C 42.2846 124.113 41.1228 83.0508 42.3052 73.6266C 43.4876 64.2024 34.0284 31.2177 27.2297 26.8001C 27.5253 37.1078 26.3429 58.0178 26.0473 67.7365C 25.7517 77.4552 29.2639 126.794 29.2639 126.794L 19.2485 124.871C 19.2485 124.871 10.75 79.9291 12.5236 71.1822C 14.2972 62.4354 -3.51265 12.9583 0.625739 0Z"/>
<path id="path1_fill" d="M 15.3171 2.42968C 15.8344 5.30112 14.2825 10.2783 15.9822 17.3023C 16.4995 19.4374 11.4448 25.7251 10.4693 26.5645C 8.74002 28.4199 2.82804 25.9166 2.82804 25.9166C 2.82804 25.9166 -0.275749 27.4627 0.01985 25.3276C 0.315449 23.1924 3.33056 20.6449 3.33056 20.6449C 3.33056 20.6449 7.36036 15.3812 9.06006 14.7628C 6.91696 12.068 8.4985 6.37055 8.4985 6.37055L 9.77462 3.59505e-06L 15.3171 2.42968Z"/>
<path id="path2_fill" d="M 0.612994 22.8399C 1.73958 26.0547 3.99916 29.6784 3.21346 33.559C -0.43719 42.8801 41.9961 69.6508 39.5722 40.0382C 38.7888 30.4225 25.3982 35.2083 18.7029 31.4827L 18.629 30.6876C 24.4966 30.4372 22.4717 28.361 22.9743 26.108C 22.9743 26.108 23.4315 25.5028 23.0777 24.2379C 23.0334 22.5887 23.5802 20.2031 23.5802 20.2031C 23.5802 20.2031 24.527 20.635 24.9203 20.2716C 25.1864 20.0257 25.1732 19.3235 24.5409 18.23C 23.462 16.3451 23.9771 12.8291 23.3685 10.9293C 22.7599 9.02939 20.639 5.32025 18.6 4.25285C 15.8953 1.79372 8.38645 0 8.38645 0L 2.47446 9.71872L 0.257469 17.0814C 0.257469 17.0814 -0.513593 19.625 0.612994 22.8399Z"/>
<path id="path3_fill" d="M 9.66882 2.80176C 10.4669 5.67319 8.7229 14.0077 14.6644 19.6917C 18.6107 19.6622 26.8136 22.0919 30.0652 23.7117C 32.7256 27.393 26.0746 25.7733 24.1532 24.8897C 28.1438 27.2458 27.5526 29.1748 28.735 29.97C 28.735 30.9271 24.9956 36.4933 20.1774 34.0194C 17.9456 29.4546 12.9204 29.5282 10.6739 26.3328C 8.81158 23.6823 1.1085 6.08459 0 1.9615C 6.79878 -2.89785 9.66882 2.80176 9.66882 2.80176Z"/>
<path id="path4_fill" d="M 24.2391 0C 24.2391 0 45.5223 32.1012 60.5978 6.47914C 69.1702 27.0946 70.3526 55.0727 70.3526 55.0727C 70.3526 55.0727 69.1702 53.8947 65.0318 55.0727C 62.0758 58.9013 67.6922 69.798 63.8494 72.4486C 47.9324 83.4273 15.3712 68.031 15.3712 68.031C 15.3712 68.031 17.1448 58.4154 21.2831 51.2441C 21.5787 39.7584 18.7262 36.9164 15.2234 34.3836C 12.4152 41.599 9.75477 52.7167 9.75477 52.7167C 9.75477 52.7167 3.25159 50.0661 0 52.1277C 4.24185 45.354 4.13839 15.6088 7.98118 11.1912C 11.824 6.77365 24.2391 0 24.2391 0Z"/>
<path id="path5_fill" d="M 14.1149 24.15C 14.1149 24.15 16.1768 22.2051 16.3842 19.7552C 16.4787 18.6383 14.7347 16.8445 15.6325 16.3511C 16.3842 15.2618 18.9036 18.2599 18.9036 18.2599C 18.9036 18.2599 18.2559 5.49773 32.5186 5.40938C 25.5323 -2.08894 14.7652 -0.883028 10.8189 3.53457C -4.84783 -1.28061 3.32549 25.0335 0 31.498C 0 31.498 4.80349 28.2731 5.69028 24.739C 7.86294 28.8621 5.20255 35.3413 2.73429 37.5942C 12.5925 31.0268 12.6812 27.5958 14.1149 24.15Z"/>
<path id="path6_fill" d="M 4.48677 2.63648C 3.88079 3.47583 5.52136 6.65661 4.48677 7.39288C 3.45217 8.12914 -0.765137 13.0034 0.12166 14.1814C 1.00846 15.3595 5.19155 16.3661 9.77334 15.3354C 15.3897 12.832 14.9805 12.2522 14.8327 6.65661C 14.6849 1.06099 8.47736 -2.84134 4.48677 2.63648Z"/>
<path id="path7_fill" d="M 0.046702 3.36933C 0.046702 3.36933 -0.189727 10.3889 0.401345 10.9778C 0.992418 11.5666 21.5617 13.6866 25.581 11.6844C 26.645 8.85776 17.6607 6.38443 17.6607 6.38443L 12.9191 4.01126L 10.5146 -1.01243e-05"/>
</defs>
</svg>
