<?xml version="1.0" encoding="UTF-8"?>
<svg version="1.1" viewBox="0 0 62 73" xmlns="http://www.w3.org/2000/svg" xmlns:xlink="http://www.w3.org/1999/xlink">
<g transform="translate(-2713 -1819)">
<use transform="translate(2714 1820.8)" fill="#3D54FF" xlink:href="#a"/>
<use transform="translate(2748.7 1874.9)" fill="#3D54FF" xlink:href="#a"/>
<use transform="translate(2726.6 1855.8)" fill="#3D54FF" xlink:href="#c"/>
<use transform="translate(2726.6 1836.7)" fill="#3D54FF" xlink:href="#b"/>
<use transform="translate(2748.7 1847.8)" fill="#FF842B" xlink:href="#a"/>
</g>
<defs>
<path id="a" d="m0 0v-1c-0.55228 0-1 0.44772-1 1l1-2.2204e-16zm25.263 0h1c0-0.55228-0.4478-1-1-1v1zm0 15.909v1c0.5522 0 1-0.4477 1-1h-1zm-25.263 0h-1c0 0.5523 0.44772 1 1 1l-2.2204e-16 -1zm0-14.909h25.263v-2h-25.263v2zm24.263-1v15.909h2v-15.909h-2zm1 14.909h-25.263v2h25.263v-2zm-24.263 1v-15.909h-2v15.909h2z"/>
<path id="c" d="m22.105 1c0.5522 0 1-0.44772 1-1s-0.4478-1-1-1v2zm-22.105-2c-0.55228 0-1 0.44772-1 1s0.44772 1 1 1v-2zm22.105 0h-22.105v2h22.105v-2z"/>
<path id="b" d="m1 0c0-0.55228-0.44772-1-1-1s-1 0.44772-1 1h2zm-1 46.136h-1c0 0.5522 0.44772 1 1 1l-2.2204e-16 -1zm22.105 1c0.5522 0 1-0.4478 1-1 0-0.5523-0.4478-1-1-1v2zm-23.105-47.136v46.136h2v-46.136h-2zm1 47.136h22.105v-2h-22.105v2z"/>
</defs>
</svg>
