<?xml version="1.0" encoding="UTF-8"?>
<svg version="1.1" viewBox="0 0 56 48" xmlns="http://www.w3.org/2000/svg" xmlns:xlink="http://www.w3.org/1999/xlink">
<g transform="translate(-7233 -2304)">
<g opacity=".08">
<use transform="translate(7226 2255)" fill="#4A5CEF" xlink:href="#a"/>
</g>
</g>
<defs>
<path id="a" d="m62.82 85.4c0-6.84-4.86-10.98-10.8-10.98-1.8 0-3.06 0.54-3.6 0.9 0.18-7.38 5.58-15.66 13.5-17.46v-8.46c-10.08 1.08-23.94 10.26-23.94 31.5 0 10.26 6.12 15.3 13.14 15.3 6.66 0 11.7-4.86 11.7-10.8zm-30.78 0c0-6.84-4.86-10.98-10.8-10.98-1.8 0-3.06 0.54-3.6 0.9 0.18-7.38 5.58-15.66 13.5-17.46v-8.46c-10.08 1.08-23.94 10.26-23.94 31.5 0 10.26 6.12 15.3 13.14 15.3 6.66 0 11.7-4.86 11.7-10.8z"/>
</defs>
</svg>
