<svg width="382" height="294" viewBox="0 0 382 294" version="1.1" xmlns="http://www.w3.org/2000/svg" xmlns:xlink="http://www.w3.org/1999/xlink">
<title>Group 2</title>
<desc>Created using Figma</desc>
<g id="Canvas" transform="matrix(2 0 0 2 -5898 -884)">
<g id="Group 2">
<g id="Group">
<g id="Vector 3" filter="url(#filter0_f)">
<use xlink:href="#path0_fill" transform="translate(2980.35 509.942)" fill="#002BFA" fill-opacity="0.1"/>
</g>
<g id="Vector">
<use xlink:href="#path1_fill" transform="translate(2980.34 442.122)" fill="url(#paint1_linear)"/>
</g>
<g id="Vector">
<use xlink:href="#path2_fill" transform="translate(2983 444.554)" fill="url(#paint2_linear)"/>
</g>
<g id="Vector">
<use xlink:href="#path3_fill" transform="translate(2987.58 450.131)" fill="#495CF2"/>
</g>
<g id="Group">
<mask id="mask0_alpha" mask-type="alpha">
<g id="Vector">
<use xlink:href="#path3_fill" transform="translate(2987.58 450.131)" fill="#240B3C"/>
</g>
</mask>
<g id="Rectangle 8" mask="url(#mask0_alpha)">
<use xlink:href="#path4_fill" transform="matrix(0.960376 0.278707 -0.278913 0.960316 3058.24 416.222)" fill="url(#paint5_linear)" fill-opacity="0.2" style="mix-blend-mode:soft-light"/>
</g>
<g id="Rectangle 8" mask="url(#mask0_alpha)">
<use xlink:href="#path5_fill" transform="matrix(0.960376 0.278707 -0.278913 0.960316 3048.73 406.476)" fill="url(#paint6_linear)" fill-opacity="0.2" style="mix-blend-mode:soft-light"/>
</g>
</g>
<g id="Vector">
<use xlink:href="#path6_stroke" transform="translate(3075.08 514.148)" fill="#4633FF"/>
</g>
<g id="Vector">
<use xlink:href="#path7_fill" transform="translate(2983 509.386)" fill="#F7FAFF"/>
</g>
<g id="Group">
<g id="Vector">
<use xlink:href="#path8_fill" transform="translate(2998.34 537.353)" fill="#99C2FF"/>
</g>
<g id="Vector">
<use xlink:href="#path9_fill" transform="translate(3005.55 534.951)" fill="#99C2FF"/>
</g>
<g id="Vector">
<use xlink:href="#path10_fill" transform="translate(3012.85 532.641)" fill="#99C2FF"/>
</g>
<g id="Vector">
<use xlink:href="#path11_fill" transform="translate(3020.06 530.331)" fill="#99C2FF"/>
</g>
<g id="Vector">
<use xlink:href="#path12_fill" transform="translate(3027.36 527.929)" fill="#99C2FF"/>
</g>
<g id="Vector">
<use xlink:href="#path13_fill" transform="translate(3034.57 525.619)" fill="#99C2FF"/>
</g>
<g id="Vector">
<use xlink:href="#path14_fill" transform="translate(3041.88 523.309)" fill="#99C2FF"/>
</g>
<g id="Vector">
<use xlink:href="#path15_fill" transform="translate(3049.08 520.907)" fill="#99C2FF"/>
</g>
<g id="Vector">
<use xlink:href="#path16_fill" transform="translate(3070.99 513.885)" fill="#99C2FF"/>
</g>
<g id="Vector">
<use xlink:href="#path17_fill" transform="translate(3024.31 551.582)" fill="#99C2FF"/>
</g>
<g id="Vector">
<use xlink:href="#path18_fill" transform="translate(3030.41 549.179)" fill="#99C2FF"/>
</g>
<g id="Vector">
<use xlink:href="#path19_fill" transform="translate(3037.62 546.87)" fill="#99C2FF"/>
</g>
<g id="Vector">
<use xlink:href="#path20_fill" transform="translate(3045.2 534.766)" fill="#99C2FF"/>
</g>
<g id="Vector">
<use xlink:href="#path21_fill" transform="translate(3098.17 527.744)" fill="#99C2FF"/>
</g>
<g id="Vector">
<use xlink:href="#path22_fill" transform="translate(3007.12 540.956)" fill="#99C2FF"/>
</g>
<g id="Vector">
<use xlink:href="#path23_fill" transform="translate(3017.66 538.647)" fill="#99C2FF"/>
</g>
<g id="Vector">
<use xlink:href="#path24_fill" transform="translate(3024.87 536.337)" fill="#99C2FF"/>
</g>
<g id="Vector">
<use xlink:href="#path25_fill" transform="translate(3032.17 533.935)" fill="#99C2FF"/>
</g>
<g id="Vector">
<use xlink:href="#path26_fill" transform="translate(3039.38 531.625)" fill="#99C2FF"/>
</g>
<g id="Vector">
<use xlink:href="#path27_fill" transform="translate(3046.68 529.223)" fill="#99C2FF"/>
</g>
<g id="Vector">
<use xlink:href="#path28_fill" transform="translate(3053.89 526.913)" fill="#99C2FF"/>
</g>
<g id="Vector">
<use xlink:href="#path29_fill" transform="translate(3015.9 544.375)" fill="#99C2FF"/>
</g>
<g id="Vector">
<use xlink:href="#path30_fill" transform="translate(3030.41 542.065)" fill="#99C2FF"/>
</g>
<g id="Vector">
<use xlink:href="#path31_fill" transform="translate(3037.72 539.663)" fill="#99C2FF"/>
</g>
<g id="Vector">
<use xlink:href="#path32_fill" transform="translate(3044.93 537.353)" fill="#99C2FF"/>
</g>
<g id="Vector">
<use xlink:href="#path33_fill" transform="translate(3052.23 535.043)" fill="#99C2FF"/>
</g>
<g id="Vector">
<use xlink:href="#path34_fill" transform="translate(3059.44 532.641)" fill="#99C2FF"/>
</g>
<g id="Vector">
<use xlink:href="#path35_fill" transform="translate(3066.74 530.331)" fill="#99C2FF"/>
</g>
<g id="Vector">
<use xlink:href="#path36_fill" transform="translate(3056.39 518.597)" fill="#99C2FF"/>
</g>
<g id="Vector">
<use xlink:href="#path37_fill" transform="translate(3083.47 532.087)" fill="#99C2FF"/>
</g>
<g id="Vector">
<use xlink:href="#path38_fill" transform="translate(3061.19 524.603)" fill="#99C2FF"/>
</g>
<g id="Vector">
<use xlink:href="#path39_fill" transform="translate(3074.04 528.021)" fill="#99C2FF"/>
</g>
<g id="Vector">
<use xlink:href="#path40_fill" transform="translate(3063.69 516.195)" fill="#99C2FF"/>
</g>
<g id="Vector">
<use xlink:href="#path41_fill" transform="translate(3090.77 529.684)" fill="#99C2FF"/>
</g>
<g id="Vector">
<use xlink:href="#path42_fill" transform="translate(3068.49 522.201)" fill="#99C2FF"/>
</g>
<g id="Vector">
<use xlink:href="#path43_fill" transform="translate(3081.34 525.619)" fill="#99C2FF"/>
</g>
<g id="Vector">
<use xlink:href="#path44_fill" transform="translate(3077.09 518.597)" fill="#99C2FF"/>
</g>
</g>
<g id="Group">
<g id="Vector">
<use xlink:href="#path45_fill" transform="translate(2998.02 537.228)" fill="#DAE9FF"/>
</g>
<g id="Vector">
<use xlink:href="#path46_fill" transform="translate(3005.17 534.846)" fill="#DAE9FF"/>
</g>
<g id="Vector">
<use xlink:href="#path47_fill" transform="translate(3012.41 532.557)" fill="#DAE9FF"/>
</g>
<g id="Vector">
<use xlink:href="#path48_fill" transform="translate(3019.56 530.267)" fill="#DAE9FF"/>
</g>
<g id="Vector">
<use xlink:href="#path49_fill" transform="translate(3026.79 527.886)" fill="#DAE9FF"/>
</g>
<g id="Vector">
<use xlink:href="#path50_fill" transform="translate(3033.94 525.596)" fill="#DAE9FF"/>
</g>
<g id="Vector">
<use xlink:href="#path51_fill" transform="translate(3041.18 523.307)" fill="#DAE9FF"/>
</g>
<g id="Vector">
<use xlink:href="#path52_fill" transform="translate(3048.32 520.926)" fill="#DAE9FF"/>
</g>
<g id="Vector">
<use xlink:href="#path53_fill" transform="translate(3070.04 513.965)" fill="#DAE9FF"/>
</g>
<g id="Vector">
<use xlink:href="#path54_fill" transform="translate(3023.77 551.331)" fill="#DAE9FF"/>
</g>
<g id="Vector">
<use xlink:href="#path55_fill" transform="translate(3029.82 548.95)" fill="#DAE9FF"/>
</g>
<g id="Vector">
<use xlink:href="#path56_fill" transform="translate(3036.96 546.661)" fill="#DAE9FF"/>
</g>
<g id="Vector">
<use xlink:href="#path57_fill" transform="translate(3044.48 534.663)" fill="#DAE9FF"/>
</g>
<g id="Square" filter="url(#filter1_i)">
<use xlink:href="#path58_fill" transform="translate(3064.07 542.598)" fill="#DAE9FF"/>
</g>
<g id="Vector">
<use xlink:href="#path59_fill" transform="translate(3096.98 527.703)" fill="#DAE9FF"/>
</g>
<g id="Vector">
<use xlink:href="#path60_fill" transform="translate(3006.73 540.799)" fill="#DAE9FF"/>
</g>
<g id="Vector">
<use xlink:href="#path61_fill" transform="translate(3017.17 538.51)" fill="#DAE9FF"/>
</g>
<g id="Vector">
<use xlink:href="#path62_fill" transform="translate(3024.32 536.22)" fill="#DAE9FF"/>
</g>
<g id="Vector">
<use xlink:href="#path63_fill" transform="translate(3031.56 533.839)" fill="#DAE9FF"/>
</g>
<g id="Vector">
<use xlink:href="#path64_fill" transform="translate(3038.7 531.549)" fill="#DAE9FF"/>
</g>
<g id="Vector">
<use xlink:href="#path65_fill" transform="translate(3045.94 529.168)" fill="#DAE9FF"/>
</g>
<g id="Vector">
<use xlink:href="#path66_fill" transform="translate(3053.09 526.878)" fill="#DAE9FF"/>
</g>
<g id="Vector">
<use xlink:href="#path67_fill" transform="translate(3015.43 544.188)" fill="#DAE9FF"/>
</g>
<g id="Vector">
<use xlink:href="#path68_fill" transform="translate(3029.82 541.898)" fill="#DAE9FF"/>
</g>
<g id="Vector">
<use xlink:href="#path69_fill" transform="translate(3037.06 539.517)" fill="#DAE9FF"/>
</g>
<g id="Vector">
<use xlink:href="#path70_fill" transform="translate(3044.2 537.228)" fill="#DAE9FF"/>
</g>
<g id="Vector">
<use xlink:href="#path71_fill" transform="translate(3051.44 534.938)" fill="#DAE9FF"/>
</g>
<g id="Vector">
<use xlink:href="#path72_fill" transform="translate(3058.59 532.557)" fill="#DAE9FF"/>
</g>
<g id="Vector">
<use xlink:href="#path73_fill" transform="translate(3065.82 530.267)" fill="#DAE9FF"/>
</g>
<g id="Vector">
<use xlink:href="#path74_fill" transform="translate(3055.56 518.636)" fill="#DAE9FF"/>
</g>
<g id="Vector">
<use xlink:href="#path75_fill" transform="translate(3082.41 532.007)" fill="#DAE9FF"/>
</g>
<g id="Vector">
<use xlink:href="#path76_fill" transform="translate(3060.33 524.589)" fill="#DAE9FF"/>
</g>
<g id="Vector">
<use xlink:href="#path77_fill" transform="translate(3073.06 527.977)" fill="#DAE9FF"/>
</g>
<g id="Vector">
<use xlink:href="#path78_fill" transform="translate(3062.8 516.255)" fill="#DAE9FF"/>
</g>
<g id="Vector">
<use xlink:href="#path79_fill" transform="translate(3089.65 529.626)" fill="#DAE9FF"/>
</g>
<g id="Vector">
<use xlink:href="#path80_fill" transform="translate(3067.57 522.208)" fill="#DAE9FF"/>
</g>
<g id="Vector">
<use xlink:href="#path81_fill" transform="translate(3080.3 525.596)" fill="#DAE9FF"/>
</g>
<g id="Vector">
<use xlink:href="#path82_fill" transform="translate(3076.09 518.636)" fill="#DAE9FF"/>
</g>
</g>
</g>
<g id="Group">
<g id="Vector" filter="url(#filter2_f)">
<use xlink:href="#path83_fill" transform="matrix(0.999892 -0.0147266 0.0147384 0.999891 2955.79 551.616)" fill="#002BFA" fill-opacity="0.1"/>
<use xlink:href="#path84_fill" transform="matrix(0.999892 -0.0147266 0.0147384 0.999891 2955.79 551.616)" fill="#002BFA" fill-opacity="0.1"/>
<use xlink:href="#path85_fill" transform="matrix(0.999892 -0.0147266 0.0147384 0.999891 2955.79 551.616)" fill="#002BFA" fill-opacity="0.1"/>
<use xlink:href="#path86_fill" transform="matrix(0.999892 -0.0147266 0.0147384 0.999891 2955.79 551.616)" fill="#002BFA" fill-opacity="0.1"/>
<use xlink:href="#path87_fill" transform="matrix(0.999892 -0.0147266 0.0147384 0.999891 2955.79 551.616)" fill="#002BFA" fill-opacity="0.1"/>
<use xlink:href="#path88_fill" transform="matrix(0.999892 -0.0147266 0.0147384 0.999891 2955.79 551.616)" fill="#002BFA" fill-opacity="0.1"/>
</g>
<g id="Vector">
<use xlink:href="#path89_fill" transform="matrix(0.999529 -0.030691 0.0307156 0.999528 2956.42 552.572)" fill="#FFFFFF"/>
<use xlink:href="#path90_stroke" transform="matrix(0.999529 -0.030691 0.0307156 0.999528 2956.42 552.572)" fill="#4633FF"/>
</g>
<g id="Vector">
<use xlink:href="#path91_fill" transform="matrix(0.999529 -0.030691 0.0307156 0.999528 2955.44 551.159)" fill="url(#paint92_linear)"/>
</g>
<g id="Vector">
<use xlink:href="#path92_fill" transform="matrix(0.999529 -0.030691 0.0307156 0.999528 2955.51 550.367)" fill="#F7FAFF"/>
</g>
<g id="Vector">
<use xlink:href="#path93_fill" transform="matrix(0.999529 -0.030691 0.0307156 0.999528 2960.81 552.908)" fill="#495CF2"/>
</g>
<g id="Vector">
<use xlink:href="#path94_fill" transform="matrix(0.999529 -0.030691 0.0307156 0.999528 2963.8 555.573)" fill="#99C2FF"/>
</g>
<g id="Vector">
<use xlink:href="#path95_stroke" transform="matrix(0.999529 -0.030691 0.0307156 0.999528 2965.63 553.876)" fill="#99C2FF"/>
</g>
<g id="Vector">
<use xlink:href="#path96_fill" transform="matrix(0.999529 -0.030691 0.0307156 0.999528 3002.8 572.333)" fill="url(#paint97_linear)"/>
</g>
</g>
</g>
</g>
<defs>
<filter id="filter0_f" filterUnits="userSpaceOnUse" x="2974" y="503" width="166" height="77" color-interpolation-filters="sRGB">
<feFlood flood-opacity="0" result="BackgroundImageFix"/>
<feBlend mode="normal" in="SourceGraphic" in2="BackgroundImageFix" result="shape"/>
<feGaussianBlur stdDeviation="3" result="effect1_foregroundBlur"/>
</filter>
<filter id="filter1_i" filterUnits="userSpaceOnUse" x="3064" y="542" width="25" height="12" color-interpolation-filters="sRGB">
<feFlood flood-opacity="0" result="BackgroundImageFix"/>
<feBlend mode="normal" in="SourceGraphic" in2="BackgroundImageFix" result="shape"/>
<feColorMatrix in="SourceAlpha" type="matrix" values="0 0 0 0 0 0 0 0 0 0 0 0 0 0 0 0 0 0 255 0" result="hardAlpha"/>
<feOffset dx="1" dy="0.1"/>
<feComposite in2="hardAlpha" operator="arithmetic" k2="-1" k3="1"/>
<feColorMatrix type="matrix" values="0 0 0 0 0.6 0 0 0 0 0.760784 0 0 0 0 1 0 0 0 1 0"/>
<feBlend mode="normal" in2="shape" result="effect1_innerShadow"/>
</filter>
<filter id="filter2_f" filterUnits="userSpaceOnUse" x="2949" y="545" width="77" height="44" color-interpolation-filters="sRGB">
<feFlood flood-opacity="0" result="BackgroundImageFix"/>
<feBlend mode="normal" in="SourceGraphic" in2="BackgroundImageFix" result="shape"/>
<feGaussianBlur stdDeviation="3" result="effect1_foregroundBlur"/>
</filter>
<linearGradient id="paint1_linear" x1="0" y1="0" x2="1" y2="0" gradientUnits="userSpaceOnUse" gradientTransform="matrix(155.275 72.0658 -84.4614 181.837 42.2307 -61.1652)">
<stop offset="0" stop-color="#C7DDFF"/>
<stop offset="0.646409" stop-color="#D7E7FF"/>
<stop offset="1" stop-color="#C3D5F2"/>
</linearGradient>
<linearGradient id="paint2_linear" x1="0" y1="0" x2="1" y2="0" gradientUnits="userSpaceOnUse" gradientTransform="matrix(128.958 49.1331 -48.7699 127.902 24.3849 -34.2256)">
<stop offset="0" stop-color="#DFECFF"/>
<stop offset="1" stop-color="#DEEBFF"/>
</linearGradient>
<linearGradient id="paint5_linear" x1="0" y1="0" x2="1" y2="0" gradientUnits="userSpaceOnUse" gradientTransform="matrix(1.17689e-15 86.0172 -19.22 5.26704e-15 19.22 -5.26704e-15)">
<stop offset="0" stop-color="#FFFFFF"/>
<stop offset="1" stop-color="#FFFFFF" stop-opacity="0"/>
</linearGradient>
<linearGradient id="paint6_linear" x1="0" y1="0" x2="1" y2="0" gradientUnits="userSpaceOnUse" gradientTransform="matrix(4.08039e-16 86.0172 -6.66378 5.26704e-15 6.66378 -5.26704e-15)">
<stop offset="0" stop-color="#FFFFFF"/>
<stop offset="1" stop-color="#FFFFFF" stop-opacity="0"/>
</linearGradient>
<linearGradient id="paint92_linear" x1="0" y1="0" x2="1" y2="0" gradientUnits="userSpaceOnUse" gradientTransform="matrix(64.0301 17.2051 -34.8291 43.412 17.4145 -14.6027)">
<stop offset="0" stop-color="#C7DDFF"/>
<stop offset="0.646409" stop-color="#D7E7FF"/>
<stop offset="1" stop-color="#C3D5F2"/>
</linearGradient>
<linearGradient id="paint97_linear" x1="0" y1="0" x2="1" y2="0" gradientUnits="userSpaceOnUse" gradientTransform="matrix(4.63067 1.20581 -2.51884 3.04251 1.25942 -1.02342)">
<stop offset="0" stop-color="#D7E7FF"/>
<stop offset="1" stop-color="#C3D5F2"/>
</linearGradient>
<path id="path0_fill" d="M 60.7686 63.4876L 0 31.3519L 94.8775 0L 152.902 36.0546L 60.7686 63.4876Z"/>
<path id="path1_fill" d="M 152.458 97.6695C 152.458 100.325 152.733 102.798 150.076 103.806L 150.259 103.806L 64.593 129.816C 62.9438 130.274 61.203 130.182 59.737 129.358L 3.11512 100.325C 1.19108 99.3181 0 97.3948 0 95.2883L 0 29.7139C 0 28.5233 0.824591 27.4243 1.92405 27.0579L 89.6972 0.223667C 93.7285 -1.1501 94.6447 4.25338 94.6447 4.25338L 90.1553 69.2784L 152.458 97.6695Z"/>
<path id="path2_fill" d="M 92.0794 64.8319L 8.73768e-08 92.7652L 8.73768e-08 28.6561C 8.73768e-08 27.8318 0.549728 27.0991 1.2827 26.916L 89.6972 0.0817174C 90.8883 -0.284621 92.0794 0.631224 92.0794 1.82182L 92.0794 64.8319Z"/>
<path id="path3_fill" d="M -3.49507e-07 25.1857L 82.9172 -1.74684e-07L 82.9172 55.9581L -3.49507e-07 81.0523L -3.49507e-07 25.1857Z"/>
<path id="path4_fill" d="M 0 0L 19.22 0L 19.22 86.0172L 0 86.0172L 0 0Z"/>
<path id="path5_fill" d="M 0 0L 6.66378 0L 6.66378 86.0172L 0 86.0172L 0 0Z"/>
<path id="path6_stroke" d="M -0.225048 0.446488L 53.7399 27.6471L 54.19 26.7541L 0.225051 -0.446491L -0.225048 0.446488Z"/>
<path id="path7_fill" d="M 148.885 31.3219L 62.2108 57.6066C 60.3784 58.1562 58.3627 57.973 56.7136 57.1487L 8.73768e-08 27.9333L 92.0793 1.39747e-06L 149.159 28.6659C 150.259 29.307 150.076 30.9556 148.885 31.3219Z"/>
<path id="path8_fill" d="M 8.97818 2.1588C 9.21362 2.2834 9.182 2.63017 8.92791 2.71013L 4.74248 4.02723C 4.66515 4.05157 4.58126 4.04357 4.50992 4.00506L 0.619879 1.90529C 0.3872 1.77969 0.418998 1.43634 0.670784 1.35561L 4.77853 0.0385668C 4.85544 0.0139059 4.93905 0.021302 5.01045 0.0590824L 8.97818 2.1588Z"/>
<path id="path9_fill" d="M 9.00721 2.16776C 9.23774 2.2922 9.20922 2.63161 8.96115 2.71583L 4.8364 4.11612C 4.75824 4.14265 4.6726 4.13581 4.59964 4.0972L 0.619922 1.99114C 0.386615 1.86767 0.414983 1.52481 0.66541 1.44136L 4.86811 0.0410234C 4.94668 0.0148449 5.03257 0.0223078 5.10544 0.0616443L 9.00721 2.16776Z"/>
<path id="path10_fill" d="M 8.97818 2.1588C 9.21362 2.2834 9.182 2.63017 8.92791 2.71013L 4.74248 4.02724C 4.66515 4.05157 4.58126 4.04357 4.50992 4.00507L 0.619878 1.90529C 0.3872 1.77969 0.418997 1.43634 0.670783 1.35561L 4.77853 0.0385614C 4.85544 0.0139002 4.93905 0.0212965 5.01045 0.0590771L 8.97818 2.1588Z"/>
<path id="path11_fill" d="M 8.99288 2.16002C 9.22555 2.28561 9.19376 2.62896 8.94197 2.70969L 4.83422 4.02674C 4.75731 4.0514 4.6737 4.044 4.60231 4.00622L 0.634569 1.9065C 0.39913 1.78191 0.430749 1.43513 0.684838 1.35517L 4.87028 0.0380627C 4.9476 0.0137281 5.03149 0.021725 5.10283 0.0602324L 8.99288 2.16002Z"/>
<path id="path12_fill" d="M 8.99283 2.16656C 9.22614 2.29002 9.19777 2.63289 8.94734 2.71633L 4.74464 4.11667C 4.66608 4.14285 4.58018 4.13538 4.50731 4.09605L 0.605543 1.98994C 0.375009 1.8655 0.403534 1.52609 0.651603 1.44187L 4.77635 0.0415718C 4.85451 0.0150366 4.94015 0.0218791 5.01311 0.0604884L 8.99283 2.16656Z"/>
<path id="path13_fill" d="M 8.99288 2.16002C 9.22555 2.28562 9.19376 2.62896 8.94197 2.70969L 4.83422 4.02674C 4.75731 4.0514 4.6737 4.044 4.6023 4.00622L 0.634569 1.9065C 0.399131 1.78191 0.430749 1.43514 0.684839 1.35518L 4.87028 0.0380642C 4.94761 0.0137295 5.03149 0.0217264 5.10283 0.0602338L 8.99288 2.16002Z"/>
<path id="path14_fill" d="M 8.97819 2.15881C 9.21362 2.2834 9.18201 2.63017 8.92792 2.71013L 4.74248 4.02724C 4.66515 4.05157 4.58126 4.04357 4.50993 4.00507L 0.61988 1.90529C 0.387202 1.77969 0.418999 1.43635 0.670785 1.35562L 4.77853 0.0385628C 4.85544 0.0139016 4.93905 0.0212979 5.01044 0.0590784L 8.97819 2.15881Z"/>
<path id="path15_fill" d="M 8.99287 2.16001C 9.22555 2.28561 9.19375 2.62896 8.94197 2.70969L 4.83164 4.02757C 4.75625 4.05174 4.67437 4.04513 4.60383 4.00919L 0.638493 1.98846C 0.401329 1.8676 0.427337 1.52069 0.679871 1.43655L 4.86811 0.0410261C 4.94667 0.0148477 5.03257 0.0223105 5.10544 0.0616469L 8.99287 2.16001Z"/>
<path id="path16_fill" d="M 8.97818 2.1588C 9.21362 2.2834 9.18201 2.63017 8.92792 2.71013L 4.74248 4.02724C 4.66515 4.05157 4.58126 4.04358 4.50993 4.00507L 0.619879 1.90528C 0.387201 1.77969 0.418999 1.43634 0.670785 1.35561L 4.77853 0.0385654C 4.85544 0.0139044 4.93905 0.0213006 5.01044 0.0590809L 8.97818 2.1588Z"/>
<path id="path17_fill" d="M 7.70214 2.16179C 7.93433 2.28713 7.90328 2.62958 7.65233 2.71111L 4.74368 3.65604C 4.66566 3.68138 4.58067 3.67368 4.50849 3.63471L 0.61659 1.53394C 0.384398 1.4086 0.415449 1.06615 0.666398 0.984619L 3.57505 0.0396839C 3.65307 0.0143388 3.73806 0.0220453 3.81025 0.0610096L 7.70214 2.16179Z"/>
<path id="path18_fill" d="M 8.91478 2.16776C 9.14532 2.2922 9.11679 2.63161 8.86872 2.71583L 4.74536 4.11565C 4.66639 4.14246 4.57982 4.13519 4.50642 4.09557L 0.605543 1.98994C 0.375009 1.8655 0.403533 1.52609 0.651602 1.44187L 4.77496 0.0420432C 4.85393 0.015232 4.94051 0.0225076 5.0139 0.062124L 8.91478 2.16776Z"/>
<path id="path19_fill" d="M 8.99287 2.16002C 9.22555 2.28562 9.19375 2.62896 8.94197 2.70969L 4.83422 4.02674C 4.75731 4.0514 4.6737 4.044 4.60231 4.00622L 0.634569 1.9065C 0.39913 1.78191 0.430748 1.43514 0.684838 1.35518L 4.87027 0.0380642C 4.9476 0.0137295 5.03149 0.0217264 5.10283 0.0602338L 8.99287 2.16002Z"/>
<path id="path20_fill" d="M 38.8507 2.16157C 39.083 2.28694 39.0519 2.6295 38.8008 2.71093L 4.83466 13.7274C 4.75749 13.7525 4.67348 13.7452 4.60178 13.7072L 0.627522 11.6041C 0.3931 11.48 0.423162 11.1351 0.675511 11.0535L 34.7242 0.0394638C 34.8022 0.0142575 34.887 0.0220041 34.9591 0.060906L 38.8507 2.16157Z"/>
<path id="path21_fill" d="M 7.77841 2.15977C 8.01359 2.28422 7.98237 2.63052 7.72873 2.71091L 4.74275 3.65731C 4.66527 3.68186 4.58113 3.67393 4.50961 3.63532L 0.616592 1.53393C 0.3844 1.4086 0.415451 1.06614 0.666401 0.984618L 3.57644 0.0392372C 3.65364 0.0141572 3.73771 0.0214312 3.80946 0.0593988L 7.77841 2.15977Z"/>
<path id="path22_fill" d="M 12.2319 2.16214C 12.464 2.28743 12.4331 2.62971 12.1823 2.71139L 4.74377 5.1342C 4.6657 5.15963 4.58062 5.15195 4.50836 5.11295L 0.615939 3.01188C 0.383843 2.8866 0.414747 2.54431 0.66553 2.46263L 8.10404 0.0398187C 8.18211 0.0143896 8.26719 0.0220718 8.33945 0.0610738L 12.2319 2.16214Z"/>
<path id="path23_fill" d="M 8.97818 2.1588C 9.21362 2.2834 9.182 2.63017 8.92791 2.71013L 4.74248 4.02724C 4.66515 4.05157 4.58126 4.04357 4.50993 4.00507L 0.619879 1.90529C 0.387201 1.77969 0.418998 1.43634 0.670784 1.35561L 4.77853 0.0385614C 4.85544 0.0139002 4.93905 0.0212965 5.01045 0.0590771L 8.97818 2.1588Z"/>
<path id="path24_fill" d="M 8.98894 2.07797C 9.22337 2.19983 9.1972 2.5433 8.94701 2.62824L 4.8364 4.02373C 4.75824 4.05026 4.6726 4.04342 4.59964 4.00481L 0.634569 1.9065C 0.399131 1.78191 0.430749 1.43513 0.684839 1.35517L 4.8729 0.037237C 4.94868 0.0133898 5.03083 0.0205742 5.10132 0.0572144L 8.98894 2.07797Z"/>
<path id="path25_fill" d="M 8.97819 2.15881C 9.21362 2.2834 9.18201 2.63017 8.92792 2.71013L 4.74248 4.02724C 4.66515 4.05157 4.58126 4.04357 4.50993 4.00507L 0.61988 1.90529C 0.387202 1.77969 0.418999 1.43635 0.670785 1.35562L 4.77853 0.0385628C 4.85544 0.0139016 4.93906 0.0212979 5.01045 0.0590785L 8.97819 2.15881Z"/>
<path id="path26_fill" d="M 8.99287 2.16002C 9.22555 2.28562 9.19375 2.62896 8.94197 2.70969L 4.83423 4.02674C 4.75731 4.0514 4.6737 4.044 4.60231 4.00622L 0.634567 1.9065C 0.399129 1.78191 0.430747 1.43514 0.684836 1.35518L 4.87027 0.0380642C 4.9476 0.0137295 5.03149 0.0217264 5.10283 0.0602338L 8.99287 2.16002Z"/>
<path id="path27_fill" d="M 8.99283 2.16655C 9.22614 2.29002 9.19777 2.63289 8.94734 2.71633L 4.74464 4.11667C 4.66608 4.14285 4.58018 4.13538 4.50731 4.09605L 0.605541 1.98994C 0.375007 1.8655 0.403532 1.52609 0.651601 1.44187L 4.77635 0.0415731C 4.85451 0.015038 4.94015 0.0218804 5.01311 0.0604895L 8.99283 2.16655Z"/>
<path id="path28_fill" d="M 8.99288 2.16001C 9.22555 2.28561 9.19376 2.62896 8.94197 2.70969L 4.83422 4.02674C 4.75731 4.0514 4.6737 4.044 4.60231 4.00622L 0.634571 1.9065C 0.399132 1.7819 0.430751 1.43513 0.68484 1.35517L 4.87028 0.0380653C 4.94761 0.0137308 5.03149 0.0217277 5.10283 0.0602349L 8.99288 2.16001Z"/>
<path id="path29_fill" d="M 16.2889 2.16343C 16.5231 2.28735 16.4934 2.63181 16.2415 2.71385L 4.83481 6.42817C 4.75756 6.45333 4.67341 6.44607 4.6016 6.40807L 0.625824 4.30409C 0.391649 4.18017 0.421334 3.83571 0.673259 3.75367L 12.0799 0.0393574C 12.1572 0.0142024 12.2413 0.0214545 12.3131 0.0594554L 16.2889 2.16343Z"/>
<path id="path30_fill" d="M 8.99288 2.16002C 9.22555 2.28561 9.19376 2.62896 8.94197 2.70969L 4.83422 4.02674C 4.75731 4.0514 4.6737 4.04401 4.6023 4.00622L 0.634569 1.9065C 0.399131 1.7819 0.430749 1.43513 0.684839 1.35517L 4.87028 0.0380667C 4.94761 0.0137322 5.03149 0.0217291 5.10283 0.0602363L 8.99288 2.16002Z"/>
<path id="path31_fill" d="M 8.99283 2.16656C 9.22614 2.29002 9.19777 2.63289 8.94735 2.71633L 4.74464 4.11667C 4.66608 4.14285 4.58018 4.13539 4.50731 4.09605L 0.605543 1.98994C 0.37501 1.8655 0.403535 1.52608 0.651604 1.44187L 4.77635 0.0415756C 4.85451 0.0150407 4.94015 0.0218832 5.01311 0.0604922L 8.99283 2.16656Z"/>
<path id="path32_fill" d="M 8.99287 2.16002C 9.22555 2.28561 9.19375 2.62896 8.94197 2.70969L 4.83423 4.02673C 4.75731 4.0514 4.6737 4.044 4.60231 4.00622L 0.634568 1.9065C 0.399129 1.7819 0.430748 1.43513 0.684838 1.35517L 4.87027 0.0380681C 4.9476 0.0137336 5.03149 0.0217305 5.10283 0.0602377L 8.99287 2.16002Z"/>
<path id="path33_fill" d="M 8.97818 2.1588C 9.21362 2.2834 9.182 2.63017 8.92791 2.71013L 4.74248 4.02723C 4.66515 4.05157 4.58126 4.04357 4.50992 4.00506L 0.619878 1.90529C 0.3872 1.77969 0.418997 1.43634 0.670784 1.35561L 4.77853 0.0385667C 4.85545 0.0139058 4.93906 0.021302 5.01045 0.0590824L 8.97818 2.1588Z"/>
<path id="path34_fill" d="M 9.00721 2.16776C 9.23775 2.29219 9.20922 2.63161 8.96115 2.71583L 4.8364 4.11612C 4.75824 4.14265 4.6726 4.13581 4.59964 4.0972L 0.619922 1.99114C 0.386615 1.86767 0.414984 1.52481 0.665411 1.44136L 4.86811 0.0410234C 4.94668 0.0148449 5.03257 0.0223078 5.10545 0.0616443L 9.00721 2.16776Z"/>
<path id="path35_fill" d="M 8.97818 2.1588C 9.21362 2.2834 9.182 2.63017 8.92791 2.71013L 4.74248 4.02724C 4.66515 4.05157 4.58127 4.04357 4.50993 4.00507L 0.619881 1.90529C 0.387203 1.77969 0.419 1.43634 0.670786 1.35561L 4.77853 0.0385615C 4.85544 0.0139003 4.93905 0.0212965 5.01045 0.0590771L 8.97818 2.1588Z"/>
<path id="path36_fill" d="M 8.99287 2.16001C 9.22555 2.28561 9.19375 2.62896 8.94197 2.70969L 4.83422 4.02674C 4.75731 4.0514 4.6737 4.044 4.6023 4.00622L 0.634567 1.9065C 0.399129 1.7819 0.430748 1.43513 0.684838 1.35517L 4.87028 0.0380653C 4.9476 0.0137308 5.03149 0.0217277 5.10283 0.0602349L 8.99287 2.16001Z"/>
<path id="path37_fill" d="M 8.99288 2.16002C 9.22556 2.28562 9.19376 2.62896 8.94197 2.70969L 4.83422 4.02674C 4.75731 4.0514 4.6737 4.044 4.60231 4.00622L 0.634571 1.9065C 0.399132 1.78191 0.43075 1.43514 0.68484 1.35518L 4.87028 0.0380642C 4.94761 0.0137295 5.03149 0.0217264 5.10283 0.0602338L 8.99288 2.16002Z"/>
<path id="path38_fill" d="M 8.98893 2.07797C 9.22336 2.19982 9.1972 2.5433 8.94701 2.62823L 4.83641 4.02373C 4.75824 4.05027 4.6726 4.04342 4.59964 4.00481L 0.634572 1.9065C 0.399133 1.7819 0.430752 1.43513 0.684841 1.35517L 4.8729 0.0372396C 4.94868 0.0133925 5.03082 0.020577 5.10131 0.0572169L 8.98893 2.07797Z"/>
<path id="path39_fill" d="M 8.97426 2.07685C 9.21142 2.19771 9.18541 2.54462 8.93288 2.62876L 4.74464 4.02427C 4.66607 4.05045 4.58018 4.04299 4.50731 4.00365L 0.619876 1.90529C 0.387197 1.77969 0.418995 1.43634 0.670781 1.35562L 4.78112 0.0377319C 4.8565 0.0135608 4.93839 0.020168 5.00892 0.0561133L 8.97426 2.07685Z"/>
<path id="path40_fill" d="M 8.97818 2.1588C 9.21362 2.2834 9.182 2.63017 8.92791 2.71013L 4.73985 4.02806C 4.66407 4.05191 4.58193 4.04473 4.51144 4.00809L 0.623817 1.98733C 0.389385 1.86547 0.415553 1.522 0.665739 1.43707L 4.77635 0.0415742C 4.85451 0.0150393 4.94016 0.0218818 5.01311 0.0604908L 8.97818 2.1588Z"/>
<path id="path41_fill" d="M 8.99287 2.16001C 9.22555 2.28561 9.19375 2.62896 8.94197 2.70969L 4.83422 4.02674C 4.75731 4.0514 4.6737 4.044 4.60231 4.00622L 0.634572 1.9065C 0.399133 1.7819 0.430752 1.43513 0.684841 1.35517L 4.87027 0.0380654C 4.9476 0.0137308 5.03149 0.0217277 5.10282 0.0602349L 8.99287 2.16001Z"/>
<path id="path42_fill" d="M 8.99287 2.16002C 9.22555 2.28561 9.19375 2.62896 8.94197 2.70969L 4.83423 4.02674C 4.75731 4.0514 4.6737 4.04401 4.60231 4.00622L 0.634567 1.9065C 0.399128 1.7819 0.430747 1.43513 0.684837 1.35517L 4.87027 0.0380667C 4.9476 0.0137322 5.03149 0.0217291 5.10283 0.0602363L 8.99287 2.16002Z"/>
<path id="path43_fill" d="M 8.90044 2.16002C 9.13312 2.28562 9.10133 2.62896 8.84954 2.70969L 4.74318 4.02629C 4.66545 4.05122 4.58092 4.04339 4.50908 4.00461L 0.619877 1.90529C 0.387199 1.77969 0.418996 1.43635 0.670782 1.35562L 4.77714 0.0390074C 4.85488 0.0140846 4.93941 0.0219131 5.01124 0.0606872L 8.90044 2.16002Z"/>
<path id="path44_fill" d="M 7.5515 0.037643C 7.6284 0.0135659 7.71174 0.0214314 7.78277 0.0594682L 19.9881 6.59541C 20.2216 6.72046 20.1903 7.06468 19.9381 7.14556L 15.8339 8.46144C 15.7567 8.4862 15.6728 8.47865 15.6012 8.4405L 7.50489 4.12419C 7.4342 4.08651 7.35138 4.07866 7.27487 4.10239L 4.83299 4.85991C 4.75678 4.88355 4.6743 4.87586 4.60378 4.83854L 0.635838 2.73871C 0.400219 2.61402 0.432116 2.26692 0.686515 2.18726L 7.5515 0.037643Z"/>
<path id="path45_fill" d="M 8.89404 2.13697C 9.12948 2.26156 9.09786 2.60833 8.84377 2.68829L 4.70202 3.99165C 4.62469 4.01598 4.54081 4.00799 4.46947 3.96948L 0.619879 1.89154C 0.387201 1.76594 0.418998 1.42259 0.670784 1.34187L 4.73565 0.0385668C 4.81256 0.0139058 4.89617 0.021302 4.96757 0.0590824L 8.89404 2.13697Z"/>
<path id="path46_fill" d="M 8.92307 2.14592C 9.1536 2.27036 9.12507 2.60978 8.87701 2.69399L 4.79514 4.07973C 4.71698 4.10626 4.63134 4.09942 4.55838 4.06081L 0.619922 1.97658C 0.386614 1.85312 0.414983 1.51025 0.66541 1.42681L 4.82442 0.0410234C 4.90299 0.0148449 4.98888 0.0223078 5.06175 0.0616444L 8.92307 2.14592Z"/>
<path id="path47_fill" d="M 8.89404 2.13697C 9.12948 2.26156 9.09786 2.60833 8.84377 2.68829L 4.70202 3.99165C 4.62469 4.01599 4.54081 4.00799 4.46947 3.96948L 0.619878 1.89154C 0.3872 1.76594 0.418997 1.4226 0.670783 1.34187L 4.73565 0.0385614C 4.81256 0.0139002 4.89617 0.0212965 4.96757 0.0590771L 8.89404 2.13697Z"/>
<path id="path48_fill" d="M 8.90873 2.13818C 9.14141 2.26378 9.10961 2.60712 8.85783 2.68785L 4.79296 3.99115C 4.71605 4.01581 4.63244 4.00842 4.56104 3.97064L 0.634569 1.89275C 0.39913 1.76816 0.430749 1.42139 0.684838 1.34143L 4.82659 0.0380627C 4.90391 0.013728 4.9878 0.021725 5.05914 0.0602324L 8.90873 2.13818Z"/>
<path id="path49_fill" d="M 8.90869 2.14472C 9.14199 2.26819 9.11362 2.61106 8.8632 2.6945L 4.70419 4.08027C 4.62562 4.10645 4.53973 4.09899 4.46686 4.05965L 0.605543 1.97538C 0.37501 1.85095 0.403534 1.51153 0.651603 1.42731L 4.73347 0.0415717C 4.81163 0.0150365 4.89727 0.0218791 4.97023 0.0604884L 8.90869 2.14472Z"/>
<path id="path50_fill" d="M 8.90873 2.13818C 9.14141 2.26378 9.10961 2.60713 8.85783 2.68785L 4.79296 3.99115C 4.71604 4.01581 4.63243 4.00842 4.56104 3.97064L 0.63457 1.89275C 0.399131 1.76816 0.430749 1.42139 0.684839 1.34143L 4.82659 0.0380642C 4.90391 0.0137295 4.9878 0.0217264 5.05914 0.0602338L 8.90873 2.13818Z"/>
<path id="path51_fill" d="M 8.89404 2.13697C 9.12948 2.26156 9.09786 2.60834 8.84377 2.68829L 4.70202 3.99165C 4.6247 4.01599 4.54081 4.00799 4.46947 3.96948L 0.61988 1.89154C 0.387202 1.76594 0.418999 1.4226 0.670785 1.34187L 4.73565 0.0385628C 4.81256 0.0139016 4.89617 0.0212979 4.96756 0.0590784L 8.89404 2.13697Z"/>
<path id="path52_fill" d="M 8.90873 2.13818C 9.14141 2.26377 9.10961 2.60712 8.85782 2.68785L 4.79038 3.99198C 4.71499 4.01615 4.6331 4.00955 4.56257 3.9736L 0.638493 1.9739C 0.401328 1.85304 0.427337 1.50613 0.679871 1.42199L 4.82442 0.0410261C 4.90298 0.0148477 4.98888 0.0223105 5.06175 0.0616469L 8.90873 2.13818Z"/>
<path id="path53_fill" d="M 8.89404 2.13697C 9.12948 2.26156 9.09786 2.60833 8.84377 2.68829L 4.70203 3.99165C 4.6247 4.01599 4.54081 4.00799 4.46947 3.96948L 0.619879 1.89154C 0.387201 1.76594 0.418999 1.42259 0.670785 1.34186L 4.73565 0.0385654C 4.81256 0.0139044 4.89617 0.0213006 4.96756 0.0590809L 8.89404 2.13697Z"/>
<path id="path54_fill" d="M 7.62933 2.13996C 7.86152 2.26529 7.83047 2.60775 7.57952 2.68927L 4.70323 3.62369C 4.62521 3.64904 4.54022 3.64133 4.46803 3.60236L 0.61659 1.52342C 0.384398 1.39809 0.415449 1.05563 0.666398 0.974106L 3.54269 0.0396839C 3.62071 0.0143388 3.7057 0.0220453 3.77788 0.0610096L 7.62933 2.13996Z"/>
<path id="path55_fill" d="M 8.83145 2.14592C 9.06198 2.27036 9.03346 2.60978 8.78539 2.69399L 4.70491 4.07926C 4.62593 4.10607 4.53936 4.09879 4.46597 4.05918L 0.605542 1.97538C 0.375009 1.85095 0.403533 1.51153 0.651602 1.42731L 4.73208 0.0420432C 4.81105 0.015232 4.89762 0.0225077 4.97102 0.062124L 8.83145 2.14592Z"/>
<path id="path56_fill" d="M 8.90873 2.13818C 9.14141 2.26378 9.10961 2.60713 8.85782 2.68785L 4.79296 3.99115C 4.71605 4.01581 4.63244 4.00842 4.56104 3.97064L 0.634569 1.89275C 0.39913 1.76816 0.430748 1.42139 0.684838 1.34143L 4.82658 0.0380642C 4.90391 0.0137295 4.9878 0.0217265 5.05913 0.0602338L 8.90873 2.13818Z"/>
<path id="path57_fill" d="M 38.5053 2.13973C 38.7375 2.2651 38.7064 2.60767 38.4553 2.68909L 4.79339 13.6069C 4.71623 13.632 4.63222 13.6247 4.56052 13.5867L 0.627522 11.5054C 0.3931 11.3813 0.423162 11.0364 0.675511 10.9548L 34.4192 0.0394638C 34.4971 0.0142575 34.582 0.0220041 34.654 0.060906L 38.5053 2.13973Z"/>
<path id="path58_fill" d="M 24.3969 6.80842C 24.3922 6.80966 24.3874 6.81099 24.3827 6.81239L 12.5844 10.3779C 12.5752 10.3807 12.566 10.383 12.5566 10.3848C 12.099 10.4712 11.2934 10.3796 10.7493 10.0231C 10.7418 10.0182 10.7342 10.0136 10.7264 10.0093L 0.481179 4.4316C 0.478099 4.42993 0.474908 4.42826 0.471776 4.42669C -0.0687384 4.1547 -0.161792 3.79409 0.280993 3.60985C 0.289016 3.60651 0.297478 3.60357 0.305797 3.60105L 12.0986 0.0372057C 12.1078 0.0344234 12.117 0.0320995 12.1264 0.0303151C 12.5844 -0.0561582 13.391 0.0356128 13.9351 0.39288C 13.9416 0.397194 13.9483 0.401287 13.9552 0.40512L 24.1088 6.07427C 24.1128 6.0765 24.117 6.07868 24.1211 6.08074C 24.6616 6.35331 24.7536 6.7142 24.3969 6.80842Z"/>
<path id="path59_fill" d="M 7.70479 2.13793C 7.93996 2.26239 7.90875 2.60868 7.6551 2.68907L 4.70229 3.62496C 4.62481 3.64952 4.54068 3.64158 4.46915 3.60297L 0.616592 1.52342C 0.3844 1.39809 0.415451 1.05563 0.666401 0.974104L 3.54408 0.0392372C 3.62128 0.0141572 3.70535 0.0214312 3.77709 0.0593988L 7.70479 2.13793Z"/>
<path id="path60_fill" d="M 12.1194 2.14031C 12.3515 2.26559 12.3206 2.60787 12.0698 2.68955L 4.70332 5.08891C 4.62525 5.11434 4.54017 5.10666 4.46791 5.06766L 0.615939 2.98842C 0.383843 2.86314 0.414747 2.52086 0.66553 2.43918L 8.03203 0.0398188C 8.1101 0.0143897 8.19519 0.0220718 8.26744 0.0610738L 12.1194 2.14031Z"/>
<path id="path61_fill" d="M 8.89404 2.13697C 9.12948 2.26156 9.09786 2.60833 8.84377 2.68829L 4.70202 3.99165C 4.6247 4.01599 4.54081 4.00799 4.46947 3.96948L 0.619879 1.89154C 0.387201 1.76594 0.418998 1.4226 0.670784 1.34187L 4.73565 0.0385615C 4.81256 0.0139004 4.89617 0.0212965 4.96757 0.0590771L 8.89404 2.13697Z"/>
<path id="path62_fill" d="M 8.90479 2.05694C 9.13923 2.1788 9.11306 2.52227 8.86287 2.60721L 4.79514 3.98814C 4.71698 4.01468 4.63134 4.00784 4.55838 3.96923L 0.63457 1.89275C 0.399131 1.76816 0.430749 1.42139 0.684839 1.34143L 4.82921 0.0372371C 4.90499 0.0133898 4.98714 0.0205743 5.05763 0.0572144L 8.90479 2.05694Z"/>
<path id="path63_fill" d="M 8.89404 2.13697C 9.12948 2.26156 9.09786 2.60834 8.84377 2.68829L 4.70202 3.99165C 4.6247 4.01599 4.54081 4.00799 4.46947 3.96948L 0.61988 1.89154C 0.387202 1.76594 0.418999 1.4226 0.670785 1.34187L 4.73565 0.0385628C 4.81256 0.0139016 4.89617 0.0212979 4.96757 0.0590785L 8.89404 2.13697Z"/>
<path id="path64_fill" d="M 8.90873 2.13818C 9.14141 2.26378 9.10961 2.60713 8.85782 2.68785L 4.79296 3.99115C 4.71605 4.01581 4.63244 4.00842 4.56105 3.97064L 0.634567 1.89275C 0.399128 1.76816 0.430747 1.42139 0.684836 1.34143L 4.82658 0.0380642C 4.90391 0.0137295 4.9878 0.0217264 5.05914 0.0602338L 8.90873 2.13818Z"/>
<path id="path65_fill" d="M 8.90869 2.14472C 9.14199 2.26818 9.11363 2.61105 8.8632 2.69449L 4.70419 4.08028C 4.62562 4.10645 4.53973 4.09899 4.46685 4.05965L 0.605541 1.97538C 0.375007 1.85095 0.403532 1.51153 0.651601 1.42731L 4.73347 0.041573C 4.81163 0.0150379 4.89727 0.0218804 4.97023 0.0604895L 8.90869 2.14472Z"/>
<path id="path66_fill" d="M 8.90873 2.13818C 9.14141 2.26377 9.10961 2.60712 8.85783 2.68785L 4.79296 3.99115C 4.71604 4.01582 4.63243 4.00842 4.56104 3.97064L 0.634571 1.89275C 0.399132 1.76815 0.430751 1.42138 0.68484 1.34142L 4.82659 0.0380652C 4.90392 0.0137307 4.9878 0.0217277 5.05914 0.0602349L 8.90873 2.13818Z"/>
<path id="path67_fill" d="M 16.1409 2.14159C 16.375 2.26552 16.3454 2.60998 16.0934 2.69201L 4.79355 6.37156C 4.7163 6.39671 4.63215 6.38946 4.56034 6.35146L 0.625824 4.26932C 0.391649 4.14539 0.421334 3.80093 0.673259 3.7189L 11.9731 0.0393575C 12.0504 0.0142025 12.1345 0.0214545 12.2064 0.0594554L 16.1409 2.14159Z"/>
<path id="path68_fill" d="M 8.90873 2.13818C 9.14141 2.26378 9.10961 2.60712 8.85783 2.68785L 4.79296 3.99116C 4.71604 4.01582 4.63243 4.00842 4.56104 3.97064L 0.634569 1.89275C 0.399131 1.76815 0.430749 1.42138 0.684839 1.34142L 4.82659 0.0380667C 4.90391 0.0137322 4.9878 0.0217291 5.05914 0.0602363L 8.90873 2.13818Z"/>
<path id="path69_fill" d="M 8.90869 2.14472C 9.142 2.26819 9.11363 2.61105 8.8632 2.6945L 4.70419 4.08028C 4.62562 4.10646 4.53973 4.09899 4.46686 4.05966L 0.605543 1.97538C 0.37501 1.85094 0.403535 1.51153 0.651604 1.42731L 4.73346 0.0415755C 4.81163 0.0150405 4.89727 0.0218832 4.97023 0.0604921L 8.90869 2.14472Z"/>
<path id="path70_fill" d="M 8.90873 2.13818C 9.14141 2.26378 9.10961 2.60712 8.85782 2.68785L 4.79296 3.99115C 4.71605 4.01581 4.63244 4.00841 4.56105 3.97063L 0.634569 1.89275C 0.39913 1.76816 0.430748 1.42138 0.684838 1.34143L 4.82658 0.0380681C 4.90391 0.0137336 4.9878 0.0217305 5.05914 0.0602377L 8.90873 2.13818Z"/>
<path id="path71_fill" d="M 8.89404 2.13697C 9.12948 2.26156 9.09786 2.60833 8.84377 2.68829L 4.70202 3.99165C 4.62469 4.01598 4.54081 4.00799 4.46947 3.96948L 0.619878 1.89154C 0.3872 1.76594 0.418998 1.42259 0.670784 1.34187L 4.73565 0.0385668C 4.81256 0.0139058 4.89617 0.021302 4.96757 0.0590824L 8.89404 2.13697Z"/>
<path id="path72_fill" d="M 8.92307 2.14592C 9.1536 2.27036 9.12508 2.60978 8.87701 2.69399L 4.79514 4.07973C 4.71698 4.10626 4.63134 4.09942 4.55838 4.06081L 0.619923 1.97658C 0.386616 1.85312 0.414984 1.51025 0.665411 1.42681L 4.82442 0.0410234C 4.90299 0.0148449 4.98888 0.0223078 5.06176 0.0616443L 8.92307 2.14592Z"/>
<path id="path73_fill" d="M 8.89404 2.13697C 9.12948 2.26156 9.09786 2.60833 8.84377 2.68829L 4.70203 3.99165C 4.6247 4.01599 4.54081 4.00799 4.46947 3.96948L 0.619881 1.89154C 0.387203 1.76594 0.419 1.4226 0.670786 1.34187L 4.73565 0.0385615C 4.81256 0.0139003 4.89617 0.0212966 4.96756 0.0590772L 8.89404 2.13697Z"/>
<path id="path74_fill" d="M 8.90873 2.13818C 9.14141 2.26377 9.10961 2.60712 8.85782 2.68785L 4.79296 3.99115C 4.71604 4.01582 4.63243 4.00842 4.56104 3.97064L 0.634568 1.89275C 0.399129 1.76815 0.430748 1.42138 0.684838 1.34142L 4.82658 0.0380653C 4.90391 0.0137308 4.9878 0.0217277 5.05914 0.0602349L 8.90873 2.13818Z"/>
<path id="path75_fill" d="M 8.90873 2.13818C 9.14141 2.26378 9.10961 2.60713 8.85783 2.68785L 4.79296 3.99115C 4.71605 4.01581 4.63243 4.00842 4.56104 3.97064L 0.634571 1.89275C 0.399132 1.76816 0.43075 1.42139 0.68484 1.34143L 4.82659 0.0380642C 4.90392 0.0137295 4.9878 0.0217264 5.05914 0.0602338L 8.90873 2.13818Z"/>
<path id="path76_fill" d="M 8.90479 2.05694C 9.13922 2.1788 9.11305 2.52227 8.86287 2.6072L 4.79514 3.98815C 4.71698 4.01468 4.63134 4.00784 4.55838 3.96923L 0.634571 1.89275C 0.399133 1.76815 0.430752 1.42138 0.684841 1.34142L 4.82921 0.0372397C 4.90499 0.0133926 4.98713 0.020577 5.05762 0.0572169L 8.90479 2.05694Z"/>
<path id="path77_fill" d="M 8.89011 2.05582C 9.12728 2.17668 9.10127 2.52359 8.84873 2.60773L 4.70419 3.98869C 4.62562 4.01487 4.53973 4.00741 4.46685 3.96807L 0.619876 1.89154C 0.387198 1.76594 0.418995 1.4226 0.670781 1.34187L 4.73824 0.0377319C 4.81362 0.0135608 4.89551 0.020168 4.96604 0.0561133L 8.89011 2.05582Z"/>
<path id="path78_fill" d="M 8.89404 2.13697C 9.12948 2.26156 9.09786 2.60833 8.84377 2.68829L 4.6994 3.99248C 4.62362 4.01633 4.54147 4.00914 4.47098 3.9725L 0.623817 1.97277C 0.389385 1.85092 0.415553 1.50744 0.665739 1.42251L 4.73347 0.0415741C 4.81163 0.0150392 4.89727 0.0218818 4.97023 0.0604908L 8.89404 2.13697Z"/>
<path id="path79_fill" d="M 8.90873 2.13818C 9.14141 2.26377 9.10961 2.60712 8.85782 2.68785L 4.79296 3.99115C 4.71605 4.01582 4.63244 4.00842 4.56104 3.97064L 0.634571 1.89275C 0.399133 1.76815 0.430752 1.42138 0.684841 1.34142L 4.82658 0.0380654C 4.90391 0.0137309 4.9878 0.0217277 5.05913 0.0602349L 8.90873 2.13818Z"/>
<path id="path80_fill" d="M 8.90873 2.13818C 9.14141 2.26378 9.10961 2.60712 8.85782 2.68785L 4.79296 3.99116C 4.71605 4.01582 4.63244 4.00842 4.56105 3.97064L 0.634567 1.89275C 0.399129 1.76815 0.430747 1.42138 0.684837 1.34142L 4.82658 0.0380667C 4.90391 0.0137322 4.9878 0.0217291 5.05914 0.0602363L 8.90873 2.13818Z"/>
<path id="path81_fill" d="M 8.81711 2.13818C 9.04979 2.26378 9.01799 2.60713 8.7662 2.68785L 4.70272 3.99071C 4.62499 4.01563 4.54046 4.0078 4.46863 3.96903L 0.619877 1.89154C 0.387199 1.76594 0.418996 1.4226 0.670782 1.34187L 4.73426 0.0390074C 4.81199 0.0140846 4.89653 0.0219131 4.96836 0.0606873L 8.81711 2.13818Z"/>
<path id="path82_fill" d="M 7.48435 0.037643C 7.56124 0.0135659 7.64459 0.0214314 7.71562 0.0594682L 19.8077 6.53476C 20.0412 6.65981 20.0099 7.00403 19.7577 7.0849L 15.6964 8.38704C 15.6192 8.4118 15.5352 8.40424 15.4637 8.36609L 7.44016 4.08861C 7.36947 4.05092 7.28665 4.04307 7.21014 4.06681L 4.79173 4.81705C 4.71552 4.84069 4.63304 4.833 4.56252 4.79568L 0.635839 2.71768C 0.400219 2.59299 0.432116 2.24589 0.686515 2.16623L 7.48435 0.037643Z"/>
<path id="path83_fill" d="M 0.930873 8.3582L 19.4913 2.40358C 20.84 1.98358 23.3969 2.34121 25.1669 3.34895L 61.594 22.8499L 0.930873 8.3582Z"/>
<path id="path84_fill" d="M 0.0325398 7.01774C 0.0516407 8.21283 -0.244257 9.65203 0.642681 10.2754C 1.60932 10.8975 1.36766 10.742 1.68903 10.8962C 3.05547 11.5917 38.1161 30.3972 38.1161 30.3972C 39.8849 31.3252 42.4431 31.7625 43.7917 31.3425L 62.2712 25.3095C 63.1416 24.8971 63.1187 23.463 63.0996 22.2679L 21.5383 0.777008L 0.0325398 7.01774Z"/>
<path id="path85_fill" d="M 62.2342 22.999L 43.6737 28.9536C 42.3251 29.3736 39.7682 29.016 37.9982 28.0083L 1.65205 8.58575C -0.116737 7.65768 -0.453383 6.54735 0.895229 6.12735L 19.4557 0.172732C 20.8043 -0.24727 23.3612 0.110361 25.1313 1.1181L 61.5584 20.619C 63.3259 21.4674 63.5828 22.579 62.2342 22.999Z"/>
<path id="path86_fill" d="M 55.8726 19.0363L 37.9982 23.0764L 5.3274 9.08491L 25.2352 2.63062L 55.8726 19.0363Z"/>
<path id="path87_fill" d="M 8.94155 5.75979C 9.10223 5.83691 9.10478 5.99626 8.94537 5.9988C 8.78724 6.08102 8.46714 6.00644 8.30646 5.92931C 8.14578 5.85219 8.14323 5.69284 8.30264 5.6903C 8.46078 5.60808 8.78087 5.68266 8.94155 5.75979Z"/>
<path id="path88_fill" d="M 50.6038 23.5832C 51.5691 24.1256 51.8184 24.7592 51.0252 25.011C 50.232 25.2627 48.7935 25.0466 47.8281 24.5042C 46.8627 23.9617 46.6134 23.3282 47.4067 23.0764C 48.1999 22.8247 49.6384 23.0408 50.6038 23.5832Z"/>
<path id="path89_fill" d="M -1.90055e-08 5.80948L 18.6533 0.151994C 20.0084 -0.246421 22.5593 0.151994 24.313 1.18787L 60.4238 21.268"/>
<path id="path90_stroke" d="M 18.6533 0.151994L 18.5122 -0.327722L 18.5081 -0.326483L 18.6533 0.151994ZM 24.313 1.18787L 24.0586 1.61852L 24.07 1.62485L 24.313 1.18787ZM 0.145121 6.28795L 18.7984 0.630471L 18.5081 -0.326483L -0.145121 5.331L 0.145121 6.28795ZM 18.7943 0.631692C 19.3683 0.462929 20.2588 0.451878 21.2476 0.624614C 22.227 0.795692 23.2436 1.13688 24.0587 1.61838L 24.5673 0.757363C 23.6287 0.202982 22.493 -0.172973 21.4197 -0.360468C 20.3559 -0.546305 19.2934 -0.557356 18.5122 -0.327704L 18.7943 0.631692ZM 24.07 1.62485L 60.1808 21.7049L 60.6668 20.831L 24.556 0.750888L 24.07 1.62485Z"/>
<path id="path91_fill" d="M 0.0565291 5.89653C 0.0565291 7.09177 -0.26233 8.52607 0.614533 9.16353C 1.57111 9.80099 1.33197 9.64163 1.65082 9.80099C 3.00598 10.5181 37.7616 29.8811 37.7616 29.8811C 39.5154 30.8373 42.0662 31.3154 43.4214 30.917L 61.9949 25.1798C 62.8718 24.7814 62.8718 23.3471 62.8718 22.1518L 21.6592 -3.79958e-08L 0.0565291 5.89653Z"/>
<path id="path92_fill" d="M 61.9009 23.6584L 43.2476 29.3159C 41.8925 29.7143 39.3416 29.3159 37.5879 28.28L 1.55679 8.27965C -0.196933 7.32345 -0.515792 6.20789 0.839359 5.80948L 19.4926 0.151994C 20.8478 -0.246421 23.3986 0.151994 25.1524 1.18787L 61.2632 21.268C 63.0169 22.1445 63.2561 23.26 61.9009 23.6584Z"/>
<path id="path93_fill" d="M 50.3797 16.8928L 30.2916 22.9487L 7.6022e-08 6.13558L 20.0084 3.79958e-08L 50.3797 16.8928Z"/>
<path id="path94_fill" d="M 0.757291 0.112689C 0.91672 0.192372 0.91672 0.351737 0.757291 0.351737C 0.597861 0.43142 0.279002 0.351737 0.119572 0.272054C -0.0398576 0.192371 -0.0398576 0.0330056 0.119572 0.0330056C 0.279002 -0.0466773 0.597861 0.0330059 0.757291 0.112689Z"/>
<path id="path95_stroke" d="M -0.145188 0.876152C -0.409432 0.956337 -0.558642 1.23555 -0.478457 1.4998C -0.398272 1.76404 -0.119057 1.91325 0.145187 1.83307L -0.145188 0.876152ZM 4.60922 0.478456C 4.87346 0.398272 5.02267 0.119057 4.94249 -0.145188C 4.8623 -0.409432 4.58309 -0.558641 4.31884 -0.478457L 4.60922 0.478456ZM 0.145187 1.83307L 4.60922 0.478456L 4.31884 -0.478457L -0.145188 0.876152L 0.145187 1.83307Z"/>
<path id="path96_fill" d="M 3.66846 0.650083C 4.62504 1.20786 4.86418 1.84533 4.06703 2.08437C 3.26989 2.32342 1.83502 2.08438 0.878442 1.5266C -0.0781357 0.968815 -0.31728 0.331351 0.479868 0.0923027C 1.27702 -0.146746 2.71188 0.0923033 3.66846 0.650083Z"/>
</defs>
</svg>
